<svg width="106" height="112" viewBox="0 0 106 112" fill="none" xmlns="http://www.w3.org/2000/svg">
<path d="M98.0186 87.8917C95.4623 85.7726 81.7937 83.9479 53.9839 89.4214C42.4616 91.271 21.9069 92.1937 17.9527 96.6093C15.2667 99.6087 16.0601 102.801 16.226 104.879C16.392 106.956 20.5664 109.411 26.4962 108.937C32.4261 108.464 33.778 110.447 42.4382 109.291C51.0984 108.134 57.782 107.136 71.9583 105.307C86.1345 103.477 88.1111 103.32 98.9589 99.6653C109.807 96.011 100.575 90.0109 98.0186 87.8917Z" fill="#F4AB1E"/>
<path d="M56.7283 88.512L56.2913 87.1935L56.7283 88.512ZM58.5895 88.1038L58.7428 89.4844L58.5895 88.1038ZM60.4825 87.8936L60.3292 86.513L60.4825 87.8936ZM64.276 87.4587L64.1161 86.0788L64.276 87.4587ZM66.1543 87.1083L66.5023 88.4531L66.1543 87.1083ZM69.9007 86.3792L69.9118 87.7682L69.9007 86.3792ZM73.735 86.3948L73.6793 87.7827L73.735 86.3948ZM75.652 86.4717L75.7077 85.0838L75.652 86.4717ZM81.3212 85.6891L81.42 84.3036L81.3212 85.6891ZM83.2275 85.8249L83.1288 87.2105L83.2275 85.8249ZM85.1272 85.9944L84.9789 87.3756L85.1272 85.9944ZM87.0202 86.1975L87.1684 84.8164L87.0202 86.1975ZM88.9048 86.4078L88.7449 87.7877L88.9048 86.4078ZM90.7808 86.6252L90.9407 85.2454L90.7808 86.6252ZM92.638 86.8767L92.4249 88.2493L92.638 86.8767ZM94.4763 87.1621L94.6894 85.7894L94.4763 87.1621ZM98.3287 87.8078L98.0939 89.1769L98.3287 87.8078ZM99.9458 88.7086L98.899 89.6216L99.9458 88.7086ZM100.585 89.4416L101.632 88.5285L100.585 89.4416ZM102.455 91.6815L101.352 92.5249L102.455 91.6815ZM103.047 92.4553L101.943 93.2988L103.047 92.4553ZM103.638 93.2291L104.742 92.3857L103.638 93.2291ZM103.816 94.7816L102.589 94.1307L103.816 94.7816ZM103.403 95.5603L104.63 96.2112L103.403 95.5603ZM102.99 96.3389L101.763 95.688L102.99 96.3389ZM101.798 97.541L102.461 98.7616L101.798 97.541ZM101.018 97.9644L100.355 96.7438L101.018 97.9644ZM100.239 98.3879L100.902 99.6085L100.239 98.3879ZM98.5782 99.163L98.0631 97.8729L98.5782 99.163ZM96.8162 99.8664L96.3012 98.5763L96.8162 99.8664ZM95.019 100.465L95.3802 101.806L95.019 100.465ZM93.1867 100.958L92.8256 99.6168L93.1867 100.958ZM91.3967 101.607L90.8153 100.346L91.3967 101.607ZM89.6491 102.413L90.2305 103.674L89.6491 102.413ZM87.808 102.81L87.8156 101.421L87.808 102.81ZM85.8733 102.8L85.8657 104.189L85.8733 102.8ZM82.1971 103.885L81.6783 102.596L82.1971 103.885ZM80.3624 104.462L80.6723 105.816L80.3624 104.462ZM78.4989 104.888L78.1889 103.534L78.4989 104.888ZM76.6109 105.123L76.5791 103.735L76.6109 105.123ZM75.6546 105.145L75.6864 106.534L75.6546 105.145ZM74.6983 105.167L74.7301 106.556L74.6983 105.167ZM72.8099 105.425L73.1502 106.771L72.8099 105.425ZM70.9456 105.896L71.2859 107.242L70.9456 105.896ZM69.0534 106.124L69.064 104.735L69.0534 106.124ZM67.1331 106.109L67.1224 107.498L67.1331 106.109ZM65.2432 106.324L64.92 104.973L65.2432 106.324ZM64.3134 106.547L63.9902 105.196L64.3134 106.547ZM63.3836 106.769L63.7068 108.12L63.3836 106.769ZM61.5093 107.103L61.3469 105.723L61.5093 107.103ZM60.5648 107.214L60.4024 105.834L60.5648 107.214ZM59.6202 107.325L59.7826 108.704L59.6202 107.325ZM57.7329 107.565L57.5445 106.189L57.7329 107.565ZM55.8471 107.823L55.6587 106.447L55.8471 107.823ZM53.9298 107.849L53.7837 109.23L53.9298 107.849ZM52.9555 107.746L53.1016 106.365L52.9555 107.746ZM51.9811 107.643L51.8349 109.024L51.9811 107.643ZM50.0859 107.828L50.5003 109.153L50.0859 107.828ZM48.2444 108.403L47.8301 107.077L48.2444 108.403ZM46.3955 108.926L46.0539 107.58L46.3955 108.926ZM42.655 109.717L42.533 108.333L42.655 109.717ZM40.7432 109.886L40.8653 111.269L40.7432 109.886ZM35.0043 109.881L34.4413 111.151L35.0043 109.881ZM33.1711 109.069L33.7341 107.799L33.1711 109.069ZM31.2885 108.817L31.0691 107.445L31.2885 108.817ZM27.4415 109.131L27.2251 110.503L27.4415 109.131ZM21.8864 108.093L21.5914 109.45L21.8864 108.093ZM20.1952 107.502L19.5727 108.743L20.1952 107.502ZM19.4066 107.106L20.0291 105.864L19.4066 107.106ZM18.618 106.711L17.9955 107.953L18.618 106.711ZM17.2182 105.604L18.2719 104.699L17.2182 105.604ZM15.5573 101.472L14.1734 101.352L15.5573 101.472ZM18.6769 95.5411L18.1001 94.2774L18.6769 95.5411ZM23.2996 94.0236L23.1001 92.649L23.2996 94.0236ZM26.1352 93.5717L25.878 92.2066L26.1352 93.5717ZM29.8625 92.8614L29.594 91.4985L29.8625 92.8614ZM31.7273 92.494L31.9958 93.8569L31.7273 92.494ZM34.5755 92.2984L34.5841 93.6875L34.5755 92.2984ZM37.4126 91.9844L36.9796 90.6645L37.4126 91.9844ZM50.5836 89.9285L50.6316 91.3167L50.5836 89.9285ZM52.15 89.7769L51.8856 88.4132L52.15 89.7769ZM53.3726 89.5399L53.637 90.9036L53.3726 89.5399ZM55.8135 88.8152L56.2504 90.1337L57.1652 89.8306L56.7283 88.512L56.2913 87.1935L55.3765 87.4966L55.8135 88.8152ZM56.7283 88.512L57.1652 89.8306C57.6841 89.6586 58.2095 89.5436 58.7428 89.4844L58.5895 88.1038L58.4362 86.7232C57.7076 86.8041 56.9922 86.9612 56.2913 87.1935L56.7283 88.512ZM58.5895 88.1038L58.7428 89.4844L59.6893 89.3793L59.536 87.9987L59.3827 86.6181L58.4362 86.7232L58.5895 88.1038ZM59.536 87.9987L59.6893 89.3793L60.6358 89.2742L60.4825 87.8936L60.3292 86.513L59.3827 86.6181L59.536 87.9987ZM60.4825 87.8936L60.6358 89.2742C61.2689 89.2038 61.9029 89.1319 62.5378 89.0584L62.378 87.6785L62.2181 86.2987C61.5876 86.3717 60.958 86.4431 60.3292 86.513L60.4825 87.8936ZM62.378 87.6785L62.5378 89.0584L63.4868 88.9485L63.327 87.5686L63.1671 86.1888L62.2181 86.2987L62.378 87.6785ZM63.327 87.5686L63.4868 88.9485L64.4358 88.8385L64.276 87.4587L64.1161 86.0788L63.1671 86.1888L63.327 87.5686ZM64.276 87.4587L64.4358 88.8385C65.1322 88.7579 65.8212 88.6293 66.5023 88.4531L66.1543 87.1083L65.8063 85.7635C65.2483 85.9079 64.6851 86.0129 64.1161 86.0788L64.276 87.4587ZM66.1543 87.1083L66.5023 88.4531L67.4315 88.2126L67.0836 86.8678L66.7356 85.523L65.8063 85.7635L66.1543 87.1083ZM67.0836 86.8678L67.4315 88.2126L68.3608 87.9721L68.0128 86.6273L67.6649 85.2825L66.7356 85.523L67.0836 86.8678ZM68.0128 86.6273L68.3608 87.9721C68.8704 87.8402 69.3866 87.7724 69.9118 87.7682L69.9007 86.3792L69.8897 84.9902C69.1367 84.9962 68.3943 85.0938 67.6649 85.2825L68.0128 86.6273ZM69.9007 86.3792L69.9118 87.7682L70.8704 87.7606L70.8593 86.3716L70.8483 84.9825L69.8897 84.9902L69.9007 86.3792ZM70.8593 86.3716L70.8704 87.7606L71.829 87.753L71.8179 86.3639L71.8068 84.9749L70.8483 84.9825L70.8593 86.3716ZM71.8179 86.3639L71.829 87.753C72.4458 87.7481 73.0625 87.758 73.6793 87.7827L73.735 86.3948L73.7907 85.0068C73.1295 84.9803 72.4682 84.9696 71.8068 84.9749L71.8179 86.3639ZM73.735 86.3948L73.6793 87.7827L74.6378 87.8212L74.6935 86.4332L74.7492 85.0453L73.7907 85.0068L73.735 86.3948ZM74.6935 86.4332L74.6378 87.8212L75.5963 87.8597L75.652 86.4717L75.7077 85.0838L74.7492 85.0453L74.6935 86.4332ZM75.652 86.4717L75.5963 87.8597C76.3624 87.8904 77.1213 87.8168 77.8697 87.6397L77.5499 86.2879L77.2301 84.9362C76.726 85.0554 76.2197 85.1043 75.7077 85.0838L75.652 86.4717ZM77.5499 86.2879L77.8697 87.6397L78.8091 87.4175L78.4893 86.0657L78.1695 84.7139L77.2301 84.9362L77.5499 86.2879ZM78.4893 86.0657L78.8091 87.4175L79.7485 87.1952L79.4287 85.8435L79.1089 84.4917L78.1695 84.7139L78.4893 86.0657ZM79.4287 85.8435L79.7485 87.1952C80.2392 87.0791 80.729 87.0395 81.2225 87.0747L81.3212 85.6891L81.42 84.3036C80.6427 84.2482 79.8708 84.3115 79.1089 84.4917L79.4287 85.8435ZM81.3212 85.6891L81.2225 87.0747L82.1757 87.1426L82.2744 85.757L82.3731 84.3715L81.42 84.3036L81.3212 85.6891ZM82.2744 85.757L82.1757 87.1426L83.1288 87.2105L83.2275 85.8249L83.3262 84.4394L82.3731 84.3715L82.2744 85.757ZM83.2275 85.8249L83.1288 87.2105C83.7477 87.2546 84.3645 87.3096 84.9789 87.3756L85.1272 85.9944L85.2754 84.6133C84.6278 84.5438 83.9781 84.4858 83.3262 84.4394L83.2275 85.8249ZM85.1272 85.9944L84.9789 87.3756L85.9255 87.4771L86.0737 86.096L86.2219 84.7148L85.2754 84.6133L85.1272 85.9944ZM86.0737 86.096L85.9255 87.4771L86.872 87.5787L87.0202 86.1975L87.1684 84.8164L86.2219 84.7148L86.0737 86.096ZM87.0202 86.1975L86.872 87.5787C87.4992 87.646 88.1235 87.7156 88.7449 87.7877L88.9048 86.4078L89.0647 85.028C88.4354 84.9551 87.8033 84.8845 87.1684 84.8164L87.0202 86.1975ZM88.9048 86.4078L88.7449 87.7877L89.6829 87.8964L89.8428 86.5165L90.0027 85.1367L89.0647 85.028L88.9048 86.4078ZM89.8428 86.5165L89.6829 87.8964L90.6209 88.0051L90.7808 86.6252L90.9407 85.2454L90.0027 85.1367L89.8428 86.5165ZM90.7808 86.6252L90.6209 88.0051C91.2287 88.0755 91.83 88.1569 92.4249 88.2493L92.638 86.8767L92.8511 85.504C92.2203 85.4061 91.5835 85.3199 90.9407 85.2454L90.7808 86.6252ZM92.638 86.8767L92.4249 88.2493L93.344 88.392L93.5571 87.0194L93.7702 85.6467L92.8511 85.504L92.638 86.8767ZM93.5571 87.0194L93.344 88.392L94.2632 88.5347L94.4763 87.1621L94.6894 85.7894L93.7702 85.6467L93.5571 87.0194ZM94.4763 87.1621L94.2632 88.5347C94.8683 88.6286 95.4933 88.7309 96.1384 88.8415L96.3732 87.4724L96.608 86.1034C95.9494 85.9904 95.3099 85.8857 94.6894 85.7894L94.4763 87.1621ZM96.3732 87.4724L96.1384 88.8415L97.1161 89.0092L97.351 87.6401L97.5858 86.2711L96.608 86.1034L96.3732 87.4724ZM97.351 87.6401L97.1161 89.0092L98.0939 89.1769L98.3287 87.8078L98.5635 86.4388L97.5858 86.2711L97.351 87.6401ZM98.3287 87.8078L98.0939 89.1769C98.4375 89.2359 98.6874 89.379 98.899 89.6216L99.9458 88.7086L100.993 87.7955C100.352 87.0607 99.5236 86.6034 98.5635 86.4388L98.3287 87.8078ZM99.9458 88.7086L98.899 89.6216L99.5383 90.3546L100.585 89.4416L101.632 88.5285L100.993 87.7955L99.9458 88.7086ZM100.585 89.4416L99.5383 90.3546L100.178 91.0877L101.225 90.1746L102.271 89.2615L101.632 88.5285L100.585 89.4416ZM101.225 90.1746L100.178 91.0877C100.584 91.5537 100.975 92.0328 101.352 92.5249L102.455 91.6815L103.559 90.838C103.147 90.2983 102.717 89.7728 102.271 89.2615L101.225 90.1746ZM102.455 91.6815L101.352 92.5249L101.943 93.2988L103.047 92.4553L104.15 91.6118L103.559 90.838L102.455 91.6815ZM103.047 92.4553L101.943 93.2988L102.534 94.0726L103.638 93.2291L104.742 92.3857L104.15 91.6118L103.047 92.4553ZM103.638 93.2291L102.534 94.0726C102.576 94.1265 102.593 94.1608 102.599 94.1748C102.605 94.1874 102.601 94.1823 102.598 94.1627C102.596 94.1423 102.597 94.1226 102.6 94.1094C102.603 94.0975 102.603 94.1041 102.589 94.1307L103.816 94.7816L105.043 95.4326C105.295 94.9578 105.424 94.4184 105.358 93.8456C105.294 93.2833 105.054 92.7941 104.742 92.3857L103.638 93.2291ZM103.816 94.7816L102.589 94.1307L102.176 94.9094L103.403 95.5603L104.63 96.2112L105.043 95.4326L103.816 94.7816ZM103.403 95.5603L102.176 94.9094L101.763 95.688L102.99 96.3389L104.217 96.9899L104.63 96.2112L103.403 95.5603ZM102.99 96.3389L101.763 95.688C101.617 95.9642 101.416 96.1675 101.135 96.3204L101.798 97.541L102.461 98.7616C103.219 98.3499 103.813 97.7518 104.217 96.9899L102.99 96.3389ZM101.798 97.541L101.135 96.3204L100.355 96.7438L101.018 97.9644L101.681 99.1851L102.461 98.7616L101.798 97.541ZM101.018 97.9644L100.355 96.7438L99.5756 97.1672L100.239 98.3879L100.902 99.6085L101.681 99.1851L101.018 97.9644ZM100.239 98.3879L99.5756 97.1672C99.1071 97.4218 98.6033 97.6573 98.0631 97.8729L98.5782 99.163L99.0932 100.453C99.7277 100.2 100.331 99.9185 100.902 99.6085L100.239 98.3879ZM98.5782 99.163L98.0631 97.8729L97.1822 98.2246L97.6972 99.5147L98.2122 100.805L99.0932 100.453L98.5782 99.163ZM97.6972 99.5147L97.1822 98.2246L96.3012 98.5763L96.8162 99.8664L97.3312 101.156L98.2122 100.805L97.6972 99.5147ZM96.8162 99.8664L96.3012 98.5763C95.7641 98.7907 95.2165 98.9731 94.6579 99.1235L95.019 100.465L95.3802 101.806C96.0432 101.628 96.6936 101.411 97.3312 101.156L96.8162 99.8664ZM95.019 100.465L94.6579 99.1235L93.7417 99.3701L94.1029 100.711L94.464 102.053L95.3802 101.806L95.019 100.465ZM94.1029 100.711L93.7417 99.3701L92.8256 99.6168L93.1867 100.958L93.5478 102.299L94.464 102.053L94.1029 100.711ZM93.1867 100.958L92.8256 99.6168C92.1382 99.8019 91.4679 100.045 90.8153 100.346L91.3967 101.607L91.9781 102.869C92.4906 102.633 93.0136 102.443 93.5478 102.299L93.1867 100.958ZM91.3967 101.607L90.8153 100.346L89.9415 100.749L90.5229 102.01L91.1043 103.272L91.9781 102.869L91.3967 101.607ZM90.5229 102.01L89.9415 100.749L89.0677 101.151L89.6491 102.413L90.2305 103.674L91.1043 103.272L90.5229 102.01ZM89.6491 102.413L89.0677 101.151C88.6709 101.334 88.2584 101.424 87.8156 101.421L87.808 102.81L87.8004 104.199C88.6474 104.204 89.4623 104.028 90.2305 103.674L89.6491 102.413ZM87.808 102.81L87.8156 101.421L86.8483 101.416L86.8407 102.805L86.833 104.194L87.8004 104.199L87.808 102.81ZM86.8407 102.805L86.8483 101.416L85.881 101.411L85.8733 102.8L85.8657 104.189L86.833 104.194L86.8407 102.805ZM85.8733 102.8L85.881 101.411C85.0546 101.406 84.2524 101.56 83.4843 101.869L84.003 103.158L84.5217 104.446C84.9575 104.271 85.4023 104.186 85.8657 104.189L85.8733 102.8ZM84.003 103.158L83.4843 101.869L82.5813 102.233L83.1 103.521L83.6188 104.81L84.5217 104.446L84.003 103.158ZM83.1 103.521L82.5813 102.233L81.6783 102.596L82.1971 103.885L82.7158 105.173L83.6188 104.81L83.1 103.521ZM82.1971 103.885L81.6783 102.596C81.1429 102.812 80.601 102.982 80.0524 103.108L80.3624 104.462L80.6723 105.816C81.366 105.657 82.0473 105.442 82.7158 105.173L82.1971 103.885ZM80.3624 104.462L80.0524 103.108L79.1206 103.321L79.4306 104.675L79.7406 106.029L80.6723 105.816L80.3624 104.462ZM79.4306 104.675L79.1206 103.321L78.1889 103.534L78.4989 104.888L78.8089 106.242L79.7406 106.029L79.4306 104.675ZM78.4989 104.888L78.1889 103.534C77.6591 103.655 77.123 103.722 76.5791 103.735L76.6109 105.123L76.6427 106.512C77.3738 106.495 78.0963 106.405 78.8089 106.242L78.4989 104.888ZM76.6109 105.123L76.5791 103.735L75.6228 103.757L75.6546 105.145L75.6864 106.534L76.6427 106.512L76.6109 105.123ZM75.6546 105.145L75.6228 103.757L74.6665 103.779L74.6983 105.167L74.7301 106.556L75.6864 106.534L75.6546 105.145ZM74.6983 105.167L74.6665 103.779C73.9244 103.796 73.1914 103.896 72.4696 104.078L72.8099 105.425L73.1502 106.771C73.6712 106.64 74.1972 106.568 74.7301 106.556L74.6983 105.167ZM72.8099 105.425L72.4696 104.078L71.5375 104.313L71.8778 105.66L72.218 107.007L73.1502 106.771L72.8099 105.425ZM71.8778 105.66L71.5375 104.313L70.6053 104.549L70.9456 105.896L71.2859 107.242L72.218 107.007L71.8778 105.66ZM70.9456 105.896L70.6053 104.549C70.0985 104.677 69.5857 104.739 69.064 104.735L69.0534 106.124L69.0427 107.513C69.8012 107.519 70.5499 107.428 71.2859 107.242L70.9456 105.896ZM69.0534 106.124L69.064 104.735L68.1039 104.727L68.0932 106.116L68.0825 107.506L69.0427 107.513L69.0534 106.124ZM68.0932 106.116L68.1039 104.727L67.1438 104.72L67.1331 106.109L67.1224 107.498L68.0825 107.506L68.0932 106.116ZM67.1331 106.109L67.1438 104.72C66.3918 104.714 65.6497 104.799 64.92 104.973L65.2432 106.324L65.5663 107.675C66.0764 107.553 66.5942 107.494 67.1224 107.498L67.1331 106.109ZM65.2432 106.324L64.92 104.973L63.9902 105.196L64.3134 106.547L64.6365 107.897L65.5663 107.675L65.2432 106.324ZM64.3134 106.547L63.9902 105.196L63.0604 105.418L63.3836 106.769L63.7068 108.12L64.6365 107.897L64.3134 106.547ZM63.3836 106.769L63.0604 105.418C62.4933 105.554 61.9222 105.655 61.3469 105.723L61.5093 107.103L61.6716 108.482C62.3557 108.402 63.0342 108.281 63.7068 108.12L63.3836 106.769ZM61.5093 107.103L61.3469 105.723L60.4024 105.834L60.5648 107.214L60.7271 108.593L61.6716 108.482L61.5093 107.103ZM60.5648 107.214L60.4024 105.834L59.4579 105.945L59.6202 107.325L59.7826 108.704L60.7271 108.593L60.5648 107.214ZM59.6202 107.325L59.4579 105.945C58.8195 106.02 58.1817 106.102 57.5445 106.189L57.7329 107.565L57.9212 108.941C58.5411 108.856 59.1616 108.777 59.7826 108.704L59.6202 107.325ZM57.7329 107.565L57.5445 106.189L56.6016 106.318L56.79 107.694L56.9784 109.07L57.9212 108.941L57.7329 107.565ZM56.79 107.694L56.6016 106.318L55.6587 106.447L55.8471 107.823L56.0355 109.199L56.9784 109.07L56.79 107.694ZM55.8471 107.823L55.6587 106.447C55.1443 106.517 54.6176 106.525 54.076 106.468L53.9298 107.849L53.7837 109.23C54.5413 109.311 55.2928 109.301 56.0355 109.199L55.8471 107.823ZM53.9298 107.849L54.076 106.468L53.1016 106.365L52.9555 107.746L52.8093 109.127L53.7837 109.23L53.9298 107.849ZM52.9555 107.746L53.1016 106.365L52.1272 106.262L51.9811 107.643L51.8349 109.024L52.8093 109.127L52.9555 107.746ZM51.9811 107.643L52.1272 106.262C51.292 106.173 50.4694 106.252 49.6716 106.502L50.0859 107.828L50.5003 109.153C50.9301 109.019 51.3709 108.975 51.8349 109.024L51.9811 107.643ZM50.0859 107.828L49.6716 106.502L48.7508 106.789L49.1652 108.115L49.5795 109.441L50.5003 109.153L50.0859 107.828ZM49.1652 108.115L48.7508 106.789L47.8301 107.077L48.2444 108.403L48.6588 109.729L49.5795 109.441L49.1652 108.115ZM48.2444 108.403L47.8301 107.077C47.2401 107.262 46.6481 107.429 46.0539 107.58L46.3955 108.926L46.7371 110.273C47.3805 110.109 48.0211 109.928 48.6588 109.729L48.2444 108.403ZM46.3955 108.926L46.0539 107.58L45.1257 107.815L45.4673 109.162L45.8089 110.508L46.7371 110.273L46.3955 108.926ZM45.4673 109.162L45.1257 107.815L44.1975 108.051L44.5391 109.397L44.8807 110.744L45.8089 110.508L45.4673 109.162ZM44.5391 109.397L44.1975 108.051C43.651 108.19 43.0963 108.284 42.533 108.333L42.655 109.717L42.7771 111.101C43.4883 111.038 44.1897 110.919 44.8807 110.744L44.5391 109.397ZM42.655 109.717L42.533 108.333L41.5771 108.418L41.6991 109.801L41.8212 111.185L42.7771 111.101L42.655 109.717ZM41.6991 109.801L41.5771 108.418L40.6212 108.502L40.7432 109.886L40.8653 111.269L41.8212 111.185L41.6991 109.801ZM40.7432 109.886L40.6212 108.502C39.9867 108.558 39.3486 108.612 38.707 108.665L38.8207 110.049L38.9344 111.434C39.5816 111.381 40.2252 111.326 40.8653 111.269L40.7432 109.886ZM38.8207 110.049L38.707 108.665L37.7404 108.744L37.8541 110.129L37.9678 111.513L38.9344 111.434L38.8207 110.049ZM37.8541 110.129L37.7404 108.744L36.7737 108.824L36.8875 110.208L37.0012 111.593L37.9678 111.513L37.8541 110.129ZM36.8875 110.208L36.7737 108.824C36.3689 108.857 35.9734 108.791 35.5673 108.611L35.0043 109.881L34.4413 111.151C35.2573 111.513 36.1172 111.665 37.0012 111.593L36.8875 110.208ZM35.0043 109.881L35.5673 108.611L34.6507 108.205L34.0877 109.475L33.5247 110.745L34.4413 111.151L35.0043 109.881ZM34.0877 109.475L34.6507 108.205L33.7341 107.799L33.1711 109.069L32.6081 110.338L33.5247 110.745L34.0877 109.475ZM33.1711 109.069L33.7341 107.799C32.884 107.422 31.9851 107.299 31.0691 107.445L31.2885 108.817L31.508 110.188C31.8799 110.129 32.2361 110.173 32.6081 110.338L33.1711 109.069ZM31.2885 108.817L31.0691 107.445L30.1031 107.6L30.3226 108.971L30.5421 110.343L31.508 110.188L31.2885 108.817ZM30.3226 108.971L30.1031 107.6L29.1371 107.754L29.3566 109.126L29.5761 110.498L30.5421 110.343L30.3226 108.971ZM29.3566 109.126L29.1371 107.754C28.6349 107.835 28.1437 107.835 27.658 107.759L27.4415 109.131L27.2251 110.503C28.0049 110.626 28.7904 110.623 29.5761 110.498L29.3566 109.126ZM27.4415 109.131L27.658 107.759L26.7089 107.609L26.4924 108.981L26.276 110.353L27.2251 110.503L27.4415 109.131ZM26.4924 108.981L26.7089 107.609L25.7598 107.459L25.5433 108.831L25.3268 110.203L26.276 110.353L26.4924 108.981ZM25.5433 108.831L25.7598 107.459C25.1523 107.363 24.5613 107.253 23.9866 107.128L23.6916 108.485L23.3966 109.843C24.0254 109.979 24.6688 110.1 25.3268 110.203L25.5433 108.831ZM23.6916 108.485L23.9866 107.128L23.084 106.932L22.789 108.289L22.494 109.647L23.3966 109.843L23.6916 108.485ZM22.789 108.289L23.084 106.932L22.1814 106.736L21.8864 108.093L21.5914 109.45L22.494 109.647L22.789 108.289ZM21.8864 108.093L22.1814 106.736C21.6879 106.628 21.2348 106.469 20.8177 106.26L20.1952 107.502L19.5727 108.743C20.2071 109.061 20.8815 109.296 21.5914 109.45L21.8864 108.093ZM20.1952 107.502L20.8177 106.26L20.0291 105.864L19.4066 107.106L18.7841 108.348L19.5727 108.743L20.1952 107.502ZM19.4066 107.106L20.0291 105.864L19.2405 105.469L18.618 106.711L17.9955 107.953L18.7841 108.348L19.4066 107.106ZM18.618 106.711L19.2405 105.469C18.8896 105.293 18.567 105.043 18.2719 104.699L17.2182 105.604L16.1645 106.509C16.6842 107.114 17.2949 107.601 17.9955 107.953L18.618 106.711ZM17.2182 105.604L18.2719 104.699L17.6607 103.987L16.607 104.893L15.5533 105.798L16.1645 106.509L17.2182 105.604ZM16.607 104.893L17.6607 103.987L17.0496 103.276L15.9959 104.181L14.9422 105.086L15.5533 105.798L16.607 104.893ZM15.9959 104.181L17.0496 103.276C16.9035 103.106 16.8271 102.913 16.8549 102.59L15.471 102.471L14.0871 102.351C13.9999 103.361 14.2733 104.308 14.9422 105.086L15.9959 104.181ZM15.471 102.471L16.8549 102.59L16.9412 101.591L15.5573 101.472L14.1734 101.352L14.0871 102.351L15.471 102.471ZM15.5573 101.472L16.9412 101.591L17.0275 100.592L15.6436 100.473L14.2597 100.353L14.1734 101.352L15.5573 101.472ZM15.6436 100.473L17.0275 100.592C17.0672 100.132 17.2026 99.703 17.4417 99.2907L16.2401 98.5938L15.0385 97.8969C14.5974 98.6575 14.3351 99.4805 14.2597 100.353L15.6436 100.473ZM16.2401 98.5938L17.4417 99.2907L17.9519 98.411L16.7503 97.7141L15.5487 97.0172L15.0385 97.8969L16.2401 98.5938ZM16.7503 97.7141L17.9519 98.411L18.4621 97.5313L17.2604 96.8344L16.0588 96.1375L15.5487 97.0172L16.7503 97.7141ZM17.2604 96.8344L18.4621 97.5313C18.6609 97.1884 18.9173 96.9583 19.2537 96.8047L18.6769 95.5411L18.1001 94.2774C17.2282 94.6754 16.5402 95.3075 16.0588 96.1375L17.2604 96.8344ZM18.6769 95.5411L19.2537 96.8047L20.16 96.391L19.5832 95.1274L19.0064 93.8637L18.1001 94.2774L18.6769 95.5411ZM19.5832 95.1274L20.16 96.391L21.0663 95.9773L20.4895 94.7137L19.9126 93.45L19.0064 93.8637L19.5832 95.1274ZM20.4895 94.7137L21.0663 95.9773C21.5549 95.7543 22.0476 95.609 22.5472 95.5365L22.3477 94.1618L22.1481 92.7872C21.3785 92.8989 20.6324 93.1215 19.9126 93.45L20.4895 94.7137ZM22.3477 94.1618L22.5472 95.5365L23.4992 95.3983L23.2996 94.0236L23.1001 92.649L22.1481 92.7872L22.3477 94.1618ZM23.2996 94.0236L23.4992 95.3983L24.4511 95.2601L24.2516 93.8854L24.052 92.5108L23.1001 92.649L23.2996 94.0236ZM24.2516 93.8854L24.4511 95.2601C25.1048 95.1652 25.7519 95.0574 26.3924 94.9368L26.1352 93.5717L25.878 92.2066C25.2763 92.32 24.6676 92.4214 24.052 92.5108L24.2516 93.8854ZM26.1352 93.5717L26.3924 94.9368L27.324 94.7612L27.0668 93.3962L26.8096 92.0311L25.878 92.2066L26.1352 93.5717ZM27.0668 93.3962L27.324 94.7612L28.2557 94.5857L27.9985 93.2206L27.7413 91.8556L26.8096 92.0311L27.0668 93.3962ZM27.9985 93.2206L28.2557 94.5857C28.8806 94.4679 29.5057 94.3475 30.131 94.2243L29.8625 92.8614L29.594 91.4985C28.9762 91.6202 28.3586 91.7392 27.7413 91.8556L27.9985 93.2206ZM29.8625 92.8614L30.131 94.2243L31.0634 94.0406L30.7949 92.6777L30.5264 91.3148L29.594 91.4985L29.8625 92.8614ZM30.7949 92.6777L31.0634 94.0406L31.9958 93.8569L31.7273 92.494L31.4588 91.1311L30.5264 91.3148L30.7949 92.6777ZM31.7273 92.494L31.9958 93.8569C32.5311 93.7514 33.0742 93.6968 33.6262 93.6934L33.6176 92.3044L33.609 90.9153C32.8838 90.9198 32.1667 90.9917 31.4588 91.1311L31.7273 92.494ZM33.6176 92.3044L33.6262 93.6934L34.5841 93.6875L34.5755 92.2984L34.5669 90.9094L33.609 90.9153L33.6176 92.3044ZM34.5755 92.2984L34.5841 93.6875L35.542 93.6815L35.5334 92.2925L35.5248 90.9034L34.5669 90.9094L34.5755 92.2984ZM35.5334 92.2925L35.542 93.6815C36.3266 93.6767 37.0961 93.5501 37.8455 93.3042L37.4126 91.9844L36.9796 90.6645C36.5008 90.8216 36.0175 90.9004 35.5248 90.9034L35.5334 92.2925ZM37.4126 91.9844L37.8455 93.3042L38.7667 93.002L38.3338 91.6822L37.9008 90.3623L36.9796 90.6645L37.4126 91.9844ZM38.3338 91.6822L38.7667 93.002L39.688 92.6999L39.255 91.38L38.822 90.0601L37.9008 90.3623L38.3338 91.6822ZM39.255 91.38L39.688 92.6999C40.2557 92.5136 40.8266 92.3594 41.4007 92.2371L41.1111 90.8785L40.8215 89.5199C40.1491 89.6633 39.4826 89.8434 38.822 90.0601L39.255 91.38ZM41.1111 90.8785L41.4007 92.2371L42.3357 92.0378L42.0461 90.6792L41.7565 89.3207L40.8215 89.5199L41.1111 90.8785ZM42.0461 90.6792L42.3357 92.0378L43.2706 91.8385L42.981 90.4799L42.6914 89.1214L41.7565 89.3207L42.0461 90.6792ZM42.981 90.4799L43.2706 91.8385C43.8291 91.7194 44.3916 91.6411 44.9588 91.6034L44.8666 90.2174L44.7744 88.8313C44.074 88.878 43.3795 88.9747 42.6914 89.1214L42.981 90.4799ZM44.8666 90.2174L44.9588 91.6034L45.9095 91.5401L45.8172 90.1541L45.725 88.7681L44.7744 88.8313L44.8666 90.2174ZM45.8172 90.1541L45.9095 91.5401L46.8601 91.4769L46.7679 90.0908L46.6756 88.7048L45.725 88.7681L45.8172 90.1541ZM46.7679 90.0908L46.8601 91.4769C47.4791 91.4357 48.0996 91.4043 48.7216 91.3828L48.6735 89.9945L48.6255 88.6063C47.9741 88.6288 47.3242 88.6617 46.6756 88.7048L46.7679 90.0908ZM48.6735 89.9945L48.7216 91.3828L49.6766 91.3498L49.6286 89.9615L49.5805 88.5733L48.6255 88.6063L48.6735 89.9945ZM49.6286 89.9615L49.6766 91.3498L50.6316 91.3167L50.5836 89.9285L50.5356 88.5402L49.5805 88.5733L49.6286 89.9615ZM50.5836 89.9285L50.6316 91.3167C51.3069 91.2934 51.9084 91.2387 52.4143 91.1406L52.15 89.7769L51.8856 88.4132C51.5765 88.4732 51.1337 88.5195 50.5356 88.5402L50.5836 89.9285ZM52.15 89.7769L52.4143 91.1406L53.0256 91.0221L52.7613 89.6584L52.497 88.2947L51.8856 88.4132L52.15 89.7769ZM52.7613 89.6584L53.0256 91.0221L53.637 90.9036L53.3726 89.5399L53.1083 88.1762L52.497 88.2947L52.7613 89.6584ZM53.3726 89.5399L53.637 90.9036C54.1254 90.8089 54.6963 90.6487 55.3357 90.4369L54.8987 89.1183L54.4618 87.7997C53.8814 87.992 53.4349 88.1129 53.1083 88.1762L53.3726 89.5399ZM54.8987 89.1183L55.3357 90.4369L56.2504 90.1337L55.8135 88.8152L55.3765 87.4966L54.4618 87.7997L54.8987 89.1183Z" fill="#F4AB1E"/>
<path d="M57.4447 2.8556C68.8254 1.27868 79.33 9.22602 80.9071 20.6068C81.7401 26.6185 79.9139 32.3846 76.3295 36.7207L86.5109 87.4044L22.0023 96.3437L19.0281 48.5151C11.2194 46.3988 5.0359 39.8039 3.85529 31.2843C2.2783 19.9035 10.2257 9.399 21.6065 7.82189C29.2834 6.75808 36.5613 10.0284 40.9696 15.7626C43.6524 9.04546 49.7676 3.91946 57.4447 2.8556Z" fill="#D28A56"/>
<path d="M63.7349 3.13924L63.6411 5.22074L63.7349 3.13924ZM75.4863 7.69682L73.6959 8.7627L75.4863 7.69682ZM76.6241 9.60792L78.4144 8.54204L76.6241 9.60792ZM77.7618 11.519L75.9715 12.5849L77.7618 11.519ZM79.7729 15.4394L77.8619 16.2699L79.7729 15.4394ZM81.5194 19.4579L79.6085 20.2885L81.5194 19.4579ZM81.9144 23.6074L79.881 23.153L81.9144 23.6074ZM81.4362 25.7476L83.4696 26.202L81.4362 25.7476ZM80.9579 27.8878L78.9245 27.4334L80.9579 27.8878ZM79.0684 31.9253L77.3966 30.6818L79.0684 31.9253ZM76.246 35.72L77.9179 36.9635L76.246 35.72ZM76.0222 39.5253L74.2532 40.6263L76.0222 39.5253ZM77.2097 41.4333L75.4407 42.5343L77.2097 41.4333ZM78.3971 43.3412L80.1661 42.2403L78.3971 43.3412ZM79.8135 47.3497L77.7421 47.5755L79.8135 47.3497ZM80.2713 51.5507L82.3427 51.325L80.2713 51.5507ZM80.5458 55.7886L78.4627 55.8329L80.5458 55.7886ZM80.6369 60.0632L82.72 60.0189L80.6369 60.0632ZM81.6215 64.1584L79.7428 65.0595L81.6215 64.1584ZM83.4996 68.0742L85.3783 67.1731L83.4996 68.0742ZM84.105 72.2455L86.1653 72.5561L84.105 72.2455ZM83.4377 76.6725L81.3774 76.362L83.4377 76.6725ZM83.8917 80.8743L81.9545 81.6417L83.8917 80.8743ZM84.6793 82.8626L82.7421 83.6299L84.6793 82.8626ZM85.4669 84.8509L87.404 84.0835L85.4669 84.8509ZM82.6364 88.5476L81.7467 86.6635L82.6364 88.5476ZM80.8273 89.4018L81.717 91.286L80.8273 89.4018ZM76.934 90.5468L76.6462 88.4832L76.934 90.5468ZM74.8497 90.8375L75.1376 92.9011L74.8497 90.8375ZM72.7654 91.1282L73.0533 93.1919L72.7654 91.1282ZM68.495 90.9741L68.9104 88.9323L68.495 90.9741ZM64.1225 90.0843L63.7071 92.1261L64.1225 90.0843ZM59.9274 90.4736L60.7263 92.3979L59.9274 90.4736ZM55.9094 92.1418L56.7084 94.0662L55.9094 92.1418ZM51.8347 93.4004L51.4153 91.3594L51.8347 93.4004ZM47.7032 94.2494L47.2839 92.2084L47.7032 94.2494ZM43.5013 94.5898L43.5832 92.5078L43.5013 94.5898ZM39.2289 94.4218L39.147 96.5038L39.2289 94.4218ZM35.0173 94.6928L34.6659 92.6391L35.0173 94.6928ZM30.8666 95.4031L30.5152 93.3493L30.8666 95.4031ZM26.9303 95.5108L26.6557 97.5762L26.9303 95.5108ZM25.0693 95.2634L24.7947 97.3289L25.0693 95.2634ZM23.2083 95.016L23.4828 92.9506L23.2083 95.016ZM21.6581 92.6408L23.7198 92.942L21.6581 92.6408ZM21.9689 90.513L19.9072 90.2118L21.9689 90.513ZM21.6998 84.2042L19.7883 85.0335L21.6998 84.2042ZM20.1517 73.7579L18.1362 73.2293L20.1517 73.7579ZM20.7138 71.6144L18.6984 71.0858L20.7138 71.6144ZM20.7493 67.3952L18.7297 67.9076L20.7493 67.3952ZM20.2226 65.3194L18.203 65.8318L20.2226 65.3194ZM19.491 59.0393L21.5512 59.3507L19.491 59.0393ZM19.8127 56.9108L17.7525 56.5994L19.8127 56.9108ZM20.1344 54.7823L18.0742 54.4709L20.1344 54.7823ZM18.923 51.6362L17.7707 53.3722L18.923 51.6362ZM15.8568 49.601L17.009 47.865L15.8568 49.601ZM13.172 46.6501L14.9621 45.5838L13.172 46.6501ZM12.0203 44.7168L10.2303 45.7832L12.0203 44.7168ZM6.47652 37.8706L7.88684 36.3368L6.47652 37.8706ZM4.85625 36.3807L3.44593 37.9145L4.85625 36.3807ZM3.44312 24.0381L1.53594 23.199L3.44312 24.0381ZM7.71201 16.7753L6.42828 15.1341L7.71201 16.7753ZM17.7154 9.59898L16.5739 7.8559L17.7154 9.59898ZM21.4322 8.6821L21.2321 10.7561L21.4322 8.6821ZM33.4975 10.4706L33.9069 8.4276L33.4975 10.4706ZM37.3405 12.0278L38.4487 10.2633L37.3405 12.0278ZM43.6944 13.6055L45.6013 14.4454L43.6944 13.6055ZM45.3594 9.82532L43.4525 8.98547L45.3594 9.82532ZM51.9708 5.70003L51.2192 3.75672L51.9708 5.70003ZM54.784 4.43013L53.7229 2.63697L54.784 4.43013ZM61.6382 3.04469L61.5443 5.12619L63.6411 5.22074L63.7349 3.13924L63.8288 1.05774L61.732 0.963197L61.6382 3.04469ZM63.7349 3.13924L63.6411 5.22074C64.8582 5.27563 66.0976 5.48862 67.3628 5.86772L67.9609 3.87177L68.5589 1.87583C66.9852 1.40429 65.4073 1.12893 63.8288 1.05774L63.7349 3.13924ZM67.9609 3.87177L67.3628 5.86772L69.492 6.5057L70.0901 4.50975L70.6881 2.51381L68.5589 1.87583L67.9609 3.87177ZM70.0901 4.50975L69.492 6.5057L71.6213 7.14368L72.2193 5.14774L72.8174 3.15179L70.6881 2.51381L70.0901 4.50975ZM72.2193 5.14774L71.6213 7.14368C72.5405 7.41911 73.2042 7.9367 73.6959 8.7627L75.4863 7.69682L77.2766 6.63094C76.2514 4.9088 74.7371 3.727 72.8174 3.15179L72.2193 5.14774ZM75.4863 7.69682L73.6959 8.7627L74.8337 10.6738L76.6241 9.60792L78.4144 8.54204L77.2766 6.63094L75.4863 7.69682ZM76.6241 9.60792L74.8337 10.6738L75.9715 12.5849L77.7618 11.519L79.5522 10.4531L78.4144 8.54204L76.6241 9.60792ZM77.7618 11.519L75.9715 12.5849C76.6855 13.7843 77.3155 15.0126 77.8619 16.2699L79.7729 15.4394L81.6838 14.6089C81.0659 13.1872 80.3551 11.8019 79.5522 10.4531L77.7618 11.519ZM79.7729 15.4394L77.8619 16.2699L78.7352 18.2792L80.6461 17.4487L82.5571 16.6181L81.6838 14.6089L79.7729 15.4394ZM80.6461 17.4487L78.7352 18.2792L79.6085 20.2885L81.5194 19.4579L83.4304 18.6274L82.5571 16.6181L80.6461 17.4487ZM81.5194 19.4579L79.6085 20.2885C80.0147 21.223 80.1037 22.1562 79.881 23.153L81.9144 23.6074L83.9479 24.0618C84.3628 22.205 84.1885 20.3719 83.4304 18.6274L81.5194 19.4579ZM81.9144 23.6074L79.881 23.153L79.4027 25.2932L81.4362 25.7476L83.4696 26.202L83.9479 24.0618L81.9144 23.6074ZM81.4362 25.7476L79.4027 25.2932L78.9245 27.4334L80.9579 27.8878L82.9914 28.3422L83.4696 26.202L81.4362 25.7476ZM80.9579 27.8878L78.9245 27.4334C78.6743 28.5528 78.1767 29.633 77.3966 30.6818L79.0684 31.9253L80.7403 33.1688C81.8419 31.6878 82.6039 30.0763 82.9914 28.3422L80.9579 27.8878ZM79.0684 31.9253L77.3966 30.6818L75.9854 32.5792L77.6572 33.8227L79.3291 35.0662L80.7403 33.1688L79.0684 31.9253ZM77.6572 33.8227L75.9854 32.5792L74.5741 34.4765L76.246 35.72L77.9179 36.9635L79.3291 35.0662L77.6572 33.8227ZM76.246 35.72L74.5741 34.4765C73.9198 35.3563 73.4707 36.3701 73.4044 37.4977C73.3375 38.6349 73.6716 39.6918 74.2532 40.6263L76.0222 39.5253L77.7912 38.4244C77.5812 38.0869 77.5567 37.8736 77.5645 37.7423C77.5727 37.6015 77.6314 37.3487 77.9179 36.9635L76.246 35.72ZM76.0222 39.5253L74.2532 40.6263L75.4407 42.5343L77.2097 41.4333L78.9787 40.3323L77.7912 38.4244L76.0222 39.5253ZM77.2097 41.4333L75.4407 42.5343L76.6281 44.4422L78.3971 43.3412L80.1661 42.2403L78.9787 40.3323L77.2097 41.4333ZM78.3971 43.3412L76.6281 44.4422C77.2653 45.4661 77.6255 46.5054 77.7421 47.5755L79.8135 47.3497L81.8848 47.124C81.6962 45.3933 81.1122 43.7604 80.1661 42.2403L78.3971 43.3412ZM79.8135 47.3497L77.7421 47.5755L77.9711 49.676L80.0424 49.4502L82.1138 49.2245L81.8848 47.124L79.8135 47.3497ZM80.0424 49.4502L77.9711 49.676L78.2 51.7765L80.2713 51.5507L82.3427 51.325L82.1138 49.2245L80.0424 49.4502ZM80.2713 51.5507L78.2 51.7765C78.346 53.1158 78.4336 54.4679 78.4627 55.8329L80.5458 55.7886L82.629 55.7442C82.5973 54.2594 82.502 52.7863 82.3427 51.325L80.2713 51.5507ZM80.5458 55.7886L78.4627 55.8329L78.5082 57.9703L80.5914 57.9259L82.6745 57.8815L82.629 55.7442L80.5458 55.7886ZM80.5914 57.9259L78.5082 57.9703L78.5538 60.1076L80.6369 60.0632L82.72 60.0189L82.6745 57.8815L80.5914 57.9259ZM80.6369 60.0632L78.5538 60.1076C78.5905 61.8342 78.9904 63.4909 79.7428 65.0595L81.6215 64.1584L83.5002 63.2574C83.0005 62.2155 82.744 61.1421 82.72 60.0189L80.6369 60.0632ZM81.6215 64.1584L79.7428 65.0595L80.6818 67.0174L82.5605 66.1163L84.4392 65.2152L83.5002 63.2574L81.6215 64.1584ZM82.5605 66.1163L80.6818 67.0174L81.6209 68.9752L83.4996 68.0742L85.3783 67.1731L84.4392 65.2152L82.5605 66.1163ZM83.4996 68.0742L81.6209 68.9752C82.0605 69.8918 82.2069 70.8587 82.0446 71.935L84.105 72.2455L86.1653 72.5561C86.4479 70.681 86.1907 68.867 85.3783 67.1731L83.4996 68.0742ZM84.105 72.2455L82.0446 71.935L81.711 74.1485L83.7714 74.459L85.8317 74.7696L86.1653 72.5561L84.105 72.2455ZM83.7714 74.459L81.711 74.1485L81.3774 76.362L83.4377 76.6725L85.4981 76.9831L85.8317 74.7696L83.7714 74.459ZM83.4377 76.6725L81.3774 76.362C81.1028 78.1838 81.2875 79.9578 81.9545 81.6417L83.8917 80.8743L85.8289 80.107C85.4458 79.1399 85.3278 78.1126 85.4981 76.9831L83.4377 76.6725ZM83.8917 80.8743L81.9545 81.6417L82.7421 83.6299L84.6793 82.8626L86.6165 82.0953L85.8289 80.107L83.8917 80.8743ZM84.6793 82.8626L82.7421 83.6299L83.5297 85.6182L85.4669 84.8509L87.404 84.0835L86.6165 82.0953L84.6793 82.8626ZM85.4669 84.8509L83.5297 85.6182C83.6032 85.8038 83.6188 85.9079 83.6216 85.9428C83.6238 85.9701 83.6166 85.9285 83.6444 85.851C83.6574 85.8149 83.6743 85.7819 83.6923 85.7542C83.7101 85.727 83.7245 85.712 83.7286 85.7079C83.7349 85.7017 83.6935 85.7442 83.5557 85.8093L84.4454 87.6934L85.3351 89.5775C86.2695 89.1363 87.1546 88.4054 87.5661 87.2603C87.9674 86.1436 87.7762 85.0232 87.404 84.0835L85.4669 84.8509ZM84.4454 87.6934L83.5557 85.8093L81.7467 86.6635L82.6364 88.5476L83.526 90.4317L85.3351 89.5775L84.4454 87.6934ZM82.6364 88.5476L81.7467 86.6635L79.9376 87.5177L80.8273 89.4018L81.717 91.286L83.526 90.4317L82.6364 88.5476ZM80.8273 89.4018L79.9376 87.5177C78.9317 87.9927 77.838 88.3169 76.6462 88.4832L76.934 90.5468L77.2218 92.6104C78.809 92.389 80.3109 91.9499 81.717 91.286L80.8273 89.4018ZM76.934 90.5468L76.6462 88.4832L74.5619 88.7739L74.8497 90.8375L75.1376 92.9011L77.2218 92.6104L76.934 90.5468ZM74.8497 90.8375L74.5619 88.7739L72.4776 89.0646L72.7654 91.1282L73.0533 93.1919L75.1376 92.9011L74.8497 90.8375ZM72.7654 91.1282L72.4776 89.0646C71.3358 89.2238 70.1504 89.1846 68.9104 88.9323L68.495 90.9741L68.0795 93.0158C69.7544 93.3567 71.416 93.4202 73.0533 93.1919L72.7654 91.1282ZM68.495 90.9741L68.9104 88.9323L66.7242 88.4874L66.3088 90.5292L65.8933 92.571L68.0795 93.0158L68.495 90.9741ZM66.3088 90.5292L66.7242 88.4874L64.538 88.0426L64.1225 90.0843L63.7071 92.1261L65.8933 92.571L66.3088 90.5292ZM64.1225 90.0843L64.538 88.0426C62.6842 87.6653 60.8621 87.8294 59.1284 88.5493L59.9274 90.4736L60.7263 92.3979C61.6713 92.0056 62.646 91.9102 63.7071 92.1261L64.1225 90.0843ZM59.9274 90.4736L59.1284 88.5493L57.1194 89.3834L57.9184 91.3077L58.7174 93.232L60.7263 92.3979L59.9274 90.4736ZM57.9184 91.3077L57.1194 89.3834L55.1104 90.2175L55.9094 92.1418L56.7084 94.0662L58.7174 93.232L57.9184 91.3077ZM55.9094 92.1418L55.1104 90.2175C53.8898 90.7243 52.6585 91.104 51.4153 91.3594L51.8347 93.4004L52.2541 95.4414C53.7652 95.1309 55.2504 94.6715 56.7084 94.0662L55.9094 92.1418ZM51.8347 93.4004L51.4153 91.3594L49.3496 91.7839L49.769 93.8249L50.1884 95.8659L52.2541 95.4414L51.8347 93.4004ZM49.769 93.8249L49.3496 91.7839L47.2839 92.2084L47.7032 94.2494L48.1226 96.2903L50.1884 95.8659L49.769 93.8249ZM47.7032 94.2494L47.2839 92.2084C46.0738 92.457 44.8415 92.5573 43.5832 92.5078L43.5013 94.5898L43.4194 96.6718C45.0093 96.7343 46.5784 96.6076 48.1226 96.2903L47.7032 94.2494ZM43.5013 94.5898L43.5832 92.5078L41.447 92.4238L41.3651 94.5058L41.2832 96.5878L43.4194 96.6718L43.5013 94.5898ZM41.3651 94.5058L41.447 92.4238L39.3108 92.3398L39.2289 94.4218L39.147 96.5038L41.2832 96.5878L41.3651 94.5058ZM39.2289 94.4218L39.3108 92.3398C37.7439 92.2781 36.1947 92.3775 34.6659 92.6391L35.0173 94.6928L35.3688 96.7466C36.6071 96.5347 37.8657 96.4534 39.147 96.5038L39.2289 94.4218ZM35.0173 94.6928L34.6659 92.6391L32.5906 92.9942L32.942 95.048L33.2934 97.1017L35.3688 96.7466L35.0173 94.6928ZM32.942 95.048L32.5906 92.9942L30.5152 93.3493L30.8666 95.4031L31.218 97.4568L33.2934 97.1017L32.942 95.048ZM30.8666 95.4031L30.5152 93.3493C29.3137 93.5549 28.2139 93.5795 27.2048 93.4454L26.9303 95.5108L26.6557 97.5762C28.128 97.772 29.6524 97.7247 31.218 97.4568L30.8666 95.4031ZM26.9303 95.5108L27.2048 93.4454L25.3438 93.198L25.0693 95.2634L24.7947 97.3289L26.6557 97.5762L26.9303 95.5108ZM25.0693 95.2634L25.3438 93.198L23.4828 92.9506L23.2083 95.016L22.9337 97.0815L24.7947 97.3289L25.0693 95.2634ZM23.2083 95.016L23.4828 92.9506C23.3645 92.9349 23.3569 92.916 23.4097 92.9448C23.4375 92.96 23.477 92.9857 23.5204 93.0251C23.5642 93.065 23.6033 93.111 23.6351 93.1598C23.7008 93.2604 23.7057 93.3255 23.7019 93.2983C23.6971 93.2642 23.6889 93.1536 23.7198 92.942L21.6581 92.6408L19.5963 92.3396C19.4559 93.3007 19.4966 94.4434 20.1453 95.4373C20.8346 96.4935 21.9185 96.9465 22.9337 97.0815L23.2083 95.016ZM21.6581 92.6408L23.7198 92.942L24.0306 90.8142L21.9689 90.513L19.9072 90.2118L19.5963 92.3396L21.6581 92.6408ZM21.9689 90.513L24.0306 90.8142L24.3415 88.6863L22.2797 88.3851L20.218 88.084L19.9072 90.2118L21.9689 90.513ZM22.2797 88.3851L24.3415 88.6863C24.6071 86.8682 24.3528 85.0839 23.6112 83.3748L21.6998 84.2042L19.7883 85.0335C20.2345 86.0619 20.3669 87.0649 20.218 88.084L22.2797 88.3851ZM21.6998 84.2042L23.6112 83.3748L22.7205 81.3217L20.809 82.151L18.8975 82.9804L19.7883 85.0335L21.6998 84.2042ZM20.809 82.151L22.7205 81.3217L21.8297 79.2686L19.9182 80.0979L18.0068 80.9272L18.8975 82.9804L20.809 82.151ZM19.9182 80.0979L21.8297 79.2686C21.4196 78.3234 21.3499 77.4025 21.605 76.4299L19.5896 75.9013L17.5741 75.3728C17.0797 77.2581 17.2291 79.1349 18.0068 80.9272L19.9182 80.0979ZM19.5896 75.9013L21.605 76.4299L22.1672 74.2864L20.1517 73.7579L18.1362 73.2293L17.5741 75.3728L19.5896 75.9013ZM20.1517 73.7579L22.1672 74.2864L22.7293 72.1429L20.7138 71.6144L18.6984 71.0858L18.1362 73.2293L20.1517 73.7579ZM20.7138 71.6144L22.7293 72.1429C23.1903 70.3852 23.2098 68.6205 22.7689 66.8827L20.7493 67.3952L18.7297 67.9076C18.991 68.9375 18.9869 69.9856 18.6984 71.0858L20.7138 71.6144ZM20.7493 67.3952L22.7689 66.8827L22.2422 64.807L20.2226 65.3194L18.203 65.8318L18.7297 67.9076L20.7493 67.3952ZM20.2226 65.3194L22.2422 64.807L21.7155 62.7312L19.6959 63.2436L17.6763 63.7561L18.203 65.8318L20.2226 65.3194ZM19.6959 63.2436L21.7155 62.7312C21.4331 61.6179 21.378 60.4967 21.5512 59.3507L19.491 59.0393L17.4308 58.7279C17.175 60.4201 17.2565 62.1016 17.6763 63.7561L19.6959 63.2436ZM19.491 59.0393L21.5512 59.3507L21.8729 57.2222L19.8127 56.9108L17.7525 56.5994L17.4308 58.7279L19.491 59.0393ZM19.8127 56.9108L21.8729 57.2222L22.1946 55.0937L20.1344 54.7823L18.0742 54.4709L17.7525 56.5994L19.8127 56.9108ZM20.1344 54.7823L22.1946 55.0937C22.3412 54.1238 22.2999 53.1256 21.9369 52.1828C21.5654 51.218 20.9117 50.4553 20.0753 49.9002L18.923 51.6362L17.7707 53.3722C17.9564 53.4954 18.0157 53.5963 18.048 53.6802C18.0888 53.7861 18.1421 54.0218 18.0742 54.4709L20.1344 54.7823ZM18.923 51.6362L20.0753 49.9002L18.5422 48.8826L17.3899 50.6186L16.2376 52.3546L17.7707 53.3722L18.923 51.6362ZM17.3899 50.6186L18.5422 48.8826L17.009 47.865L15.8568 49.601L14.7045 51.337L16.2376 52.3546L17.3899 50.6186ZM15.8568 49.601L17.009 47.865C16.2985 47.3933 15.605 46.6631 14.9621 45.5838L13.172 46.6501L11.3819 47.7165C12.2745 49.2148 13.3709 50.4518 14.7045 51.337L15.8568 49.601ZM13.172 46.6501L14.9621 45.5838L13.8104 43.6505L12.0203 44.7168L10.2303 45.7832L11.3819 47.7165L13.172 46.6501ZM12.0203 44.7168L13.8104 43.6505L12.6588 41.7172L10.8687 42.7836L9.07863 43.8499L10.2303 45.7832L12.0203 44.7168ZM10.8687 42.7836L12.6588 41.7172C11.7901 40.2589 10.7391 38.9596 9.50711 37.8267L8.09678 39.3605L6.68646 40.8942C7.61477 41.7478 8.41181 42.7306 9.07863 43.8499L10.8687 42.7836ZM8.09678 39.3605L9.50711 37.8267L7.88684 36.3368L6.47652 37.8706L5.06619 39.4044L6.68646 40.8942L8.09678 39.3605ZM6.47652 37.8706L7.88684 36.3368L6.26657 34.847L4.85625 36.3807L3.44593 37.9145L5.06619 39.4044L6.47652 37.8706ZM4.85625 36.3807L6.26657 34.847C5.57924 34.2149 5.21835 33.4739 5.14611 32.519L3.06844 32.6762L0.990759 32.8334C1.14192 34.8314 1.97291 36.56 3.44593 37.9145L4.85625 36.3807ZM3.06844 32.6762L5.14611 32.519L4.97856 30.3043L2.90089 30.4615L0.823209 30.6187L0.990759 32.8334L3.06844 32.6762ZM2.90089 30.4615L4.97856 30.3043L4.81101 28.0897L2.73333 28.2468L0.655659 28.404L0.823209 30.6187L2.90089 30.4615ZM2.73333 28.2468L4.81101 28.0897C4.72459 26.9474 4.90592 25.8872 5.35031 24.8771L3.44312 24.0381L1.53594 23.199C0.810539 24.8477 0.51868 26.5934 0.655659 28.404L2.73333 28.2468ZM3.44312 24.0381L5.35031 24.8771L6.22765 22.883L4.32046 22.0439L2.41328 21.2048L1.53594 23.199L3.44312 24.0381ZM4.32046 22.0439L6.22765 22.883L7.10499 20.8889L5.1978 20.0498L3.29062 19.2107L2.41328 21.2048L4.32046 22.0439ZM5.1978 20.0498L7.10499 20.8889C7.55835 19.8584 8.18854 19.0479 8.99574 18.4165L7.71201 16.7753L6.42828 15.1341C5.053 16.2099 4.00704 17.5823 3.29062 19.2107L5.1978 20.0498ZM7.71201 16.7753L8.99574 18.4165L10.6326 17.1362L9.34887 15.495L8.06514 13.8538L6.42828 15.1341L7.71201 16.7753ZM9.34887 15.495L10.6326 17.1362L12.2695 15.8558L10.9857 14.2146L9.70201 12.5734L8.06514 13.8538L9.34887 15.495ZM10.9857 14.2146L12.2695 15.8558C13.3159 15.0373 14.38 14.274 15.4618 13.5656L14.3202 11.8225L13.1787 10.0794C11.997 10.8533 10.8381 11.6848 9.70201 12.5734L10.9857 14.2146ZM14.3202 11.8225L15.4618 13.5656L17.1594 12.4538L16.0178 10.7107L14.8763 8.96766L13.1787 10.0794L14.3202 11.8225ZM16.0178 10.7107L17.1594 12.4538L18.857 11.3421L17.7154 9.59898L16.5739 7.8559L14.8763 8.96766L16.0178 10.7107ZM17.7154 9.59898L18.857 11.3421C19.5923 10.8605 20.358 10.6717 21.2321 10.7561L21.4322 8.6821L21.6324 6.60813C19.8142 6.43264 18.1021 6.8551 16.5739 7.8559L17.7154 9.59898ZM21.4322 8.6821L21.2321 10.7561L23.2513 10.951L23.4515 8.87699L23.6516 6.80301L21.6324 6.60813L21.4322 8.6821ZM23.4515 8.87699L23.2513 10.951L25.2705 11.1458L25.4707 9.07187L25.6708 6.9979L23.6516 6.80301L23.4515 8.87699ZM25.4707 9.07187L25.2705 11.1458C26.5459 11.2689 27.8167 11.4573 29.083 11.711L29.4924 9.66804L29.9018 7.62504C28.4981 7.34375 27.0877 7.13464 25.6708 6.9979L25.4707 9.07187ZM29.4924 9.66804L29.083 11.711L31.0856 12.1123L31.4949 10.0693L31.9043 8.02632L29.9018 7.62504L29.4924 9.66804ZM31.4949 10.0693L31.0856 12.1123L33.0881 12.5136L33.4975 10.4706L33.9069 8.4276L31.9043 8.02632L31.4949 10.0693ZM33.4975 10.4706L33.0881 12.5136C34.1597 12.7283 35.2056 13.1474 36.2323 13.7923L37.3405 12.0278L38.4487 10.2633C37.0215 9.36694 35.5054 8.74791 33.9069 8.4276L33.4975 10.4706ZM37.3405 12.0278L36.2323 13.7923L38.0728 14.9482L39.181 13.1837L40.2892 11.4193L38.4487 10.2633L37.3405 12.0278ZM39.181 13.1837L38.0728 14.9482L39.9133 16.1041L41.0215 14.3397L42.1297 12.5752L40.2892 11.4193L39.181 13.1837ZM41.0215 14.3397L39.9133 16.1041C40.7449 16.6265 41.9009 17.0896 43.1618 16.7433C44.4612 16.3864 45.198 15.361 45.6013 14.4454L43.6944 13.6055L41.7876 12.7656C41.7176 12.9246 41.68 12.9506 41.7128 12.9165C41.7318 12.8967 41.771 12.8605 41.8332 12.8221C41.8967 12.7829 41.973 12.7483 42.0581 12.7249C42.2373 12.6757 42.3619 12.7003 42.3808 12.705C42.3877 12.7067 42.3068 12.6864 42.1297 12.5752L41.0215 14.3397ZM43.6944 13.6055L45.6013 14.4454L46.4337 12.5553L44.5269 11.7154L42.62 10.8756L41.7876 12.7656L43.6944 13.6055ZM44.5269 11.7154L46.4337 12.5553L47.2662 10.6652L45.3594 9.82532L43.4525 8.98547L42.62 10.8756L44.5269 11.7154ZM45.3594 9.82532L47.2662 10.6652C47.598 9.91184 48.1019 9.43048 48.8698 9.13349L48.1182 7.19017L47.3665 5.24685C45.5659 5.94328 44.2307 7.21868 43.4525 8.98547L45.3594 9.82532ZM48.1182 7.19017L48.8698 9.13349L50.7961 8.38842L50.0445 6.4451L49.2929 4.50178L47.3665 5.24685L48.1182 7.19017ZM50.0445 6.4451L50.7961 8.38842L52.7225 7.64335L51.9708 5.70003L51.2192 3.75672L49.2929 4.50178L50.0445 6.4451ZM51.9708 5.70003L52.7225 7.64335C54.0298 7.13769 55.0998 6.6644 55.8452 6.22328L54.784 4.43013L53.7229 2.63697C53.2858 2.89564 52.4803 3.26896 51.2192 3.75672L51.9708 5.70003ZM54.784 4.43013L55.8452 6.22328L56.7321 5.69844L55.6709 3.90528L54.6098 2.11213L53.7229 2.63697L54.784 4.43013ZM55.6709 3.90528L56.7321 5.69844L57.619 5.17359L56.5578 3.38044L55.4966 1.58729L54.6098 2.11213L55.6709 3.90528ZM56.5578 3.38044L57.619 5.17359C57.5979 5.18603 57.703 5.12198 58.0446 5.07272C58.373 5.02535 58.8327 5.00392 59.4476 5.03165L59.5414 2.95015L59.6353 0.868649C58.1757 0.802833 56.6463 0.906972 55.4966 1.58729L56.5578 3.38044ZM59.5414 2.95015L59.4476 5.03165L61.5443 5.12619L61.6382 3.04469L61.732 0.963197L59.6353 0.868649L59.5414 2.95015Z" fill="#A75B24"/>
</svg>
