<svg width="1159" height="14" viewBox="0 0 1159 14" fill="none" xmlns="http://www.w3.org/2000/svg">
<path d="M4.5 3C2.29086 3 0.5 4.79086 0.5 7C0.5 9.20914 2.29086 11 4.5 11V3ZM4.6 7V11H4.83835L5.07502 10.9717L4.6 7ZM12.75 6.02525L13.225 9.99695L12.75 6.02525ZM107 7.7971L106.933 11.7965L107 7.7971ZM115.2 7.93421L115.267 3.93477L115.2 7.93421ZM189 6.53525L189.514 10.5021L189 6.53525ZM197.2 5.47334L197.714 9.44022L197.2 5.47334ZM205.4 5.65289L204.717 9.59415L205.4 5.65289ZM213.6 7.07391L212.917 11.0152L213.6 7.07391ZM320.2 6.60695L319.773 2.6298L320.2 6.60695ZM324.3 6.16684L324.727 10.144L324.3 6.16684ZM328.4 5.72672L327.973 1.74957L328.4 5.72672ZM336.6 5.29393L336.593 9.29392L336.6 5.29393ZM344.8 5.30856L344.807 1.30857L344.8 5.30856ZM402.2 6.21237L401.871 2.22592L402.2 6.21237ZM406.3 5.87399L405.971 1.88754L406.3 5.87399ZM410.4 5.53561L410.729 9.52205L410.4 5.53561ZM418.6 5.43467L418.369 9.42798L418.6 5.43467ZM426.8 5.90956L426.569 9.90287L426.8 5.90956ZM451.4 6.62325L450.785 2.67086L451.4 6.62325ZM455.5 5.98495L454.885 2.03256L455.5 5.98495ZM467.8 5.23047L467.295 9.19842L467.8 5.23047ZM476 6.27471L475.495 10.2427L476 6.27471ZM558 5.26837L557.875 1.27031L558 5.26837ZM599 6.46899L599.596 2.5136L599 6.46899ZM607.2 7.70394L606.604 11.6593L607.2 7.70394ZM672.8 7.63999L672.308 11.6096L672.8 7.63999ZM795.8 5.43718L795.321 9.40835L795.8 5.43718ZM804 6.42705L803.521 10.3982L804 6.42705ZM845 5.38301L844.845 9.38L845 5.38301ZM849.1 5.54229L848.945 9.53927L849.1 5.54229ZM898.3 8.37158L897.816 4.40104L898.3 8.37158ZM902.4 7.87118L901.916 3.90064L902.4 7.87118ZM943.4 6.85142L943.929 2.88649L943.4 6.85142ZM951.6 7.94446L952.129 3.97953L951.6 7.94446ZM976.201 7.37421L976.34 3.37663L976.201 7.37421ZM984.401 7.65956L984.54 3.66198L984.401 7.65956ZM1095.1 7.36166L1094.35 11.2904L1095.1 7.36166ZM1115.6 8.64404L1115.51 4.64513L1115.6 8.64404ZM1153.75 6.64859L1154.92 2.8233L1154.88 2.81014L1154.83 2.79794L1153.75 6.64859ZM1154.9 7L1153.73 10.8253L1154.3 11H1154.9V7ZM1155 11C1157.21 11 1159 9.20914 1159 7C1159 4.79086 1157.21 3 1155 3V11ZM4.5 7V11H4.6V7V3H4.5V7ZM4.6 7L5.07502 10.9717L13.225 9.99695L12.75 6.02525L12.275 2.05356L4.12498 3.02831L4.6 7ZM12.75 6.02525L13.225 9.99695C18.5883 9.3555 22.2827 9.2448 24.5241 9.51339L25 5.5418L25.4759 1.57021C22.2507 1.18374 17.7784 1.39535 12.275 2.05356L12.75 6.02525ZM25 5.5418L24.5241 9.51339L28.6241 10.0047L29.1 6.03309L29.5759 2.0615L25.4759 1.57021L25 5.5418ZM29.1 6.03309L28.6241 10.0047L32.7241 10.496L33.2 6.52438L33.6759 2.55279L29.5759 2.0615L29.1 6.03309ZM33.2 6.52438L32.7241 10.496C35.6252 10.8436 38.5287 11.0055 41.4335 10.9812L41.4 6.98134L41.3665 2.98148C38.8046 3.00293 36.2414 2.8602 33.6759 2.55279L33.2 6.52438ZM41.4 6.98134L41.4335 10.9812L45.5335 10.9469L45.5 6.94702L45.4665 2.94716L41.3665 2.98148L41.4 6.98134ZM45.5 6.94702L45.5335 10.9469L49.6335 10.9126L49.6 6.91269L49.5665 2.91283L45.4665 2.94716L45.5 6.94702ZM49.6 6.91269L49.6335 10.9126C52.4852 10.8887 55.3363 10.7384 58.1863 10.4618L57.8 6.48052L57.4137 2.49922C54.7971 2.75312 52.1815 2.89094 49.5665 2.91283L49.6 6.91269ZM57.8 6.48052L58.1863 10.4618L62.2863 10.064L61.9 6.08268L61.5137 2.10138L57.4137 2.49922L57.8 6.48052ZM61.9 6.08268L62.2863 10.064L66.3863 9.66613L66 5.68483L65.6137 1.70353L61.5137 2.10138L61.9 6.08268ZM66 5.68483L66.3863 9.66613C68.904 9.42183 71.4198 9.3831 73.9358 9.54964L74.2 5.55837L74.4642 1.56711C71.5136 1.3718 68.5627 1.41737 65.6137 1.70353L66 5.68483ZM74.2 5.55837L73.9358 9.54964L78.0358 9.82102L78.3 5.82976L78.5642 1.83849L74.4642 1.56711L74.2 5.55837ZM78.3 5.82976L78.0358 9.82102L82.1358 10.0924L82.4 6.10114L82.6642 2.10988L78.5642 1.83849L78.3 5.82976ZM82.4 6.10114L82.1358 10.0924C84.8473 10.2719 87.5588 10.4737 90.2704 10.6979L90.6 6.71153L90.9296 2.72514C88.1745 2.49733 85.4194 2.29225 82.6642 2.10988L82.4 6.10114ZM90.6 6.71153L90.2704 10.6979L94.3704 11.0369L94.7 7.05054L95.0296 3.06414L90.9296 2.72514L90.6 6.71153ZM94.7 7.05054L94.3704 11.0369L98.4704 11.3759L98.8 7.38954L99.1296 3.40314L95.0296 3.06414L94.7 7.05054ZM98.8 7.38954L98.4704 11.3759C101.291 11.6091 104.112 11.7494 106.933 11.7965L107 7.7971L107.067 3.79766C104.422 3.75343 101.776 3.62194 99.1296 3.40314L98.8 7.38954ZM107 7.7971L106.933 11.7965L111.033 11.8651L111.1 7.86566L111.167 3.86622L107.067 3.79766L107 7.7971ZM111.1 7.86566L111.033 11.8651L115.133 11.9337L115.2 7.93421L115.267 3.93477L111.167 3.86622L111.1 7.86566ZM115.2 7.93421L115.133 11.9337C117.889 11.9797 120.644 12.0027 123.4 12.0027L123.4 8.00267L123.4 4.00267C120.689 4.00274 117.978 3.98011 115.267 3.93477L115.2 7.93421ZM123.4 8.00267L123.4 12.0027L127.5 12.0026L127.5 8.00257L127.5 4.00257L123.4 4.00267L123.4 8.00267ZM127.5 8.00257L127.5 12.0026L131.6 12.0025L131.6 8.00247L131.6 4.00247L127.5 4.00257L127.5 8.00257ZM131.6 8.00247L131.6 12.0025C134.279 12.0024 136.959 12.0566 139.638 12.1651L139.8 8.16842L139.962 4.17169C137.175 4.05881 134.387 4.0024 131.6 4.00247L131.6 8.00247ZM139.8 8.16842L139.638 12.1651L143.738 12.3312L143.9 8.33447L144.062 4.33775L139.962 4.17169L139.8 8.16842ZM143.9 8.33447L143.738 12.3312L147.838 12.4972L148 8.50052L148.162 4.5038L144.062 4.33775L143.9 8.33447ZM148 8.50052L147.838 12.4972C150.907 12.6215 153.969 12.3629 157.017 11.727L156.2 7.81129L155.383 3.89558C152.965 4.40006 150.56 4.60093 148.162 4.5038L148 8.50052ZM156.2 7.81129L157.017 11.727L161.117 10.8717L160.3 6.95601L159.483 3.0403L155.383 3.89558L156.2 7.81129ZM160.3 6.95601L161.117 10.8717L165.217 10.0164L164.4 6.10072L163.583 2.18502L159.483 3.0403L160.3 6.95601ZM164.4 6.10072L165.217 10.0164C167.543 9.53119 169.852 9.42009 172.159 9.67621L172.6 5.70063L173.041 1.72506C169.882 1.37426 166.724 1.52988 163.583 2.18502L164.4 6.10072ZM172.6 5.70063L172.159 9.67621L176.259 10.1314L176.7 6.15582L177.141 2.18025L173.041 1.72506L172.6 5.70063ZM176.7 6.15582L176.259 10.1314L180.359 10.5866L180.8 6.61102L181.241 2.63544L177.141 2.18025L176.7 6.15582ZM180.8 6.61102L180.359 10.5866C183.41 10.9254 186.464 10.897 189.514 10.5021L189 6.53525L188.486 2.56838C186.069 2.8814 183.656 2.90357 181.241 2.63544L180.8 6.61102ZM189 6.53525L189.514 10.5021L193.614 9.97117L193.1 6.0043L192.586 2.03742L188.486 2.56838L189 6.53525ZM193.1 6.0043L193.614 9.97117L197.714 9.44022L197.2 5.47334L196.686 1.50647L192.586 2.03742L193.1 6.0043ZM197.2 5.47334L197.714 9.44022C200.046 9.13812 202.376 9.18854 204.717 9.59415L205.4 5.65289L206.083 1.71164C202.957 1.1699 199.82 1.10063 196.686 1.50647L197.2 5.47334ZM205.4 5.65289L204.717 9.59415L208.817 10.3047L209.5 6.3634L210.183 2.42214L206.083 1.71164L205.4 5.65289ZM209.5 6.3634L208.817 10.3047L212.917 11.0152L213.6 7.07391L214.283 3.13265L210.183 2.42214L209.5 6.3634ZM213.6 7.07391L212.917 11.0152C216.092 11.5653 219.277 11.5777 222.453 11.0517L221.8 7.10542L221.146 3.15917C218.856 3.53843 216.575 3.52981 214.283 3.13265L213.6 7.07391ZM221.8 7.10542L222.453 11.0517L226.553 10.3727L225.9 6.42644L225.246 2.48019L221.146 3.15917L221.8 7.10542ZM225.9 6.42644L226.553 10.3727L230.653 9.6937L230 5.74745L229.346 1.8012L225.246 2.48019L225.9 6.42644ZM230 5.74745L230.653 9.6937C233.05 9.29679 235.438 9.21206 237.825 9.43674L238.2 5.45434L238.575 1.47194C235.495 1.18212 232.416 1.29279 229.346 1.8012L230 5.74745ZM238.2 5.45434L237.825 9.43674L241.925 9.82263L242.3 5.84023L242.675 1.85782L238.575 1.47194L238.2 5.45434ZM242.3 5.84023L241.925 9.82263L246.025 10.2085L246.4 6.22611L246.775 2.24371L242.675 1.85782L242.3 5.84023ZM246.4 6.22611L246.025 10.2085C248.993 10.4879 251.963 10.5038 254.932 10.2563L254.6 6.2701L254.268 2.28393C251.77 2.49221 249.273 2.47885 246.775 2.24371L246.4 6.22611ZM254.6 6.2701L254.932 10.2563L259.032 9.91437L258.7 5.92821L258.368 1.94204L254.268 2.28393L254.6 6.2701ZM258.7 5.92821L259.032 9.91437L263.132 9.57248L262.8 5.58631L262.468 1.60015L258.368 1.94204L258.7 5.92821ZM262.8 5.58631L263.132 9.57248C265.463 9.37815 267.798 9.53232 270.152 10.0428L271 6.13375L271.848 2.22465C268.735 1.5494 265.604 1.33862 262.468 1.60015L262.8 5.58631ZM271 6.13375L270.152 10.0428L274.252 10.9322L275.1 7.02307L275.948 3.11398L271.848 2.22465L271 6.13375ZM275.1 7.02307L274.252 10.9322L278.352 11.8215L279.2 7.9124L280.048 4.0033L275.948 3.11398L275.1 7.02307ZM279.2 7.9124L278.352 11.8215C281.667 12.5406 285.001 12.5119 288.31 11.7385L287.4 7.84349L286.49 3.94845C284.332 4.45274 282.199 4.46993 280.048 4.0033L279.2 7.9124ZM287.4 7.84349L288.31 11.7385L292.41 10.7803L291.5 6.88525L290.59 2.99022L286.49 3.94845L287.4 7.84349ZM291.5 6.88525L292.41 10.7803L296.51 9.82205L295.6 5.92702L294.69 2.03198L290.59 2.99022L291.5 6.88525ZM295.6 5.92702L296.51 9.82205C298.79 9.28936 301.044 9.17114 303.297 9.45662L303.8 5.48835L304.303 1.52009C301.089 1.1128 297.877 1.28703 294.69 2.03198L295.6 5.92702ZM303.8 5.48835L303.297 9.45662L307.397 9.97619L307.9 6.00793L308.403 2.03966L304.303 1.52009L303.8 5.48835ZM307.9 6.00793L307.397 9.97619L311.497 10.4958L312 6.5275L312.503 2.55923L308.403 2.03966L307.9 6.00793ZM312 6.5275L311.497 10.4958C314.538 10.8812 317.584 10.9108 320.627 10.5841L320.2 6.60695L319.773 2.6298C317.35 2.88994 314.928 2.86661 312.503 2.55923L312 6.5275ZM320.2 6.60695L320.627 10.5841L324.727 10.144L324.3 6.16684L323.873 2.18969L319.773 2.6298L320.2 6.60695ZM324.3 6.16684L324.727 10.144L328.827 9.70387L328.4 5.72672L327.973 1.74957L323.873 2.18969L324.3 6.16684ZM328.4 5.72672L328.827 9.70387C331.417 9.42585 334.005 9.2893 336.593 9.29392L336.6 5.29393L336.607 1.29393C333.728 1.28879 330.85 1.44077 327.973 1.74957L328.4 5.72672ZM336.6 5.29393L336.593 9.29392L340.693 9.30124L340.7 5.30124L340.707 1.30125L336.607 1.29393L336.6 5.29393ZM340.7 5.30124L340.693 9.30124L344.793 9.30856L344.8 5.30856L344.807 1.30857L340.707 1.30125L340.7 5.30124ZM344.8 5.30856L344.793 9.30856C347.58 9.31353 350.368 9.26201 353.155 9.154L353 5.157L352.845 1.16C350.166 1.26383 347.486 1.31335 344.807 1.30857L344.8 5.30856ZM353 5.157L353.155 9.154L357.255 8.99511L357.1 4.99811L356.945 1.00111L352.845 1.16L353 5.157ZM357.1 4.99811L357.255 8.99511L361.355 8.83622L361.2 4.83922L361.045 0.84222L356.945 1.00111L357.1 4.99811ZM361.2 4.83922L361.355 8.83622C363.76 8.74301 366.171 8.94259 368.596 9.44021L369.4 5.5219L370.204 1.60359C367.162 0.979116 364.107 0.723578 361.045 0.84222L361.2 4.83922ZM369.4 5.5219L368.596 9.44021L372.696 10.2818L373.5 6.36347L374.304 2.44516L370.204 1.60359L369.4 5.5219ZM373.5 6.36347L372.696 10.2818L376.796 11.1233L377.6 7.20504L378.404 3.28673L374.304 2.44516L373.5 6.36347ZM377.6 7.20504L376.796 11.1233C379.906 11.7619 383.033 11.9416 386.163 11.6561L385.8 7.67264L385.437 3.68918C383.1 3.90229 380.76 3.7703 378.404 3.28673L377.6 7.20504ZM385.8 7.67264L386.163 11.6561L390.263 11.2821L389.9 7.29868L389.537 3.31521L385.437 3.68918L385.8 7.67264ZM389.9 7.29868L390.263 11.2821L394.363 10.9082L394 6.92471L393.637 2.94125L389.537 3.31521L389.9 7.29868ZM394 6.92471L394.363 10.9082C397.085 10.6599 399.807 10.4235 402.529 10.1988L402.2 6.21237L401.871 2.22592C399.126 2.45246 396.381 2.6909 393.637 2.94125L394 6.92471ZM402.2 6.21237L402.529 10.1988L406.629 9.86044L406.3 5.87399L405.971 1.88754L401.871 2.22592L402.2 6.21237ZM406.3 5.87399L406.629 9.86044L410.729 9.52205L410.4 5.53561L410.071 1.54916L405.971 1.88754L406.3 5.87399ZM410.4 5.53561L410.729 9.52205C413.276 9.31182 415.822 9.28052 418.369 9.42798L418.6 5.43467L418.831 1.44136C415.911 1.27224 412.99 1.30822 410.071 1.54916L410.4 5.53561ZM418.6 5.43467L418.369 9.42798L422.469 9.66543L422.7 5.67212L422.931 1.67881L418.831 1.44136L418.6 5.43467ZM422.7 5.67212L422.469 9.66543L426.569 9.90287L426.8 5.90956L427.031 1.91625L422.931 1.67881L422.7 5.67212ZM426.8 5.90956L426.569 9.90287C429.289 10.0604 432.009 10.2316 434.729 10.4164L435 6.42564L435.271 2.43485C432.524 2.24819 429.778 2.07532 427.031 1.91625L426.8 5.90956ZM435 6.42564L434.729 10.4164L438.829 10.6951L439.1 6.70428L439.371 2.71348L435.271 2.43485L435 6.42564ZM439.1 6.70428L438.829 10.6951L442.929 10.9737L443.2 6.98291L443.471 2.99212L439.371 2.71348L439.1 6.70428ZM443.2 6.98291L442.929 10.9737C445.961 11.1798 448.992 11.0464 452.015 10.5756L451.4 6.62325L450.785 2.67086C448.342 3.0512 445.906 3.15756 443.471 2.99212L443.2 6.98291ZM451.4 6.62325L452.015 10.5756L456.115 9.93734L455.5 5.98495L454.885 2.03256L450.785 2.67086L451.4 6.62325ZM455.5 5.98495L456.115 9.93734L460.215 9.29904L459.6 5.34665L458.985 1.39426L454.885 2.03256L455.5 5.98495ZM459.6 5.34665L460.215 9.29904C462.579 8.93102 464.935 8.89796 467.295 9.19842L467.8 5.23047L468.305 1.26251C465.198 0.866817 462.087 0.911202 458.985 1.39426L459.6 5.34665ZM467.8 5.23047L467.295 9.19842L471.395 9.72054L471.9 5.75259L472.405 1.78463L468.305 1.26251L467.8 5.23047ZM471.9 5.75259L471.395 9.72054L475.495 10.2427L476 6.27471L476.505 2.30675L472.405 1.78463L471.9 5.75259ZM476 6.27471L475.495 10.2427C478.357 10.6071 481.221 10.8305 484.086 10.9122L484.2 6.91387L484.314 2.9155C481.712 2.84124 479.11 2.63843 476.505 2.30675L476 6.27471ZM484.2 6.91387L484.086 10.9122L488.186 11.0293L488.3 7.03091L488.414 3.03254L484.314 2.9155L484.2 6.91387ZM488.3 7.03091L488.186 11.0293L492.286 11.1463L492.4 7.14795L492.514 3.14958L488.414 3.03254L488.3 7.03091ZM492.4 7.14795L492.286 11.1463C495.245 11.2308 498.202 11.0654 501.155 10.6514L500.6 6.69014L500.044 2.72888C497.531 3.08132 495.021 3.22115 492.514 3.14958L492.4 7.14795ZM500.6 6.69014L501.155 10.6514L505.255 10.0765L504.7 6.11529L504.144 2.15403L500.044 2.72888L500.6 6.69014ZM504.7 6.11529L505.255 10.0765L509.355 9.50169L508.8 5.54044L508.244 1.57918L504.144 2.15403L504.7 6.11529ZM508.8 5.54044L509.355 9.50169C511.637 9.18184 513.915 9.25039 516.21 9.71265L517 5.7914L517.79 1.87015C514.618 1.23132 511.43 1.13257 508.244 1.57918L508.8 5.54044ZM517 5.7914L516.21 9.71265L520.31 10.5385L521.1 6.61722L521.89 2.69597L517.79 1.87015L517 5.7914ZM521.1 6.61722L520.31 10.5385L524.41 11.3643L525.2 7.44304L525.99 3.52179L521.89 2.69597L521.1 6.61722ZM525.2 7.44304L524.41 11.3643C527.608 12.0084 530.822 12.0766 534.03 11.5646L533.4 7.61457L532.77 3.66455C530.511 4.02496 528.259 3.9788 525.99 3.52179L525.2 7.44304ZM533.4 7.61457L534.03 11.5646L538.13 10.9103L537.5 6.96028L536.87 3.01026L532.77 3.66455L533.4 7.61457ZM537.5 6.96028L538.13 10.9103L542.23 10.256L541.6 6.30599L540.97 2.35597L536.87 3.01026L537.5 6.96028ZM541.6 6.30599L542.23 10.256C544.798 9.84621 547.363 9.60183 549.924 9.52198L549.8 5.52393L549.675 1.52587C546.771 1.6164 543.868 1.89339 540.97 2.35597L541.6 6.30599ZM549.8 5.52393L549.924 9.52198L554.025 9.39421L553.9 5.39615L553.775 1.39809L549.675 1.52587L549.8 5.52393ZM553.9 5.39615L554.025 9.39421L558.125 9.26643L558 5.26837L557.875 1.27031L553.775 1.39809L553.9 5.39615ZM558 5.26837L558.125 9.26643C560.505 9.19223 562.895 9.42863 565.302 9.98328L566.2 6.08544L567.098 2.1876C564.038 1.48245 560.961 1.17414 557.875 1.27031L558 5.26837ZM566.2 6.08544L565.302 9.98328L569.402 10.9281L570.3 7.03029L571.198 3.13245L567.098 2.1876L566.2 6.08544ZM570.3 7.03029L569.402 10.9281L573.502 11.873L574.4 7.97514L575.298 4.0773L571.198 3.13245L570.3 7.03029ZM574.4 7.97514L573.502 11.873C576.767 12.6254 580.056 12.6982 583.336 12.0846L582.6 8.15287L581.864 4.2211C579.677 4.63035 577.5 4.58468 575.298 4.0773L574.4 7.97514ZM582.6 8.15287L583.336 12.0846L587.436 11.3175L586.7 7.38575L585.964 3.45398L581.864 4.2211L582.6 8.15287ZM586.7 7.38575L587.436 11.3175L591.536 10.5504L590.8 6.61864L590.064 2.68686L585.964 3.45398L586.7 7.38575ZM590.8 6.61864L591.536 10.5504C593.832 10.1207 596.116 10.0797 598.404 10.4244L599 6.46899L599.596 2.5136C596.418 2.03498 593.234 2.09376 590.064 2.68686L590.8 6.61864ZM599 6.46899L598.404 10.4244L602.504 11.0419L603.1 7.08647L603.696 3.13107L599.596 2.5136L599 6.46899ZM603.1 7.08647L602.504 11.0419L606.604 11.6593L607.2 7.70394L607.796 3.74855L603.696 3.13107L603.1 7.08647ZM607.2 7.70394L606.604 11.6593C609.784 12.1382 612.969 12.0773 616.141 11.4799L615.4 7.54901L614.659 3.61816C612.364 4.05057 610.083 4.09296 607.796 3.74855L607.2 7.70394ZM615.4 7.54901L616.141 11.4799L620.241 10.7075L619.5 6.77661L618.759 2.84576L614.659 3.61816L615.4 7.54901ZM619.5 6.77661L620.241 10.7075L624.341 9.93506L623.6 6.00421L622.859 2.07336L618.759 2.84576L619.5 6.77661ZM623.6 6.00421L624.341 9.93506C626.872 9.45811 629.398 9.18305 631.919 9.10803L631.8 5.1098L631.681 1.11157C628.736 1.19922 625.794 1.52044 622.859 2.07336L623.6 6.00421ZM631.8 5.1098L631.919 9.10803L636.019 8.98603L635.9 4.9878L635.781 0.989568L631.681 1.11157L631.8 5.1098ZM635.9 4.9878L636.019 8.98603L640.119 8.86402L640 4.86579L639.881 0.867564L635.781 0.989568L635.9 4.9878ZM640 4.86579L640.119 8.86402C642.701 8.78719 645.283 8.85679 647.866 9.07298L648.2 5.08692L648.534 1.10085C645.65 0.859543 642.766 0.781722 639.881 0.867564L640 4.86579ZM648.2 5.08692L647.866 9.07298L651.966 9.41611L652.3 5.43004L652.634 1.44398L648.534 1.10085L648.2 5.08692ZM652.3 5.43004L651.966 9.41611L656.066 9.75924L656.4 5.77317L656.734 1.78711L652.634 1.44398L652.3 5.43004ZM656.4 5.77317L656.066 9.75924C658.747 9.98355 661.427 10.2617 664.108 10.5939L664.6 6.6242L665.092 2.65454C662.306 2.30945 659.52 2.0203 656.734 1.78711L656.4 5.77317ZM664.6 6.6242L664.108 10.5939L668.208 11.1018L668.7 7.13209L669.192 3.16243L665.092 2.65454L664.6 6.6242ZM668.7 7.13209L668.208 11.1018L672.308 11.6096L672.8 7.63999L673.292 3.67033L669.192 3.16243L668.7 7.13209ZM672.8 7.63999L672.308 11.6096C675.383 11.9905 678.461 11.9738 681.534 11.5599L681 7.59568L680.466 3.63148C678.073 3.95385 675.684 3.96667 673.292 3.67033L672.8 7.63999ZM681 7.59568L681.534 11.5599L685.634 11.0077L685.1 7.04348L684.566 3.07927L680.466 3.63148L681 7.59568ZM685.1 7.04348L685.634 11.0077L689.734 10.4555L689.2 6.49128L688.666 2.52707L684.566 3.07927L685.1 7.04348ZM689.2 6.49128L689.734 10.4555C692.07 10.1409 694.402 10.1775 696.743 10.5672L697.4 6.62151L698.057 2.6758C694.932 2.15561 691.797 2.1054 688.666 2.52707L689.2 6.49128ZM697.4 6.62151L696.743 10.5672L700.843 11.2497L701.5 7.30395L702.157 3.35823L698.057 2.6758L697.4 6.62151ZM701.5 7.30395L700.843 11.2497L704.943 11.9321L705.6 7.98639L706.257 4.04067L702.157 3.35823L701.5 7.30395ZM705.6 7.98639L704.943 11.9321C708.017 12.4437 711.1 12.5528 714.183 12.2565L713.8 8.27483L713.417 4.29317C711.034 4.52223 708.65 4.439 706.257 4.04067L705.6 7.98639ZM713.8 8.27483L714.183 12.2565L718.283 11.8625L717.9 7.88082L717.518 3.89917L713.417 4.29317L713.8 8.27483ZM717.9 7.88082L718.283 11.8625L722.383 11.4685L722 7.48682L721.618 3.50517L717.518 3.89917L717.9 7.88082ZM722 7.48682L722.383 11.4685C725.171 11.2005 727.959 10.8744 730.746 10.4902L730.2 6.52767L729.654 2.56513C726.975 2.93445 724.296 3.24778 721.618 3.50517L722 7.48682ZM730.2 6.52767L730.746 10.4902L734.846 9.92504L734.3 5.96251L733.754 1.99997L729.654 2.56513L730.2 6.52767ZM734.3 5.96251L734.846 9.92504L738.946 9.35988L738.4 5.39735L737.854 1.43482L733.754 1.99997L734.3 5.96251ZM738.4 5.39735L738.946 9.35988C741.495 9.00861 744.04 8.839 746.583 8.85018L746.6 4.85022L746.618 0.850259C743.694 0.837401 740.772 1.03254 737.854 1.43482L738.4 5.39735ZM746.6 4.85022L746.583 8.85018L750.683 8.86821L750.7 4.86825L750.718 0.868291L746.618 0.850259L746.6 4.85022ZM750.7 4.86825L750.683 8.86821L754.783 8.88625L754.8 4.88628L754.818 0.886323L750.718 0.868291L750.7 4.86825ZM754.8 4.88628L754.783 8.88625C757.368 8.89762 759.955 9.05206 762.543 9.34993L763 5.37616L763.458 1.40239C760.579 1.07114 757.699 0.898995 754.818 0.886323L754.8 4.88628ZM763 5.37616L762.543 9.34993L766.643 9.82178L767.1 5.84801L767.558 1.87424L763.458 1.40239L763 5.37616ZM767.1 5.84801L766.643 9.82178L770.743 10.2936L771.2 6.31986L771.658 2.34608L767.558 1.87424L767.1 5.84801ZM771.2 6.31986L770.743 10.2936C773.777 10.6428 776.814 10.6463 779.849 10.3041L779.4 6.32934L778.952 2.35453C776.52 2.62883 774.09 2.62603 771.658 2.34608L771.2 6.31986ZM779.4 6.32934L779.849 10.3041L783.948 9.84178L783.5 5.86697L783.052 1.89217L778.952 2.35453L779.4 6.32934ZM783.5 5.86697L783.948 9.84178L788.049 9.37941L787.6 5.4046L787.152 1.4298L783.052 1.89217L783.5 5.86697ZM787.6 5.4046L788.049 9.37941C790.473 9.10597 792.895 9.11554 795.321 9.40835L795.8 5.43718L796.28 1.46601C793.239 1.0989 790.194 1.08676 787.152 1.4298L787.6 5.4046ZM795.8 5.43718L795.321 9.40835L799.421 9.90328L799.9 5.93211L800.38 1.96094L796.28 1.46601L795.8 5.43718ZM799.9 5.93211L799.421 9.90328L803.521 10.3982L804 6.42705L804.48 2.45588L800.38 1.96094L799.9 5.93211ZM804 6.42705L803.521 10.3982C806.55 10.7639 809.583 10.7895 812.614 10.4747L812.2 6.49614L811.787 2.51754C809.351 2.77055 806.917 2.75013 804.48 2.45588L804 6.42705ZM812.2 6.49614L812.614 10.4747L816.714 10.0489L816.3 6.0703L815.887 2.0917L811.787 2.51754L812.2 6.49614ZM816.3 6.0703L816.714 10.0489L820.814 9.62305L820.4 5.64445L819.987 1.66585L815.887 2.0917L816.3 6.0703ZM820.4 5.64445L820.814 9.62305C823.41 9.35338 826.005 9.21908 828.599 9.21989L828.6 5.21989L828.602 1.21989C825.729 1.21899 822.857 1.36773 819.987 1.66585L820.4 5.64445ZM828.6 5.21989L828.599 9.21989L832.699 9.22117L832.7 5.22117L832.702 1.22117L828.602 1.21989L828.6 5.21989ZM832.7 5.22117L832.699 9.22117L836.799 9.22245L836.8 5.22245L836.802 1.22245L832.702 1.22117L832.7 5.22117ZM836.8 5.22245L836.799 9.22245C839.481 9.22329 842.163 9.27581 844.845 9.38L845 5.38301L845.156 1.38603C842.371 1.27785 839.586 1.22333 836.802 1.22245L836.8 5.22245ZM845 5.38301L844.845 9.38L848.945 9.53927L849.1 5.54229L849.256 1.5453L845.156 1.38603L845 5.38301ZM849.1 5.54229L848.945 9.53927L853.045 9.69855L853.2 5.70157L853.356 1.70458L849.256 1.5453L849.1 5.54229ZM853.2 5.70157L853.045 9.69855C855.737 9.80314 858.43 9.94922 861.122 10.1368L861.4 6.14645L861.678 2.15612C858.904 1.96287 856.13 1.81236 853.356 1.70458L853.2 5.70157ZM861.4 6.14645L861.122 10.1368L865.222 10.4224L865.5 6.43205L865.778 2.44172L861.678 2.15612L861.4 6.14645ZM865.5 6.43205L865.222 10.4224L869.322 10.708L869.6 6.71765L869.878 2.72732L865.778 2.44172L865.5 6.43205ZM869.6 6.71765L869.322 10.708C871.957 10.8915 874.592 11.1736 877.228 11.5544L877.8 7.59553L878.372 3.63663C875.542 3.22779 872.711 2.92463 869.878 2.72732L869.6 6.71765ZM877.8 7.59553L877.228 11.5544L881.328 12.1467L881.9 8.18781L882.472 4.22891L878.372 3.63663L877.8 7.59553ZM881.9 8.18781L881.328 12.1467L885.428 12.739L886 8.78009L886.572 4.82119L882.472 4.22891L881.9 8.18781ZM886 8.78009L885.428 12.739C888.511 13.1843 891.599 13.2191 894.685 12.8425L894.2 8.87197L893.716 4.90144C891.335 5.19206 888.957 5.16562 886.572 4.82119L886 8.78009ZM894.2 8.87197L894.685 12.8425L898.785 12.3421L898.3 8.37158L897.816 4.40104L893.716 4.90144L894.2 8.87197ZM898.3 8.37158L898.785 12.3421L902.885 11.8417L902.4 7.87118L901.916 3.90064L897.816 4.40104L898.3 8.37158ZM902.4 7.87118L902.885 11.8417C905.389 11.5361 907.89 11.4493 910.391 11.5805L910.6 7.58604L910.81 3.59155C907.844 3.4358 904.878 3.5391 901.916 3.90064L902.4 7.87118ZM910.6 7.58604L910.391 11.5805L914.491 11.7958L914.7 7.80131L914.91 3.80681L910.81 3.59155L910.6 7.58604ZM914.7 7.80131L914.491 11.7958L918.591 12.0111L918.8 8.01658L919.01 4.02208L914.91 3.80681L914.7 7.80131ZM918.8 8.01658L918.591 12.0111C921.551 12.1665 924.511 12.0702 927.467 11.7228L927 7.75011L926.534 3.77744C924.024 4.07236 921.517 4.15368 919.01 4.02208L918.8 8.01658ZM927 7.75011L927.467 11.7228L931.567 11.241L931.1 7.26837L930.634 3.2957L926.534 3.77744L927 7.75011ZM931.1 7.26837L931.567 11.241L935.667 10.7593L935.2 6.78664L934.734 2.81397L930.634 3.2957L931.1 7.26837ZM935.2 6.78664L935.667 10.7593C938.069 10.4771 940.468 10.4959 942.872 10.8164L943.4 6.85142L943.929 2.88649C940.866 2.47823 937.798 2.45387 934.734 2.81397L935.2 6.78664ZM943.4 6.85142L942.872 10.8164L946.972 11.3629L947.5 7.39794L948.029 3.43301L943.929 2.88649L943.4 6.85142ZM947.5 7.39794L946.972 11.3629L951.072 11.9094L951.6 7.94446L952.129 3.97953L948.029 3.43301L947.5 7.39794ZM951.6 7.94446L951.072 11.9094C954.08 12.3104 957.093 12.3958 960.107 12.1644L959.8 8.17612L959.494 4.18786C957.041 4.37627 954.587 4.30722 952.129 3.97953L951.6 7.94446ZM959.8 8.17612L960.107 12.1644L964.207 11.8495L963.9 7.86126L963.594 3.873L959.494 4.18786L959.8 8.17612ZM963.9 7.86126L964.207 11.8495L968.307 11.5346L968 7.54639L967.694 3.55814L963.594 3.873L963.9 7.86126ZM968 7.54639L968.307 11.5346C970.892 11.3361 973.477 11.2818 976.061 11.3718L976.201 7.37421L976.34 3.37663C973.457 3.27633 970.575 3.33687 967.694 3.55814L968 7.54639ZM976.201 7.37421L976.061 11.3718L980.161 11.5145L980.301 7.51688L980.44 3.5193L976.34 3.37663L976.201 7.37421ZM980.301 7.51688L980.161 11.5145L984.261 11.6571L984.401 7.65956L984.54 3.66198L980.44 3.5193L980.301 7.51688ZM984.401 7.65956L984.261 11.6571C986.932 11.7501 989.602 11.9062 992.273 12.1255L992.601 8.13894L992.928 4.15236C990.132 3.92276 987.336 3.75929 984.54 3.66198L984.401 7.65956ZM992.601 8.13894L992.273 12.1255L996.373 12.4622L996.701 8.47564L997.028 4.48906L992.928 4.15236L992.601 8.13894ZM996.701 8.47564L996.373 12.4622L1000.47 12.7989L1000.8 8.81235L1001.13 4.82577L997.028 4.48906L996.701 8.47564ZM1000.8 8.81235L1000.47 12.7989C1003.59 13.0553 1006.71 12.8583 1009.81 12.2145L1009 8.29798L1008.19 4.38147C1005.82 4.87245 1003.47 5.01834 1001.13 4.82577L1000.8 8.81235ZM1009 8.29798L1009.81 12.2145L1013.91 11.3634L1013.1 7.44692L1012.29 3.53041L1008.19 4.38147L1009 8.29798ZM1013.1 7.44692L1013.91 11.3634L1018.01 10.5124L1017.2 6.59585L1016.39 2.67934L1012.29 3.53041L1013.1 7.44692ZM1017.2 6.59585L1018.01 10.5124C1020.31 10.0365 1022.58 9.95782 1024.86 10.2701L1025.4 6.30716L1025.94 2.34427C1022.75 1.90667 1019.56 2.02045 1016.39 2.67934L1017.2 6.59585ZM1025.4 6.30716L1024.86 10.2701L1028.96 10.8324L1029.5 6.86954L1030.04 2.90665L1025.94 2.34427L1025.4 6.30716ZM1029.5 6.86954L1028.96 10.8324L1033.06 11.3948L1033.6 7.43192L1034.14 3.46903L1030.04 2.90665L1029.5 6.86954ZM1033.6 7.43192L1033.06 11.3948C1036.22 11.8287 1039.39 11.7472 1042.54 11.1542L1041.8 7.22309L1041.06 3.29203C1038.75 3.72723 1036.45 3.78495 1034.14 3.46903L1033.6 7.43192ZM1041.8 7.22309L1042.54 11.1542L1046.64 10.3829L1045.9 6.45188L1045.16 2.52082L1041.06 3.29203L1041.8 7.22309ZM1045.9 6.45188L1046.64 10.3829L1050.74 9.61173L1050 5.68067L1049.26 1.74961L1045.16 2.52082L1045.9 6.45188ZM1050 5.68067L1050.74 9.61173C1053.17 9.15504 1055.59 8.98999 1058 9.11251L1058.2 5.11765L1058.4 1.1228C1055.35 0.967727 1052.3 1.17803 1049.26 1.74961L1050 5.68067ZM1058.2 5.11765L1058 9.11251L1062.1 9.3207L1062.3 5.32584L1062.5 1.33099L1058.4 1.1228L1058.2 5.11765ZM1062.3 5.32584L1062.1 9.3207L1066.2 9.52889L1066.4 5.53403L1066.6 1.53918L1062.5 1.33099L1062.3 5.32584ZM1066.4 5.53403L1066.2 9.52889C1068.99 9.6709 1071.79 9.74621 1074.59 9.75481L1074.6 5.75482L1074.61 1.75484C1071.94 1.74664 1069.27 1.67476 1066.6 1.53918L1066.4 5.53403ZM1074.6 5.75482L1074.59 9.75481L1078.69 9.76741L1078.7 5.76742L1078.71 1.76744L1074.61 1.75484L1074.6 5.75482ZM1078.7 5.76742L1078.69 9.76741L1082.79 9.78001L1082.8 5.78003L1082.81 1.78004L1078.71 1.76744L1078.7 5.76742ZM1082.8 5.78003L1082.79 9.78001C1085.27 9.78763 1087.75 10.0286 1090.25 10.5059L1091 6.57714L1091.75 2.64842C1088.78 2.07962 1085.8 1.78922 1082.81 1.78004L1082.8 5.78003ZM1091 6.57714L1090.25 10.5059L1094.35 11.2904L1095.1 7.36166L1095.85 3.43293L1091.75 2.64842L1091 6.57714ZM1095.1 7.36166L1094.35 11.2904L1098.45 12.0749L1099.2 8.14617L1099.95 4.21745L1095.85 3.43293L1095.1 7.36166ZM1099.2 8.14617L1098.45 12.0749C1101.46 12.6502 1104.47 12.9045 1107.49 12.8341L1107.4 8.83514L1107.31 4.83623C1104.86 4.89321 1102.41 4.68815 1099.95 4.21745L1099.2 8.14617ZM1107.4 8.83514L1107.49 12.8341L1111.59 12.7385L1111.5 8.73959L1111.41 4.74068L1107.31 4.83623L1107.4 8.83514ZM1111.5 8.73959L1111.59 12.7385L1115.69 12.643L1115.6 8.64404L1115.51 4.64513L1111.41 4.74068L1111.5 8.73959ZM1115.6 8.64404L1115.69 12.643C1118.62 12.5748 1121.54 12.2978 1124.46 11.8132L1123.8 7.86729L1123.15 3.92138C1120.6 4.34503 1118.05 4.58588 1115.51 4.64513L1115.6 8.64404ZM1123.8 7.86729L1124.46 11.8132L1128.56 11.132L1127.9 7.18608L1127.25 3.24018L1123.15 3.92138L1123.8 7.86729ZM1127.9 7.18608L1128.56 11.132L1132.66 10.4508L1132 6.50488L1131.35 2.55897L1127.25 3.24018L1127.9 7.18608ZM1132 6.50488L1132.66 10.4508C1135.14 10.0384 1137.61 9.86902 1140.09 9.94038L1140.2 5.94205L1140.32 1.94372C1137.32 1.85725 1134.33 2.06308 1131.35 2.55897L1132 6.50488ZM1140.2 5.94205L1140.09 9.94038L1144.19 10.0588L1144.3 6.06043L1144.42 2.06209L1140.32 1.94372L1140.2 5.94205ZM1144.3 6.06043L1144.19 10.0588L1148.29 10.1771L1148.4 6.1788L1148.52 2.18047L1144.42 2.06209L1144.3 6.06043ZM1148.4 6.1788L1148.29 10.1771C1149.63 10.2161 1150.66 10.2588 1151.38 10.3038C1151.75 10.3264 1152 10.3477 1152.17 10.3655C1152.41 10.3913 1152.29 10.3928 1152.04 10.3235L1153.13 6.47289L1154.21 2.62224C1153.5 2.42426 1152.53 2.35994 1151.88 2.31924C1151.03 2.26619 1149.9 2.22043 1148.52 2.18047L1148.4 6.1788ZM1153.13 6.47289L1152.04 10.3235L1152.67 10.4992L1153.75 6.64859L1154.83 2.79794L1154.21 2.62224L1153.13 6.47289ZM1153.75 6.64859L1152.58 10.4739L1153.73 10.8253L1154.9 7L1156.07 3.17471L1154.92 2.8233L1153.75 6.64859ZM1154.9 7V11H1155V7V3H1154.9V7Z" fill="#462E00"/>
</svg>
