<svg width="98" height="104" viewBox="0 0 98 104" fill="none" xmlns="http://www.w3.org/2000/svg">
<path d="M72.2504 100.369C70.1039 102.245 58.4135 104.117 34.4228 100.042C24.4921 98.7133 6.83003 98.3819 3.33734 94.6807C0.964912 92.1666 1.57428 89.409 1.67015 87.622C1.76601 85.8351 5.29381 83.6349 10.3938 83.9085C15.4938 84.1821 16.6096 82.4499 24.0683 83.2483C31.5269 84.0466 37.2856 84.7538 49.4936 86.0061C61.7015 87.2584 63.4015 87.3496 72.7937 90.2429C82.1858 93.1362 74.397 98.4927 72.2504 100.369Z" fill="#F4AB1E"/>
<path d="M36.9586 100.809L37.3268 99.5901L36.9586 100.809ZM42.1586 101.429L42.0492 102.697L42.1586 101.429ZM43.0273 101.504L42.9179 102.772L43.0273 101.504ZM45.6235 101.848L45.9042 100.606L45.6235 101.848ZM49.0785 102.408L49.1103 103.681L49.0785 102.408ZM50.8354 102.365L50.8672 103.637L50.8354 102.365ZM52.5912 102.276L52.4946 101.007L52.5912 102.276ZM53.4685 102.209L53.5651 103.478L53.4685 102.209ZM54.3458 102.142L54.2492 100.873L54.3458 102.142ZM57.8287 102.583L58.0718 101.333L57.8287 102.583ZM59.5688 102.649L59.4196 101.384L59.5688 102.649ZM63.0417 102.197L62.8325 100.941L63.0417 102.197ZM63.8996 102.054L64.1088 103.31L63.8996 102.054ZM64.7575 101.911L64.9667 103.167L64.7575 101.911ZM66.4584 101.598L66.7103 102.846L66.4584 101.598ZM68.1443 101.258L67.8924 100.01L68.1443 101.258ZM69.7399 100.808L70.1826 102.002L69.7399 100.808ZM71.245 100.25L71.6878 101.444L71.245 100.25ZM72.8512 99.6101L72.3557 98.4375L72.8512 99.6101ZM74.5586 98.8886L75.0541 100.061L74.5586 98.8886ZM75.8532 97.7308L74.7393 97.1147L75.8532 97.7308ZM76.2941 96.9338L77.408 97.5499L76.2941 96.9338ZM76.735 96.1367L75.6211 95.5205L76.735 96.1367ZM76.7601 92.7488L75.5031 92.9506L76.7601 92.7488ZM75.7695 91.6494L75.4299 92.8763L75.7695 91.6494ZM74.9175 91.4136L74.578 92.6405L74.9175 91.4136ZM74.0655 91.1779L74.4051 89.951L74.0655 91.1779ZM71.5449 90.4564L71.1892 91.6787L71.5449 90.4564ZM70.7106 90.2136L71.0663 88.9913L70.7106 90.2136ZM69.0535 89.6923L68.6453 90.8981L69.0535 89.6923ZM68.2307 89.4138L68.6388 88.208L68.2307 89.4138ZM64.0343 88.3797L64.2683 87.1284L64.0343 88.3797ZM62.3515 87.9311L61.9333 89.1334L62.3515 87.9311ZM60.6864 87.352L61.1046 86.1496L60.6864 87.352ZM58.9683 87.1377L59.0762 88.4061L58.9683 87.1377ZM57.1971 87.2883L57.0892 86.0199L57.1971 87.2883ZM52.0706 86.0319L51.8279 87.2815L52.0706 86.0319ZM50.3489 85.6975L50.5916 84.4478L50.3489 85.6975ZM48.6107 85.5326L48.6074 84.2596L48.6107 85.5326ZM47.7334 85.5349L47.7367 86.8079L47.7334 85.5349ZM45.1229 85.3439L44.8393 86.5849L45.1229 85.3439ZM43.4113 84.9528L43.6949 83.7118L43.4113 84.9528ZM41.6758 84.784L41.7145 86.0564L41.6758 84.784ZM39.9164 84.8376L39.8777 83.5652L39.9164 84.8376ZM38.18 84.6798L38.448 83.4354L38.18 84.6798ZM37.3232 84.4953L37.5912 83.2509L37.3232 84.4953ZM36.4665 84.3108L36.7345 83.0664L36.4665 84.3108ZM34.7418 84.0446L34.6224 85.3119L34.7418 84.0446ZM33.0059 83.881L33.1253 82.6137L33.0059 83.881ZM31.2713 83.7027L31.1303 84.9678L31.2713 83.7027ZM27.7815 83.5323L27.9508 84.794L27.7815 83.5323ZM26.0015 83.7711L25.8322 82.5095L26.0015 83.7711ZM24.2567 83.6699L23.9385 84.9024L24.2567 83.6699ZM22.5473 83.2285L22.8656 81.9959L22.5473 83.2285ZM19.0477 82.7663L18.932 84.034L19.0477 82.7663ZM17.2997 82.8358L17.5169 84.0901L17.2997 82.8358ZM15.567 83.1358L15.3498 81.8815L15.567 83.1358ZM13.849 83.2951L13.8628 84.568L13.849 83.2951ZM12.1456 83.3136L12.1318 82.0407L12.1456 83.3136ZM10.4355 83.6098L10.839 84.8171L10.4355 83.6098ZM8.71864 84.1834L8.3152 82.9761L8.71864 84.1834ZM6.9669 84.4804L6.98131 85.7533L6.9669 84.4804ZM6.07358 84.4905L6.05916 83.2176L6.07358 84.4905ZM5.18027 84.5006L5.16585 83.2277L5.18027 84.5006ZM2.62701 86.4965L1.65032 85.68L2.62701 86.4965ZM2.0732 88.8163L0.800205 88.8159L2.0732 88.8163ZM2.32624 91.2219L1.12066 91.6307L2.32624 91.2219ZM2.57977 91.9696L1.37419 92.3784L2.57977 91.9696ZM4.06303 94.988L2.9913 95.6749L4.06303 94.988ZM7.62808 97.2372L7.28426 98.4628L7.62808 97.2372ZM11.0861 98.002L10.8347 99.25L11.0861 98.002ZM16.3399 98.3616L16.3043 97.0891L16.3399 98.3616ZM23.3224 98.6739L23.1653 99.9372L23.3224 98.6739ZM24.1881 98.7816L24.031 100.045L24.1881 98.7816ZM27.6787 98.9305L27.6307 97.6584L27.6787 98.9305ZM31.9921 99.6516L31.6171 100.868L31.9921 99.6516ZM35.268 100.298L35.6362 99.0793L35.268 100.298ZM36.1133 100.553L36.4815 99.3347L37.3268 99.5901L36.9586 100.809L36.5904 102.027L35.7451 101.772L36.1133 100.553ZM36.9586 100.809L37.3268 99.5901C37.8056 99.7348 38.2898 99.8271 38.7809 99.8679L38.6754 101.137L38.5699 102.405C37.8989 102.349 37.2387 102.223 36.5904 102.027L36.9586 100.809ZM38.6754 101.137L38.7809 99.8679L39.6524 99.9404L39.5469 101.209L39.4414 102.478L38.5699 102.405L38.6754 101.137ZM39.5469 101.209L39.6524 99.9404L40.5239 100.013L40.4184 101.282L40.3129 102.55L39.4414 102.478L39.5469 101.209ZM40.4184 101.282L40.5239 100.013C41.1062 100.061 41.6876 100.111 42.268 100.161L42.1586 101.429L42.0492 102.697C41.4714 102.647 40.8926 102.598 40.3129 102.55L40.4184 101.282ZM42.1586 101.429L42.268 100.161L43.1367 100.236L43.0273 101.504L42.9179 102.772L42.0492 102.697L42.1586 101.429ZM43.0273 101.504L43.1367 100.236L44.0054 100.311L43.896 101.579L43.7865 102.847L42.9179 102.772L43.0273 101.504ZM43.896 101.579L44.0054 100.311C44.6427 100.366 45.2758 100.464 45.9042 100.606L45.6235 101.848L45.3428 103.09C44.8261 102.973 44.3075 102.892 43.7865 102.847L43.896 101.579ZM45.6235 101.848L45.9042 100.606L46.7631 100.8L46.4824 102.042L46.2017 103.284L45.3428 103.09L45.6235 101.848ZM46.4824 102.042L46.7631 100.8L47.6219 100.995L47.3412 102.236L47.0605 103.478L46.2017 103.284L46.4824 102.042ZM47.3412 102.236L47.6219 100.995C48.0922 101.101 48.5664 101.148 49.0467 101.136L49.0785 102.408L49.1103 103.681C48.4194 103.698 47.7354 103.63 47.0605 103.478L47.3412 102.236ZM49.0785 102.408L49.0467 101.136L49.9252 101.114L49.957 102.386L49.9888 103.659L49.1103 103.681L49.0785 102.408ZM49.957 102.386L49.9252 101.114L50.8036 101.092L50.8354 102.365L50.8672 103.637L49.9888 103.659L49.957 102.386ZM50.8354 102.365L50.8036 101.092C51.3676 101.078 51.9313 101.049 52.4946 101.007L52.5912 102.276L52.6878 103.545C52.0814 103.591 51.4745 103.622 50.8672 103.637L50.8354 102.365ZM52.5912 102.276L52.4946 101.007L53.3719 100.94L53.4685 102.209L53.5651 103.478L52.6878 103.545L52.5912 102.276ZM53.4685 102.209L53.3719 100.94L54.2492 100.873L54.3458 102.142L54.4424 103.412L53.5651 103.478L53.4685 102.209ZM54.3458 102.142L54.2492 100.873C54.9484 100.82 55.6445 100.861 56.3347 100.995L56.0916 102.245L55.8485 103.494C55.3807 103.403 54.913 103.376 54.4424 103.412L54.3458 102.142ZM56.0916 102.245L56.3347 100.995L57.2033 101.164L56.9602 102.414L56.7171 103.663L55.8485 103.494L56.0916 102.245ZM56.9602 102.414L57.2033 101.164L58.0718 101.333L57.8287 102.583L57.5856 103.832L56.7171 103.663L56.9602 102.414ZM57.8287 102.583L58.0718 101.333C58.5226 101.421 58.9704 101.437 59.4196 101.384L59.5688 102.649L59.718 103.913C59.0051 103.997 58.2927 103.97 57.5856 103.832L57.8287 102.583ZM59.5688 102.649L59.4196 101.384L60.2913 101.282L60.4405 102.546L60.5897 103.81L59.718 103.913L59.5688 102.649ZM60.4405 102.546L60.2913 101.282L61.1629 101.179L61.3121 102.443L61.4613 103.707L60.5897 103.81L60.4405 102.546ZM61.3121 102.443L61.1629 101.179C61.7241 101.112 62.2806 101.033 62.8325 100.941L63.0417 102.197L63.2509 103.453C62.6588 103.551 62.0623 103.636 61.4613 103.707L61.3121 102.443ZM63.0417 102.197L62.8325 100.941L63.6904 100.798L63.8996 102.054L64.1088 103.31L63.2509 103.453L63.0417 102.197ZM63.8996 102.054L63.6904 100.798L64.5483 100.656L64.7575 101.911L64.9667 103.167L64.1088 103.31L63.8996 102.054ZM64.7575 101.911L64.5483 100.656C65.1062 100.563 65.6589 100.461 66.2065 100.35L66.4584 101.598L66.7103 102.846C66.134 102.962 65.5528 103.069 64.9667 103.167L64.7575 101.911ZM66.4584 101.598L66.2065 100.35L67.0495 100.18L67.3014 101.428L67.5533 102.676L66.7103 102.846L66.4584 101.598ZM67.3014 101.428L67.0495 100.18L67.8924 100.01L68.1443 101.258L68.3962 102.506L67.5533 102.676L67.3014 101.428ZM68.1443 101.258L67.8924 100.01C68.394 99.9087 68.8617 99.7764 69.2971 99.6149L69.7399 100.808L70.1826 102.002C69.6146 102.213 69.0186 102.38 68.3962 102.506L68.1443 101.258ZM69.7399 100.808L69.2971 99.6149L70.0496 99.3357L70.4924 100.529L70.9352 101.723L70.1826 102.002L69.7399 100.808ZM70.4924 100.529L70.0496 99.3357L70.8022 99.0565L71.245 100.25L71.6878 101.444L70.9352 101.723L70.4924 100.529ZM71.245 100.25L70.8022 99.0565C71.2837 98.8779 71.8014 98.6717 72.3557 98.4375L72.8512 99.6101L73.3467 100.783C72.7628 101.029 72.2096 101.25 71.6878 101.444L71.245 100.25ZM72.8512 99.6101L72.3557 98.4375L73.2094 98.0768L73.7049 99.2494L74.2004 100.422L73.3467 100.783L72.8512 99.6101ZM73.7049 99.2494L73.2094 98.0768L74.0631 97.716L74.5586 98.8886L75.0541 100.061L74.2004 100.422L73.7049 99.2494ZM74.5586 98.8886L74.0631 97.716C74.3746 97.5844 74.5859 97.3919 74.7393 97.1147L75.8532 97.7308L76.9671 98.347C76.5326 99.1326 75.8809 99.7119 75.0541 100.061L74.5586 98.8886ZM75.8532 97.7308L74.7393 97.1147L75.1802 96.3176L76.2941 96.9338L77.408 97.5499L76.9671 98.347L75.8532 97.7308ZM76.2941 96.9338L75.1802 96.3176L75.6211 95.5205L76.735 96.1367L77.8489 96.7529L77.408 97.5499L76.2941 96.9338ZM76.735 96.1367L75.6211 95.5205C75.7834 95.227 75.8257 94.9602 75.7804 94.6778L77.0373 94.476L78.2942 94.2743C78.4337 95.1432 78.2745 95.9836 77.8489 96.7529L76.735 96.1367ZM77.0373 94.476L75.7804 94.6778L75.6418 93.8142L76.8987 93.6124L78.1556 93.4107L78.2942 94.2743L77.0373 94.476ZM76.8987 93.6124L75.6418 93.8142L75.5031 92.9506L76.7601 92.7488L78.017 92.5471L78.1556 93.4107L76.8987 93.6124ZM76.7601 92.7488L75.5031 92.9506C75.4955 92.9028 75.4864 92.8811 75.4847 92.8772C75.4835 92.8747 75.4871 92.8829 75.4974 92.8943C75.5076 92.9056 75.5144 92.909 75.5097 92.9063C75.5037 92.9028 75.4801 92.8902 75.4299 92.8763L75.7695 91.6494L76.109 90.4226C76.5806 90.5531 77.0322 90.7943 77.3888 91.19C77.7461 91.5866 77.9391 92.0618 78.017 92.5471L76.7601 92.7488ZM75.7695 91.6494L75.4299 92.8763L74.578 92.6405L74.9175 91.4136L75.2571 90.1868L76.109 90.4226L75.7695 91.6494ZM74.9175 91.4136L74.578 92.6405L73.726 92.4047L74.0655 91.1779L74.4051 89.951L75.2571 90.1868L74.9175 91.4136ZM74.0655 91.1779L73.726 92.4047C73.1527 92.2461 72.5852 92.085 72.0235 91.9215L72.3792 90.6992L72.735 89.477C73.2857 89.6372 73.8424 89.7953 74.4051 89.951L74.0655 91.1779ZM72.3792 90.6992L72.0235 91.9215L71.1892 91.6787L71.5449 90.4564L71.9006 89.2341L72.735 89.477L72.3792 90.6992ZM71.5449 90.4564L71.1892 91.6787L70.3549 91.4359L70.7106 90.2136L71.0663 88.9913L71.9006 89.2341L71.5449 90.4564ZM70.7106 90.2136L70.3549 91.4359C69.7811 91.2689 69.2112 91.0896 68.6453 90.8981L69.0535 89.6923L69.4616 88.4865C69.9928 88.6663 70.5277 88.8345 71.0663 88.9913L70.7106 90.2136ZM69.0535 89.6923L68.6453 90.8981L67.8225 90.6196L68.2307 89.4138L68.6388 88.208L69.4616 88.4865L69.0535 89.6923ZM68.2307 89.4138L67.8225 90.6196L66.9998 90.3411L67.4079 89.1353L67.816 87.9295L68.6388 88.208L68.2307 89.4138ZM67.4079 89.1353L66.9998 90.3411C66.5079 90.1746 66.0084 90.044 65.5008 89.949L65.7348 88.6977L65.9689 87.4464C66.595 87.5636 67.2108 87.7246 67.816 87.9295L67.4079 89.1353ZM65.7348 88.6977L65.5008 89.949L64.6505 89.79L64.8845 88.5387L65.1186 87.2874L65.9689 87.4464L65.7348 88.6977ZM64.8845 88.5387L64.6505 89.79L63.8002 89.631L64.0343 88.3797L64.2683 87.1284L65.1186 87.2874L64.8845 88.5387ZM64.0343 88.3797L63.8002 89.631C63.1697 89.513 62.5472 89.347 61.9333 89.1334L62.3515 87.9311L62.7697 86.7287C63.2657 86.9013 63.7652 87.0343 64.2683 87.1284L64.0343 88.3797ZM62.3515 87.9311L61.9333 89.1334L61.1008 88.8439L61.519 87.6415L61.9372 86.4392L62.7697 86.7287L62.3515 87.9311ZM61.519 87.6415L61.1008 88.8439L60.2682 88.5543L60.6864 87.352L61.1046 86.1496L61.9372 86.4392L61.519 87.6415ZM60.6864 87.352L60.2682 88.5543C59.8835 88.4205 59.4901 88.3709 59.0762 88.4061L58.9683 87.1377L58.8605 85.8693C59.6274 85.8041 60.3794 85.8974 61.1046 86.1496L60.6864 87.352ZM58.9683 87.1377L59.0762 88.4061L58.1905 88.4814L58.0827 87.213L57.9749 85.9446L58.8605 85.8693L58.9683 87.1377ZM58.0827 87.213L58.1905 88.4814L57.3049 88.5567L57.1971 87.2883L57.0892 86.0199L57.9749 85.9446L58.0827 87.213ZM57.1971 87.2883L57.3049 88.5567C56.5367 88.622 55.7819 88.5276 55.0518 88.276L55.4665 87.0724L55.8812 85.8689C56.2777 86.0055 56.6766 86.055 57.0892 86.0199L57.1971 87.2883ZM55.4665 87.0724L55.0518 88.276L54.2068 87.9849L54.6215 86.7813L55.0362 85.5778L55.8812 85.8689L55.4665 87.0724ZM54.6215 86.7813L54.2068 87.9849L53.3618 87.6937L53.7765 86.4902L54.1912 85.2866L55.0362 85.5778L54.6215 86.7813ZM53.7765 86.4902L53.3618 87.6937C52.8536 87.5186 52.3424 87.3814 51.8279 87.2815L52.0706 86.0319L52.3133 84.7822C52.9467 84.9052 53.5727 85.0735 54.1912 85.2866L53.7765 86.4902ZM52.0706 86.0319L51.8279 87.2815L50.9671 87.1143L51.2097 85.8647L51.4524 84.615L52.3133 84.7822L52.0706 86.0319ZM51.2097 85.8647L50.9671 87.1143L50.1062 86.9471L50.3489 85.6975L50.5916 84.4478L51.4524 84.615L51.2097 85.8647ZM50.3489 85.6975L50.1062 86.9471C49.6134 86.8514 49.1164 86.8043 48.614 86.8056L48.6107 85.5326L48.6074 84.2596C49.2748 84.2579 49.9366 84.3206 50.5916 84.4478L50.3489 85.6975ZM48.6107 85.5326L48.614 86.8056L47.7367 86.8079L47.7334 85.5349L47.73 84.2619L48.6074 84.2596L48.6107 85.5326ZM47.7334 85.5349L47.7367 86.8079L46.8594 86.8102L46.8561 85.5372L46.8527 84.2642L47.73 84.2619L47.7334 85.5349ZM46.8561 85.5372L46.8594 86.8102C46.1779 86.812 45.5039 86.7368 44.8393 86.5849L45.1229 85.3439L45.4065 84.1029C45.883 84.2118 46.3645 84.2655 46.8527 84.2642L46.8561 85.5372ZM45.1229 85.3439L44.8393 86.5849L43.9835 86.3894L44.2671 85.1484L44.5507 83.9074L45.4065 84.1029L45.1229 85.3439ZM44.2671 85.1484L43.9835 86.3894L43.1277 86.1938L43.4113 84.9528L43.6949 83.7118L44.5507 83.9074L44.2671 85.1484ZM43.4113 84.9528L43.1277 86.1938C42.6631 86.0876 42.1929 86.0418 41.7145 86.0564L41.6758 84.784L41.6371 83.5116C42.3316 83.4904 43.0184 83.5572 43.6949 83.7118L43.4113 84.9528ZM41.6758 84.784L41.7145 86.0564L40.8348 86.0832L40.7961 84.8108L40.7574 83.5384L41.6371 83.5116L41.6758 84.784ZM40.7961 84.8108L40.8348 86.0832L39.9551 86.11L39.9164 84.8376L39.8777 83.5652L40.7574 83.5384L40.7961 84.8108ZM39.9164 84.8376L39.9551 86.11C39.2661 86.1309 38.5843 86.0691 37.912 85.9243L38.18 84.6798L38.448 83.4354C38.918 83.5366 39.3938 83.5799 39.8777 83.5652L39.9164 84.8376ZM38.18 84.6798L37.912 85.9243L37.0552 85.7398L37.3232 84.4953L37.5912 83.2509L38.448 83.4354L38.18 84.6798ZM37.3232 84.4953L37.0552 85.7398L36.1985 85.5553L36.4665 84.3108L36.7345 83.0664L37.5912 83.2509L37.3232 84.4953ZM36.4665 84.3108L36.1985 85.5553C35.6761 85.4428 35.1508 85.3617 34.6224 85.3119L34.7418 84.0446L34.8612 82.7772C35.49 82.8364 36.1146 82.9328 36.7345 83.0664L36.4665 84.3108ZM34.7418 84.0446L34.6224 85.3119L33.7545 85.2302L33.8738 83.9628L33.9932 82.6954L34.8612 82.7772L34.7418 84.0446ZM33.8738 83.9628L33.7545 85.2302L32.8865 85.1484L33.0059 83.881L33.1253 82.6137L33.9932 82.6954L33.8738 83.9628ZM33.0059 83.881L32.8865 85.1484C32.3007 85.0932 31.7152 85.033 31.1303 84.9678L31.2713 83.7027L31.4124 82.4375C31.9829 82.5011 32.5539 82.5598 33.1253 82.6137L33.0059 83.881ZM31.2713 83.7027L31.1303 84.9678L30.2637 84.8712L30.4047 83.6061L30.5457 82.3409L31.4124 82.4375L31.2713 83.7027ZM30.4047 83.6061L30.2637 84.8712L29.3971 84.7746L29.5381 83.5095L29.6791 82.2443L30.5457 82.3409L30.4047 83.6061ZM29.5381 83.5095L29.3971 84.7746C28.9256 84.7221 28.4443 84.7277 27.9508 84.794L27.7815 83.5323L27.6122 82.2706C28.3053 82.1776 28.9951 82.168 29.6791 82.2443L29.5381 83.5095ZM27.7815 83.5323L27.9508 84.794L27.0608 84.9134L26.8915 83.6517L26.7222 82.39L27.6122 82.2706L27.7815 83.5323ZM26.8915 83.6517L27.0608 84.9134L26.1708 85.0328L26.0015 83.7711L25.8322 82.5095L26.7222 82.39L26.8915 83.6517ZM26.0015 83.7711L26.1708 85.0328C25.4174 85.1339 24.6702 85.0914 23.9385 84.9024L24.2567 83.6699L24.575 82.4373C24.9829 82.5426 25.3988 82.5676 25.8322 82.5095L26.0015 83.7711ZM24.2567 83.6699L23.9385 84.9024L23.0838 84.6818L23.402 83.4492L23.7203 82.2166L24.575 82.4373L24.2567 83.6699ZM23.402 83.4492L23.0838 84.6818L22.2291 84.4611L22.5473 83.2285L22.8656 81.9959L23.7203 82.2166L23.402 83.4492ZM22.5473 83.2285L22.2291 84.4611C21.7259 84.3311 21.2148 84.2425 20.6952 84.195L20.811 82.9273L20.9267 81.6596C21.5826 81.7195 22.2291 81.8316 22.8656 81.9959L22.5473 83.2285ZM20.811 82.9273L20.6952 84.195L19.8136 84.1145L19.9294 82.8468L20.0451 81.5791L20.9267 81.6596L20.811 82.9273ZM19.9294 82.8468L19.8136 84.1145L18.932 84.034L19.0477 82.7663L19.1635 81.4986L20.0451 81.5791L19.9294 82.8468ZM19.0477 82.7663L18.932 84.034C18.4545 83.9904 17.9838 84.0093 17.5169 84.0901L17.2997 82.8358L17.0826 81.5815C17.7708 81.4623 18.4654 81.4348 19.1635 81.4986L19.0477 82.7663ZM17.2997 82.8358L17.5169 84.0901L16.6506 84.2402L16.4334 82.9858L16.2162 81.7315L17.0826 81.5815L17.2997 82.8358ZM16.4334 82.9858L16.6506 84.2402L15.7842 84.3902L15.567 83.1358L15.3498 81.8815L16.2162 81.7315L16.4334 82.9858ZM15.567 83.1358L15.7842 84.3902C15.1416 84.5014 14.5009 84.5611 13.8628 84.568L13.849 83.2951L13.8351 82.0222C14.3326 82.0168 14.8373 81.9703 15.3498 81.8815L15.567 83.1358ZM13.849 83.2951L13.8628 84.568L13.0111 84.5773L12.9973 83.3044L12.9835 82.0315L13.8351 82.0222L13.849 83.2951ZM12.9973 83.3044L13.0111 84.5773L12.1595 84.5866L12.1456 83.3136L12.1318 82.0407L12.9835 82.0315L12.9973 83.3044ZM12.1456 83.3136L12.1595 84.5866C11.7322 84.5912 11.2935 84.6653 10.839 84.8171L10.4355 83.6098L10.0321 82.4024C10.7221 82.1718 11.4234 82.0484 12.1318 82.0407L12.1456 83.3136ZM10.4355 83.6098L10.839 84.8171L9.98052 85.104L9.57708 83.8966L9.17364 82.6892L10.0321 82.4024L10.4355 83.6098ZM9.57708 83.8966L9.98052 85.104L9.12209 85.3908L8.71864 84.1834L8.3152 82.9761L9.17364 82.6892L9.57708 83.8966ZM8.71864 84.1834L9.12209 85.3908C8.42599 85.6234 7.7109 85.7451 6.98131 85.7533L6.9669 84.4804L6.95248 83.2075C7.41398 83.2023 7.86672 83.1259 8.3152 82.9761L8.71864 84.1834ZM6.9669 84.4804L6.98131 85.7533L6.088 85.7634L6.07358 84.4905L6.05916 83.2176L6.95248 83.2075L6.9669 84.4804ZM6.07358 84.4905L6.088 85.7634L5.19468 85.7736L5.18027 84.5006L5.16585 83.2277L6.05916 83.2176L6.07358 84.4905ZM5.18027 84.5006L5.19468 85.7736C4.95604 85.7763 4.83102 85.8448 4.71033 85.9891L3.73364 85.1727L2.75695 84.3562C3.37401 83.6181 4.21341 83.2385 5.16585 83.2277L5.18027 84.5006ZM3.73364 85.1727L4.71033 85.9891L4.15701 86.651L3.18032 85.8346L2.20363 85.0181L2.75695 84.3562L3.73364 85.1727ZM3.18032 85.8346L4.15701 86.651L3.60369 87.3129L2.62701 86.4965L1.65032 85.68L2.20363 85.0181L3.18032 85.8346ZM2.62701 86.4965L3.60369 87.3129C3.41769 87.5355 3.34651 87.7464 3.34644 87.9877L2.07344 87.9874L0.800451 87.987C0.800708 87.1231 1.09857 86.3401 1.65032 85.68L2.62701 86.4965ZM2.07344 87.9874L3.34644 87.9877L3.34619 88.8167L2.0732 88.8163L0.800205 88.8159L0.800451 87.987L2.07344 87.9874ZM2.0732 88.8163L3.34619 88.8167L3.34595 89.6456L2.07295 89.6452L0.799959 89.6449L0.800205 88.8159L2.0732 88.8163ZM2.07295 89.6452L3.34595 89.6456C3.34582 90.0661 3.40967 90.4529 3.53181 90.8131L2.32624 91.2219L1.12066 91.6307C0.904762 90.994 0.799756 90.3296 0.799959 89.6449L2.07295 89.6452ZM2.32624 91.2219L3.53181 90.8131L3.78534 91.5608L2.57977 91.9696L1.37419 92.3784L1.12066 91.6307L2.32624 91.2219ZM2.57977 91.9696L3.78534 91.5608L4.03887 92.3085L2.8333 92.7173L1.62772 93.1261L1.37419 92.3784L2.57977 91.9696ZM2.8333 92.7173L4.03887 92.3085C4.17033 92.6962 4.36908 93.1065 4.64666 93.5395L3.57493 94.2265L2.5032 94.9134C2.12997 94.3311 1.83431 93.7353 1.62772 93.1261L2.8333 92.7173ZM3.57493 94.2265L4.64666 93.5395L5.13476 94.301L4.06303 94.988L2.9913 95.6749L2.5032 94.9134L3.57493 94.2265ZM4.06303 94.988L5.13476 94.301L5.62286 95.0625L4.55113 95.7495L3.4794 96.4364L2.9913 95.6749L4.06303 94.988ZM4.55113 95.7495L5.62286 95.0625C5.78157 95.3101 5.97421 95.4511 6.246 95.5273L5.90218 96.753L5.55837 97.9787C4.67956 97.7322 3.97149 97.2041 3.4794 96.4364L4.55113 95.7495ZM5.90218 96.753L6.246 95.5273L7.10895 95.7694L6.76513 96.9951L6.42131 98.2208L5.55837 97.9787L5.90218 96.753ZM6.76513 96.9951L7.10895 95.7694L7.9719 96.0115L7.62808 97.2372L7.28426 98.4628L6.42131 98.2208L6.76513 96.9951ZM7.62808 97.2372L7.9719 96.0115C8.51716 96.1644 9.06234 96.2958 9.60748 96.4056L9.35607 97.6535L9.10466 98.9014C8.49641 98.7789 7.8896 98.6326 7.28426 98.4628L7.62808 97.2372ZM9.35607 97.6535L9.60748 96.4056L10.4725 96.5799L10.2211 97.8278L9.96969 99.0757L9.10466 98.9014L9.35607 97.6535ZM10.2211 97.8278L10.4725 96.5799L11.3376 96.7541L11.0861 98.002L10.8347 99.25L9.96969 99.0757L10.2211 97.8278ZM11.0861 98.002L11.3376 96.7541C11.8566 96.8587 12.3787 96.9266 12.9042 96.9581L12.8282 98.2288L12.7522 99.4995C12.1083 99.461 11.469 99.3778 10.8347 99.25L11.0861 98.002ZM12.8282 98.2288L12.9042 96.9581L13.7813 97.0106L13.7052 98.2813L13.6292 99.552L12.7522 99.4995L12.8282 98.2288ZM13.7052 98.2813L13.7813 97.0106L14.6583 97.063L14.5823 98.3338L14.5062 99.6045L13.6292 99.552L13.7052 98.2813ZM14.5823 98.3338L14.6583 97.063C15.2057 97.0958 15.7543 97.1045 16.3043 97.0891L16.3399 98.3616L16.3754 99.6341C15.7513 99.6516 15.1282 99.6417 14.5062 99.6045L14.5823 98.3338ZM16.3399 98.3616L16.3043 97.0891L17.1849 97.0645L17.2204 98.337L17.256 99.6095L16.3754 99.6341L16.3399 98.3616ZM17.2204 98.337L17.1849 97.0645L18.0654 97.0399L18.101 98.3124L18.1366 99.5849L17.256 99.6095L17.2204 98.337ZM18.101 98.3124L18.0654 97.0399C18.6978 97.0222 19.3267 97.0384 19.952 97.0885L19.8504 98.3574L19.7487 99.6263C19.2156 99.5836 18.6783 99.5698 18.1366 99.5849L18.101 98.3124ZM19.8504 98.3574L19.952 97.0885L20.8208 97.1581L20.7191 98.427L20.6175 99.6959L19.7487 99.6263L19.8504 98.3574ZM20.7191 98.427L20.8208 97.1581L21.6896 97.2277L21.5879 98.4966L21.4862 99.7655L20.6175 99.6959L20.7191 98.427ZM21.5879 98.4966L21.6896 97.2277C22.2873 97.2756 22.8839 97.3366 23.4795 97.4106L23.3224 98.6739L23.1653 99.9372C22.6065 99.8677 22.0469 99.8105 21.4862 99.7655L21.5879 98.4966ZM23.3224 98.6739L23.4795 97.4106L24.3452 97.5183L24.1881 98.7816L24.031 100.045L23.1653 99.9372L23.3224 98.6739ZM24.1881 98.7816L24.3452 97.5183L25.2109 97.626L25.0538 98.8893L24.8967 100.153L24.031 100.045L24.1881 98.7816ZM25.0538 98.8893L25.2109 97.626C25.7194 97.6892 26.2326 97.7112 26.7511 97.6916L26.7991 98.9637L26.8472 100.236C26.1929 100.261 25.5425 100.233 24.8967 100.153L25.0538 98.8893ZM26.7991 98.9637L26.7511 97.6916L27.6307 97.6584L27.6787 98.9305L27.7268 100.203L26.8472 100.236L26.7991 98.9637ZM27.6787 98.9305L27.6307 97.6584L28.5103 97.6252L28.5584 98.8973L28.6064 100.169L27.7268 100.203L27.6787 98.9305ZM28.5584 98.8973L28.5103 97.6252C29.2417 97.5976 29.9616 97.6934 30.6644 97.9101L30.2894 99.1266L29.9143 100.343C29.4819 100.21 29.0479 100.153 28.6064 100.169L28.5584 98.8973ZM30.2894 99.1266L30.6644 97.9101L31.5158 98.1726L31.1407 99.3891L30.7657 100.606L29.9143 100.343L30.2894 99.1266ZM31.1407 99.3891L31.5158 98.1726L32.3672 98.4351L31.9921 99.6516L31.6171 100.868L30.7657 100.606L31.1407 99.3891ZM31.9921 99.6516L32.3672 98.4351C32.928 98.608 33.2283 98.6682 33.3415 98.6774L33.2383 99.9462L33.1351 101.215C32.7219 101.181 32.1914 101.045 31.6171 100.868L31.9921 99.6516ZM33.2383 99.9462L33.3415 98.6774L33.7363 98.7095L33.6331 99.9783L33.5299 101.247L33.1351 101.215L33.2383 99.9462ZM33.6331 99.9783L33.7363 98.7095L34.1311 98.7416L34.0279 100.01L33.9247 101.279L33.5299 101.247L33.6331 99.9783ZM34.0279 100.01L34.1311 98.7416C34.54 98.7748 35.0652 98.9068 35.6362 99.0793L35.268 100.298L34.8999 101.516C34.3438 101.348 34.0423 101.289 33.9247 101.279L34.0279 100.01ZM35.268 100.298L35.6362 99.0793L36.4815 99.3347L36.1133 100.553L35.7451 101.772L34.8999 101.516L35.268 100.298Z" fill="#F4AB1E"/>
<path d="M52.6107 77.6623L19.3485 61.3449L17.1519 36.2413L24.0554 12.3929L43.8245 21.1792L62.966 22.4344L86.1868 12.3929V34.9862L78.0281 73.5829L52.6107 77.6623Z" fill="#F585B3"/>
<path d="M22.3118 62.7192L20.4799 66.6694L22.3118 62.7192ZM23.7935 63.4063L25.6254 59.4561L23.7935 63.4063ZM26.988 64.3095L26.4431 68.6296L26.988 64.3095ZM30.4136 64.7415L30.9585 60.4214L30.4136 64.7415ZM33.2403 66.3944L29.799 69.0622L33.2403 66.3944ZM35.4681 69.268L38.9094 66.6001L35.4681 69.268ZM38.12 71.2773L39.6389 67.1965L38.12 71.2773ZM39.6579 71.8497L41.1768 67.7689L39.6579 71.8497ZM41.1959 72.4222L39.6769 76.503L41.1959 72.4222ZM44.4883 73.1256L44.8125 68.7834L44.4883 73.1256ZM47.9973 73.3876L47.6732 77.7298L47.9973 73.3876ZM51.0126 74.5811L53.8187 71.2515L51.0126 74.5811ZM52.2734 75.6436L49.4674 78.9732L52.2734 75.6436ZM53.5342 76.7061L56.3402 73.3765L53.5342 76.7061ZM56.4881 78.0139L57.1124 73.7046L56.4881 78.0139ZM59.8744 78.5044L59.2502 82.8138L59.8744 78.5044ZM63.1014 78.0028L65.0077 81.9176L63.1014 78.0028ZM66.1692 76.5089L68.0755 80.4238L66.1692 76.5089ZM69.2624 75.1735L70.7999 79.2473L69.2624 75.1735ZM70.8217 74.585L69.2842 70.5112L70.8217 74.585ZM72.381 73.9965L73.9185 78.0704L72.381 73.9965ZM75.3491 72.8888L76.8549 76.9745L75.3491 72.8888ZM78.1667 71.8504L76.6609 67.7647L78.1667 71.8504ZM79.8177 69.7134L75.5113 69.0687L79.8177 69.7134ZM80.3021 66.4779L75.9958 65.8332L80.3021 66.4779ZM80.3523 63.1506L76.0252 63.6367L80.3523 63.1506ZM79.9682 59.7315L84.2953 59.2455L79.9682 59.7315ZM80.8318 56.5762L84.3486 59.1438L80.8318 56.5762ZM82.943 53.6845L79.4262 51.117L82.943 53.6845ZM83.8833 50.5454L88.2276 50.2496L83.8833 50.5454ZM83.6527 47.1588L79.3085 47.4545L83.6527 47.1588ZM84.3574 40.6319L80.0644 39.9037L84.3574 40.6319ZM85.1626 37.4465L81.0373 36.0528L85.1626 37.4465ZM85.6944 35.8723L81.5692 34.4786L85.6944 35.8723ZM86.2263 34.2981L90.3515 35.6918L86.2263 34.2981ZM86.8965 31.091L82.5577 30.7234L86.8965 31.091ZM87.1731 27.8252L91.5119 28.1928L87.1731 27.8252ZM86.7726 24.5595L82.6376 25.924L86.7726 24.5595ZM86.2338 22.9266L90.3688 21.5621L86.2338 22.9266ZM85.6949 21.2938L89.8299 19.9292L85.6949 21.2938ZM84.9849 18.028L89.3155 17.574L84.9849 18.028ZM84.8137 16.3951L89.1442 15.9411L84.8137 16.3951ZM84.6425 14.7623L80.3119 15.2163L84.6425 14.7623ZM83.5115 13.3841L82.3945 9.17553L83.5115 13.3841ZM82.5517 13.6389L83.6687 17.8475L82.5517 13.6389ZM81.592 13.8936L82.709 18.1022L81.592 13.8936ZM75.8962 15.538L74.6702 11.3599L75.8962 15.538ZM67.623 21.5132L65.6853 17.6138L67.623 21.5132ZM66.0079 22.3158L67.9455 26.2152L66.0079 22.3158ZM64.3928 23.1183L66.3305 27.0177L64.3928 23.1183ZM61.1884 23.204L62.9785 19.2347L61.1884 23.204ZM54.7739 21.2066L55.1765 25.5422L54.7739 21.2066ZM53.1275 21.3595L52.7249 17.0238L53.1275 21.3595ZM48.3362 21.2254L47.1099 25.4034L48.3362 21.2254ZM46.8377 20.7855L48.064 16.6075L46.8377 20.7855ZM40.4097 19.5847L40.0038 23.9201L40.4097 19.5847ZM33.15 15.8166L30.2366 19.0526L33.15 15.8166ZM28.4918 14.2361L27.9407 18.5555L28.4918 14.2361ZM23.9696 14.4979L21.7074 10.7774L23.9696 14.4979ZM21.6893 15.8844L19.4271 12.1639L21.6893 15.8844ZM18.9429 31.4118L21.9743 34.5377L18.9429 31.4118ZM16.243 34.0301L13.2117 30.9043L16.243 34.0301ZM17.5512 38.8151L21.01 36.17L17.5512 38.8151ZM18.8802 40.553L15.4214 43.1981L18.8802 40.553ZM20.1996 50.4873L15.9534 49.523L20.1996 50.4873ZM19.1323 56.9645L14.7833 57.1791L19.1323 56.9645ZM22.3118 62.7192L20.4799 66.6694L21.9616 67.3565L23.7935 63.4063L25.6254 59.4561L24.1438 58.769L22.3118 62.7192ZM23.7935 63.4063L21.9616 67.3565C23.3795 68.0141 24.8813 68.4326 26.4431 68.6296L26.988 64.3095L27.5329 59.9894C26.811 59.8983 26.1832 59.7148 25.6254 59.4561L23.7935 63.4063ZM26.988 64.3095L26.4431 68.6296L28.1559 68.8456L28.7008 64.5255L29.2457 60.2054L27.5329 59.9894L26.988 64.3095ZM28.7008 64.5255L28.1559 68.8456L29.8687 69.0616L30.4136 64.7415L30.9585 60.4214L29.2457 60.2054L28.7008 64.5255ZM30.4136 64.7415L29.8687 69.0616C29.8846 69.0636 29.8778 69.0641 29.8551 69.0565C29.8319 69.0488 29.8048 69.0368 29.7787 69.0216C29.753 69.0066 29.7404 68.9954 29.741 68.996C29.7424 68.9972 29.763 69.0158 29.799 69.0622L33.2403 66.3944L36.6816 63.7265C35.2728 61.9093 33.3128 60.7183 30.9585 60.4214L30.4136 64.7415ZM33.2403 66.3944L29.799 69.0622L30.9129 70.4991L34.3542 67.8312L37.7955 65.1633L36.6816 63.7265L33.2403 66.3944ZM34.3542 67.8312L30.9129 70.4991L32.0268 71.9359L35.4681 69.268L38.9094 66.6001L37.7955 65.1633L34.3542 67.8312ZM35.4681 69.268L32.0268 71.9359C33.2109 73.4632 34.7356 74.6637 36.601 75.3581L38.12 71.2773L39.6389 67.1965C39.4538 67.1276 39.2105 66.9886 38.9094 66.6001L35.4681 69.268ZM38.12 71.2773L36.601 75.3581L38.139 75.9305L39.6579 71.8497L41.1768 67.7689L39.6389 67.1965L38.12 71.2773ZM39.6579 71.8497L38.139 75.9305L39.6769 76.503L41.1959 72.4222L42.7148 68.3414L41.1768 67.7689L39.6579 71.8497ZM41.1959 72.4222L39.6769 76.503C41.1129 77.0374 42.6153 77.3522 44.1641 77.4678L44.4883 73.1256L44.8125 68.7834C44.022 68.7243 43.3295 68.5702 42.7148 68.3414L41.1959 72.4222ZM44.4883 73.1256L44.1641 77.4678L45.9187 77.5988L46.2428 73.2566L46.567 68.9143L44.8125 68.7834L44.4883 73.1256ZM46.2428 73.2566L45.9187 77.5988L47.6732 77.7298L47.9973 73.3876L48.3215 69.0453L46.567 68.9143L46.2428 73.2566ZM47.9973 73.3876L47.6732 77.7298C47.9946 77.7538 48.1145 77.8331 48.2066 77.9107L51.0126 74.5811L53.8187 71.2515C52.2297 69.9124 50.3395 69.196 48.3215 69.0453L47.9973 73.3876ZM51.0126 74.5811L48.2066 77.9107L49.4674 78.9732L52.2734 75.6436L55.0795 72.314L53.8187 71.2515L51.0126 74.5811ZM52.2734 75.6436L49.4674 78.9732L50.7282 80.0357L53.5342 76.7061L56.3402 73.3765L55.0795 72.314L52.2734 75.6436ZM53.5342 76.7061L50.7282 80.0357C52.2144 81.2882 53.9625 82.0478 55.8639 82.3233L56.4881 78.0139L57.1124 73.7046C56.7563 73.653 56.5351 73.5407 56.3402 73.3765L53.5342 76.7061ZM56.4881 78.0139L55.8639 82.3233L57.557 82.5685L58.1813 78.2592L58.8055 73.9498L57.1124 73.7046L56.4881 78.0139ZM58.1813 78.2592L57.557 82.5685L59.2502 82.8138L59.8744 78.5044L60.4986 74.1951L58.8055 73.9498L58.1813 78.2592ZM59.8744 78.5044L59.2502 82.8138C61.2403 83.102 63.1979 82.7989 65.0077 81.9176L63.1014 78.0028L61.1951 74.0879C60.9597 74.2025 60.7659 74.2338 60.4986 74.1951L59.8744 78.5044ZM63.1014 78.0028L65.0077 81.9176L66.5416 81.1707L64.6353 77.2558L62.729 73.341L61.1951 74.0879L63.1014 78.0028ZM64.6353 77.2558L66.5416 81.1707L68.0755 80.4238L66.1692 76.5089L64.2629 72.5941L62.729 73.341L64.6353 77.2558ZM66.1692 76.5089L68.0755 80.4238C68.9805 79.9831 69.8886 79.5913 70.7999 79.2473L69.2624 75.1735L67.7249 71.0997C66.5571 71.5404 65.4031 72.0389 64.2629 72.5941L66.1692 76.5089ZM69.2624 75.1735L70.7999 79.2473L72.3592 78.6589L70.8217 74.585L69.2842 70.5112L67.7249 71.0997L69.2624 75.1735ZM70.8217 74.585L72.3592 78.6589L73.9185 78.0704L72.381 73.9965L70.8435 69.9227L69.2842 70.5112L70.8217 74.585ZM72.381 73.9965L73.9185 78.0704C74.9486 77.6816 75.9274 77.3163 76.8549 76.9745L75.3491 72.8888L73.8433 68.8031C72.8925 69.1536 71.8925 69.5268 70.8435 69.9227L72.381 73.9965ZM75.3491 72.8888L76.8549 76.9745L78.2637 76.4553L76.7579 72.3696L75.2521 68.2839L73.8433 68.8031L75.3491 72.8888ZM76.7579 72.3696L78.2637 76.4553L79.6725 75.9361L78.1667 71.8504L76.6609 67.7647L75.2521 68.2839L76.7579 72.3696ZM78.1667 71.8504L79.6725 75.9361C80.8209 75.5128 81.8995 74.7931 82.7296 73.7187C83.5459 72.662 83.9564 71.4776 84.124 70.3582L79.8177 69.7134L75.5113 69.0687C75.5175 69.0277 75.5721 68.7387 75.8381 68.3944C76.1178 68.0323 76.4516 67.8418 76.6609 67.7647L78.1667 71.8504ZM79.8177 69.7134L84.124 70.3582L84.3662 68.7404L80.0599 68.0957L75.7536 67.4509L75.5113 69.0687L79.8177 69.7134ZM80.0599 68.0957L84.3662 68.7404L84.6084 67.1227L80.3021 66.4779L75.9958 65.8332L75.7536 67.4509L80.0599 68.0957ZM80.3021 66.4779L84.6084 67.1227C84.8288 65.6509 84.8475 64.1611 84.6794 62.6646L80.3523 63.1506L76.0252 63.6367C76.1131 64.4196 76.0984 65.1479 75.9958 65.8332L80.3021 66.4779ZM80.3523 63.1506L84.6794 62.6646L84.4874 60.955L80.1603 61.4411L75.8331 61.9271L76.0252 63.6367L80.3523 63.1506ZM80.1603 61.4411L84.4874 60.955L84.2953 59.2455L79.9682 59.7315L75.6411 60.2176L75.8331 61.9271L80.1603 61.4411ZM79.9682 59.7315L84.2953 59.2455C84.292 59.2155 84.2933 59.205 84.293 59.21C84.2926 59.2155 84.2911 59.226 84.288 59.2374C84.2849 59.2485 84.2834 59.2493 84.2891 59.2376C84.2952 59.2253 84.312 59.1939 84.3486 59.1438L80.8318 56.5762L77.315 54.0086C75.9972 55.8136 75.3861 57.947 75.6411 60.2176L79.9682 59.7315ZM80.8318 56.5762L84.3486 59.1438L85.4042 57.698L81.8874 55.1304L78.3706 52.5628L77.315 54.0086L80.8318 56.5762ZM81.8874 55.1304L85.4042 57.698L86.4597 56.2521L82.943 53.6845L79.4262 51.117L78.3706 52.5628L81.8874 55.1304ZM82.943 53.6845L86.4597 56.2521C87.7317 54.5099 88.378 52.4596 88.2276 50.2496L83.8833 50.5454L79.539 50.8412C79.5415 50.8766 79.5399 50.897 79.539 50.9058C79.538 50.9143 79.5368 50.9204 79.5347 50.9274C79.5323 50.9354 79.5137 50.9972 79.4262 51.117L82.943 53.6845ZM83.8833 50.5454L88.2276 50.2496L88.1123 48.5563L83.768 48.8521L79.4237 49.1479L79.539 50.8412L83.8833 50.5454ZM83.768 48.8521L88.1123 48.5563L87.997 46.863L83.6527 47.1588L79.3085 47.4545L79.4237 49.1479L83.768 48.8521ZM83.6527 47.1588L87.997 46.863C87.9425 46.0631 87.9811 45.3057 88.1037 44.5825L83.8108 43.8543L79.5178 43.126C79.276 44.5511 79.2092 45.9967 79.3085 47.4545L83.6527 47.1588ZM83.8108 43.8543L88.1037 44.5825L88.3771 42.9713L84.0841 42.2431L79.7911 41.5148L79.5178 43.126L83.8108 43.8543ZM84.0841 42.2431L88.3771 42.9713L88.6504 41.3602L84.3574 40.6319L80.0644 39.9037L79.7911 41.5148L84.0841 42.2431ZM84.3574 40.6319L88.6504 41.3602C88.7936 40.5157 89.0053 39.6763 89.2878 38.8403L85.1626 37.4465L81.0373 36.0528C80.6106 37.3157 80.2856 38.5999 80.0644 39.9037L84.3574 40.6319ZM85.1626 37.4465L89.2878 38.8403L89.8197 37.266L85.6944 35.8723L81.5692 34.4786L81.0373 36.0528L85.1626 37.4465ZM85.6944 35.8723L89.8197 37.266L90.3515 35.6918L86.2263 34.2981L82.101 32.9043L81.5692 34.4786L85.6944 35.8723ZM86.2263 34.2981L90.3515 35.6918C90.8168 34.3148 91.113 32.9014 91.2353 31.4585L86.8965 31.091L82.5577 30.7234C82.4955 31.4577 82.345 32.1824 82.101 32.9043L86.2263 34.2981ZM86.8965 31.091L91.2353 31.4585L91.3736 29.8257L87.0348 29.4581L82.696 29.0905L82.5577 30.7234L86.8965 31.091ZM87.0348 29.4581L91.3736 29.8257L91.5119 28.1928L87.1731 27.8252L82.8344 27.4577L82.696 29.0905L87.0348 29.4581ZM87.1731 27.8252L91.5119 28.1928C91.6561 26.4903 91.4416 24.8133 90.9076 23.195L86.7726 24.5595L82.6376 25.924C82.8221 26.4829 82.8746 26.983 82.8344 27.4577L87.1731 27.8252ZM86.7726 24.5595L90.9076 23.195L90.3688 21.5621L86.2338 22.9266L82.0988 24.2912L82.6376 25.924L86.7726 24.5595ZM86.2338 22.9266L90.3688 21.5621L89.8299 19.9292L85.6949 21.2938L81.5599 22.6583L82.0988 24.2912L86.2338 22.9266ZM85.6949 21.2938L89.8299 19.9292C89.5636 19.1223 89.3956 18.3387 89.3155 17.574L84.9849 18.028L80.6543 18.4821C80.8024 19.8945 81.1077 21.288 81.5599 22.6583L85.6949 21.2938ZM84.9849 18.028L89.3155 17.574L89.1442 15.9411L84.8137 16.3951L80.4831 16.8492L80.6543 18.4821L84.9849 18.028ZM84.8137 16.3951L89.1442 15.9411L88.973 14.3082L84.6425 14.7623L80.3119 15.2163L80.4831 16.8492L84.8137 16.3951ZM84.6425 14.7623L88.973 14.3082C88.8913 13.529 88.659 12.0805 87.6401 10.839C87.056 10.1273 86.2183 9.49551 85.1347 9.18692C84.0853 8.88808 83.1229 8.98221 82.3945 9.17553L83.5115 13.3841L84.6285 17.5927C84.22 17.7012 83.5447 17.789 82.7495 17.5626C81.9201 17.3264 81.3037 16.8457 80.9081 16.3636C80.2663 15.5815 80.2794 14.9069 80.3119 15.2163L84.6425 14.7623ZM83.5115 13.3841L82.3945 9.17553L81.4347 9.43026L82.5517 13.6389L83.6687 17.8475L84.6285 17.5927L83.5115 13.3841ZM82.5517 13.6389L81.4347 9.43026L80.475 9.68498L81.592 13.8936L82.709 18.1022L83.6687 17.8475L82.5517 13.6389ZM81.592 13.8936L80.475 9.68498C79.7829 9.86867 78.8961 10.1199 77.8275 10.4334L79.0535 14.6116L80.2795 18.7897C81.3159 18.4856 82.1214 18.2581 82.709 18.1022L81.592 13.8936ZM79.0535 14.6116L77.8275 10.4334L76.2489 10.8966L77.4749 15.0748L78.7009 19.253L80.2795 18.7897L79.0535 14.6116ZM77.4749 15.0748L76.2489 10.8966L74.6702 11.3599L75.8962 15.538L77.1222 19.7162L78.7009 19.253L77.4749 15.0748ZM75.8962 15.538L74.6702 11.3599C72.9371 11.8684 71.4012 12.7672 70.0871 13.9856L73.0476 17.1786L76.0081 20.3717C76.3872 20.0202 76.7503 19.8253 77.1222 19.7162L75.8962 15.538ZM73.0476 17.1786L70.0871 13.9856L68.8173 15.1629L71.7777 18.356L74.7382 21.5491L76.0081 20.3717L73.0476 17.1786ZM71.7777 18.356L68.8173 15.1629L67.5474 16.3403L70.5079 19.5334L73.4683 22.7264L74.7382 21.5491L71.7777 18.356ZM70.5079 19.5334L67.5474 16.3403C67.0187 16.8305 66.4046 17.2564 65.6853 17.6138L67.623 21.5132L69.5606 25.4127C70.9947 24.7001 72.3039 23.8061 73.4683 22.7264L70.5079 19.5334ZM67.623 21.5132L65.6853 17.6138L64.0703 18.4163L66.0079 22.3158L67.9455 26.2152L69.5606 25.4127L67.623 21.5132ZM66.0079 22.3158L64.0703 18.4163L62.4552 19.2188L64.3928 23.1183L66.3305 27.0177L67.9455 26.2152L66.0079 22.3158ZM64.3928 23.1183L62.4552 19.2188C62.4125 19.24 62.494 19.1928 62.6677 19.1882C62.7478 19.1861 62.8223 19.194 62.8843 19.2071C62.914 19.2133 62.9373 19.22 62.9538 19.2255C62.9619 19.2282 62.9681 19.2305 62.9723 19.2321C62.9764 19.2337 62.9785 19.2347 62.9785 19.2347L61.1884 23.204L59.3983 27.1734C61.6946 28.2089 64.131 28.1107 66.3305 27.0177L64.3928 23.1183ZM61.1884 23.204L62.9785 19.2347L61.3891 18.5179L59.599 22.4872L57.809 26.4566L59.3983 27.1734L61.1884 23.204ZM59.599 22.4872L61.3891 18.5179L59.7997 17.8011L58.0097 21.7705L56.2196 25.7398L57.809 26.4566L59.599 22.4872ZM58.0097 21.7705L59.7997 17.8011C58.0921 17.031 56.2605 16.6955 54.3713 16.8709L54.7739 21.2066L55.1765 25.5422C55.4825 25.5138 55.8081 25.5542 56.2196 25.7398L58.0097 21.7705ZM54.7739 21.2066L54.3713 16.8709L52.7249 17.0238L53.1275 21.3595L53.5301 25.6951L55.1765 25.5422L54.7739 21.2066ZM53.1275 21.3595L52.7249 17.0238L51.0785 17.1767L51.4811 21.5123L51.8837 25.848L53.5301 25.6951L53.1275 21.3595ZM51.4811 21.5123L51.0785 17.1767C50.4964 17.2307 50.0028 17.1766 49.5625 17.0473L48.3362 21.2254L47.1099 25.4034C48.6675 25.8606 50.2706 25.9978 51.8837 25.848L51.4811 21.5123ZM48.3362 21.2254L49.5625 17.0473L48.064 16.6075L46.8377 20.7855L45.6114 24.9636L47.1099 25.4034L48.3362 21.2254ZM46.8377 20.7855L48.064 16.6075L46.5655 16.1676L45.3392 20.3457L44.1129 24.5238L45.6114 24.9636L46.8377 20.7855ZM45.3392 20.3457L46.5655 16.1676C45.2728 15.7882 43.9244 15.5404 42.531 15.4099L42.1252 19.7453L41.7193 24.0807C42.6133 24.1643 43.4075 24.3167 44.1129 24.5238L45.3392 20.3457ZM42.1252 19.7453L42.531 15.4099L40.8155 15.2493L40.4097 19.5847L40.0038 23.9201L41.7193 24.0807L42.1252 19.7453ZM40.4097 19.5847L40.8155 15.2493L39.1 15.0888L38.6941 19.4241L38.2883 23.7595L40.0038 23.9201L40.4097 19.5847ZM38.6941 19.4241L39.1 15.0888C38.8852 15.0687 38.7682 15.0157 38.6158 14.8785L35.7024 18.1146L32.789 21.3506C34.3382 22.7454 36.2157 23.5655 38.2883 23.7595L38.6941 19.4241ZM35.7024 18.1146L38.6158 14.8785L37.3396 13.7295L34.4262 16.9656L31.5128 20.2016L32.789 21.3506L35.7024 18.1146ZM34.4262 16.9656L37.3396 13.7295L36.0634 12.5805L33.15 15.8166L30.2366 19.0526L31.5128 20.2016L34.4262 16.9656ZM33.15 15.8166L36.0634 12.5805C34.559 11.2261 32.7474 10.3894 30.7338 10.1326L30.1828 14.4519L29.6317 18.7712C29.8728 18.8019 30.0394 18.8751 30.2366 19.0526L33.15 15.8166ZM30.1828 14.4519L30.7338 10.1326L29.0428 9.91683L28.4918 14.2361L27.9407 18.5555L29.6317 18.7712L30.1828 14.4519ZM28.4918 14.2361L29.0428 9.91683L27.3518 9.7011L26.8008 14.0204L26.2497 18.3397L27.9407 18.5555L28.4918 14.2361ZM26.8008 14.0204L27.3518 9.7011C25.5217 9.46763 23.5206 9.67489 21.7074 10.7774L23.9696 14.4979L26.2318 18.2185C26.1731 18.2542 26.1161 18.2806 26.0659 18.2989C26.0164 18.317 25.9829 18.3237 25.9717 18.3256C25.9517 18.329 26.0331 18.3121 26.2497 18.3397L26.8008 14.0204ZM23.9696 14.4979L21.7074 10.7774L20.5673 11.4706L22.8295 15.1912L25.0917 18.9117L26.2318 18.2185L23.9696 14.4979ZM22.8295 15.1912L20.5673 11.4706L19.4271 12.1639L21.6893 15.8844L23.9515 19.605L25.0917 18.9117L22.8295 15.1912ZM21.6893 15.8844L19.4271 12.1639C17.1414 13.5537 16.2324 15.8448 16.0984 17.9737L20.4442 18.2472L24.7899 18.5206C24.7957 18.4276 24.8021 18.5823 24.6601 18.8518C24.5006 19.1544 24.2452 19.4264 23.9515 19.605L21.6893 15.8844ZM20.4442 18.2472L16.0984 17.9737L15.9934 19.6432L20.3391 19.9167L24.6848 20.1901L24.7899 18.5206L20.4442 18.2472ZM20.3391 19.9167L15.9934 19.6432L15.8883 21.3127L20.2341 21.5862L24.5798 21.8596L24.6848 20.1901L20.3391 19.9167ZM20.2341 21.5862L15.8883 21.3127C15.8102 22.5543 15.7867 23.8074 15.8169 25.0715L20.17 24.9674L24.523 24.8633C24.4987 23.8451 24.5179 22.844 24.5798 21.8596L20.2341 21.5862ZM20.17 24.9674L15.8169 25.0715L15.8578 26.7833L20.2109 26.6792L24.564 26.5751L24.523 24.8633L20.17 24.9674ZM20.2109 26.6792L15.8578 26.7833L15.8988 28.4951L20.2519 28.3909L24.6049 28.2868L24.564 26.5751L20.2109 26.6792ZM20.2519 28.3909L15.8988 28.4951C15.8986 28.4859 15.899 28.4543 15.9079 28.4072C15.917 28.3595 15.9318 28.3122 15.9497 28.2708C15.9582 28.2512 15.9662 28.2357 15.9724 28.2248C15.9786 28.2139 15.9823 28.2087 15.982 28.2092C15.9814 28.21 15.9623 28.2367 15.9115 28.286L18.9429 31.4118L21.9743 34.5377C23.6505 32.9121 24.6643 30.7685 24.6049 28.2868L20.2519 28.3909ZM18.9429 31.4118L15.9115 28.286L14.5616 29.5951L17.593 32.721L20.6244 35.8468L21.9743 34.5377L18.9429 31.4118ZM17.593 32.721L14.5616 29.5951L13.2117 30.9043L16.243 34.0301L19.2744 37.1559L20.6244 35.8468L17.593 32.721ZM16.243 34.0301L13.2117 30.9043C12.1323 31.951 11.2219 33.4792 11.2086 35.4166C11.1962 37.2325 11.9817 38.7001 12.7633 39.7222L16.2221 37.0772L19.681 34.4321C19.5766 34.2956 19.9226 34.6761 19.9171 35.4763C19.9108 36.398 19.4538 36.9819 19.2744 37.1559L16.243 34.0301ZM16.2221 37.0772L12.7633 39.7222L14.0923 41.4602L17.5512 38.8151L21.01 36.17L19.681 34.4321L16.2221 37.0772ZM17.5512 38.8151L14.0923 41.4602L15.4214 43.1981L18.8802 40.553L22.3391 37.9079L21.01 36.17L17.5512 38.8151ZM18.8802 40.553L15.4214 43.1981C15.9539 43.8945 15.9563 44.202 15.9544 44.1686L20.3018 43.9219L24.6491 43.6753C24.5238 41.4672 23.5785 39.5287 22.3391 37.9079L18.8802 40.553ZM20.3018 43.9219L15.9544 44.1686L16.047 45.7996L20.3943 45.5529L24.7416 45.3063L24.6491 43.6753L20.3018 43.9219ZM20.3943 45.5529L16.047 45.7996L16.1395 47.4306L20.4868 47.184L24.8342 46.9373L24.7416 45.3063L20.3943 45.5529ZM20.4868 47.184L16.1395 47.4306C16.177 48.0918 16.1209 48.7852 15.9534 49.523L20.1996 50.4873L24.4458 51.4516C24.7846 49.9596 24.92 48.4508 24.8342 46.9373L20.4868 47.184ZM20.1996 50.4873L15.9534 49.523L15.5736 51.1953L19.8198 52.1596L24.066 53.124L24.4458 51.4516L20.1996 50.4873ZM19.8198 52.1596L15.5736 51.1953L15.1938 52.8677L19.44 53.832L23.6862 54.7963L24.066 53.124L19.8198 52.1596ZM19.44 53.832L15.1938 52.8677C14.8676 54.3041 14.7126 55.7485 14.7833 57.1791L19.1323 56.9645L23.4813 56.7498C23.4558 56.2336 23.506 55.5896 23.6862 54.7963L19.44 53.832ZM19.1323 56.9645L14.7833 57.1791L14.8553 58.6393L19.2043 58.4246L23.5534 58.21L23.4813 56.7498L19.1323 56.9645ZM19.2043 58.4246L14.8553 58.6393L14.9274 60.0994L19.2764 59.8848L23.6254 59.6701L23.5534 58.21L19.2043 58.4246ZM19.2764 59.8848L14.9274 60.0994C14.9885 61.3384 15.3694 62.5934 16.1732 63.7043C16.9591 64.7904 17.9843 65.5121 18.9982 65.9823L20.8302 62.0321L22.6621 58.0818C22.6882 58.094 22.9606 58.2287 23.2285 58.5991C23.5144 58.9942 23.6123 59.4046 23.6254 59.6701L19.2764 59.8848ZM20.8302 62.0321L18.9982 65.9823L20.4799 66.6694L22.3118 62.7192L24.1438 58.769L22.6621 58.0818L20.8302 62.0321Z" fill="#F585B3"/>
<path d="M40.8313 88.1093C37.8948 90.0408 37.0802 93.987 39.0117 96.9235C40.9432 99.8599 44.8894 100.675 47.8259 98.7431L40.8313 88.1093ZM44.4121 93.3712L42.0235 87.4725L41.4404 87.7086L40.9148 88.0543L44.4121 93.3712ZM49.8377 88.3252L43.5077 87.6675L49.8377 88.3252ZM57.937 84.4516L61.2724 89.8715L57.937 84.4516ZM72.8812 82.6581L74.2145 88.8809L72.8812 82.6581ZM78.1674 80.7252L81.0329 86.4076L78.1674 80.7252ZM82.7727 66.1401L89.0118 64.8854L82.7727 66.1401ZM85.8986 61.9782L87.9337 68.008L85.8986 61.9782ZM87.8898 57.4962L82.2726 60.4874L87.8898 57.4962ZM87.208 52.0264L92.9824 54.7018L87.208 52.0264ZM90.4745 43.1828L85.7884 47.4887L90.4745 43.1828ZM90.1756 33.0118L84.3473 35.5675L90.1756 33.0118ZM89.0969 28.1377L82.7336 28.2327L89.0969 28.1377ZM86.9408 18.4253L80.625 17.6429L86.9408 18.4253ZM88.4978 13.0786L82.6823 10.494L88.4978 13.0786ZM86.2979 8.31644L83.1341 13.8383L86.2979 8.31644ZM68.2874 15.516L70.375 9.50412L68.2874 15.516ZM53.7971 17.1673L58.3801 12.7518L53.7971 17.1673ZM39.1131 14.6011L37.3604 8.48325L39.1131 14.6011ZM28.8935 14.2207L24.4231 18.7501L28.8935 14.2207ZM24.548 11.421L22.4334 17.4234L24.548 11.421ZM19.7225 10.3795L20.272 4.03924L19.7225 10.3795ZM11.489 29.8981L5.18763 29.0075L11.489 29.8981ZM12.5443 40.0098L8.6998 34.9383L12.5443 40.0098ZM10.0216 44.8786L3.81118 46.2682L10.0216 44.8786ZM14.2866 67.3698L13.5222 73.6877L14.2074 73.7707L14.8945 73.7047L14.2866 67.3698ZM14.7477 67.3256L21.1117 67.3471L21.1355 60.3194L14.1398 60.9907L14.7477 67.3256ZM8.3834 67.404C8.37149 70.9187 11.2111 73.7776 14.7258 73.7895C18.2405 73.8014 21.0994 70.9619 21.1113 67.4471L8.3834 67.404ZM44.3286 93.4262L47.8259 98.7431L47.9094 98.6881L44.4121 93.3712L40.9148 88.0543L40.8313 88.1093L44.3286 93.4262ZM44.4121 93.3712L46.8008 99.2699C50.5413 97.7552 55.5648 94.784 56.1676 88.9829L49.8377 88.3252L43.5077 87.6675C43.5483 87.2772 43.6687 86.9394 43.8057 86.6902C43.9336 86.4576 44.0358 86.3736 43.9927 86.4137C43.9461 86.457 43.7869 86.5918 43.4487 86.7903C43.1132 86.9872 42.6481 87.2196 42.0235 87.4725L44.4121 93.3712ZM49.8377 88.3252L56.1676 88.9829C56.1817 88.8466 56.1134 89.9098 54.9848 90.9142C53.7562 92.0075 52.4875 91.9685 52.2776 91.9484L52.8847 85.6134L53.4918 79.2785C51.4565 79.0834 48.7673 79.409 46.5231 81.4062C44.3788 83.3145 43.6996 85.821 43.5077 87.6675L49.8377 88.3252ZM52.8847 85.6134L52.2776 91.9484C55.4635 92.2537 58.5345 91.5564 61.2724 89.8715L57.937 84.4516L54.6016 79.0317C54.2538 79.2458 53.9566 79.323 53.4918 79.2785L52.8847 85.6134ZM57.937 84.4516L61.2724 89.8715C62.001 89.4232 62.5741 89.2781 63.0533 89.2529L62.7193 82.8977L62.3853 76.5425C59.5739 76.6902 56.9587 77.5811 54.6016 79.0317L57.937 84.4516ZM62.7193 82.8977L63.0533 89.2529C64.3971 89.1823 65.792 89.2047 67.2409 89.3257L67.7707 82.9838L68.3005 76.6419C66.3049 76.4752 64.3322 76.4402 62.3853 76.5425L62.7193 82.8977ZM67.7707 82.9838L67.2409 89.3257C69.5848 89.5215 71.9161 89.3734 74.2145 88.8809L72.8812 82.6581L71.5478 76.4354C70.4768 76.6649 69.4011 76.7338 68.3005 76.6419L67.7707 82.9838ZM72.8812 82.6581L74.2145 88.8809C76.5226 88.3863 78.7995 87.5339 81.0329 86.4076L78.1674 80.7252L75.3019 75.0429C73.8565 75.7718 72.6092 76.2079 71.5478 76.4354L72.8812 82.6581ZM78.1674 80.7252L81.0329 86.4076C82.8512 85.4907 84.5742 84.0789 85.728 82.0149C86.881 79.9525 87.1814 77.7473 87.0144 75.7224L80.672 76.2452L74.3295 76.768C74.3323 76.8021 74.3 76.3733 74.6182 75.8041C74.9372 75.2336 75.3231 75.0322 75.3019 75.0429L78.1674 80.7252ZM80.672 76.2452L87.0144 75.7224C86.9752 75.2465 87.017 74.9848 87.0418 74.8795C87.0628 74.7907 87.0762 74.788 87.062 74.8079L81.8876 71.1031L76.7132 67.3982C74.6682 70.2544 74.065 73.56 74.3295 76.768L80.672 76.2452ZM81.8876 71.1031L87.062 74.8079C89.2498 71.7523 89.6833 68.2245 89.0118 64.8854L82.7727 66.1401L76.5336 67.3949C76.5988 67.7188 76.5638 67.8025 76.5789 67.7183C76.5861 67.6777 76.6018 67.6178 76.6305 67.5495C76.6593 67.4813 76.6908 67.4295 76.7132 67.3982L81.8876 71.1031ZM82.7727 66.1401L89.0118 64.8854C89.0516 65.0833 89.0973 65.4849 88.9939 66.0126C88.8863 66.5616 88.6523 67.0645 88.3502 67.4667C87.8004 68.1988 87.3364 68.2096 87.9337 68.008L85.8986 61.9782L83.8634 55.9483C81.9868 56.5817 79.7647 57.7037 78.173 59.8231C76.4037 62.1788 76.0364 64.9228 76.5336 67.3949L82.7727 66.1401ZM85.8986 61.9782L87.9337 68.008C89.8747 67.3529 92.6786 65.942 94.0678 62.8153C95.526 59.5329 94.5337 56.4329 93.507 54.5049L87.8898 57.4962L82.2726 60.4874C82.3924 60.7124 81.6415 59.4359 82.436 57.6475C83.1614 56.0148 84.3965 55.7684 83.8634 55.9483L85.8986 61.9782ZM87.8898 57.4962L93.507 54.5049C93.3526 54.2149 93.265 54.0028 93.2174 53.865C93.17 53.7278 93.1694 53.6852 93.1746 53.7268C93.1803 53.7726 93.1905 53.9015 93.1638 54.0914C93.1366 54.2861 93.0772 54.4971 92.9824 54.7018L87.208 52.0264L81.4337 49.351C79.5575 53.4004 80.6587 57.4566 82.2726 60.4874L87.8898 57.4962ZM87.208 52.0264L92.9824 54.7018C93.2407 54.1442 93.7585 53.381 94.7806 52.4563L90.5111 47.737L86.2416 43.0177C84.2436 44.8252 82.5593 46.9217 81.4337 49.351L87.208 52.0264ZM90.5111 47.737L94.7806 52.4563C96.3996 50.9916 98.0235 48.6606 97.9983 45.5227C97.9745 42.5635 96.481 40.3138 95.1606 38.8769L90.4745 43.1828L85.7884 47.4887C86.0025 47.7217 85.2823 47.0661 85.2707 45.625C85.2577 44.0051 86.1327 43.1162 86.2416 43.0177L90.5111 47.737ZM90.4745 43.1828L95.1606 38.8769C94.9914 38.6927 95.3112 38.9641 95.4211 39.6902C95.4749 40.0458 95.4576 40.3935 95.3923 40.6949C95.3294 40.9847 95.2387 41.1578 95.2112 41.2056L89.6949 38.0321L84.1786 34.8586C83.0821 36.7646 82.4553 39.0773 82.8364 41.5951C83.2062 44.0381 84.4231 46.0029 85.7884 47.4887L90.4745 43.1828ZM89.6949 38.0321L95.2112 41.2056C97.0312 38.042 97.6601 34.2329 96.0039 30.456L90.1756 33.0118L84.3473 35.5675C84.3172 35.4988 84.2794 35.3887 84.2559 35.2458C84.2323 35.1018 84.2299 34.9644 84.2411 34.8476C84.2638 34.6104 84.3264 34.6016 84.1786 34.8586L89.6949 38.0321ZM90.1756 33.0118L96.0039 30.456C95.6371 29.6197 95.472 28.8295 95.4602 28.0426L89.0969 28.1377L82.7336 28.2327C82.7717 30.7784 83.3256 33.2376 84.3473 35.5675L90.1756 33.0118ZM89.0969 28.1377L95.4602 28.0426C95.4197 25.3303 94.7299 22.7482 93.4814 20.3606L87.8419 23.3095L82.2024 26.2585C82.5775 26.9758 82.7244 27.6124 82.7336 28.2327L89.0969 28.1377ZM87.8419 23.3095L93.4814 20.3606C93.2558 19.9292 93.2079 19.6 93.2565 19.2076L86.9408 18.4253L80.625 17.6429C80.2515 20.658 80.8043 23.5849 82.2024 26.2585L87.8419 23.3095ZM86.9408 18.4253L93.2565 19.2076C93.3777 18.2291 93.695 17.0545 94.3133 15.6633L88.4978 13.0786L82.6823 10.494C81.6466 12.8242 80.9259 15.214 80.625 17.6429L86.9408 18.4253ZM88.4978 13.0786L94.3133 15.6633C95.336 13.3621 95.61 10.5615 94.3454 7.8238C93.2072 5.35971 91.2024 3.79189 89.4618 2.79459L86.2979 8.31644L83.1341 13.8383C83.687 14.1551 83.1956 14.038 82.7906 13.1613C82.5689 12.6814 82.4485 12.124 82.4638 11.5615C82.4784 11.0246 82.611 10.6543 82.6823 10.494L88.4978 13.0786ZM86.2979 8.31644L89.4618 2.79459C87.8054 1.84558 85.7261 0.990765 83.3827 0.938784C80.7978 0.881446 78.3821 1.8206 76.5158 3.63573L80.9529 8.19787L85.3899 12.76C85.1496 12.9937 84.7922 13.2521 84.3227 13.436C83.854 13.6197 83.4224 13.6708 83.1004 13.6637C82.5387 13.6512 82.4969 13.4732 83.1341 13.8383L86.2979 8.31644ZM80.9529 8.19787L76.5158 3.63573C76.391 3.75709 76.321 3.78901 76.3008 3.79785C76.2802 3.80688 76.204 3.83895 76.0191 3.84955L76.3831 10.2031L76.7471 16.5567C80.045 16.3678 83.0166 15.0683 85.3899 12.76L80.9529 8.19787ZM76.3831 10.2031L76.0191 3.84955C73.8552 3.97351 71.7825 4.73059 70.0335 6.16168C68.3565 7.53385 67.2713 9.28114 66.5611 10.9848L72.4353 13.4333L78.3094 15.8818C78.4545 15.5339 78.4548 15.7169 78.0937 16.0124C77.9082 16.1642 77.6732 16.3062 77.4032 16.4091C77.136 16.5109 76.905 16.5477 76.7471 16.5567L76.3831 10.2031ZM72.4353 13.4333L66.5611 10.9848C66.4679 11.2085 66.7426 10.3872 67.9013 9.8054C69.1776 9.16458 70.227 9.4527 70.375 9.50412L68.2874 15.516L66.1998 21.5278C68.2579 22.2425 70.9536 22.5152 73.6125 21.1801C76.1538 19.9041 77.5474 17.7099 78.3094 15.8818L72.4353 13.4333ZM68.2874 15.516L70.375 9.50412C68.4546 8.83723 66.2671 8.59572 64.0137 9.18164C61.7711 9.76474 59.9889 11.0305 58.6372 12.5052L63.3286 16.8053L68.0201 21.1054C68.0641 21.0573 67.8063 21.3467 67.2166 21.5001C66.9425 21.5713 66.689 21.5871 66.4869 21.5738C66.2929 21.5611 66.1916 21.525 66.1998 21.5278L68.2874 15.516ZM63.3286 16.8053L58.6372 12.5052C58.3414 12.828 58.1538 12.9417 58.0999 12.9707C58.0726 12.9853 58.0663 12.9856 58.0778 12.9822C58.0824 12.9808 58.088 12.9794 58.0936 12.9783C58.0992 12.9772 58.1023 12.977 58.102 12.977L58.6606 19.3164L59.2193 25.6559C62.8237 25.3382 65.7757 23.554 68.0201 21.1054L63.3286 16.8053ZM58.6606 19.3164L58.102 12.977C58.204 12.968 58.3259 12.9708 58.4538 12.9925C58.5807 13.014 58.6754 13.0475 58.7298 13.0716C58.8324 13.1169 58.7039 13.0879 58.3801 12.7518L53.7971 17.1673L49.2142 21.5829C51.6738 24.1357 55.0761 26.021 59.2193 25.6559L58.6606 19.3164ZM53.7971 17.1673L58.3801 12.7518C56.7739 11.0847 54.4119 9.61992 51.3803 9.61199C48.5052 9.60447 46.2005 10.9188 44.594 12.2428L48.6415 17.1538L52.6891 22.0648C52.9936 21.8139 52.5036 22.343 51.347 22.34C50.034 22.3365 49.2943 21.666 49.2142 21.5829L53.7971 17.1673ZM48.6415 17.1538L44.594 12.2428C44.2643 12.5146 45.0429 11.7188 46.645 11.8813C48.394 12.0587 49.1287 13.1542 49.0677 13.0653L43.8194 16.6647L38.5711 20.2641C39.8139 22.0763 42.0042 24.2038 45.3605 24.5443C48.57 24.8699 51.1079 23.3681 52.6891 22.0648L48.6415 17.1538ZM43.8194 16.6647L49.0677 13.0653C47.9693 11.4637 46.4079 9.85374 44.2206 8.89466C41.9219 7.88676 39.5307 7.86145 37.3604 8.48325L39.1131 14.6011L40.8659 20.719C40.7358 20.7563 40.4816 20.8079 40.1351 20.7913C39.7793 20.7743 39.4251 20.6898 39.1094 20.5513C38.4908 20.2801 38.3657 19.9646 38.5711 20.2641L43.8194 16.6647ZM39.1131 14.6011L37.3604 8.48325C35.7885 8.93358 34.2361 9.26945 32.7015 9.49515L33.6276 15.7914L34.5536 22.0877C36.6658 21.777 38.7704 21.3194 40.8659 20.719L39.1131 14.6011ZM33.6276 15.7914L32.7015 9.49515C32.6729 9.49935 32.7039 9.49205 32.7826 9.49795C32.8638 9.50405 32.9678 9.5222 33.0807 9.55966C33.1933 9.59703 33.281 9.64239 33.3382 9.67851C33.3931 9.7132 33.3998 9.72663 33.364 9.69126L28.8935 14.2207L24.4231 18.7501C27.1507 21.4422 30.7168 22.652 34.5536 22.0877L33.6276 15.7914ZM28.8935 14.2207L33.364 9.69126C31.4505 7.80266 29.2189 6.31914 26.6627 5.41857L24.548 11.421L22.4334 17.4234C23.0058 17.625 23.6712 18.008 24.4231 18.7501L28.8935 14.2207ZM24.548 11.421L26.6627 5.41857C24.5928 4.68937 22.4584 4.22872 20.272 4.03924L19.7225 10.3795L19.1731 16.7197C20.292 16.8167 21.3746 17.0504 22.4334 17.4234L24.548 11.421ZM19.7225 10.3795L20.272 4.03924C17.529 3.80153 14.5554 4.26787 11.9577 6.11338L15.6435 11.3014L19.3293 16.4894C19.2384 16.554 19.1449 16.6059 19.0565 16.6447C18.969 16.6832 18.9021 16.7019 18.8662 16.71C18.7978 16.7254 18.88 16.6943 19.1731 16.7197L19.7225 10.3795ZM15.6435 11.3014L11.9577 6.11338C8.56499 8.52373 7.66495 12.2296 7.79607 15.3256L14.1544 15.0563L20.5127 14.787C20.5028 14.553 20.5509 14.7413 20.387 15.1546C20.1959 15.6365 19.8285 16.1347 19.3293 16.4894L15.6435 11.3014ZM14.1544 15.0563L7.79607 15.3256C7.88855 17.5093 8.20514 19.6759 8.73824 21.8196L14.9141 20.2838L21.09 18.748C20.758 17.4126 20.568 16.0942 20.5127 14.787L14.1544 15.0563ZM14.9141 20.2838L8.73824 21.8196C8.73368 21.8013 8.71883 21.7314 8.7179 21.6203C8.71694 21.5072 8.73077 21.3857 8.75992 21.2686C8.82186 21.0198 8.90652 20.9661 8.78784 21.1103L13.7014 25.1548L18.6149 29.1992C21.0035 26.2973 22.0571 22.6368 21.09 18.748L14.9141 20.2838ZM13.7014 25.1548L8.78784 21.1103C6.93024 23.3671 5.61117 26.0106 5.18763 29.0075L11.489 29.8981L17.7904 30.7886C17.8345 30.4766 17.9903 29.958 18.6149 29.1992L13.7014 25.1548ZM11.489 29.8981L5.18763 29.0075C4.61272 33.0755 6.33039 36.5497 8.53581 39.1451L13.3854 35.0242L18.235 30.9033C17.8438 30.4429 17.7551 30.2088 17.7564 30.2124C17.7595 30.2207 17.7823 30.2861 17.7959 30.4006C17.8097 30.5177 17.8098 30.6517 17.7904 30.7886L11.489 29.8981ZM13.3854 35.0242L8.53581 39.1451C8.5335 39.1424 8.48752 39.0882 8.42179 38.9798C8.35548 38.8704 8.26362 38.6968 8.17926 38.4595C7.99731 37.9478 7.89893 37.2718 8.02339 36.5341C8.26586 35.097 9.10579 34.6305 8.6998 34.9383L12.5443 40.0098L16.3888 45.0813C18.0416 43.8284 20.0512 41.7507 20.574 38.6516C21.1314 35.3479 19.7237 32.6552 18.235 30.9033L13.3854 35.0242ZM12.5443 40.0098L8.6998 34.9383C5.77475 37.1556 2.63871 41.0283 3.81118 46.2682L10.0216 44.8786L16.232 43.489C16.299 43.7881 16.3213 44.1408 16.2695 44.5101C16.2185 44.8741 16.11 45.1517 16.02 45.3253C15.8639 45.6267 15.8224 45.5107 16.3888 45.0813L12.5443 40.0098ZM10.0216 44.8786L3.81118 46.2682C4.14079 47.7413 4.38766 49.1981 4.55388 50.6395L10.876 49.9104L17.1981 49.1813C16.9793 47.2839 16.6566 45.3862 16.232 43.489L10.0216 44.8786ZM10.876 49.9104L4.55388 50.6395C4.65647 51.5291 4.60535 52.4751 4.35634 53.5123L10.5445 54.998L16.7327 56.4837C17.3107 54.0761 17.4805 51.6305 17.1981 49.1813L10.876 49.9104ZM10.5445 54.998L4.35634 53.5123C3.45311 57.2744 4.40545 60.8352 6.60253 63.7374L11.6765 59.8962L16.7506 56.055C16.624 55.8878 16.6759 55.8994 16.7179 56.0813C16.7375 56.1659 16.7472 56.2562 16.7463 56.3415C16.7454 56.4254 16.7346 56.4758 16.7327 56.4837L10.5445 54.998ZM11.6765 59.8962L6.60253 63.7374C7.13703 64.4434 7.2569 64.927 7.2825 65.256L13.6273 64.7625L19.9722 64.2689C19.7331 61.1958 18.5525 58.4352 16.7506 56.055L11.6765 59.8962ZM13.6273 64.7625L7.2825 65.256C7.35642 66.2064 7.4765 67.2809 7.72156 68.2501C7.83446 68.6966 8.06949 69.5223 8.57094 70.3847C8.95592 71.0469 10.4213 73.3126 13.5222 73.6877L14.2866 67.3698L15.051 61.0519C17.9983 61.4085 19.321 63.5516 19.5743 63.9872C19.944 64.623 20.0582 65.1181 20.0612 65.1301C20.0865 65.2302 20.0306 65.0196 19.9722 64.2689L13.6273 64.7625ZM14.2866 67.3698L14.8945 73.7047L15.3556 73.6605L14.7477 67.3256L14.1398 60.9907L13.6787 61.0349L14.2866 67.3698ZM14.7477 67.3256L8.38374 67.304L8.3834 67.404L14.7474 67.4256L21.1113 67.4471L21.1117 67.3471L14.7477 67.3256Z" fill="#F15092"/>
<path d="M57.9474 68.9465C55.2714 68.8666 52.555 68.7255 49.9353 68.1142C49.0978 67.9188 48.3111 67.5576 47.4736 67.3621C46.1026 67.0422 44.7108 66.677 43.3773 66.229C42.3182 65.8732 40.5981 65.3765 39.8576 64.4341C39.106 63.4775 38.3768 63.1023 37.1853 62.7194C35.3049 62.115 33.357 61.9451 31.4545 61.4559C31.0073 61.3409 30.7707 61.1323 30.532 60.8041C30.421 60.6514 30.5079 60.1232 30.512 59.9417C30.5221 59.4851 30.7015 59.0513 30.8228 58.6181C31.0356 57.8583 31.4094 57.2471 31.8155 56.5825C32.4838 55.489 33.0911 54.2675 33.8963 53.2834C34.2115 52.8981 34.3838 52.0064 34.3926 51.5286C34.4185 50.13 34.3205 48.6154 33.3798 47.5076C32.2679 46.1979 29.7645 46.1188 28.2257 45.8931C26.2614 45.605 24.3271 45.5849 22.3846 46.0235C21.7394 46.1692 20.9247 46.1975 20.4042 46.6602C20.0043 47.0157 19.6105 47.3869 19.1407 47.6479C18.718 47.8828 17.9675 48.6842 17.9675 49.1822" stroke="#F15092" stroke-width="2.67958" stroke-linecap="round"/>
<path d="M14.8082 40.338C15.3738 40.4711 15.8687 40.4549 16.4627 40.4182C17.6803 40.3431 19.0766 40.4181 20.2431 40.0171C21.1344 39.7107 21.9965 39.1924 22.8202 38.7336C23.3845 38.4193 23.8276 37.9376 24.3695 37.5854C24.6388 37.4103 25.0399 37.0692 25.2318 36.8133C25.4298 36.5494 25.7444 36.2358 25.9989 36.0262C26.3024 35.7762 26.4845 35.4303 26.761 35.1538C27.3701 34.5447 27.7379 33.7256 28.3454 33.1182" stroke="#F15092" stroke-width="2.67958" stroke-linecap="round"/>
<path d="M37.4615 29.6888C37.0642 29.9625 37.2001 29.8795 36.559 30.2203C35.4688 30.7997 34.2879 31.5809 33.0343 31.7394C32.0316 31.8662 30.5985 31.639 29.655 31.5238C28.4276 31.374 27.1854 31.23 25.9699 30.9924C25.2039 30.8426 24.4665 30.5223 23.7889 30.14C22.4747 29.3987 21.0144 28.9002 19.813 27.9641C18.8899 27.2448 17.3736 26.3719 16.9752 25.1764" stroke="#F15092" stroke-width="2.67958" stroke-linecap="round"/>
<path d="M39.8975 39.0745C41.0787 38.4357 42.2356 38.0332 43.006 36.9186C43.6412 35.9997 44.4047 35.041 44.8411 34.0006C45.1101 33.3591 45.2145 32.6337 45.4026 31.965C45.7033 30.8958 45.5831 29.8678 45.5831 28.7863" stroke="#F15092" stroke-width="2.67958" stroke-linecap="round"/>
<path d="M43.2365 37.2697C43.9773 37.3305 44.712 37.4389 45.4475 37.5454C47.2274 37.8031 48.6851 38.3776 50.3209 39.1298C51.5347 39.6879 52.9037 40.1822 53.976 41.02C54.5298 41.4526 55.0787 41.8781 55.6205 42.3235C56.3064 42.8875 57.0198 43.4444 57.7363 43.9681C57.9536 44.1268 58.1056 44.4786 58.3079 44.5797" stroke="#F15092" stroke-width="2.67958" stroke-linecap="round"/>
<path d="M58.7605 33.6598C60.8529 34.2399 62.9142 34.9625 64.9676 35.6653C66.3003 36.1214 66.8679 36.2348 67.6851 37.2998C68.5295 38.4003 69.5244 39.5588 69.9713 40.8997C70.4738 42.407 70.4928 43.8006 70.4928 45.372C70.4928 47.8696 70.5114 50.4405 68.2366 52.0203C67.0134 52.8697 65.8171 53.7277 64.376 54.1461C61.642 54.9398 58.5466 54.7191 55.7422 54.6876C52.7389 54.6539 49.9557 53.5525 47.7001 51.6192C46.9182 50.949 46.0589 50.1806 45.5141 49.2928C45.2575 48.8746 44.8783 48.4965 44.6818 48.0544C44.5144 47.6777 44.0374 47.6451 43.6891 47.558" stroke="#F15092" stroke-width="2.67958" stroke-linecap="round"/>
<path d="M69.9493 28.8764C71.4965 29.8293 72.8367 30.8893 74.6874 31.0273C75.435 31.083 76.1065 31.1194 76.8182 30.9019C77.5277 30.6851 78.2275 30.3917 78.8839 30.0496C80.2629 29.331 81.4429 28.1771 82.92 27.653C83.9896 27.2735 85.0749 27.3628 86.1539 27.5226C86.514 27.576 87.5836 27.8651 87.7282 28.1544" stroke="#F15092" stroke-width="2.67958" stroke-linecap="round"/>
<path d="M60.7455 61.9074C62.4034 61.8293 64.1314 61.9933 65.7743 62.2132C66.1288 62.2606 66.1553 62.2997 66.4111 62.4488C67.0486 62.8208 67.7903 63.0775 68.4717 63.3413C69.6774 63.808 70.9744 64.393 72.3023 64.1084C74.2738 63.6859 76.5975 62.895 77.8726 61.2556C78.9941 59.8136 79.8745 58.2109 81.5978 57.4C82.9998 56.7402 84.7271 57.3047 86.1954 57.3047" stroke="#F15092" stroke-width="2.67958" stroke-linecap="round"/>
<path d="M65.7953 63.0011C68.076 64.956 69.1946 66.8026 69.6402 69.8084C69.7369 70.4609 69.8395 71.2792 69.6244 71.9357C69.3329 72.8255 68.8191 73.7019 68.3165 74.4885C67.5102 75.7506 66.3591 77.1143 65.0074 77.8134C63.7749 78.4509 62.1334 78.7357 60.7686 78.9558C59.9773 79.0834 59.2287 79.3104 58.4207 79.3104" stroke="#F15092" stroke-width="2.67958" stroke-linecap="round"/>
</svg>
