<svg width="97" height="104" viewBox="0 0 97 104" fill="none" xmlns="http://www.w3.org/2000/svg">
<path d="M71.2504 100.201C69.1039 102.077 57.4135 103.949 33.4228 99.8744C23.4921 98.5452 5.83003 98.2138 2.33734 94.5126C-0.0350881 91.9985 0.574285 89.2409 0.670148 87.454C0.766011 85.667 4.29381 83.4668 9.39378 83.7404C14.4938 84.014 15.6096 82.2818 23.0683 83.0802C30.5269 83.8786 36.2856 84.5857 48.4936 85.838C60.7015 87.0903 62.4015 87.1815 71.7937 90.0748C81.1858 92.9681 73.397 98.3246 71.2504 100.201Z" fill="#47895F"/>
<path d="M51.6107 77.4944L18.3485 61.1771L16.1519 36.0735L23.0554 12.2251L42.8245 21.0114L61.966 22.2665L85.1868 12.2251V34.8183L77.0281 73.4151L51.6107 77.4944Z" fill="#F585B3"/>
<path d="M21.3118 62.5513L19.4799 66.5016L21.3118 62.5513ZM22.7935 63.2385L24.6254 59.2883L22.7935 63.2385ZM25.988 64.1416L25.4431 68.4617L25.988 64.1416ZM29.4136 64.5737L29.9585 60.2536L29.4136 64.5737ZM32.2403 66.2265L28.799 68.8944L32.2403 66.2265ZM34.4681 69.1002L37.9094 66.4323L34.4681 69.1002ZM37.12 71.1094L38.6389 67.0286L37.12 71.1094ZM38.6579 71.6819L40.1768 67.6011L38.6579 71.6819ZM40.1959 72.2543L38.6769 76.3351L40.1959 72.2543ZM43.4883 72.9577L43.8125 68.6155L43.4883 72.9577ZM46.9973 73.2197L46.6732 77.562L46.9973 73.2197ZM50.0126 74.4132L52.8187 71.0836L50.0126 74.4132ZM51.2734 75.4758L48.4674 78.8054L51.2734 75.4758ZM52.5342 76.5383L55.3402 73.2087L52.5342 76.5383ZM55.4881 77.8461L56.1124 73.5367L55.4881 77.8461ZM58.8744 78.3366L58.2502 82.6459L58.8744 78.3366ZM62.1014 77.8349L64.0077 81.7498L62.1014 77.8349ZM65.1692 76.3411L67.0755 80.2559L65.1692 76.3411ZM68.2624 75.0057L69.7999 79.0795L68.2624 75.0057ZM69.8217 74.4172L68.2842 70.3433L69.8217 74.4172ZM71.381 73.8287L72.9185 77.9025L71.381 73.8287ZM74.3491 72.721L75.8549 76.8066L74.3491 72.721ZM77.1667 71.6825L75.6609 67.5969L77.1667 71.6825ZM78.8177 69.5456L74.5113 68.9008L78.8177 69.5456ZM79.3021 66.3101L74.9958 65.6653L79.3021 66.3101ZM79.3523 62.9828L75.0252 63.4688L79.3523 62.9828ZM78.9682 59.5637L83.2953 59.0777L78.9682 59.5637ZM79.8318 56.4083L83.3486 58.9759L79.8318 56.4083ZM81.943 53.5167L78.4262 50.9491L81.943 53.5167ZM82.8833 50.3776L87.2276 50.0818L82.8833 50.3776ZM82.6527 46.9909L78.3085 47.2867L82.6527 46.9909ZM83.3574 40.4641L79.0644 39.7358L83.3574 40.4641ZM84.1626 37.2787L80.0373 35.8849L84.1626 37.2787ZM84.6944 35.7044L80.5692 34.3107L84.6944 35.7044ZM85.2263 34.1302L89.3515 35.524L85.2263 34.1302ZM85.8965 30.9231L81.5577 30.5556L85.8965 30.9231ZM86.1731 27.6574L90.5119 28.025L86.1731 27.6574ZM85.7726 24.3917L81.6376 25.7562L85.7726 24.3917ZM85.2338 22.7588L89.3688 21.3942L85.2338 22.7588ZM84.6949 21.1259L88.8299 19.7614L84.6949 21.1259ZM83.9849 17.8602L88.3155 17.4061L83.9849 17.8602ZM83.8137 16.2273L88.1442 15.7732L83.8137 16.2273ZM83.6425 14.5944L79.3119 15.0485L83.6425 14.5944ZM82.5115 13.2163L81.3945 9.00768L82.5115 13.2163ZM81.5517 13.471L82.6687 17.6796L81.5517 13.471ZM80.592 13.7257L81.709 17.9344L80.592 13.7257ZM74.8962 15.3702L73.6702 11.192L74.8962 15.3702ZM66.623 21.3454L64.6853 17.4459L66.623 21.3454ZM65.0079 22.1479L66.9455 26.0474L65.0079 22.1479ZM63.3928 22.9504L65.3305 26.8499L63.3928 22.9504ZM60.1884 23.0362L61.9785 19.0668L60.1884 23.0362ZM53.7739 21.0387L54.1765 25.3744L53.7739 21.0387ZM52.1275 21.1916L51.7249 16.8559L52.1275 21.1916ZM47.3362 21.0575L46.1099 25.2356L47.3362 21.0575ZM45.8377 20.6177L47.064 16.4396L45.8377 20.6177ZM39.4097 19.4169L39.0038 23.7522L39.4097 19.4169ZM32.15 15.6487L29.2366 18.8848L32.15 15.6487ZM27.4918 14.0683L26.9407 18.3876L27.4918 14.0683ZM22.9696 14.3301L20.7074 10.6095L22.9696 14.3301ZM20.6893 15.7166L18.4271 11.996L20.6893 15.7166ZM17.9429 31.244L20.9743 34.3698L17.9429 31.244ZM15.243 33.8623L12.2117 30.7364L15.243 33.8623ZM16.5512 38.6472L20.01 36.0022L16.5512 38.6472ZM17.8802 40.3852L14.4214 43.0302L17.8802 40.3852ZM19.1996 50.3195L14.9534 49.3552L19.1996 50.3195ZM18.1323 56.7966L13.7833 57.0113L18.1323 56.7966ZM21.3118 62.5513L19.4799 66.5016L20.9616 67.1887L22.7935 63.2385L24.6254 59.2883L23.1438 58.6011L21.3118 62.5513ZM22.7935 63.2385L20.9616 67.1887C22.3795 67.8462 23.8813 68.2647 25.4431 68.4617L25.988 64.1416L26.5329 59.8215C25.811 59.7305 25.1832 59.5469 24.6254 59.2883L22.7935 63.2385ZM25.988 64.1416L25.4431 68.4617L27.1559 68.6777L27.7008 64.3577L28.2457 60.0376L26.5329 59.8215L25.988 64.1416ZM27.7008 64.3577L27.1559 68.6777L28.8687 68.8938L29.4136 64.5737L29.9585 60.2536L28.2457 60.0376L27.7008 64.3577ZM29.4136 64.5737L28.8687 68.8938C28.8846 68.8958 28.8778 68.8963 28.8551 68.8887C28.8319 68.8809 28.8048 68.869 28.7787 68.8538C28.753 68.8387 28.7404 68.8275 28.741 68.8281C28.7424 68.8294 28.763 68.8479 28.799 68.8944L32.2403 66.2265L35.6816 63.5586C34.2728 61.7414 32.3128 60.5505 29.9585 60.2536L29.4136 64.5737ZM32.2403 66.2265L28.799 68.8944L29.9129 70.3312L33.3542 67.6633L36.7955 64.9955L35.6816 63.5586L32.2403 66.2265ZM33.3542 67.6633L29.9129 70.3312L31.0268 71.7681L34.4681 69.1002L37.9094 66.4323L36.7955 64.9955L33.3542 67.6633ZM34.4681 69.1002L31.0268 71.7681C32.2109 73.2954 33.7356 74.4959 35.601 75.1902L37.12 71.1094L38.6389 67.0286C38.4538 66.9597 38.2105 66.8207 37.9094 66.4323L34.4681 69.1002ZM37.12 71.1094L35.601 75.1902L37.139 75.7627L38.6579 71.6819L40.1768 67.6011L38.6389 67.0286L37.12 71.1094ZM38.6579 71.6819L37.139 75.7627L38.6769 76.3351L40.1959 72.2543L41.7148 68.1735L40.1768 67.6011L38.6579 71.6819ZM40.1959 72.2543L38.6769 76.3351C40.1129 76.8696 41.6153 77.1843 43.1641 77.3L43.4883 72.9577L43.8125 68.6155C43.022 68.5565 42.3295 68.4023 41.7148 68.1735L40.1959 72.2543ZM43.4883 72.9577L43.1641 77.3L44.9187 77.431L45.2428 73.0887L45.567 68.7465L43.8125 68.6155L43.4883 72.9577ZM45.2428 73.0887L44.9187 77.431L46.6732 77.562L46.9973 73.2197L47.3215 68.8775L45.567 68.7465L45.2428 73.0887ZM46.9973 73.2197L46.6732 77.562C46.9946 77.5859 47.1145 77.6652 47.2066 77.7428L50.0126 74.4132L52.8187 71.0836C51.2297 69.7445 49.3395 69.0281 47.3215 68.8775L46.9973 73.2197ZM50.0126 74.4132L47.2066 77.7428L48.4674 78.8054L51.2734 75.4758L54.0795 72.1461L52.8187 71.0836L50.0126 74.4132ZM51.2734 75.4758L48.4674 78.8054L49.7282 79.8679L52.5342 76.5383L55.3402 73.2087L54.0795 72.1461L51.2734 75.4758ZM52.5342 76.5383L49.7282 79.8679C51.2144 81.1204 52.9625 81.88 54.8639 82.1554L55.4881 77.8461L56.1124 73.5367C55.7563 73.4851 55.5351 73.3729 55.3402 73.2087L52.5342 76.5383ZM55.4881 77.8461L54.8639 82.1554L56.557 82.4007L57.1813 78.0913L57.8055 73.782L56.1124 73.5367L55.4881 77.8461ZM57.1813 78.0913L56.557 82.4007L58.2502 82.6459L58.8744 78.3366L59.4986 74.0272L57.8055 73.782L57.1813 78.0913ZM58.8744 78.3366L58.2502 82.6459C60.2403 82.9342 62.1979 82.631 64.0077 81.7498L62.1014 77.8349L60.1951 73.9201C59.9597 74.0347 59.7659 74.0659 59.4986 74.0272L58.8744 78.3366ZM62.1014 77.8349L64.0077 81.7498L65.5416 81.0028L63.6353 77.088L61.729 73.1731L60.1951 73.9201L62.1014 77.8349ZM63.6353 77.088L65.5416 81.0028L67.0755 80.2559L65.1692 76.3411L63.2629 72.4262L61.729 73.1731L63.6353 77.088ZM65.1692 76.3411L67.0755 80.2559C67.9805 79.8152 68.8886 79.4234 69.7999 79.0795L68.2624 75.0057L66.7249 70.9318C65.5571 71.3725 64.4031 71.871 63.2629 72.4262L65.1692 76.3411ZM68.2624 75.0057L69.7999 79.0795L71.3592 78.491L69.8217 74.4172L68.2842 70.3433L66.7249 70.9318L68.2624 75.0057ZM69.8217 74.4172L71.3592 78.491L72.9185 77.9025L71.381 73.8287L69.8435 69.7548L68.2842 70.3433L69.8217 74.4172ZM71.381 73.8287L72.9185 77.9025C73.9486 77.5137 74.9274 77.1485 75.8549 76.8066L74.3491 72.721L72.8433 68.6353C71.8925 68.9857 70.8925 69.3589 69.8435 69.7548L71.381 73.8287ZM74.3491 72.721L75.8549 76.8066L77.2637 76.2874L75.7579 72.2017L74.2521 68.1161L72.8433 68.6353L74.3491 72.721ZM75.7579 72.2017L77.2637 76.2874L78.6725 75.7682L77.1667 71.6825L75.6609 67.5969L74.2521 68.1161L75.7579 72.2017ZM77.1667 71.6825L78.6725 75.7682C79.8209 75.3449 80.8995 74.6252 81.7296 73.5508C82.5459 72.4942 82.9564 71.3098 83.124 70.1903L78.8177 69.5456L74.5113 68.9008C74.5175 68.8599 74.5721 68.5709 74.8381 68.2266C75.1178 67.8645 75.4516 67.674 75.6609 67.5969L77.1667 71.6825ZM78.8177 69.5456L83.124 70.1903L83.3662 68.5726L79.0599 67.9278L74.7536 67.2831L74.5113 68.9008L78.8177 69.5456ZM79.0599 67.9278L83.3662 68.5726L83.6084 66.9548L79.3021 66.3101L74.9958 65.6653L74.7536 67.2831L79.0599 67.9278ZM79.3021 66.3101L83.6084 66.9548C83.8288 65.483 83.8475 63.9932 83.6794 62.4967L79.3523 62.9828L75.0252 63.4688C75.1131 64.2517 75.0984 64.9801 74.9958 65.6653L79.3021 66.3101ZM79.3523 62.9828L83.6794 62.4967L83.4874 60.7872L79.1603 61.2732L74.8331 61.7593L75.0252 63.4688L79.3523 62.9828ZM79.1603 61.2732L83.4874 60.7872L83.2953 59.0777L78.9682 59.5637L74.6411 60.0497L74.8331 61.7593L79.1603 61.2732ZM78.9682 59.5637L83.2953 59.0777C83.292 59.0476 83.2933 59.0372 83.293 59.0422C83.2926 59.0476 83.2911 59.0581 83.288 59.0695C83.2849 59.0807 83.2834 59.0815 83.2891 59.0698C83.2952 59.0575 83.312 59.026 83.3486 58.9759L79.8318 56.4083L76.315 53.8407C74.9972 55.6458 74.3861 57.7791 74.6411 60.0497L78.9682 59.5637ZM79.8318 56.4083L83.3486 58.9759L84.4042 57.5301L80.8874 54.9625L77.3706 52.3949L76.315 53.8407L79.8318 56.4083ZM80.8874 54.9625L84.4042 57.5301L85.4597 56.0843L81.943 53.5167L78.4262 50.9491L77.3706 52.3949L80.8874 54.9625ZM81.943 53.5167L85.4597 56.0843C86.7317 54.3421 87.378 52.2918 87.2276 50.0818L82.8833 50.3776L78.539 50.6733C78.5415 50.7088 78.5399 50.7292 78.539 50.738C78.538 50.7465 78.5368 50.7526 78.5347 50.7596C78.5323 50.7676 78.5137 50.8294 78.4262 50.9491L81.943 53.5167ZM82.8833 50.3776L87.2276 50.0818L87.1123 48.3885L82.768 48.6842L78.4237 48.98L78.539 50.6733L82.8833 50.3776ZM82.768 48.6842L87.1123 48.3885L86.997 46.6951L82.6527 46.9909L78.3085 47.2867L78.4237 48.98L82.768 48.6842ZM82.6527 46.9909L86.997 46.6951C86.9425 45.8952 86.9811 45.1379 87.1037 44.4147L82.8108 43.6864L78.5178 42.9582C78.276 44.3832 78.2092 45.8289 78.3085 47.2867L82.6527 46.9909ZM82.8108 43.6864L87.1037 44.4147L87.3771 42.8035L83.0841 42.0752L78.7911 41.347L78.5178 42.9582L82.8108 43.6864ZM83.0841 42.0752L87.3771 42.8035L87.6504 41.1923L83.3574 40.4641L79.0644 39.7358L78.7911 41.347L83.0841 42.0752ZM83.3574 40.4641L87.6504 41.1923C87.7936 40.3479 88.0053 39.5085 88.2878 38.6724L84.1626 37.2787L80.0373 35.8849C79.6106 37.1478 79.2856 38.432 79.0644 39.7358L83.3574 40.4641ZM84.1626 37.2787L88.2878 38.6724L88.8197 37.0982L84.6944 35.7044L80.5692 34.3107L80.0373 35.8849L84.1626 37.2787ZM84.6944 35.7044L88.8197 37.0982L89.3515 35.524L85.2263 34.1302L81.101 32.7365L80.5692 34.3107L84.6944 35.7044ZM85.2263 34.1302L89.3515 35.524C89.8168 34.1469 90.113 32.7336 90.2353 31.2907L85.8965 30.9231L81.5577 30.5556C81.4955 31.2899 81.345 32.0145 81.101 32.7365L85.2263 34.1302ZM85.8965 30.9231L90.2353 31.2907L90.3736 29.6578L86.0348 29.2903L81.696 28.9227L81.5577 30.5556L85.8965 30.9231ZM86.0348 29.2903L90.3736 29.6578L90.5119 28.025L86.1731 27.6574L81.8344 27.2898L81.696 28.9227L86.0348 29.2903ZM86.1731 27.6574L90.5119 28.025C90.6561 26.3225 90.4416 24.6454 89.9076 23.0271L85.7726 24.3917L81.6376 25.7562C81.8221 26.3151 81.8746 26.8151 81.8344 27.2898L86.1731 27.6574ZM85.7726 24.3917L89.9076 23.0271L89.3688 21.3942L85.2338 22.7588L81.0988 24.1233L81.6376 25.7562L85.7726 24.3917ZM85.2338 22.7588L89.3688 21.3942L88.8299 19.7614L84.6949 21.1259L80.5599 22.4905L81.0988 24.1233L85.2338 22.7588ZM84.6949 21.1259L88.8299 19.7614C88.5636 18.9545 88.3956 18.1708 88.3155 17.4061L83.9849 17.8602L79.6543 18.3142C79.8024 19.7267 80.1077 21.1202 80.5599 22.4905L84.6949 21.1259ZM83.9849 17.8602L88.3155 17.4061L88.1442 15.7732L83.8137 16.2273L79.4831 16.6814L79.6543 18.3142L83.9849 17.8602ZM83.8137 16.2273L88.1442 15.7732L87.973 14.1404L83.6425 14.5944L79.3119 15.0485L79.4831 16.6814L83.8137 16.2273ZM83.6425 14.5944L87.973 14.1404C87.8913 13.3612 87.659 11.9127 86.6401 10.6712C86.056 9.95942 85.2183 9.32766 84.1347 9.01908C83.0853 8.72024 82.1229 8.81436 81.3945 9.00768L82.5115 13.2163L83.6285 17.4249C83.22 17.5333 82.5447 17.6212 81.7495 17.3947C80.9201 17.1585 80.3037 16.6778 79.9081 16.1957C79.2663 15.4136 79.2794 14.7391 79.3119 15.0485L83.6425 14.5944ZM82.5115 13.2163L81.3945 9.00768L80.4347 9.26241L81.5517 13.471L82.6687 17.6796L83.6285 17.4249L82.5115 13.2163ZM81.5517 13.471L80.4347 9.26241L79.475 9.51714L80.592 13.7257L81.709 17.9344L82.6687 17.6796L81.5517 13.471ZM80.592 13.7257L79.475 9.51714C78.7829 9.70083 77.8961 9.95201 76.8275 10.2656L78.0535 14.4437L79.2795 18.6219C80.3159 18.3178 81.1214 18.0903 81.709 17.9344L80.592 13.7257ZM78.0535 14.4437L76.8275 10.2656L75.2489 10.7288L76.4749 14.9069L77.7009 19.0851L79.2795 18.6219L78.0535 14.4437ZM76.4749 14.9069L75.2489 10.7288L73.6702 11.192L74.8962 15.3702L76.1222 19.5483L77.7009 19.0851L76.4749 14.9069ZM74.8962 15.3702L73.6702 11.192C71.9371 11.7006 70.4012 12.5994 69.0871 13.8177L72.0476 17.0108L75.0081 20.2039C75.3872 19.8524 75.7503 19.6574 76.1222 19.5483L74.8962 15.3702ZM72.0476 17.0108L69.0871 13.8177L67.8173 14.9951L70.7777 18.1882L73.7382 21.3812L75.0081 20.2039L72.0476 17.0108ZM70.7777 18.1882L67.8173 14.9951L66.5474 16.1725L69.5079 19.3655L72.4683 22.5586L73.7382 21.3812L70.7777 18.1882ZM69.5079 19.3655L66.5474 16.1725C66.0187 16.6626 65.4046 17.0886 64.6853 17.4459L66.623 21.3454L68.5606 25.2449C69.9947 24.5322 71.3039 23.6382 72.4683 22.5586L69.5079 19.3655ZM66.623 21.3454L64.6853 17.4459L63.0703 18.2485L65.0079 22.1479L66.9455 26.0474L68.5606 25.2449L66.623 21.3454ZM65.0079 22.1479L63.0703 18.2485L61.4552 19.051L63.3928 22.9504L65.3305 26.8499L66.9455 26.0474L65.0079 22.1479ZM63.3928 22.9504L61.4552 19.051C61.4125 19.0722 61.494 19.025 61.6677 19.0204C61.7478 19.0182 61.8223 19.0261 61.8843 19.0392C61.914 19.0455 61.9373 19.0522 61.9538 19.0576C61.9619 19.0603 61.9681 19.0626 61.9723 19.0643C61.9764 19.0659 61.9785 19.0668 61.9785 19.0668L60.1884 23.0362L58.3983 27.0055C60.6946 28.0411 63.131 27.9428 65.3305 26.8499L63.3928 22.9504ZM60.1884 23.0362L61.9785 19.0668L60.3891 18.3501L58.599 22.3194L56.809 26.2887L58.3983 27.0055L60.1884 23.0362ZM58.599 22.3194L60.3891 18.3501L58.7997 17.6333L57.0097 21.6026L55.2196 25.572L56.809 26.2887L58.599 22.3194ZM57.0097 21.6026L58.7997 17.6333C57.0921 16.8632 55.2605 16.5276 53.3713 16.7031L53.7739 21.0387L54.1765 25.3744C54.4825 25.346 54.8081 25.3864 55.2196 25.572L57.0097 21.6026ZM53.7739 21.0387L53.3713 16.7031L51.7249 16.8559L52.1275 21.1916L52.5301 25.5273L54.1765 25.3744L53.7739 21.0387ZM52.1275 21.1916L51.7249 16.8559L50.0785 17.0088L50.4811 21.3445L50.8837 25.6802L52.5301 25.5273L52.1275 21.1916ZM50.4811 21.3445L50.0785 17.0088C49.4964 17.0629 49.0028 17.0087 48.5625 16.8795L47.3362 21.0575L46.1099 25.2356C47.6675 25.6928 49.2706 25.8299 50.8837 25.6802L50.4811 21.3445ZM47.3362 21.0575L48.5625 16.8795L47.064 16.4396L45.8377 20.6177L44.6114 24.7958L46.1099 25.2356L47.3362 21.0575ZM45.8377 20.6177L47.064 16.4396L45.5655 15.9998L44.3392 20.1779L43.1129 24.3559L44.6114 24.7958L45.8377 20.6177ZM44.3392 20.1779L45.5655 15.9998C44.2728 15.6204 42.9244 15.3725 41.531 15.2421L41.1252 19.5774L40.7193 23.9128C41.6133 23.9965 42.4075 24.1489 43.1129 24.3559L44.3392 20.1779ZM41.1252 19.5774L41.531 15.2421L39.8155 15.0815L39.4097 19.4169L39.0038 23.7522L40.7193 23.9128L41.1252 19.5774ZM39.4097 19.4169L39.8155 15.0815L38.1 14.9209L37.6941 19.2563L37.2883 23.5916L39.0038 23.7522L39.4097 19.4169ZM37.6941 19.2563L38.1 14.9209C37.8852 14.9008 37.7682 14.8478 37.6158 14.7107L34.7024 17.9467L31.789 21.1828C33.3382 22.5776 35.2157 23.3976 37.2883 23.5916L37.6941 19.2563ZM34.7024 17.9467L37.6158 14.7107L36.3396 13.5617L33.4262 16.7977L30.5128 20.0338L31.789 21.1828L34.7024 17.9467ZM33.4262 16.7977L36.3396 13.5617L35.0634 12.4127L32.15 15.6487L29.2366 18.8848L30.5128 20.0338L33.4262 16.7977ZM32.15 15.6487L35.0634 12.4127C33.559 11.0582 31.7474 10.2216 29.7338 9.96471L29.1828 14.284L28.6317 18.6033C28.8728 18.6341 29.0394 18.7073 29.2366 18.8848L32.15 15.6487ZM29.1828 14.284L29.7338 9.96471L28.0428 9.74898L27.4918 14.0683L26.9407 18.3876L28.6317 18.6033L29.1828 14.284ZM27.4918 14.0683L28.0428 9.74898L26.3518 9.53326L25.8008 13.8526L25.2497 18.1719L26.9407 18.3876L27.4918 14.0683ZM25.8008 13.8526L26.3518 9.53326C24.5217 9.29979 22.5206 9.50704 20.7074 10.6095L22.9696 14.3301L25.2318 18.0506C25.1731 18.0863 25.1161 18.1128 25.0659 18.1311C25.0164 18.1491 24.9829 18.1559 24.9717 18.1578C24.9517 18.1611 25.0331 18.1442 25.2497 18.1719L25.8008 13.8526ZM22.9696 14.3301L20.7074 10.6095L19.5673 11.3028L21.8295 15.0233L24.0917 18.7439L25.2318 18.0506L22.9696 14.3301ZM21.8295 15.0233L19.5673 11.3028L18.4271 11.996L20.6893 15.7166L22.9515 19.4371L24.0917 18.7439L21.8295 15.0233ZM20.6893 15.7166L18.4271 11.996C16.1414 13.3858 15.2324 15.677 15.0984 17.8059L19.4442 18.0793L23.7899 18.3527C23.7957 18.2597 23.8021 18.4145 23.6601 18.684C23.5006 18.9865 23.2452 19.2586 22.9515 19.4371L20.6893 15.7166ZM19.4442 18.0793L15.0984 17.8059L14.9934 19.4754L19.3391 19.7488L23.6848 20.0222L23.7899 18.3527L19.4442 18.0793ZM19.3391 19.7488L14.9934 19.4754L14.8883 21.1449L19.2341 21.4183L23.5798 21.6917L23.6848 20.0222L19.3391 19.7488ZM19.2341 21.4183L14.8883 21.1449C14.8102 22.3865 14.7867 23.6396 14.8169 24.9037L19.17 24.7996L23.523 24.6954C23.4987 23.6772 23.5179 22.6761 23.5798 21.6917L19.2341 21.4183ZM19.17 24.7996L14.8169 24.9037L14.8578 26.6155L19.2109 26.5113L23.564 26.4072L23.523 24.6954L19.17 24.7996ZM19.2109 26.5113L14.8578 26.6155L14.8988 28.3272L19.2519 28.2231L23.6049 28.119L23.564 26.4072L19.2109 26.5113ZM19.2519 28.2231L14.8988 28.3272C14.8986 28.318 14.899 28.2865 14.9079 28.2393C14.917 28.1916 14.9318 28.1444 14.9497 28.103C14.9582 28.0833 14.9662 28.0679 14.9724 28.0569C14.9786 28.046 14.9823 28.0409 14.982 28.0413C14.9814 28.0422 14.9623 28.0689 14.9115 28.1182L17.9429 31.244L20.9743 34.3698C22.6505 32.7442 23.6643 30.6006 23.6049 28.119L19.2519 28.2231ZM17.9429 31.244L14.9115 28.1182L13.5616 29.4273L16.593 32.5531L19.6244 35.679L20.9743 34.3698L17.9429 31.244ZM16.593 32.5531L13.5616 29.4273L12.2117 30.7364L15.243 33.8623L18.2744 36.9881L19.6244 35.679L16.593 32.5531ZM15.243 33.8623L12.2117 30.7364C11.1323 31.7832 10.2219 33.3114 10.2086 35.2487C10.1962 37.0646 10.9817 38.5323 11.7633 39.5544L15.2221 36.9093L18.681 34.2642C18.5766 34.1277 18.9226 34.5082 18.9171 35.3085C18.9108 36.2301 18.4538 36.8141 18.2744 36.9881L15.243 33.8623ZM15.2221 36.9093L11.7633 39.5544L13.0923 41.2923L16.5512 38.6472L20.01 36.0022L18.681 34.2642L15.2221 36.9093ZM16.5512 38.6472L13.0923 41.2923L14.4214 43.0302L17.8802 40.3852L21.3391 37.7401L20.01 36.0022L16.5512 38.6472ZM17.8802 40.3852L14.4214 43.0302C14.9539 43.7267 14.9563 44.0341 14.9544 44.0007L19.3018 43.7541L23.6491 43.5075C23.5238 41.2993 22.5785 39.3609 21.3391 37.7401L17.8802 40.3852ZM19.3018 43.7541L14.9544 44.0007L15.047 45.6317L19.3943 45.3851L23.7416 45.1385L23.6491 43.5075L19.3018 43.7541ZM19.3943 45.3851L15.047 45.6317L15.1395 47.2627L19.4868 47.0161L23.8342 46.7695L23.7416 45.1385L19.3943 45.3851ZM19.4868 47.0161L15.1395 47.2627C15.177 47.9239 15.1209 48.6174 14.9534 49.3552L19.1996 50.3195L23.4458 51.2838C23.7846 49.7917 23.92 48.283 23.8342 46.7695L19.4868 47.0161ZM19.1996 50.3195L14.9534 49.3552L14.5736 51.0275L18.8198 51.9918L23.066 52.9561L23.4458 51.2838L19.1996 50.3195ZM18.8198 51.9918L14.5736 51.0275L14.1938 52.6998L18.44 53.6641L22.6862 54.6284L23.066 52.9561L18.8198 51.9918ZM18.44 53.6641L14.1938 52.6998C13.8676 54.1363 13.7126 55.5806 13.7833 57.0113L18.1323 56.7966L22.4813 56.582C22.4558 56.0658 22.506 55.4218 22.6862 54.6284L18.44 53.6641ZM18.1323 56.7966L13.7833 57.0113L13.8553 58.4714L18.2043 58.2568L22.5534 58.0421L22.4813 56.582L18.1323 56.7966ZM18.2043 58.2568L13.8553 58.4714L13.9274 59.9316L18.2764 59.7169L22.6254 59.5023L22.5534 58.0421L18.2043 58.2568ZM18.2764 59.7169L13.9274 59.9316C13.9885 61.1705 14.3694 62.4255 15.1732 63.5364C15.9591 64.6225 16.9843 65.3442 17.9982 65.8144L19.8302 61.8642L21.6621 57.914C21.6882 57.9261 21.9606 58.0609 22.2285 58.4312C22.5144 58.8263 22.6123 59.2368 22.6254 59.5023L18.2764 59.7169ZM19.8302 61.8642L17.9982 65.8144L19.4799 66.5016L21.3118 62.5513L23.1438 58.6011L21.6621 57.914L19.8302 61.8642Z" fill="#F585B3"/>
<path d="M39.8313 87.9415C36.8948 89.873 36.0802 93.8193 38.0117 96.7557C39.9432 99.6922 43.8894 100.507 46.8259 98.5753L39.8313 87.9415ZM43.4121 93.2035L41.0235 87.3048L40.4404 87.5409L39.9148 87.8866L43.4121 93.2035ZM48.8377 88.1575L42.5077 87.4998L48.8377 88.1575ZM56.937 84.2839L60.2724 89.7038L56.937 84.2839ZM71.8812 82.4904L73.2145 88.7132L71.8812 82.4904ZM77.1674 80.5575L80.0329 86.2399L77.1674 80.5575ZM81.7727 65.9724L88.0118 64.7176L81.7727 65.9724ZM84.8986 61.8104L86.9337 67.8403L84.8986 61.8104ZM86.8898 57.3284L81.2726 60.3197L86.8898 57.3284ZM86.208 51.8587L91.9824 54.5341L86.208 51.8587ZM89.4745 43.0151L84.7884 47.321L89.4745 43.0151ZM89.1756 32.844L83.3473 35.3998L89.1756 32.844ZM88.0969 27.9699L81.7336 28.065L88.0969 27.9699ZM85.9408 18.2575L79.625 17.4752L85.9408 18.2575ZM87.4978 12.9109L81.6823 10.3263L87.4978 12.9109ZM85.2979 8.14871L82.1341 13.6706L85.2979 8.14871ZM67.2874 15.3482L69.375 9.33639L67.2874 15.3482ZM52.7971 16.9996L57.3801 12.5841L52.7971 16.9996ZM38.1131 14.4334L36.3604 8.31552L38.1131 14.4334ZM27.8935 14.0529L23.4231 18.5823L27.8935 14.0529ZM23.548 11.2533L21.4334 17.2557L23.548 11.2533ZM18.7225 10.2118L19.272 3.87152L18.7225 10.2118ZM10.489 29.7304L4.18763 28.8398L10.489 29.7304ZM11.5443 39.8421L7.6998 34.7706L11.5443 39.8421ZM9.02161 44.7109L2.81118 46.1005L9.02161 44.7109ZM13.2866 67.2021L12.5222 73.52L13.2074 73.6029L13.8945 73.537L13.2866 67.2021ZM13.7477 67.1578L20.1117 67.1794L20.1355 60.1516L13.1398 60.8229L13.7477 67.1578ZM7.3834 67.2363C7.37149 70.751 10.2111 73.6099 13.7258 73.6218C17.2405 73.6337 20.0994 70.7941 20.1113 67.2794L7.3834 67.2363ZM43.3286 93.2584L46.8259 98.5753L46.9094 98.5204L43.4121 93.2035L39.9148 87.8866L39.8313 87.9415L43.3286 93.2584ZM43.4121 93.2035L45.8008 99.1022C49.5413 97.5875 54.5648 94.6163 55.1676 88.8151L48.8377 88.1575L42.5077 87.4998C42.5483 87.1095 42.6687 86.7717 42.8057 86.5225C42.9336 86.2898 43.0358 86.2059 42.9927 86.246C42.9461 86.2893 42.7869 86.4241 42.4487 86.6226C42.1132 86.8195 41.6481 87.0518 41.0235 87.3048L43.4121 93.2035ZM48.8377 88.1575L55.1676 88.8151C55.1817 88.6789 55.1134 89.742 53.9848 90.7465C52.7562 91.8398 51.4875 91.8008 51.2776 91.7807L51.8847 85.4457L52.4918 79.1107C50.4565 78.9157 47.7673 79.2412 45.5231 81.2385C43.3788 83.1468 42.6996 85.6533 42.5077 87.4998L48.8377 88.1575ZM51.8847 85.4457L51.2776 91.7807C54.4635 92.086 57.5345 91.3887 60.2724 89.7038L56.937 84.2839L53.6016 78.864C53.2538 79.078 52.9566 79.1553 52.4918 79.1107L51.8847 85.4457ZM56.937 84.2839L60.2724 89.7038C61.001 89.2554 61.5741 89.1104 62.0533 89.0852L61.7193 82.73L61.3853 76.3747C58.5739 76.5225 55.9587 77.4134 53.6016 78.864L56.937 84.2839ZM61.7193 82.73L62.0533 89.0852C63.3971 89.0146 64.792 89.037 66.2409 89.158L66.7707 82.8161L67.3005 76.4742C65.3049 76.3075 63.3322 76.2724 61.3853 76.3747L61.7193 82.73ZM66.7707 82.8161L66.2409 89.158C68.5848 89.3538 70.9161 89.2057 73.2145 88.7132L71.8812 82.4904L70.5478 76.2676C69.4768 76.4971 68.4011 76.5661 67.3005 76.4742L66.7707 82.8161ZM71.8812 82.4904L73.2145 88.7132C75.5226 88.2186 77.7995 87.3662 80.0329 86.2399L77.1674 80.5575L74.3019 74.8752C72.8565 75.604 71.6092 76.0402 70.5478 76.2676L71.8812 82.4904ZM77.1674 80.5575L80.0329 86.2399C81.8512 85.323 83.5742 83.9111 84.728 81.8472C85.881 79.7847 86.1814 77.5796 86.0144 75.5546L79.672 76.0774L73.3295 76.6003C73.3323 76.6344 73.3 76.2055 73.6182 75.6364C73.9372 75.0658 74.3231 74.8645 74.3019 74.8752L77.1674 80.5575ZM79.672 76.0774L86.0144 75.5546C85.9752 75.0787 86.017 74.817 86.0418 74.7117C86.0628 74.623 86.0762 74.6203 86.062 74.6402L80.8876 70.9353L75.7132 67.2305C73.6682 70.0867 73.065 73.3922 73.3295 76.6003L79.672 76.0774ZM80.8876 70.9353L86.062 74.6402C88.2498 71.5846 88.6833 68.0568 88.0118 64.7176L81.7727 65.9724L75.5336 67.2272C75.5988 67.5511 75.5638 67.6348 75.5789 67.5505C75.5861 67.5099 75.6018 67.45 75.6305 67.3818C75.6593 67.3136 75.6908 67.2618 75.7132 67.2305L80.8876 70.9353ZM81.7727 65.9724L88.0118 64.7176C88.0516 64.9156 88.0973 65.3172 87.9939 65.8449C87.8863 66.3939 87.6523 66.8968 87.3502 67.299C86.8004 68.031 86.3364 68.0419 86.9337 67.8403L84.8986 61.8104L82.8634 55.7806C80.9868 56.414 78.7647 57.536 77.173 59.6554C75.4037 62.011 75.0364 64.755 75.5336 67.2272L81.7727 65.9724ZM84.8986 61.8104L86.9337 67.8403C88.8747 67.1852 91.6786 65.7743 93.0678 62.6475C94.526 59.3652 93.5337 56.2652 92.507 54.3372L86.8898 57.3284L81.2726 60.3197C81.3924 60.5447 80.6415 59.2682 81.436 57.4798C82.1614 55.8471 83.3965 55.6007 82.8634 55.7806L84.8986 61.8104ZM86.8898 57.3284L92.507 54.3372C92.3526 54.0472 92.265 53.8351 92.2174 53.6973C92.17 53.5601 92.1694 53.5175 92.1746 53.5591C92.1803 53.6048 92.1905 53.7337 92.1638 53.9237C92.1366 54.1184 92.0772 54.3294 91.9824 54.5341L86.208 51.8587L80.4337 49.1833C78.5575 53.2327 79.6587 57.2889 81.2726 60.3197L86.8898 57.3284ZM86.208 51.8587L91.9824 54.5341C92.2407 53.9765 92.7585 53.2133 93.7806 52.2886L89.5111 47.5693L85.2416 42.8499C83.2436 44.6575 81.5593 46.7539 80.4337 49.1833L86.208 51.8587ZM89.5111 47.5693L93.7806 52.2886C95.3996 50.8239 97.0235 48.4929 96.9983 45.3549C96.9745 42.3958 95.481 40.1461 94.1606 38.7092L89.4745 43.0151L84.7884 47.321C85.0025 47.554 84.2823 46.8983 84.2707 45.4572C84.2577 43.8373 85.1327 42.9484 85.2416 42.8499L89.5111 47.5693ZM89.4745 43.0151L94.1606 38.7092C93.9914 38.525 94.3112 38.7964 94.4211 39.5225C94.4749 39.878 94.4576 40.2257 94.3923 40.5272C94.3294 40.817 94.2387 40.9901 94.2112 41.0379L88.6949 37.8644L83.1786 34.6909C82.0821 36.5969 81.4553 38.9095 81.8364 41.4274C82.2062 43.8704 83.4231 45.8352 84.7884 47.321L89.4745 43.0151ZM88.6949 37.8644L94.2112 41.0379C96.0312 37.8743 96.6601 34.0652 95.0039 30.2883L89.1756 32.844L83.3473 35.3998C83.3172 35.331 83.2794 35.221 83.2559 35.078C83.2323 34.9341 83.2299 34.7967 83.2411 34.6798C83.2638 34.4426 83.3264 34.4339 83.1786 34.6909L88.6949 37.8644ZM89.1756 32.844L95.0039 30.2883C94.6371 29.452 94.472 28.6617 94.4602 27.8748L88.0969 27.9699L81.7336 28.065C81.7717 30.6107 82.3256 33.0698 83.3473 35.3998L89.1756 32.844ZM88.0969 27.9699L94.4602 27.8748C94.4197 25.1626 93.7299 22.5805 92.4814 20.1929L86.8419 23.1418L81.2024 26.0908C81.5775 26.8081 81.7244 27.4447 81.7336 28.065L88.0969 27.9699ZM86.8419 23.1418L92.4814 20.1929C92.2558 19.7615 92.2079 19.4322 92.2565 19.0399L85.9408 18.2575L79.625 17.4752C79.2515 20.4903 79.8043 23.4172 81.2024 26.0908L86.8419 23.1418ZM85.9408 18.2575L92.2565 19.0399C92.3777 18.0614 92.695 16.8868 93.3133 15.4956L87.4978 12.9109L81.6823 10.3263C80.6466 12.6565 79.9259 15.0463 79.625 17.4752L85.9408 18.2575ZM87.4978 12.9109L93.3133 15.4956C94.336 13.1944 94.61 10.3937 93.3454 7.65607C92.2072 5.19198 90.2024 3.62417 88.4618 2.62686L85.2979 8.14871L82.1341 13.6706C82.687 13.9874 82.1956 13.8703 81.7906 12.9936C81.5689 12.5136 81.4485 11.9563 81.4638 11.3938C81.4784 10.8569 81.611 10.4866 81.6823 10.3263L87.4978 12.9109ZM85.2979 8.14871L88.4618 2.62686C86.8054 1.67785 84.7261 0.82304 82.3827 0.77106C79.7978 0.713722 77.3821 1.65288 75.5158 3.46801L79.9529 8.03015L84.3899 12.5923C84.1496 12.826 83.7922 13.0844 83.3227 13.2683C82.854 13.452 82.4224 13.5031 82.1004 13.4959C81.5387 13.4835 81.4969 13.3055 82.1341 13.6706L85.2979 8.14871ZM79.9529 8.03015L75.5158 3.46801C75.391 3.58937 75.321 3.62128 75.3008 3.63013C75.2802 3.63916 75.204 3.67123 75.0191 3.68182L75.3831 10.0354L75.7471 16.389C79.045 16.2001 82.0166 14.9005 84.3899 12.5923L79.9529 8.03015ZM75.3831 10.0354L75.0191 3.68182C72.8552 3.80579 70.7825 4.56287 69.0335 5.99395C67.3565 7.36613 66.2713 9.11342 65.5611 10.8171L71.4353 13.2656L77.3094 15.7141C77.4545 15.3661 77.4548 15.5492 77.0937 15.8446C76.9082 15.9964 76.6732 16.1385 76.4032 16.2414C76.136 16.3432 75.905 16.3799 75.7471 16.389L75.3831 10.0354ZM71.4353 13.2656L65.5611 10.8171C65.4679 11.0407 65.7426 10.2194 66.9013 9.63767C68.1776 8.99686 69.227 9.28497 69.375 9.33639L67.2874 15.3482L65.1998 21.3601C67.2579 22.0748 69.9536 22.3474 72.6125 21.0124C75.1538 19.7364 76.5474 17.5422 77.3094 15.7141L71.4353 13.2656ZM67.2874 15.3482L69.375 9.33639C67.4546 8.66951 65.2671 8.428 63.0137 9.01392C60.7711 9.59702 58.9889 10.8627 57.6372 12.3375L62.3286 16.6376L67.0201 20.9377C67.0641 20.8896 66.8063 21.179 66.2166 21.3323C65.9425 21.4036 65.689 21.4194 65.4869 21.4061C65.2929 21.3934 65.1916 21.3573 65.1998 21.3601L67.2874 15.3482ZM62.3286 16.6376L57.6372 12.3375C57.3414 12.6602 57.1538 12.774 57.0999 12.8029C57.0726 12.8176 57.0663 12.8179 57.0778 12.8145C57.0824 12.8131 57.088 12.8117 57.0936 12.8106C57.0992 12.8095 57.1023 12.8092 57.102 12.8093L57.6606 19.1487L58.2193 25.4881C61.8237 25.1705 64.7757 23.3863 67.0201 20.9377L62.3286 16.6376ZM57.6606 19.1487L57.102 12.8093C57.204 12.8003 57.3259 12.8031 57.4538 12.8248C57.5807 12.8463 57.6754 12.8798 57.7298 12.9038C57.8324 12.9492 57.7039 12.9202 57.3801 12.5841L52.7971 16.9996L48.2142 21.4151C50.6738 23.968 54.0761 25.8532 58.2193 25.4881L57.6606 19.1487ZM52.7971 16.9996L57.3801 12.5841C55.7739 10.917 53.4119 9.4522 50.3803 9.44427C47.5052 9.43675 45.2005 10.7511 43.594 12.0751L47.6415 16.9861L51.6891 21.8971C51.9936 21.6462 51.5036 22.1753 50.347 22.1722C49.034 22.1688 48.2943 21.4983 48.2142 21.4151L52.7971 16.9996ZM47.6415 16.9861L43.594 12.0751C43.2643 12.3469 44.0429 11.551 45.645 11.7136C47.394 11.891 48.1287 12.9865 48.0677 12.8976L42.8194 16.497L37.5711 20.0964C38.8139 21.9085 41.0042 24.0361 44.3605 24.3766C47.57 24.7021 50.1079 23.2003 51.6891 21.8971L47.6415 16.9861ZM42.8194 16.497L48.0677 12.8976C46.9693 11.2959 45.4079 9.68601 43.2206 8.72693C40.9219 7.71903 38.5307 7.69373 36.3604 8.31552L38.1131 14.4334L39.8659 20.5513C39.7358 20.5885 39.4816 20.6402 39.1351 20.6236C38.7793 20.6066 38.4251 20.522 38.1094 20.3836C37.4908 20.1124 37.3657 19.7969 37.5711 20.0964L42.8194 16.497ZM38.1131 14.4334L36.3604 8.31552C34.7885 8.76585 33.2361 9.10172 31.7015 9.32742L32.6276 15.6237L33.5536 21.92C35.6658 21.6093 37.7704 21.1516 39.8659 20.5513L38.1131 14.4334ZM32.6276 15.6237L31.7015 9.32742C31.6729 9.33163 31.7039 9.32432 31.7826 9.33023C31.8638 9.33632 31.9678 9.35447 32.0807 9.39193C32.1933 9.4293 32.281 9.47467 32.3382 9.51079C32.3931 9.54547 32.3998 9.5589 32.364 9.52353L27.8935 14.0529L23.4231 18.5823C26.1507 21.2745 29.7168 22.4843 33.5536 21.92L32.6276 15.6237ZM27.8935 14.0529L32.364 9.52353C30.4505 7.63494 28.2189 6.15141 25.6627 5.25085L23.548 11.2533L21.4334 17.2557C22.0058 17.4573 22.6712 17.8402 23.4231 18.5823L27.8935 14.0529ZM23.548 11.2533L25.6627 5.25085C23.5928 4.52165 21.4584 4.061 19.272 3.87152L18.7225 10.2118L18.1731 16.552C19.292 16.649 20.3746 16.8826 21.4334 17.2557L23.548 11.2533ZM18.7225 10.2118L19.272 3.87152C16.529 3.6338 13.5554 4.10015 10.9577 5.94566L14.6435 11.1337L18.3293 16.3217C18.2384 16.3863 18.1449 16.4382 18.0565 16.477C17.969 16.5154 17.9021 16.5342 17.8662 16.5423C17.7978 16.5577 17.88 16.5266 18.1731 16.552L18.7225 10.2118ZM14.6435 11.1337L10.9577 5.94566C7.56499 8.35601 6.66495 12.0619 6.79607 15.1579L13.1544 14.8886L19.5127 14.6193C19.5028 14.3852 19.5509 14.5736 19.387 14.9869C19.1959 15.4688 18.8285 15.967 18.3293 16.3217L14.6435 11.1337ZM13.1544 14.8886L6.79607 15.1579C6.88855 17.3415 7.20514 19.5082 7.73824 21.6519L13.9141 20.116L20.09 18.5802C19.758 17.2448 19.568 15.9265 19.5127 14.6193L13.1544 14.8886ZM13.9141 20.116L7.73824 21.6519C7.73368 21.6335 7.71883 21.5636 7.7179 21.4526C7.71694 21.3395 7.73077 21.218 7.75992 21.1009C7.82186 20.8521 7.90652 20.7984 7.78784 20.9426L12.7014 24.987L17.6149 29.0315C20.0035 26.1296 21.0571 22.4691 20.09 18.5802L13.9141 20.116ZM12.7014 24.987L7.78784 20.9426C5.93024 23.1993 4.61117 25.8429 4.18763 28.8398L10.489 29.7304L16.7904 30.6209C16.8345 30.3089 16.9903 29.7903 17.6149 29.0315L12.7014 24.987ZM10.489 29.7304L4.18763 28.8398C3.61272 32.9078 5.33039 36.382 7.53581 38.9774L12.3854 34.8565L17.235 30.7356C16.8438 30.2752 16.7551 30.0411 16.7564 30.0446C16.7595 30.053 16.7823 30.1184 16.7959 30.2329C16.8097 30.3499 16.8098 30.4839 16.7904 30.6209L10.489 29.7304ZM12.3854 34.8565L7.53581 38.9774C7.5335 38.9747 7.48752 38.9205 7.42179 38.8121C7.35548 38.7027 7.26362 38.529 7.17926 38.2918C6.99731 37.78 6.89893 37.1041 7.02339 36.3664C7.26586 34.9292 8.10579 34.4628 7.6998 34.7706L11.5443 39.8421L15.3888 44.9136C17.0416 43.6607 19.0512 41.583 19.574 38.4839C20.1314 35.1802 18.7237 32.4875 17.235 30.7356L12.3854 34.8565ZM11.5443 39.8421L7.6998 34.7706C4.77475 36.9879 1.63871 40.8606 2.81118 46.1005L9.02161 44.7109L15.232 43.3212C15.299 43.6203 15.3213 43.9731 15.2695 44.3423C15.2185 44.7064 15.11 44.984 15.02 45.1576C14.8639 45.459 14.8224 45.343 15.3888 44.9136L11.5443 39.8421ZM9.02161 44.7109L2.81118 46.1005C3.14079 47.5736 3.38766 49.0303 3.55388 50.4717L9.87598 49.7427L16.1981 49.0136C15.9793 47.1162 15.6566 45.2185 15.232 43.3212L9.02161 44.7109ZM9.87598 49.7427L3.55388 50.4717C3.65647 51.3614 3.60535 52.3074 3.35634 53.3446L9.5445 54.8303L15.7327 56.3159C16.3107 53.9084 16.4805 51.4627 16.1981 49.0136L9.87598 49.7427ZM9.5445 54.8303L3.35634 53.3446C2.45311 57.1067 3.40545 60.6675 5.60253 63.5697L10.6765 59.7285L15.7506 55.8872C15.624 55.7201 15.6759 55.7317 15.7179 55.9135C15.7375 55.9982 15.7472 56.0885 15.7463 56.1738C15.7454 56.2577 15.7346 56.308 15.7327 56.3159L9.5445 54.8303ZM10.6765 59.7285L5.60253 63.5697C6.13703 64.2757 6.2569 64.7593 6.2825 65.0883L12.6273 64.5947L18.9722 64.1012C18.7331 61.028 17.5525 58.2674 15.7506 55.8872L10.6765 59.7285ZM12.6273 64.5947L6.2825 65.0883C6.35642 66.0386 6.4765 67.1132 6.72156 68.0824C6.83446 68.5289 7.06949 69.3546 7.57094 70.217C7.95592 70.8791 9.4213 73.1448 12.5222 73.52L13.2866 67.2021L14.051 60.8842C16.9983 61.2408 18.321 63.3839 18.5743 63.8194C18.944 64.4553 19.0582 64.9504 19.0612 64.9623C19.0865 65.0625 19.0306 64.8519 18.9722 64.1012L12.6273 64.5947ZM13.2866 67.2021L13.8945 73.537L14.3556 73.4927L13.7477 67.1578L13.1398 60.8229L12.6787 60.8672L13.2866 67.2021ZM13.7477 67.1578L7.38374 67.1363L7.3834 67.2363L13.7474 67.2578L20.1113 67.2794L20.1117 67.1794L13.7477 67.1578Z" fill="#F15092"/>
<path d="M56.9474 68.7784C54.2714 68.6985 51.555 68.5574 48.9353 67.9461C48.0978 67.7507 47.3111 67.3895 46.4736 67.1941C45.1026 66.8742 43.7108 66.5089 42.3773 66.0609C41.3182 65.7051 39.5981 65.2084 38.8576 64.266C38.106 63.3094 37.3768 62.9343 36.1853 62.5513C34.3049 61.9469 32.357 61.777 30.4545 61.2878C30.0073 61.1728 29.7707 60.9642 29.532 60.636C29.421 60.4833 29.5079 59.9551 29.512 59.7737C29.5221 59.317 29.7015 58.8832 29.8228 58.45C30.0356 57.6902 30.4094 57.079 30.8155 56.4144C31.4838 55.3209 32.0911 54.0994 32.8963 53.1153C33.2115 52.73 33.3838 51.8383 33.3926 51.3605C33.4185 49.9619 33.3205 48.4473 32.3798 47.3395C31.2679 46.0299 28.7645 45.9507 27.2257 45.725C25.2614 45.4369 23.3271 45.4168 21.3846 45.8554C20.7394 46.0011 19.9247 46.0294 19.4042 46.4921C19.0043 46.8476 18.6105 47.2189 18.1407 47.4799C17.718 47.7147 16.9675 48.5162 16.9675 49.0141" stroke="#F15092" stroke-width="2.67958" stroke-linecap="round"/>
<path d="M13.8082 40.17C14.3738 40.3031 14.8687 40.2869 15.4627 40.2503C16.6803 40.1751 18.0766 40.2502 19.2431 39.8492C20.1344 39.5428 20.9965 39.0244 21.8202 38.5656C22.3845 38.2513 22.8276 37.7697 23.3695 37.4175C23.6388 37.2424 24.0399 36.9013 24.2318 36.6454C24.4298 36.3814 24.7444 36.0678 24.9989 35.8582C25.3024 35.6083 25.4845 35.2623 25.761 34.9858C26.3701 34.3767 26.7379 33.5576 27.3454 32.9502" stroke="#F15092" stroke-width="2.67958" stroke-linecap="round"/>
<path d="M36.4615 29.5212C36.0642 29.7949 36.2001 29.7119 35.559 30.0527C34.4688 30.6321 33.2879 31.4133 32.0343 31.5718C31.0316 31.6986 29.5985 31.4714 28.655 31.3562C27.4276 31.2064 26.1854 31.0624 24.9699 30.8248C24.2039 30.675 23.4665 30.3547 22.7889 29.9724C21.4747 29.2311 20.0144 28.7326 18.813 27.7965C17.8899 27.0772 16.3736 26.2043 15.9752 25.0088" stroke="#F15092" stroke-width="2.67958" stroke-linecap="round"/>
<path d="M38.8975 38.9069C40.0787 38.2681 41.2357 37.8656 42.0061 36.751C42.6413 35.8321 43.4048 34.8734 43.8411 33.833C44.1101 33.1915 44.2146 32.4661 44.4027 31.7974C44.7034 30.7282 44.5832 29.7002 44.5832 28.6187" stroke="#F15092" stroke-width="2.67958" stroke-linecap="round"/>
<path d="M42.2364 37.1016C42.9772 37.1625 43.712 37.2708 44.4475 37.3773C46.2273 37.635 47.685 38.2095 49.3209 38.9617C50.5347 39.5198 51.9036 40.0141 52.9759 40.8519C53.5297 41.2845 54.0786 41.71 54.6204 42.1555C55.3063 42.7194 56.0197 43.2763 56.7362 43.8C56.9535 43.9588 57.1055 44.3105 57.3078 44.4117" stroke="#F15092" stroke-width="2.67958" stroke-linecap="round"/>
<path d="M57.7605 33.4917C59.8529 34.0718 61.9142 34.7944 63.9676 35.4972C65.3003 35.9533 65.8679 36.0667 66.6851 37.1317C67.5295 38.2323 68.5244 39.3907 68.9713 40.7316C69.4738 42.2389 69.4928 43.6325 69.4928 45.2039C69.4928 47.7015 69.5114 50.2725 67.2366 51.8522C66.0134 52.7016 64.8171 53.5596 63.376 53.978C60.642 54.7717 57.5466 54.551 54.7422 54.5195C51.7389 54.4858 48.9557 53.3844 46.7001 51.4511C45.9182 50.7809 45.0589 50.0125 44.5141 49.1247C44.2575 48.7065 43.8783 48.3284 43.6818 47.8863C43.5144 47.5096 43.0374 47.477 42.6891 47.3899" stroke="#F15092" stroke-width="2.67958" stroke-linecap="round"/>
<path d="M68.9493 28.7084C70.4965 29.6614 71.8367 30.7214 73.6874 30.8593C74.435 30.915 75.1065 30.9514 75.8182 30.734C76.5277 30.5172 77.2275 30.2237 77.8839 29.8816C79.2629 29.163 80.4429 28.0092 81.92 27.485C82.9896 27.1055 84.0749 27.1948 85.1539 27.3547C85.514 27.408 86.5836 27.6971 86.7282 27.9864" stroke="#F15092" stroke-width="2.67958" stroke-linecap="round"/>
<path d="M59.7455 61.7396C61.4034 61.6616 63.1314 61.8256 64.7743 62.0455C65.1288 62.0929 65.1553 62.132 65.4111 62.2811C66.0486 62.653 66.7903 62.9098 67.4717 63.1736C68.6774 63.6403 69.9744 64.2252 71.3023 63.9407C73.2738 63.5182 75.5975 62.7272 76.8726 61.0878C77.9941 59.6459 78.8745 58.0432 80.5978 57.2322C81.9998 56.5725 83.7271 57.137 85.1954 57.137" stroke="#F15092" stroke-width="2.67958" stroke-linecap="round"/>
<path d="M64.7953 62.8335C67.076 64.7884 68.1946 66.635 68.6402 69.6408C68.7369 70.2933 68.8395 71.1116 68.6244 71.7681C68.3329 72.6579 67.8191 73.5343 67.3165 74.3209C66.5102 75.583 65.3591 76.9466 64.0074 77.6458C62.7749 78.2833 61.1334 78.5681 59.7686 78.7882C58.9773 78.9158 58.2287 79.1428 57.4207 79.1428" stroke="#F15092" stroke-width="2.67958" stroke-linecap="round"/>
</svg>
