<svg width="79" height="62" viewBox="0 0 79 62" fill="none" xmlns="http://www.w3.org/2000/svg">
<path d="M73.011 41.3726C70.7732 39.5176 58.8077 37.9202 34.4632 42.7117C24.3766 44.3308 6.38312 45.1385 2.92162 49.004C0.570389 51.6296 1.26488 54.4241 1.41013 56.243C1.55539 58.0618 5.2097 60.2105 10.4006 59.7959C15.5916 59.3813 16.775 61.1172 24.3561 60.105C31.9372 59.0928 37.788 58.2188 50.1979 56.6175C62.6077 55.0163 64.338 54.8781 73.8341 51.6792C83.3302 48.4802 75.2488 43.2277 73.011 41.3726Z" fill="#47895F"/>
<path d="M69.3645 27.8837C64.7954 42.8579 38.8947 48.2038 37.7965 48.4159C37.5064 48.4739 37.2064 48.4591 36.9234 48.3727C36.6405 48.2864 36.3833 48.1312 36.175 47.9211C35.3822 47.132 16.8781 28.237 21.4472 13.2628C22.5241 9.74773 24.9513 6.80333 28.1964 5.0756C31.4414 3.34787 35.2393 2.9779 38.7568 4.04685C43.1742 5.39472 46.4622 8.47441 47.8933 12.4209C51.2839 9.94563 55.7311 9.22617 60.1485 10.574C63.6636 11.6509 66.608 14.0782 68.3357 17.3232C70.0634 20.5683 70.4334 24.3662 69.3645 27.8837Z" fill="#FB3A66"/>
<path d="M68.5999 29.4273L70.3922 30.315L68.5999 29.4273ZM67.8884 31.1161L66.0023 30.4509L67.8884 31.1161ZM67.6109 31.903L65.7248 31.2377L67.6109 31.903ZM66.8382 33.5982L65.0976 32.6131L66.8382 33.5982ZM66.6298 33.9664L68.3703 34.9515L66.6298 33.9664ZM66.4214 34.3346L64.6808 33.3495L66.4214 34.3346ZM65.2744 35.7921L63.9094 34.3304L65.2744 35.7921ZM64.9675 36.0787L63.6025 34.617L64.9675 36.0787ZM64.6606 36.3653L63.2956 34.9036L64.6606 36.3653ZM63.4074 37.7824L61.7933 36.6014L63.4074 37.7824ZM63.1513 38.1325L64.7653 39.3135L63.1513 38.1325ZM62.8951 38.4826L61.281 37.3016L62.8951 38.4826ZM61.3265 39.4593L61.7147 41.4213L61.3265 39.4593ZM60.4294 39.6368L60.0412 37.6748L60.4294 39.6368ZM58.3884 39.8526L58.3532 37.8529L58.3884 39.8526ZM57.4516 39.8691L57.4868 41.8688L57.4516 39.8691ZM56.0662 41.1576L54.1353 40.6363L56.0662 41.1576ZM55.7581 42.2988L57.689 42.8201L55.7581 42.2988ZM54.1985 43.1406L54.8627 41.2541L54.1985 43.1406ZM53.1052 42.7556L52.441 44.6421L53.1052 42.7556ZM51.1008 42.7577L50.1418 41.0026L51.1008 42.7577ZM50.7469 42.951L51.7058 44.7062L50.7469 42.951ZM50.3929 43.1444L49.434 41.3893L50.3929 43.1444ZM48.9878 44.5008L47.3237 43.3913L48.9878 44.5008ZM48.7104 44.9168L47.0464 43.8073L48.7104 44.9168ZM48.433 45.3328L50.097 46.4424L48.433 45.3328ZM46.8628 46.3023L46.7717 44.3043L46.8628 46.3023ZM46.0068 46.3413L45.9156 44.3434L46.0068 46.3413ZM44.2784 46.9698L43.0741 45.373L44.2784 46.9698ZM43.9299 47.2326L45.1342 48.8294L43.9299 47.2326ZM43.5814 47.4954L42.3771 45.8987L43.5814 47.4954ZM41.9468 48.449L42.7355 50.287L41.9468 48.449ZM41.5609 48.6146L40.7722 46.7767L41.5609 48.6146ZM41.1751 48.7802L41.9638 50.6181L41.1751 48.7802ZM39.316 49.3708L39.7494 51.3233L39.316 49.3708ZM38.8667 49.4706L38.4333 47.5181L38.8667 49.4706ZM38.4174 49.5703L38.8508 51.5228L38.4174 49.5703ZM37.0174 48.541L35.1123 49.1498L37.0174 48.541ZM36.8378 47.9789L38.7429 47.3701L36.8378 47.9789ZM35.6556 45.499L37.1389 44.1574L35.6556 45.499ZM35.114 44.9002L33.6307 46.2418L35.114 44.9002ZM33.9843 43.5112L32.3684 44.6896L33.9843 43.5112ZM33.7476 43.1866L35.3635 42.0081L33.7476 43.1866ZM33.5108 42.8619L31.8949 44.0403L33.5108 42.8619ZM32.4465 41.4238L34.0456 40.2227L32.4465 41.4238ZM32.2051 41.1024L30.6059 42.3036L32.2051 41.1024ZM31.9636 40.781L33.5628 39.5798L31.9636 40.781ZM30.1341 39.8764L29.8445 41.8554L30.1341 39.8764ZM29.5536 39.7915L29.8432 37.8126L29.5536 39.7915ZM28.9731 39.7065L29.2627 37.7276L28.9731 39.7065ZM27.536 38.5089L29.5156 38.2243L27.536 38.5089ZM27.4709 38.0558L25.4912 38.3403L27.4709 38.0558ZM27.4057 37.6026L25.4261 37.8872L27.4057 37.6026ZM26.8996 35.2778L24.9709 35.807L26.8996 35.2778ZM26.7876 34.8698L28.7164 34.3406L26.7876 34.8698ZM25.7041 33.3813L26.8459 31.7393L25.7041 33.3813ZM25.3292 33.1207L24.1874 34.7627L25.3292 33.1207ZM24.9544 32.86L26.0962 31.218L24.9544 32.86ZM23.765 31.4298L21.9195 32.2006L23.765 31.4298ZM23.6055 31.0479L21.76 31.8187L23.6055 31.0479ZM22.3455 29.109L23.7217 27.6578L22.3455 29.109ZM22.0106 28.7914L20.6344 30.2426L22.0106 28.7914ZM21.6757 28.4738L23.0519 27.0226L21.6757 28.4738ZM21.0757 26.7358L19.0953 26.4565L21.0757 26.7358ZM21.2064 25.8093L23.1868 26.0887L21.2064 25.8093ZM21.1579 23.8783L23.1131 23.4571L21.1579 23.8783ZM21.0708 23.474L19.1157 23.8953L21.0708 23.474ZM20.5598 21.2615L18.621 21.7525L20.5598 21.2615ZM20.176 18.6007L18.1792 18.4877L20.176 18.6007ZM20.2236 17.7594L18.2268 17.6464L20.2236 17.7594ZM20.0881 15.8194L22.0537 15.4502L20.0881 15.8194ZM19.9187 14.9175L17.9531 15.2867L19.9187 14.9175ZM20.4589 13.1428L19.0053 11.7691L20.4589 13.1428ZM20.7863 12.7964L22.2398 14.1702L20.7863 12.7964ZM21.1137 12.45L19.6601 11.0763L21.1137 12.45ZM23.7003 8.71369L23.1806 6.78241L23.7003 8.71369ZM24.654 8.45704L24.1342 6.52576L24.654 8.45704ZM26.3633 7.63319L25.0854 6.0947L26.3633 7.63319ZM26.9455 7.14957L25.6676 5.61108L26.9455 7.14957ZM28.046 5.51881L26.1982 4.75353L28.046 5.51881ZM28.2493 5.02795L26.4015 4.26267L28.2493 5.02795ZM30.0396 4.07282L31.0085 2.32316L30.0396 4.07282ZM30.5494 4.35508L29.5805 6.10474L30.5494 4.35508ZM32.9809 4.23744L31.3928 3.02165L32.9809 4.23744ZM33.6882 3.31357L35.2762 4.52935L33.6882 3.31357ZM36.3726 2.25247L36.3379 0.252769L36.3726 2.25247ZM37.9893 3.43243L36.2117 4.34904L37.9893 3.43243ZM38.5441 4.50827L40.3217 3.59165L38.5441 4.50827ZM41.0098 5.63152L41.0899 7.62992L41.0098 5.63152ZM43.2905 6.0738L42.5995 7.95062L43.2905 6.0738ZM45.0028 7.43806L43.1851 8.27214L45.0028 7.43806ZM45.3669 8.23147L43.5491 9.06555L45.3669 8.23147ZM46.902 10.435L45.3825 11.7353L46.902 10.435ZM48.0341 11.3704L47.218 13.1964L48.0341 11.3704ZM48.5165 11.586L47.7004 13.4119L48.5165 11.586ZM49.9768 11.7629L49.8406 9.76756L49.9768 11.7629ZM50.3917 11.7346L50.5279 13.73L50.3917 11.7346ZM50.8067 11.7063L50.6705 9.71092L50.8067 11.7063ZM52.9173 11.428L53.2741 13.3959L52.9173 11.428ZM53.2853 11.3613L52.9285 9.39338L53.2853 11.3613ZM54.9677 10.634L56.0815 12.2951L54.9677 10.634ZM55.3556 10.3739L54.2418 8.71274L55.3556 10.3739ZM55.7434 10.1138L56.8572 11.775L55.7434 10.1138ZM57.6094 9.33853L57.2248 7.37585L57.6094 9.33853ZM58.5104 9.16199L58.8949 11.1247L58.5104 9.16199ZM60.0404 10.2276L58.195 10.9987L60.0404 10.2276ZM60.5142 11.3617L62.3596 10.5907L60.5142 11.3617ZM62.1287 12.4602L61.8311 10.4825L62.1287 12.4602ZM65.9397 12.9062L65.1449 14.7415L65.9397 12.9062ZM67.9606 14.2852L69.2909 12.7917L67.9606 14.2852ZM68.3018 14.5891L66.9716 16.0826L68.3018 14.5891ZM68.7661 16.4874L70.7101 16.9573L68.7661 16.4874ZM68.5008 17.5852L66.5568 17.1154L68.5008 17.5852ZM68.8613 19.5457L70.357 18.2181L68.8613 19.5457ZM69.4506 20.2096L67.9548 21.5373L69.4506 20.2096ZM70.141 21.8819L72.1396 21.8077L70.141 21.8819ZM70.1566 22.3013L68.158 22.3755L70.1566 22.3013ZM70.1721 22.7207L72.1708 22.6465L70.1721 22.7207ZM70.477 24.6382L72.4056 24.1087L70.477 24.6382ZM70.5984 25.0803L68.6698 25.6099L70.5984 25.0803ZM70.7198 25.5224L72.6484 24.9928L70.7198 25.5224ZM70.4292 26.9816L71.7221 28.5075L70.4292 26.9816ZM70.1772 27.195L68.8843 25.6691L70.1772 27.195ZM69.9253 27.4085L71.2182 28.9344L69.9253 27.4085ZM68.9618 28.6968L67.1695 27.8091L68.9618 28.6968ZM68.7809 29.0621L66.9886 28.1744L66.8077 28.5397L68.5999 29.4273L70.3922 30.315L70.5731 29.9497L68.7809 29.0621ZM68.5999 29.4273L66.8077 28.5397C66.5027 29.1556 66.2343 29.7929 66.0023 30.4509L67.8884 31.1161L69.7745 31.7813C69.9543 31.2717 70.1603 30.7832 70.3922 30.315L68.5999 29.4273ZM67.8884 31.1161L66.0023 30.4509L65.8635 30.8443L67.7496 31.5095L69.6358 32.1748L69.7745 31.7813L67.8884 31.1161ZM67.7496 31.5095L65.8635 30.8443L65.7248 31.2377L67.6109 31.903L69.497 32.5682L69.6358 32.1748L67.7496 31.5095ZM67.6109 31.903L65.7248 31.2377C65.5584 31.7093 65.3498 32.1674 65.0976 32.6131L66.8382 33.5982L68.5787 34.5833C68.945 33.9362 69.2515 33.2642 69.497 32.5682L67.6109 31.903ZM66.8382 33.5982L65.0976 32.6131L64.8892 32.9813L66.6298 33.9664L68.3703 34.9515L68.5787 34.5833L66.8382 33.5982ZM66.6298 33.9664L64.8892 32.9813L64.6808 33.3495L66.4214 34.3346L68.162 35.3197L68.3703 34.9515L66.6298 33.9664ZM66.4214 34.3346L64.6808 33.3495C64.471 33.7202 64.215 34.045 63.9094 34.3304L65.2744 35.7921L66.6395 37.2538C67.2447 36.6886 67.7533 36.0418 68.162 35.3197L66.4214 34.3346ZM65.2744 35.7921L63.9094 34.3304L63.6025 34.617L64.9675 36.0787L66.3326 37.5404L66.6395 37.2538L65.2744 35.7921ZM64.9675 36.0787L63.6025 34.617L63.2956 34.9036L64.6606 36.3653L66.0257 37.827L66.3326 37.5404L64.9675 36.0787ZM64.6606 36.3653L63.2956 34.9036C62.7456 35.4172 62.245 35.9841 61.7933 36.6014L63.4074 37.7824L65.0215 38.9634C65.33 38.5418 65.6649 38.164 66.0257 37.827L64.6606 36.3653ZM63.4074 37.7824L61.7933 36.6014L61.5372 36.9515L63.1513 38.1325L64.7653 39.3135L65.0215 38.9634L63.4074 37.7824ZM63.1513 38.1325L61.5372 36.9515L61.281 37.3016L62.8951 38.4826L64.5092 39.6636L64.7653 39.3135L63.1513 38.1325ZM62.8951 38.4826L61.281 37.3016C61.2144 37.3927 61.1412 37.4572 60.9384 37.4973L61.3265 39.4593L61.7147 41.4213C62.8432 41.198 63.8157 40.6114 64.5092 39.6636L62.8951 38.4826ZM61.3265 39.4593L60.9384 37.4973L60.4898 37.5861L60.8779 39.548L61.2661 41.51L61.7147 41.4213L61.3265 39.4593ZM60.8779 39.548L60.4898 37.5861L60.0412 37.6748L60.4294 39.6368L60.8175 41.5987L61.2661 41.51L60.8779 39.548ZM60.4294 39.6368L60.0412 37.6748C59.4947 37.7829 58.9326 37.8427 58.3532 37.8529L58.3884 39.8526L58.4235 41.8523C59.2342 41.8381 60.0327 41.754 60.8175 41.5987L60.4294 39.6368ZM58.3884 39.8526L58.3532 37.8529L57.8848 37.8612L57.92 39.8609L57.9552 41.8605L58.4235 41.8523L58.3884 39.8526ZM57.92 39.8609L57.8848 37.8612L57.4165 37.8694L57.4516 39.8691L57.4868 41.8688L57.9552 41.8605L57.92 39.8609ZM57.4516 39.8691L57.4165 37.8694C56.6303 37.8832 55.852 38.1499 55.222 38.7358C54.6297 39.2867 54.3106 39.9869 54.1353 40.6363L56.0662 41.1576L57.9971 41.6788C58.0504 41.4814 58.0765 41.5435 57.946 41.6649C57.8768 41.7293 57.7876 41.7867 57.6875 41.8249C57.5904 41.862 57.5168 41.8683 57.4868 41.8688L57.4516 39.8691ZM56.0662 41.1576L54.1353 40.6363L53.9813 41.2069L55.9122 41.7282L57.843 42.2494L57.9971 41.6788L56.0662 41.1576ZM55.9122 41.7282L53.9813 41.2069L53.8272 41.7776L55.7581 42.2988L57.689 42.8201L57.843 42.2494L55.9122 41.7282ZM55.7581 42.2988L53.8272 41.7776C53.7866 41.9279 53.8309 41.6088 54.2468 41.3843C54.6737 41.1539 54.9825 41.2963 54.8627 41.2541L54.1985 43.1406L53.5343 45.0271C54.2257 45.2705 55.2 45.4153 56.1467 44.9043C57.0825 44.3993 57.501 43.5165 57.689 42.8201L55.7581 42.2988ZM54.1985 43.1406L54.8627 41.2541L54.3161 41.0616L53.6519 42.9481L52.9877 44.8346L53.5343 45.0271L54.1985 43.1406ZM53.6519 42.9481L54.3161 41.0616L53.7694 40.8692L53.1052 42.7556L52.441 44.6421L52.9877 44.8346L53.6519 42.9481ZM53.1052 42.7556L53.7694 40.8692C52.6621 40.4793 51.3508 40.342 50.1418 41.0026L51.1008 42.7577L52.0597 44.5128C51.9959 44.5477 51.9585 44.542 51.9978 44.542C52.0504 44.5419 52.1912 44.5542 52.441 44.6421L53.1052 42.7556ZM51.1008 42.7577L50.1418 41.0026L49.7879 41.1959L50.7469 42.951L51.7058 44.7062L52.0597 44.5128L51.1008 42.7577ZM50.7469 42.951L49.7879 41.1959L49.434 41.3893L50.3929 43.1444L51.3519 44.8995L51.7058 44.7062L50.7469 42.951ZM50.3929 43.1444L49.434 41.3893C48.565 41.8641 47.8725 42.5683 47.3237 43.3913L48.9878 44.5008L50.6518 45.6103C50.9263 45.1986 51.1706 44.9986 51.3519 44.8995L50.3929 43.1444ZM48.9878 44.5008L47.3237 43.3913L47.0464 43.8073L48.7104 44.9168L50.3744 46.0264L50.6518 45.6103L48.9878 44.5008ZM48.7104 44.9168L47.0464 43.8073L46.769 44.2233L48.433 45.3328L50.097 46.4424L50.3744 46.0264L48.7104 44.9168ZM48.433 45.3328L46.769 44.2233C46.6903 44.3412 46.6529 44.3537 46.681 44.3364C46.6944 44.3281 46.714 44.3187 46.7366 44.3118C46.7589 44.305 46.7724 44.3043 46.7717 44.3043L46.8628 46.3023L46.9539 48.3002C48.3367 48.2371 49.3994 47.4886 50.097 46.4424L48.433 45.3328ZM46.8628 46.3023L46.7717 44.3043L46.3437 44.3239L46.4348 46.3218L46.5259 48.3197L46.9539 48.3002L46.8628 46.3023ZM46.4348 46.3218L46.3437 44.3239L45.9156 44.3434L46.0068 46.3413L46.0979 48.3392L46.5259 48.3197L46.4348 46.3218ZM46.0068 46.3413L45.9156 44.3434C44.8695 44.3911 43.9069 44.7449 43.0741 45.373L44.2784 46.9698L45.4827 48.5666C45.6841 48.4146 45.8737 48.3495 46.0979 48.3392L46.0068 46.3413ZM44.2784 46.9698L43.0741 45.373L42.7256 45.6358L43.9299 47.2326L45.1342 48.8294L45.4827 48.5666L44.2784 46.9698ZM43.9299 47.2326L42.7256 45.6358L42.3771 45.8987L43.5814 47.4954L44.7857 49.0922L45.1342 48.8294L43.9299 47.2326ZM43.5814 47.4954L42.3771 45.8987C41.9832 46.1957 41.5773 46.4313 41.1581 46.6111L41.9468 48.449L42.7355 50.287C43.4616 49.9754 44.1453 49.5752 44.7857 49.0922L43.5814 47.4954ZM41.9468 48.449L41.1581 46.6111L40.7722 46.7767L41.5609 48.6146L42.3497 50.4526L42.7355 50.287L41.9468 48.449ZM41.5609 48.6146L40.7722 46.7767L40.3863 46.9423L41.1751 48.7802L41.9638 50.6181L42.3497 50.4526L41.5609 48.6146ZM41.1751 48.7802L40.3863 46.9423C39.9387 47.1344 39.4391 47.2948 38.8826 47.4184L39.316 49.3708L39.7494 51.3233C40.5264 51.1508 41.2662 50.9175 41.9638 50.6181L41.1751 48.7802ZM39.316 49.3708L38.8826 47.4184L38.4333 47.5181L38.8667 49.4706L39.3001 51.423L39.7494 51.3233L39.316 49.3708ZM38.8667 49.4706L38.4333 47.5181L37.9839 47.6178L38.4174 49.5703L38.8508 51.5228L39.3001 51.423L38.8667 49.4706ZM38.4174 49.5703L37.9839 47.6178C38.0244 47.6089 38.1361 47.591 38.2941 47.6182C38.4606 47.6469 38.6205 47.7159 38.752 47.8126C38.9924 47.9894 38.9894 48.1417 38.9225 47.9323L37.0174 48.541L35.1123 49.1498C35.3119 49.7745 35.6755 50.5155 36.3826 51.0354C37.1652 51.6108 38.0651 51.6972 38.8508 51.5228L38.4174 49.5703ZM37.0174 48.541L38.9225 47.9323L38.7429 47.3701L36.8378 47.9789L34.9326 48.5876L35.1123 49.1498L37.0174 48.541ZM36.8378 47.9789L38.7429 47.3701L38.5632 46.8079L36.6581 47.4167L34.753 48.0254L34.9326 48.5876L36.8378 47.9789ZM36.6581 47.4167L38.5632 46.8079C38.2467 45.8175 37.7992 44.8875 37.1389 44.1574L35.6556 45.499L34.1723 46.8406C34.3156 46.9991 34.5364 47.3475 34.753 48.0254L36.6581 47.4167ZM35.6556 45.499L37.1389 44.1574L36.8681 43.858L35.3848 45.1996L33.9015 46.5412L34.1723 46.8406L35.6556 45.499ZM35.3848 45.1996L36.8681 43.858L36.5973 43.5586L35.114 44.9002L33.6307 46.2418L33.9015 46.5412L35.3848 45.1996ZM35.114 44.9002L36.5973 43.5586C36.2423 43.1662 35.9101 42.7576 35.6003 42.3328L33.9843 43.5112L32.3684 44.6896C32.7612 45.2283 33.1821 45.7458 33.6307 46.2418L35.114 44.9002ZM33.9843 43.5112L35.6003 42.3328L35.3635 42.0081L33.7476 43.1866L32.1316 44.365L32.3684 44.6896L33.9843 43.5112ZM33.7476 43.1866L35.3635 42.0081L35.1268 41.6835L33.5108 42.8619L31.8949 44.0403L32.1316 44.365L33.7476 43.1866ZM33.5108 42.8619L35.1268 41.6835C34.7699 41.1941 34.4095 40.7072 34.0456 40.2227L32.4465 41.4238L30.8474 42.625C31.1999 43.0944 31.5491 43.5662 31.8949 44.0403L33.5108 42.8619ZM32.4465 41.4238L34.0456 40.2227L33.8042 39.9013L32.2051 41.1024L30.6059 42.3036L30.8474 42.625L32.4465 41.4238ZM32.2051 41.1024L33.8042 39.9013L33.5628 39.5798L31.9636 40.781L30.3645 41.9821L30.6059 42.3036L32.2051 41.1024ZM31.9636 40.781L33.5628 39.5798C32.7672 38.5207 31.5679 38.065 30.4238 37.8975L30.1341 39.8764L29.8445 41.8554C30.4232 41.9401 30.4435 42.0874 30.3645 41.9821L31.9636 40.781ZM30.1341 39.8764L30.4238 37.8975L29.8432 37.8126L29.5536 39.7915L29.264 41.7704L29.8445 41.8554L30.1341 39.8764ZM29.5536 39.7915L29.8432 37.8126L29.2627 37.7276L28.9731 39.7065L28.6834 41.6854L29.264 41.7704L29.5536 39.7915ZM28.9731 39.7065L29.2627 37.7276C29.0586 37.6977 29.1136 37.664 29.2481 37.7761C29.3201 37.8361 29.3897 37.918 29.442 38.0154C29.493 38.1103 29.5104 38.1876 29.5156 38.2243L27.536 38.5089L25.5563 38.7934C25.6682 39.5716 26.0328 40.3034 26.6873 40.8489C27.3009 41.3603 28.0261 41.5892 28.6834 41.6854L28.9731 39.7065ZM27.536 38.5089L29.5156 38.2243L29.4505 37.7712L27.4709 38.0558L25.4912 38.3403L25.5563 38.7934L27.536 38.5089ZM27.4709 38.0558L29.4505 37.7712L29.3854 37.3181L27.4057 37.6026L25.4261 37.8872L25.4912 38.3403L27.4709 38.0558ZM27.4057 37.6026L29.3854 37.3181C29.2778 36.5699 29.1302 35.8488 28.9403 35.1567L27.0116 35.6859L25.0828 36.2151C25.2252 36.7339 25.3403 37.2907 25.4261 37.8872L27.4057 37.6026ZM27.0116 35.6859L28.9403 35.1567L28.8283 34.7486L26.8996 35.2778L24.9709 35.807L25.0828 36.2151L27.0116 35.6859ZM26.8996 35.2778L28.8283 34.7486L28.7164 34.3406L26.7876 34.8698L24.8589 35.3989L24.9709 35.807L26.8996 35.2778ZM26.7876 34.8698L28.7164 34.3406C28.4162 33.2465 27.754 32.3707 26.8459 31.7393L25.7041 33.3813L24.5623 35.0233C24.7667 35.1655 24.8269 35.282 24.8589 35.3989L26.7876 34.8698ZM25.7041 33.3813L26.8459 31.7393L26.4711 31.4786L25.3292 33.1207L24.1874 34.7627L24.5623 35.0233L25.7041 33.3813ZM25.3292 33.1207L26.4711 31.4786L26.0962 31.218L24.9544 32.86L23.8126 34.502L24.1874 34.7627L25.3292 33.1207ZM24.9544 32.86L26.0962 31.218C25.8193 31.0254 25.6854 30.8384 25.6105 30.6589L23.765 31.4298L21.9195 32.2006C22.3179 33.1545 22.977 33.921 23.8126 34.502L24.9544 32.86ZM23.765 31.4298L25.6105 30.6589L25.4509 30.277L23.6055 31.0479L21.76 31.8187L21.9195 32.2006L23.765 31.4298ZM23.6055 31.0479L25.4509 30.277L25.2914 29.8951L23.4459 30.666L21.6005 31.4368L21.76 31.8187L23.6055 31.0479ZM23.4459 30.666L25.2914 29.8951C24.9356 29.0433 24.3974 28.2986 23.7217 27.6578L22.3455 29.109L20.9692 30.5602C21.2875 30.862 21.4828 31.1552 21.6005 31.4368L23.4459 30.666ZM22.3455 29.109L23.7217 27.6578L23.3868 27.3402L22.0106 28.7914L20.6344 30.2426L20.9692 30.5602L22.3455 29.109ZM22.0106 28.7914L23.3868 27.3402L23.0519 27.0226L21.6757 28.4738L20.2995 29.9251L20.6344 30.2426L22.0106 28.7914ZM21.6757 28.4738L23.0519 27.0226C23.0279 26.9998 23.0221 26.9898 23.0253 26.9945C23.0267 26.9967 23.0297 27.0015 23.0333 27.0087C23.0368 27.0159 23.0404 27.0242 23.0435 27.0333C23.0466 27.0423 23.0488 27.0506 23.0502 27.0574C23.0517 27.0643 23.052 27.0683 23.0521 27.069C23.0522 27.0707 23.0506 27.0541 23.0561 27.0152L21.0757 26.7358L19.0953 26.4565C18.9095 27.7741 19.3255 29.0014 20.2995 29.9251L21.6757 28.4738ZM21.0757 26.7358L23.0561 27.0152L23.1215 26.5519L21.1411 26.2726L19.1607 25.9933L19.0953 26.4565L21.0757 26.7358ZM21.1411 26.2726L23.1215 26.5519L23.1868 26.0887L21.2064 25.8093L19.226 25.53L19.1607 25.9933L21.1411 26.2726ZM21.2064 25.8093L23.1868 26.0887C23.3124 25.1983 23.298 24.3153 23.1131 23.4571L21.1579 23.8783L19.2028 24.2996C19.2764 24.6412 19.2943 25.0455 19.226 25.53L21.2064 25.8093ZM21.1579 23.8783L23.1131 23.4571L23.026 23.0528L21.0708 23.474L19.1157 23.8953L19.2028 24.2996L21.1579 23.8783ZM21.0708 23.474L23.026 23.0528L22.9388 22.6485L20.9837 23.0697L19.0286 23.491L19.1157 23.8953L21.0708 23.474ZM20.9837 23.0697L22.9388 22.6485C22.8045 22.0248 22.6577 21.3988 22.4986 20.7705L20.5598 21.2615L18.621 21.7525C18.7686 22.3353 18.9044 22.9148 19.0286 23.491L20.9837 23.0697ZM20.5598 21.2615L22.4986 20.7705L22.3952 20.3624L20.4564 20.8534L18.5176 21.3444L18.621 21.7525L20.5598 21.2615ZM20.4564 20.8534L22.3952 20.3624L22.2919 19.9543L20.3531 20.4453L18.4143 20.9363L18.5176 21.3444L20.4564 20.8534ZM20.3531 20.4453L22.2919 19.9543C22.1885 19.5461 22.149 19.1349 22.1728 18.7137L20.176 18.6007L18.1792 18.4877C18.1324 19.3148 18.2109 20.1334 18.4143 20.9363L20.3531 20.4453ZM20.176 18.6007L22.1728 18.7137L22.1966 18.2931L20.1998 18.18L18.203 18.067L18.1792 18.4877L20.176 18.6007ZM20.1998 18.18L22.1966 18.2931L22.2204 17.8724L20.2236 17.7594L18.2268 17.6464L18.203 18.067L20.1998 18.18ZM20.2236 17.7594L22.2204 17.8724C22.2657 17.0732 22.2066 16.2643 22.0537 15.4502L20.0881 15.8194L18.1225 16.1886C18.2209 16.7128 18.2522 17.1972 18.2268 17.6464L20.2236 17.7594ZM20.0881 15.8194L22.0537 15.4502L21.969 14.9993L20.0034 15.3685L18.0378 15.7377L18.1225 16.1886L20.0881 15.8194ZM20.0034 15.3685L21.969 14.9993L21.8843 14.5484L19.9187 14.9175L17.9531 15.2867L18.0378 15.7377L20.0034 15.3685ZM19.9187 14.9175L21.8843 14.5484C21.8789 14.5194 21.8802 14.51 21.8799 14.5164C21.8798 14.5194 21.8794 14.5247 21.8781 14.5319C21.8769 14.5392 21.8751 14.5469 21.8728 14.5544C21.8679 14.5707 21.8631 14.5781 21.8651 14.5747C21.8676 14.5706 21.8803 14.5506 21.9124 14.5166L20.4589 13.1428L19.0053 11.7691C18.0998 12.7272 17.7039 13.9599 17.9531 15.2867L19.9187 14.9175ZM20.4589 13.1428L21.9124 14.5166L22.2398 14.1702L20.7863 12.7964L19.3327 11.4227L19.0053 11.7691L20.4589 13.1428ZM20.7863 12.7964L22.2398 14.1702L22.5672 13.8238L21.1137 12.45L19.6601 11.0763L19.3327 11.4227L20.7863 12.7964ZM21.1137 12.45L22.5672 13.8238C23.2465 13.105 23.753 12.2705 24.0343 11.3245L22.1172 10.7545L20.2001 10.1846C20.1149 10.4712 19.9524 10.767 19.6601 11.0763L21.1137 12.45ZM22.1172 10.7545L24.0343 11.3245L24.1578 10.9091L22.2407 10.3392L20.3236 9.76923L20.2001 10.1846L22.1172 10.7545ZM22.2407 10.3392L24.1578 10.9091L24.2812 10.4937L22.3642 9.92381L20.4471 9.35388L20.3236 9.76923L22.2407 10.3392ZM22.3642 9.92381L24.2812 10.4937C24.2806 10.4959 24.2735 10.5182 24.2532 10.551C24.2325 10.5846 24.2062 10.6161 24.1782 10.6414C24.12 10.6941 24.1061 10.6757 24.2201 10.645L23.7003 8.71369L23.1806 6.78241C21.9134 7.12343 20.8589 7.96882 20.4471 9.35388L22.3642 9.92381ZM23.7003 8.71369L24.2201 10.645L24.6969 10.5166L24.1772 8.58536L23.6574 6.65408L23.1806 6.78241L23.7003 8.71369ZM24.1772 8.58536L24.6969 10.5166L25.1738 10.3883L24.654 8.45704L24.1342 6.52576L23.6574 6.65408L24.1772 8.58536ZM24.654 8.45704L25.1738 10.3883C26.0782 10.1449 26.9311 9.76152 27.6412 9.17168L26.3633 7.63319L25.0854 6.0947C24.9315 6.22249 24.6449 6.38832 24.1342 6.52576L24.654 8.45704ZM26.3633 7.63319L27.6412 9.17168L27.9323 8.92987L26.6544 7.39138L25.3765 5.85289L25.0854 6.0947L26.3633 7.63319ZM26.6544 7.39138L27.9323 8.92987L28.2234 8.68806L26.9455 7.14957L25.6676 5.61108L25.3765 5.85289L26.6544 7.39138ZM26.9455 7.14957L28.2234 8.68806C28.9857 8.05487 29.5151 7.19841 29.8938 6.28408L28.046 5.51881L26.1982 4.75353C25.9735 5.29593 25.7693 5.52665 25.6676 5.61108L26.9455 7.14957ZM28.046 5.51881L29.8938 6.28408L30.0971 5.79323L28.2493 5.02795L26.4015 4.26267L26.1982 4.75353L28.046 5.51881ZM28.2493 5.02795L30.0971 5.79323L30.3004 5.30238L28.4526 4.5371L26.6048 3.77182L26.4015 4.26267L28.2493 5.02795ZM28.4526 4.5371L30.3004 5.30238C30.3234 5.24661 30.1727 5.63762 29.6371 5.7943C29.1625 5.93316 28.9015 5.72876 29.0708 5.82248L30.0396 4.07282L31.0085 2.32316C30.4213 1.99803 29.5177 1.66159 28.514 1.9552C27.4494 2.26664 26.8833 3.09922 26.6048 3.77182L28.4526 4.5371ZM30.0396 4.07282L29.0708 5.82248L29.5805 6.10474L30.5494 4.35508L31.5182 2.60542L31.0085 2.32316L30.0396 4.07282ZM30.5494 4.35508L29.5805 6.10474L30.0903 6.38701L31.0591 4.63735L32.028 2.88769L31.5182 2.60542L30.5494 4.35508ZM31.0591 4.63735L30.0903 6.38701C30.7509 6.75284 31.592 7.00148 32.5143 6.80956C33.4371 6.61753 34.1094 6.05349 34.5689 5.45323L32.9809 4.23744L31.3928 3.02165C31.3276 3.10684 31.4172 2.95218 31.6994 2.89345C31.9811 2.83484 32.1237 2.94071 32.028 2.88769L31.0591 4.63735ZM32.9809 4.23744L34.5689 5.45323L34.9226 4.99129L33.3345 3.7755L31.7465 2.55972L31.3928 3.02165L32.9809 4.23744ZM33.3345 3.7755L34.9226 4.99129L35.2762 4.52935L33.6882 3.31357L32.1001 2.09778L31.7465 2.55972L33.3345 3.7755ZM33.6882 3.31357L35.2762 4.52935C35.4191 4.34269 35.5132 4.27905 35.5386 4.26422C35.55 4.25751 35.549 4.25973 35.5371 4.26311C35.5249 4.2666 35.514 4.26767 35.5094 4.26775L35.4747 2.26805L35.44 0.268349C33.9915 0.293482 32.877 1.08307 32.1001 2.09778L33.6882 3.31357ZM35.4747 2.26805L35.5094 4.26775L35.9583 4.25996L35.9236 2.26026L35.8889 0.260559L35.44 0.268349L35.4747 2.26805ZM35.9236 2.26026L35.9583 4.25996L36.4073 4.25217L36.3726 2.25247L36.3379 0.252769L35.8889 0.260559L35.9236 2.26026ZM36.3726 2.25247L36.4073 4.25217C36.3691 4.25283 36.3112 4.24749 36.2444 4.22633C36.1777 4.20519 36.1276 4.17632 36.0974 4.15427C36.0694 4.13385 36.0702 4.12792 36.0933 4.15691C36.117 4.18668 36.1588 4.24638 36.2117 4.34904L37.9893 3.43243L39.7669 2.51582C39.1482 1.3159 38.0316 0.223382 36.3379 0.252769L36.3726 2.25247ZM37.9893 3.43243L36.2117 4.34904L36.4891 4.88696L38.2667 3.97035L40.0443 3.05374L39.7669 2.51582L37.9893 3.43243ZM38.2667 3.97035L36.4891 4.88696L36.7665 5.42488L38.5441 4.50827L40.3217 3.59165L40.0443 3.05374L38.2667 3.97035ZM38.5441 4.50827L36.7665 5.42488C37.3751 6.60509 38.4933 7.73394 40.2151 7.66496L40.135 5.66657L40.055 3.66817C40.1052 3.66616 40.1757 3.6719 40.2546 3.69598C40.3332 3.71998 40.3919 3.7536 40.4277 3.77962C40.4609 3.8038 40.4628 3.81294 40.4403 3.78472C40.4173 3.75578 40.3754 3.69595 40.3217 3.59165L38.5441 4.50827ZM40.135 5.66657L40.2151 7.66496L40.6525 7.64744L40.5724 5.64904L40.4924 3.65065L40.055 3.66817L40.135 5.66657ZM40.5724 5.64904L40.6525 7.64744L41.0899 7.62992L41.0098 5.63152L40.9298 3.63312L40.4924 3.65065L40.5724 5.64904ZM41.0098 5.63152L41.0899 7.62992C41.4801 7.61429 41.843 7.67209 42.1943 7.80143L42.8853 5.9246L43.5764 4.04778C42.7251 3.73434 41.8376 3.59675 40.9298 3.63312L41.0098 5.63152ZM42.8853 5.9246L42.1943 7.80143L42.5995 7.95062L43.2905 6.0738L43.9816 4.19697L43.5764 4.04778L42.8853 5.9246ZM43.2905 6.0738L42.5995 7.95062L43.0047 8.09982L43.6957 6.22299L44.3868 4.34617L43.9816 4.19697L43.2905 6.0738ZM43.6957 6.22299L43.0047 8.09982C43.0761 8.12609 43.1025 8.14906 43.1118 8.15763C43.1213 8.16652 43.1495 8.19463 43.1851 8.27214L45.0028 7.43806L46.8206 6.60398C46.3313 5.53757 45.4934 4.75363 44.3868 4.34617L43.6957 6.22299ZM45.0028 7.43806L43.1851 8.27214L43.3671 8.66885L45.1849 7.83477L47.0026 7.00069L46.8206 6.60398L45.0028 7.43806ZM45.1849 7.83477L43.3671 8.66885L43.5491 9.06555L45.3669 8.23147L47.1847 7.39739L47.0026 7.00069L45.1849 7.83477ZM45.3669 8.23147L43.5491 9.06555C43.8918 9.8124 44.3232 10.4974 44.8477 11.1104L46.3672 9.80999L47.8868 8.50963C47.6177 8.19517 47.3822 7.82787 47.1847 7.39739L45.3669 8.23147ZM46.3672 9.80999L44.8477 11.1104L45.1151 11.4228L46.6346 10.1225L48.1542 8.82211L47.8868 8.50963L46.3672 9.80999ZM46.6346 10.1225L45.1151 11.4228L45.3825 11.7353L46.902 10.435L48.4216 9.1346L48.1542 8.82211L46.6346 10.1225ZM46.902 10.435L45.3825 11.7353C45.8755 12.3114 46.4807 12.8668 47.218 13.1964L48.0341 11.3704L48.8502 9.54449C48.8709 9.55375 48.8391 9.54301 48.7567 9.47486C48.6751 9.40749 48.5627 9.29943 48.4216 9.1346L46.902 10.435ZM48.0341 11.3704L47.218 13.1964L47.4592 13.3041L48.2753 11.4782L49.0914 9.65228L48.8502 9.54449L48.0341 11.3704ZM48.2753 11.4782L47.4592 13.3041L47.7004 13.4119L48.5165 11.586L49.3325 9.76008L49.0914 9.65228L48.2753 11.4782ZM48.5165 11.586L47.7004 13.4119C48.4808 13.7607 49.34 13.811 50.113 13.7583L49.9768 11.7629L49.8406 9.76756C49.6278 9.78209 49.4818 9.77578 49.3905 9.76472C49.2983 9.75355 49.2896 9.74088 49.3325 9.76008L48.5165 11.586ZM49.9768 11.7629L50.113 13.7583L50.5279 13.73L50.3917 11.7346L50.2556 9.73924L49.8406 9.76756L49.9768 11.7629ZM50.3917 11.7346L50.5279 13.73L50.9428 13.7016L50.8067 11.7063L50.6705 9.71092L50.2556 9.73924L50.3917 11.7346ZM50.8067 11.7063L50.9428 13.7016C51.6244 13.6551 52.2795 13.5763 52.9061 13.4627L52.5493 11.4947L52.1925 9.52682C51.7269 9.61123 51.2202 9.6734 50.6705 9.71092L50.8067 11.7063ZM52.5493 11.4947L52.9061 13.4627L53.2741 13.3959L52.9173 11.428L52.5605 9.4601L52.1925 9.52682L52.5493 11.4947ZM52.9173 11.428L53.2741 13.3959L53.6421 13.3292L53.2853 11.3613L52.9285 9.39338L52.5605 9.4601L52.9173 11.428ZM53.2853 11.3613L53.6421 13.3292C54.5173 13.1705 55.3325 12.7973 56.0815 12.2951L54.9677 10.634L53.8539 8.9728C53.4519 9.24235 53.1455 9.35405 52.9285 9.39338L53.2853 11.3613ZM54.9677 10.634L56.0815 12.2951L56.4694 12.035L55.3556 10.3739L54.2418 8.71274L53.8539 8.9728L54.9677 10.634ZM55.3556 10.3739L56.4694 12.035L56.8572 11.775L55.7434 10.1138L54.6296 8.45268L54.2418 8.71274L55.3556 10.3739ZM55.7434 10.1138L56.8572 11.775C57.216 11.5344 57.5908 11.3802 57.994 11.3012L57.6094 9.33853L57.2248 7.37585C56.2911 7.55881 55.4219 7.92147 54.6296 8.45268L55.7434 10.1138ZM57.6094 9.33853L57.994 11.3012L58.4445 11.2129L58.0599 9.25026L57.6753 7.28758L57.2248 7.37585L57.6094 9.33853ZM58.0599 9.25026L58.4445 11.2129L58.8949 11.1247L58.5104 9.16199L58.1258 7.19931L57.6753 7.28758L58.0599 9.25026ZM58.5104 9.16199L58.8949 11.1247C58.8454 11.1344 58.7432 11.1454 58.6081 11.1197C58.4691 11.0932 58.3459 11.0373 58.2512 10.9713C58.0805 10.8525 58.1013 10.7745 58.195 10.9987L60.0404 10.2276L61.8858 9.45659C61.6279 8.8394 61.2179 8.16309 60.5373 7.689C59.7926 7.17032 58.9353 7.04069 58.1258 7.19931L58.5104 9.16199ZM60.0404 10.2276L58.195 10.9987L58.4319 11.5657L60.2773 10.7947L62.1227 10.0236L61.8858 9.45659L60.0404 10.2276ZM60.2773 10.7947L58.4319 11.5657L58.6688 12.1327L60.5142 11.3617L62.3596 10.5907L62.1227 10.0236L60.2773 10.7947ZM60.5142 11.3617L58.6688 12.1327C58.9365 12.7734 59.3623 13.4486 60.0564 13.9209C60.7953 14.4237 61.6334 14.5573 62.4263 14.438L62.1287 12.4602L61.8311 10.4825C61.85 10.4797 61.9184 10.4726 62.0191 10.4931C62.1239 10.5144 62.2241 10.5577 62.3066 10.6139C62.4625 10.72 62.4435 10.7914 62.3596 10.5907L60.5142 11.3617ZM62.1287 12.4602L62.4263 14.438L62.9147 14.3645L62.6171 12.3867L62.3196 10.409L61.8311 10.4825L62.1287 12.4602ZM62.6171 12.3867L62.9147 14.3645L63.4031 14.291L63.1056 12.3133L62.808 10.3355L62.3196 10.409L62.6171 12.3867ZM63.1056 12.3133L63.4031 14.291C63.7946 14.2321 64.081 14.2808 64.3181 14.3834L65.1129 12.5481L65.9077 10.7129C64.9179 10.2842 63.8661 10.1763 62.808 10.3355L63.1056 12.3133ZM65.1129 12.5481L64.3181 14.3834L64.7315 14.5625L65.5263 12.7272L66.3211 10.8919L65.9077 10.7129L65.1129 12.5481ZM65.5263 12.7272L64.7315 14.5625L65.1449 14.7415L65.9397 12.9062L66.7345 11.0709L66.3211 10.8919L65.5263 12.7272ZM65.9397 12.9062L65.1449 14.7415C65.5599 14.9212 65.9395 15.1633 66.2891 15.4747L67.6194 13.9812L68.9496 12.4878C68.2864 11.8971 67.5463 11.4225 66.7345 11.0709L65.9397 12.9062ZM67.6194 13.9812L66.2891 15.4747L66.6303 15.7786L67.9606 14.2852L69.2909 12.7917L68.9496 12.4878L67.6194 13.9812ZM67.9606 14.2852L66.6303 15.7786L66.9716 16.0826L68.3018 14.5891L69.6321 13.0957L69.2909 12.7917L67.9606 14.2852ZM68.3018 14.5891L66.9716 16.0826C66.9609 16.0731 66.9352 16.0471 66.9083 16.003C66.881 15.9583 66.8638 15.9134 66.8549 15.8771C66.8378 15.8071 66.8663 15.8347 66.8221 16.0176L68.7661 16.4874L70.7101 16.9573C71.0319 15.6259 70.8285 14.1613 69.6321 13.0957L68.3018 14.5891ZM68.7661 16.4874L66.8221 16.0176L66.6894 16.5665L68.6335 17.0363L70.5775 17.5062L70.7101 16.9573L68.7661 16.4874ZM68.6335 17.0363L66.6894 16.5665L66.5568 17.1154L68.5008 17.5852L70.4448 18.0551L70.5775 17.5062L68.6335 17.0363ZM68.5008 17.5852L66.5568 17.1154C66.2529 18.3725 66.3763 19.759 67.3656 20.8734L68.8613 19.5457L70.357 18.2181C70.3648 18.2268 70.3786 18.2452 70.3914 18.2715C70.4042 18.2976 70.409 18.3177 70.4103 18.3245C70.4123 18.3355 70.3956 18.2586 70.4448 18.0551L68.5008 17.5852ZM68.8613 19.5457L67.3656 20.8734L67.6602 21.2053L69.1559 19.8777L70.6517 18.55L70.357 18.2181L68.8613 19.5457ZM69.1559 19.8777L67.6602 21.2053L67.9548 21.5373L69.4506 20.2096L70.9463 18.8819L70.6517 18.55L69.1559 19.8777ZM69.4506 20.2096L67.9548 21.5373C68.1032 21.7044 68.1375 21.8252 68.1424 21.9561L70.141 21.8819L72.1396 21.8077C72.0983 20.6939 71.6723 19.6998 70.9463 18.8819L69.4506 20.2096ZM70.141 21.8819L68.1424 21.9561L68.158 22.3755L70.1566 22.3013L72.1552 22.2271L72.1396 21.8077L70.141 21.8819ZM70.1566 22.3013L68.158 22.3755L68.1735 22.7949L70.1721 22.7207L72.1708 22.6465L72.1552 22.2271L70.1566 22.3013ZM70.1721 22.7207L68.1735 22.7949C68.2029 23.5847 68.3312 24.3768 68.5484 25.1678L70.477 24.6382L72.4056 24.1087C72.2626 23.5877 72.1877 23.1015 72.1708 22.6465L70.1721 22.7207ZM70.477 24.6382L68.5484 25.1678L68.6698 25.6099L70.5984 25.0803L72.527 24.5507L72.4056 24.1087L70.477 24.6382ZM70.5984 25.0803L68.6698 25.6099L68.7912 26.052L70.7198 25.5224L72.6484 24.9928L72.527 24.5507L70.5984 25.0803ZM70.7198 25.5224L68.7912 26.052C68.8279 26.1855 68.7902 26.1422 68.8208 25.9885C68.8372 25.9059 68.8711 25.805 68.9322 25.7009C68.9934 25.5965 69.0667 25.5146 69.1363 25.4557L70.4292 26.9816L71.7221 28.5075C72.9185 27.4937 72.9412 26.0591 72.6484 24.9928L70.7198 25.5224ZM70.4292 26.9816L69.1363 25.4557L68.8843 25.6691L70.1772 27.195L71.4701 28.721L71.7221 28.5075L70.4292 26.9816ZM70.1772 27.195L68.8843 25.6691L68.6324 25.8826L69.9253 27.4085L71.2182 28.9344L71.4701 28.721L70.1772 27.195ZM69.9253 27.4085L68.6324 25.8826C68.0075 26.4121 67.5316 27.0782 67.1695 27.8091L68.9618 28.6968L70.754 29.5844C70.9289 29.2313 71.0953 29.0386 71.2182 28.9344L69.9253 27.4085ZM68.9618 28.6968L67.1695 27.8091L66.9886 28.1744L68.7809 29.0621L70.5731 29.9497L70.754 29.5844L68.9618 28.6968Z" fill="#C91F46"/>
</svg>
