<svg width="166" height="61" viewBox="0 0 166 61" fill="none" xmlns="http://www.w3.org/2000/svg">
<g clip-path="url(#clip0_88_696)">
<path d="M42.212 47.8296H45.4433L49.0977 56.4335L52.765 47.8296H55.9706V60.3059H53.4702V52.0738L49.944 60.3059H48.2258L44.6996 52.0738V60.3059H42.1992V47.8296H42.212Z" fill="#462E00"/>
<path d="M57.8037 55.7026C57.8037 52.9585 59.9322 50.8813 62.7532 50.8813C65.5741 50.8813 67.7027 52.9585 67.7027 55.7282C67.7027 55.959 67.6899 56.3052 67.6257 56.5232H60.3041C60.6118 57.7157 61.5479 58.4979 62.8173 58.4979C63.779 58.4979 64.6125 58.0619 65.01 57.4721H67.5616C66.8564 59.2929 65.0356 60.5495 62.7917 60.5495C59.9322 60.5495 57.8037 58.4722 57.8037 55.7282V55.7026ZM60.3297 54.7922H65.1766C64.8817 53.6638 63.9457 52.9073 62.7532 52.9073C61.5607 52.9073 60.6503 53.651 60.3297 54.7922Z" fill="#462E00"/>
<path d="M69.8573 57.3951V53.2407H68.3956V51.0865H69.229C69.7163 51.0865 69.9856 50.83 69.9856 50.3428V48.6246H72.2039V51.0865H74.3324V53.2407H72.2039V56.9976C72.2039 57.7157 72.6526 58.1517 73.4092 58.1517H74.3324V60.3058H73.063C70.9472 60.3058 69.8445 59.2929 69.8445 57.3951H69.8573Z" fill="#462E00"/>
<path d="M79.7559 54.0742C79.7559 50.4069 82.5768 47.6245 86.3338 47.6245C89.501 47.6245 92.027 49.6504 92.604 52.4842H89.9626C89.4625 51.0224 88.0264 50.0223 86.3338 50.0223C84.0386 50.0223 82.3075 51.7533 82.3075 54.0742C82.3075 56.395 84.0386 58.1261 86.3338 58.1261C88.0392 58.1261 89.4625 57.1259 89.9626 55.6642H92.604C92.027 58.4979 89.501 60.5239 86.3338 60.5239C82.5768 60.5239 79.7559 57.7414 79.7559 54.0742Z" fill="#462E00"/>
<path d="M93.8098 55.7026C93.8098 52.9586 95.9383 50.8813 98.7592 50.8813C101.58 50.8813 103.709 52.9586 103.709 55.7026C103.709 58.4466 101.58 60.5238 98.7592 60.5238C95.9383 60.5238 93.8098 58.4466 93.8098 55.7026ZM101.298 55.7026C101.298 54.2536 100.234 53.1509 98.7721 53.1509C97.3103 53.1509 96.246 54.2536 96.246 55.7026C96.246 57.1515 97.3359 58.2543 98.7721 58.2543C100.208 58.2543 101.298 57.1515 101.298 55.7026Z" fill="#462E00"/>
<path d="M104.837 55.7026C104.837 52.9586 106.966 50.8813 109.787 50.8813C112.608 50.8813 114.736 52.9586 114.736 55.7282C114.736 55.959 114.723 56.3052 114.659 56.5232H107.337C107.645 57.7157 108.581 58.4979 109.851 58.4979C110.812 58.4979 111.646 58.0619 112.043 57.4721H114.595C113.89 59.2929 112.069 60.5495 109.825 60.5495C106.966 60.5495 104.837 58.4722 104.837 55.7282V55.7026ZM107.376 54.7922H112.223C111.928 53.6638 110.992 52.9073 109.799 52.9073C108.607 52.9073 107.709 53.651 107.376 54.7922Z" fill="#462E00"/>
<path d="M115.813 58.4338C116.403 58.1774 116.968 57.8696 117.48 57.4978C116.519 56.0873 115.98 54.2024 115.98 52.0867C115.98 48.8682 117.429 47.0731 119.596 47.0731C121.763 47.0731 123.033 48.7015 123.033 51.484C123.033 53.651 122.225 55.7924 120.814 57.4465C121.391 57.8311 122.045 58.0235 122.763 58.0235H123.327V60.3059H122.635C121.237 60.3059 120.019 59.8699 119.006 59.1134C118.314 59.6006 117.557 60.0238 116.724 60.3059L115.826 58.421L115.813 58.4338ZM119.25 55.677C120.122 54.446 120.609 52.9971 120.609 51.484C120.609 50.0992 120.212 49.3555 119.558 49.3555C118.852 49.3555 118.404 50.1633 118.404 51.92C118.404 53.3433 118.711 54.6512 119.25 55.677Z" fill="#462E00"/>
<path d="M124.584 48.3168C124.584 47.4834 125.238 46.8551 126.071 46.8551C126.905 46.8551 127.559 47.4834 127.559 48.3168C127.559 49.1503 126.905 49.7786 126.071 49.7786C125.238 49.7786 124.584 49.1503 124.584 48.3168ZM124.892 51.0865H127.238V60.3059H124.892V51.0865Z" fill="#462E00"/>
<path d="M129.008 55.7026C129.008 52.9585 130.944 50.8813 133.509 50.8813C134.739 50.8813 135.765 51.3686 136.509 52.1764V51.0865H138.855V57.2541C138.855 57.7413 139.125 58.0363 139.638 58.0363H139.817V60.3187H139.15C137.881 60.3187 137.073 59.8699 136.714 58.9851C135.97 59.9468 134.855 60.5366 133.509 60.5366C130.944 60.5366 129.008 58.4594 129.008 55.7154V55.7026ZM136.509 55.7026C136.509 54.2536 135.419 53.1509 133.957 53.1509C132.496 53.1509 131.431 54.2536 131.431 55.7026C131.431 57.1515 132.521 58.2542 133.957 58.2542C135.393 58.2542 136.509 57.1515 136.509 55.7026Z" fill="#462E00"/>
<path d="M141.266 47.291H143.612V52.4841C144.664 51.484 145.997 50.8813 147.356 50.8813C149.113 50.8813 150.28 51.9328 150.28 53.4843C150.28 54.8691 149.305 56.0103 147.574 56.7412L147.882 57.1002C148.331 57.7029 148.998 58.0363 149.78 58.0363H150.28V60.3187H149.498C147.959 60.3187 146.408 59.8699 145.561 58.2414L144.997 57.4336C144.561 57.4849 144.087 57.5362 143.599 57.5747V60.3187H141.253V47.3038L141.266 47.291ZM143.612 54.8691V55.6256C146.254 55.3564 147.921 54.6511 147.921 53.7279C147.921 53.3176 147.536 53.0227 146.895 53.0227C145.843 53.0227 144.484 53.7792 143.625 54.8691H143.612Z" fill="#462E00"/>
<path d="M151.64 48.3168C151.64 47.4834 152.294 46.8551 153.127 46.8551C153.961 46.8551 154.614 47.4834 154.614 48.3168C154.614 49.1503 153.961 49.7786 153.127 49.7786C152.294 49.7786 151.64 49.1503 151.64 48.3168ZM151.947 51.0865H154.294V60.3059H151.947V51.0865Z" fill="#462E00"/>
<path d="M156.024 55.7026C156.024 52.9586 158.153 50.8813 160.974 50.8813C163.795 50.8813 165.923 52.9586 165.923 55.7282C165.923 55.959 165.911 56.3052 165.847 56.5232H158.525C158.833 57.7157 159.769 58.4979 161.038 58.4979C162 58.4979 162.833 58.0619 163.231 57.4721H165.782C165.077 59.2929 163.256 60.5495 161.012 60.5495C158.153 60.5495 156.024 58.4722 156.024 55.7282V55.7026ZM158.551 54.7922H163.397C163.103 53.6638 162.166 52.9073 160.974 52.9073C159.781 52.9073 158.884 53.651 158.551 54.7922Z" fill="#462E00"/>
<path d="M32.1969 22.4796C32.1969 22.2616 31.902 22.2103 31.8122 22.4026C31.3121 23.4926 30.9788 24.1722 29.876 24.7492C28.8374 25.2877 27.6706 25.4929 26.5422 25.7365C24.7599 26.1083 23.157 26.8649 21.862 28.1728C21.6312 28.4036 21.4132 28.6472 21.2208 28.9037C19.9514 30.5065 19.3359 32.4683 19.3359 34.4173C19.3359 34.4814 19.3488 34.5455 19.3488 34.6097C19.3488 34.9687 19.3872 35.3405 19.4385 35.6996C19.4513 35.815 19.4642 35.9304 19.4898 36.0458C19.5667 36.4946 19.6821 36.9305 19.836 37.3665C21.5671 37.9948 23.4391 38.0461 25.1958 37.5204C26.555 37.1229 27.8244 36.3792 28.9015 35.3021C29.7093 34.4814 30.312 33.5326 30.748 32.5452C31.902 30.4295 32.479 28.0317 32.3764 25.6083L32.2097 22.4796H32.1969Z" fill="#462E00"/>
<path d="M6.06544 32.5196C6.48859 33.5198 7.07842 34.4686 7.89906 35.2893C8.96333 36.3792 10.2456 37.1101 11.6048 37.5075C13.3614 38.0204 15.2335 37.9692 16.9646 37.3537C17.1184 36.9177 17.221 36.4689 17.3108 36.0201C17.3364 35.9047 17.3492 35.8022 17.3621 35.6868C17.4133 35.3149 17.4518 34.9559 17.4518 34.584C17.4518 34.5199 17.4646 34.4686 17.4518 34.4045C17.4518 32.4555 16.8363 30.4936 15.5669 28.8908C15.3618 28.6344 15.1566 28.3908 14.9258 28.16C13.7333 26.9546 12.2074 26.1212 10.5533 25.775C9.33518 25.5313 8.07857 25.3646 6.9502 24.8261C5.82182 24.2876 5.51408 23.531 4.98835 22.3898C4.8986 22.1975 4.6165 22.2488 4.60368 22.4668L4.43699 25.5955C4.34723 28.0189 4.91142 30.4167 6.09109 32.5068L6.06544 32.5196Z" fill="#462E00"/>
<path d="M19.3496 47.6885C19.3496 48.0475 19.3881 48.4194 19.4394 48.7784C19.4522 48.8938 19.465 49.0092 19.4907 49.1246C19.5676 49.5734 19.683 50.0094 19.8369 50.4454C21.5679 51.0737 23.44 51.1249 25.1967 50.5992C26.5558 50.2017 27.8253 49.458 28.9024 48.3809C29.7102 47.5603 30.3128 46.6114 30.7488 45.6241C31.9028 43.5084 32.4798 41.1106 32.3773 38.6871L32.2106 35.5584C32.2106 35.3405 31.9157 35.2892 31.8259 35.4815C31.3258 36.5714 31.1078 37.5459 29.941 38.0332C28.7741 38.5204 27.4662 38.6102 26.2225 38.8795C24.5812 39.2257 23.0553 40.0591 21.8885 41.2516C21.6577 41.4824 21.4397 41.7261 21.2473 41.9825C19.9779 43.5853 19.3624 45.5472 19.3624 47.4962C19.3624 47.5603 19.3753 47.6244 19.3753 47.6885H19.3496Z" fill="#462E00"/>
<path d="M6.06459 45.6113C6.48774 46.6114 7.07757 47.5603 7.89821 48.3809C8.96248 49.4708 10.2447 50.2017 11.6039 50.5992C13.3606 51.1121 15.2327 51.0608 16.9637 50.4454C17.1176 50.0094 17.2202 49.5606 17.3099 49.1118C17.3356 48.9964 17.3484 48.8938 17.3612 48.7784C17.4125 48.4066 17.451 48.0475 17.451 47.6757C17.451 47.6116 17.4638 47.5603 17.451 47.4962C17.451 45.5472 16.8355 43.5853 15.5661 41.9825C15.3609 41.7261 15.1557 41.4824 14.9249 41.2516C13.7068 40.0207 12.1425 39.1744 10.4371 38.841C9.24457 38.6102 8.03926 38.3794 6.94935 37.8537C5.76968 37.2895 5.5004 36.6227 4.97468 35.4815C4.88492 35.2892 4.60283 35.3405 4.59001 35.5584L4.42331 38.6871C4.33356 41.1106 4.89775 43.5084 6.07742 45.5984L6.06459 45.6113Z" fill="#462E00"/>
<path d="M16.5663 15.5298C17.1305 16.0042 17.7332 16.4017 18.3999 16.7222C18.9 16.4786 19.3744 16.1965 19.8104 15.8631C21.9646 14.2603 23.3622 11.683 23.3622 8.75948C23.3622 8.38762 23.3238 8.01577 23.2853 7.65674C23.2725 7.54134 23.2597 7.42594 23.234 7.31053C23.234 7.27207 23.234 7.2336 23.2212 7.19513C23.2212 7.19513 23.2212 7.20795 23.2212 7.22078C22.7211 4.37418 20.8875 2.00202 18.3999 0.796707C15.9124 2.00202 14.0916 4.34854 13.5787 7.18231C13.5787 7.18231 13.5787 7.16949 13.5787 7.15666C13.5787 7.20795 13.5787 7.25924 13.553 7.29771C13.5402 7.41311 13.5146 7.52852 13.5017 7.64392C13.4504 8.00295 13.4248 8.3748 13.4248 8.74665C13.4248 11.465 14.6429 13.9013 16.5663 15.5169V15.5298Z" fill="#462E00"/>
<path d="M21.862 15.1451C21.6312 15.3759 21.4132 15.6195 21.2208 15.8759C19.9514 17.4788 19.3359 19.4406 19.3359 21.3896C19.3359 21.4537 19.3488 21.5178 19.3488 21.5819C19.3488 21.941 19.3872 22.3128 19.4385 22.6719C19.4513 22.7873 19.4642 22.9027 19.4898 23.0181C19.5667 23.4669 19.6821 23.9028 19.836 24.3388C21.5671 24.9543 23.4391 25.0184 25.1958 24.4927C26.555 24.0952 27.8244 23.3515 28.9015 22.2744C29.7093 21.4537 30.312 20.5049 30.748 19.5175C31.902 17.4018 32.479 15.004 32.3764 12.5806L32.2097 9.45187C32.2097 9.23389 31.9148 9.1826 31.825 9.37494C31.4019 10.2982 31.2609 10.9008 30.3248 11.3752C29.3888 11.8497 28.3245 12.1831 27.2987 12.4908C25.3497 13.0806 23.3237 13.6705 21.8748 15.1451H21.862Z" fill="#462E00"/>
<path d="M6.06532 19.4919C6.48846 20.492 7.07829 21.4409 7.89893 22.2615C10.207 24.6081 13.8357 25.4543 16.9644 24.326C17.9518 21.4922 17.426 18.2225 15.5796 15.8631C15.3744 15.6067 15.1693 15.363 14.9385 15.1322C13.6947 13.8628 12.1432 13.0935 10.425 12.7216C9.27094 12.4652 8.09127 12.2215 7.027 11.6958C5.87298 11.1188 5.51395 10.5033 5.00105 9.37494C4.91129 9.1826 4.6292 9.23389 4.61637 9.45187L4.44968 12.5806C4.35992 15.004 4.92411 17.4018 6.10378 19.4919H6.06532Z" fill="#462E00"/>
<path d="M24.5294 52.6637C22.824 52.6637 21.2084 53.3048 20.1441 54.664C19.6954 55.2282 19.362 55.8821 19.1055 56.5617C18.9901 56.8566 18.9645 57.2926 18.6952 57.4978C18.5285 57.626 18.2721 57.6388 18.1182 57.4978C17.9258 57.3183 17.8489 56.9977 17.772 56.7669C17.5283 56.0745 17.2078 55.4205 16.7718 54.8307C15.746 53.4459 14.1945 52.715 12.4763 52.6637C12.3994 52.6637 12.3352 52.6637 12.2583 52.6637C5.68037 52.6637 1.17967 50.4198 0 46.5602C0 46.5602 0.743704 55.0615 6.64205 56.5104C9.38607 57.19 12.5276 56.7412 15.1562 57.767C15.6947 57.9722 16.1948 58.2799 16.6308 58.6518C17.0667 59.0236 17.3873 59.7161 17.8746 60.0238C18.9901 60.7547 19.6825 58.9852 20.4006 58.4338C21.1571 57.8696 22.029 57.5619 22.9523 57.3952C25.3372 56.972 27.7607 57.0875 30.1329 56.4976C36.044 55.0359 36.7749 46.5474 36.7749 46.5474C35.5952 50.4069 31.0817 52.6509 24.5166 52.6509L24.5294 52.6637Z" fill="#462E00"/>
<path d="M58.7398 0.912115L53.6621 19.4406H42.1988L37.1083 0.912115H46.661C46.738 4.22032 47.3022 8.4261 47.9048 12.1959C48.546 8.43892 49.0717 4.22032 49.1743 0.912115H58.727H58.7398Z" fill="#462E00"/>
<path d="M75.9092 0.886471V7.24643C73.396 6.90022 70.3186 6.82329 67.8053 6.97716V7.66957L75.0629 7.69521V12.6447H67.8053V13.2217C70.5365 13.5423 73.8447 13.5166 76.5375 13.0935L75.7168 19.4278H59.4579V0.886471H75.8963H75.9092Z" fill="#462E00"/>
<path d="M85.6155 0.886429H77.5117V19.4278H85.6155V0.886429Z" fill="#462E00"/>
<path d="M95.181 0.886429V12.7216C97.6172 12.7216 99.656 12.7729 102.041 12.1959L101.22 19.4278H87.0771V0.886429H95.181Z" fill="#462E00"/>
<path d="M110.774 0.886471H102.67V19.4278H110.774V0.886471Z" fill="#462E00"/>
<path d="M122.442 11.3497V9.52889H132.88C132.905 9.74687 132.905 9.92638 132.905 10.1315V10.1572C132.88 14.363 130.149 17.9148 126.366 19.2099C124.084 19.9792 121.045 20.1587 118.211 19.2355C114.403 17.9661 111.646 14.3886 111.62 10.1572C111.646 5.97706 114.377 2.42523 118.16 1.13015C120.442 0.360804 123.481 0.18129 126.289 1.10451C129.674 2.22007 132.226 5.13077 132.803 8.70825H123.776C123.404 8.46462 122.955 8.3364 122.455 8.3364C121.532 8.3364 120.763 8.81083 120.468 9.4776C120.288 9.95203 120.314 10.4778 120.493 10.8752C120.763 11.542 121.558 12.0165 122.455 12.0165H122.481C123.148 12.0165 123.725 11.7472 124.096 11.3497H122.455H122.442Z" fill="#462E00"/>
<path d="M58.7398 23.2104L53.6621 41.7518H42.1988L37.1211 23.2104H46.6739C46.7508 26.5186 47.315 30.7244 47.9177 34.4942C48.5588 30.7372 49.0845 26.5186 49.1871 23.2104H58.7398Z" fill="#462E00"/>
<path d="M72.1778 23.3899C69.3697 22.4667 66.3308 22.6462 64.0484 23.4156C60.2657 24.685 57.5345 28.2625 57.5089 32.4554C57.5345 36.6869 60.2914 40.2643 64.1125 41.5081C66.9334 42.457 69.9852 42.2775 72.2676 41.4825C76.0502 40.2131 78.7814 36.6612 78.807 32.4554V32.3913C78.7429 28.2112 75.9989 24.6337 72.1778 23.3899ZM69.6902 33.135C69.5107 33.8018 68.9722 34.2762 68.3439 34.3019C67.7284 34.2762 67.2027 33.8275 67.0232 33.1607C66.8821 32.7632 66.8565 32.2375 66.9975 31.763C67.177 31.0963 67.7284 30.6218 68.3439 30.6218C68.9594 30.6218 69.5107 31.0963 69.6902 31.7374C69.7928 32.1349 69.8313 32.6606 69.6902 33.135Z" fill="#462E00"/>
<path d="M93.8994 23.3899C91.0913 22.4667 88.0523 22.6462 85.7699 23.4156C81.9873 24.685 79.2561 28.2625 79.2305 32.4554C79.2561 36.6868 82.0129 40.2643 85.8212 41.5081C88.655 42.457 91.7068 42.2774 93.9763 41.4824C97.7718 40.213 100.49 36.6612 100.529 32.4554V32.3913C100.465 28.2112 97.7205 24.6337 93.8994 23.3899ZM91.4118 33.135C91.2323 33.8018 90.6938 34.2762 90.0655 34.3019C89.45 34.2762 88.9243 33.8274 88.7448 33.1606C88.6037 32.7632 88.5781 32.2374 88.7191 31.763C88.8986 31.0962 89.45 30.6218 90.0655 30.6218C90.681 30.6218 91.2323 31.0962 91.4118 31.7374C91.5144 32.1348 91.5529 32.6606 91.4118 33.135Z" fill="#462E00"/>
<path d="M117.198 35.3405C118.698 34.0326 119.685 32.1349 119.711 30.0192V29.9807C119.685 28.6856 119.313 27.4675 118.647 26.4417C117.454 24.4799 115.313 23.2874 112.979 23.2104H101.336V41.7389H109.44V36.4945C110.761 37.3793 112.107 39.7002 112.453 41.7389H120.903C120.788 39.9694 119.236 37.0587 117.198 35.3405ZM110.863 31.4168H109.44V29.2498H110.863C111.479 29.2498 111.953 29.7243 111.953 30.3269C111.953 30.9296 111.479 31.4168 110.863 31.4168Z" fill="#462E00"/>
<path d="M129.635 42.1364C126.378 42.1364 124.288 40.9696 122.942 39.5976C121.57 38.2512 120.826 36.4176 120.826 34.4814V23.172H129.084C128.789 26.4545 128.738 31.4553 129.058 33.4428C129.11 33.8659 129.379 34.0454 129.635 34.0454C129.892 34.0454 130.161 33.8659 130.225 33.4428C130.546 31.4553 130.495 26.4545 130.2 23.172H138.457V34.4814C138.457 36.4176 137.714 38.2384 136.342 39.5976C134.995 40.9696 132.905 42.1364 129.648 42.1364H129.635Z" fill="#462E00"/>
<path d="M148.061 23.1848H139.957V41.7133H148.061V23.1848Z" fill="#462E00"/>
<path d="M148.92 29.8268L149.792 23.2104H166V29.5447H161.73V41.7517H153.6V29.5447C152.062 29.5191 150.715 29.5447 148.907 29.8396L148.92 29.8268Z" fill="#462E00"/>
</g>
<defs>
<clipPath id="clip0_88_696">
<rect width="166" height="60.0477" fill="white" transform="translate(0 0.476151)"/>
</clipPath>
</defs>
</svg>
