<svg width="86" height="79" viewBox="0 0 86 79" fill="none" xmlns="http://www.w3.org/2000/svg">
<g clip-path="url(#clip0_214_525)">
<path d="M76.5997 55.3726C74.362 53.5176 62.3965 51.9202 38.052 56.7117C27.9654 58.3308 9.97187 59.1385 6.51037 63.004C4.15913 65.6296 4.85362 68.4241 4.99888 70.243C5.14414 72.0618 8.79844 74.2105 13.9894 73.7959C19.1803 73.3813 20.3638 75.1172 27.9449 74.105C35.526 73.0928 41.3768 72.2188 53.7866 70.6175C66.1965 69.0163 67.9268 68.8781 77.4229 65.6792C86.9189 62.4802 78.8375 57.2277 76.5997 55.3726Z" fill="#C91F46"/>
<path d="M39.8811 56.1076L39.4455 54.7886L39.8811 56.1076ZM40.7957 55.8055L41.2313 57.1245L40.7957 55.8055ZM50.2319 54.449L49.8976 53.1008L50.2319 54.449ZM51.1638 54.218L51.4981 55.5662L51.1638 54.218ZM53.9868 53.7625L53.9772 55.1515L53.9868 53.7625ZM55.905 53.7758L55.9146 52.3867L55.905 53.7758ZM57.8208 53.8416L57.7351 55.228L57.8208 53.8416ZM59.7344 53.96L59.6487 55.3464L59.7344 53.96ZM62.5806 53.6336L62.3028 52.2726L62.5806 53.6336ZM67.3274 53.5858L67.1644 54.9653L67.3274 53.5858ZM70.1448 54.0467L69.8897 55.4122L70.1448 54.0467ZM71.0772 54.2209L71.3323 52.8555L71.3323 52.8555L71.0772 54.2209ZM72.8858 54.6519L73.2765 53.3189L72.8858 54.6519ZM74.6381 55.1654L74.2474 56.4984L74.6381 55.1654ZM76.2529 55.9476L77.058 54.8156L76.2529 55.9476ZM77.7304 56.9983L76.9253 58.1303L77.7304 56.9983ZM80.2302 58.54L79.536 59.7431L80.2302 58.54ZM81.8439 60.5577L80.4697 60.3553L81.8439 60.5577ZM81.549 62.5604L80.1747 62.358L81.549 62.5604ZM80.5993 64.1066L79.8188 62.9576L80.5993 64.1066ZM78.9951 65.1963L79.7756 66.3454L78.9951 65.1963ZM77.2151 65.8315L77.3429 67.2147L77.2151 65.8315ZM75.2593 66.0122L75.3871 67.3954L75.2593 66.0122ZM73.3737 66.3634L72.9901 65.0283L73.3737 66.3634ZM72.4659 66.6242L72.0823 65.2891L72.4659 66.6242ZM71.5582 66.885L71.9417 68.2201L71.5582 66.885ZM69.7473 67.42L69.3437 66.0909L69.7473 67.42ZM67.941 67.9684L68.3446 69.2976L67.941 67.9684ZM65.1654 68.5032L64.974 67.1274L65.1654 68.5032ZM64.2292 68.6335L64.4207 70.0093L64.2292 68.6335ZM62.3759 69.061L61.9476 67.7396L62.3759 69.061ZM61.4588 69.3583L61.0305 68.0369L61.4588 69.3583ZM58.6556 69.8789L58.55 71.2639L58.6556 69.8789ZM56.7179 69.731L56.6122 71.1161L56.7179 69.731ZM54.8312 69.9961L54.3499 68.6931L54.8312 69.9961ZM52.9958 70.6742L52.5145 69.3711L52.9958 70.6742ZM51.1467 71.2217L51.4501 72.5772L51.1467 71.2217ZM49.2838 71.6387L48.9803 70.2832L49.2838 71.6387ZM47.3959 71.8727L47.3589 70.4842L47.3959 71.8727ZM46.4395 71.8983L46.4766 73.2869L46.4395 71.8983ZM45.4832 71.9238L45.4461 70.5352L45.4832 71.9238ZM43.5995 72.1904L43.25 70.846L43.5995 72.1904ZM41.7451 72.6725L42.0946 74.0169L41.7451 72.6725ZM39.8576 72.9126L39.8561 74.3016L39.8576 72.9126ZM38.8973 72.9115L38.8988 71.5225L38.8973 72.9115ZM37.937 72.9105L37.9355 74.2996L37.937 72.9105ZM36.0477 73.1367L35.7176 71.7874L36.0477 73.1367ZM32.3153 73.9312L32.1509 72.5519L32.3153 73.9312ZM30.4251 74.1565L30.2606 72.7772L30.4251 74.1565ZM28.5284 74.3801L28.6892 75.7598L28.5284 74.3801ZM27.5769 74.4909L27.4161 73.1112L27.5769 74.4909ZM26.6253 74.6018L26.4646 73.2221L26.6253 74.6018ZM24.7275 74.4823L24.399 75.832L24.7275 74.4823ZM23.7811 74.252L23.4526 75.6017L23.7811 74.252ZM22.8348 74.0216L23.1633 72.672L22.8348 74.0216ZM20.9324 73.833L20.8719 72.4453L20.9324 73.833ZM19.0204 73.9165L19.081 75.3042L19.0204 73.9165ZM17.1257 74.0359L17.2402 75.4202L17.1257 74.0359ZM15.2482 74.1911L15.1337 72.8068L15.2482 74.1911ZM13.3362 74.2208L13.4046 72.8334L13.3362 74.2208ZM12.3629 74.1728L12.2945 75.5602L12.3629 74.1728ZM11.3896 74.1248L11.458 72.7375L11.3896 74.1248ZM9.44926 73.8251L9.09935 75.1694L9.44926 73.8251ZM7.5151 73.3217L7.16519 74.666L7.5151 73.3217ZM6.27409 72.1582L4.94375 72.5578L6.27409 72.1582ZM8.0637 62.4519L7.56685 61.1548L8.0637 62.4519ZM11.5346 61.2504L11.2073 59.9005L11.5346 61.2504ZM16.8969 59.1126L16.2175 57.901L16.8969 59.1126ZM22.5228 58.0768L22.343 56.6994L22.5228 58.0768ZM26.3149 57.6736L26.2671 56.2853L26.3149 57.6736ZM32.062 57.6407L32.0305 59.0294L32.062 57.6407ZM37.1232 57.0954L37.6535 58.3793L37.1232 57.0954ZM37.7424 56.8396L37.212 55.5558L37.7424 56.8396ZM39.8811 56.1076L40.3168 57.4266L41.2313 57.1245L40.7957 55.8055L40.36 54.4865L39.4455 54.7886L39.8811 56.1076ZM40.7957 55.8055L41.2313 57.1245C41.7487 56.9536 42.274 56.8398 42.8089 56.7822L42.6602 55.4011L42.5114 54.02C41.7798 54.0988 41.0622 54.2546 40.36 54.4865L40.7957 55.8055ZM42.6602 55.4011L42.8089 56.7822L43.7588 56.6799L43.6101 55.2988L43.4613 53.9177L42.5114 54.02L42.6602 55.4011ZM43.6101 55.2988L43.7588 56.6799L44.7087 56.5775L44.56 55.1964L44.4112 53.8154L43.4613 53.9177L43.6101 55.2988ZM44.56 55.1964L44.7087 56.5775C45.3427 56.5092 45.9758 56.4405 46.6082 56.3715L46.4574 54.9906L46.3065 53.6098C45.6755 53.6787 45.0438 53.7472 44.4112 53.8154L44.56 55.1964ZM46.4574 54.9906L46.6082 56.3715L47.5557 56.268L47.4049 54.8871L47.254 53.5063L46.3065 53.6098L46.4574 54.9906ZM47.4049 54.8871L47.5557 56.268L48.5032 56.1645L48.3524 54.7836L48.2016 53.4028L47.254 53.5063L47.4049 54.8871ZM48.3524 54.7836L48.5032 56.1645C49.1972 56.0887 49.8849 55.9662 50.5662 55.7973L50.2319 54.449L49.8976 53.1008C49.3362 53.24 48.771 53.3406 48.2016 53.4028L48.3524 54.7836ZM50.2319 54.449L50.5662 55.7973L51.4981 55.5662L51.1638 54.218L50.8295 52.8697L49.8976 53.1008L50.2319 54.449ZM51.1638 54.218L51.4981 55.5662L52.4301 55.3351L52.0958 53.9869L51.7615 52.6386L50.8295 52.8697L51.1638 54.218ZM52.0958 53.9869L52.4301 55.3351C52.939 55.2089 53.4538 55.1479 53.9772 55.1515L53.9868 53.7625L53.9965 52.3734C53.241 52.3682 52.4952 52.4567 51.7615 52.6386L52.0958 53.9869ZM53.9868 53.7625L53.9772 55.1515L54.9362 55.1582L54.9459 53.7691L54.9555 52.3801L53.9965 52.3734L53.9868 53.7625ZM54.9459 53.7691L54.9362 55.1582L55.8953 55.1648L55.905 53.7758L55.9146 52.3867L54.9555 52.3801L54.9459 53.7691ZM55.905 53.7758L55.8953 55.1648C56.5093 55.1691 57.1226 55.1902 57.7351 55.228L57.8208 53.8416L57.9066 52.4552C57.2434 52.4142 56.5794 52.3913 55.9146 52.3867L55.905 53.7758ZM57.8208 53.8416L57.7351 55.228L58.6919 55.2872L58.7776 53.9008L58.8634 52.5144L57.9066 52.4552L57.8208 53.8416ZM58.7776 53.9008L58.6919 55.2872L59.6487 55.3464L59.7344 53.96L59.8202 52.5735L58.8634 52.5144L58.7776 53.9008ZM59.7344 53.96L59.6487 55.3464C60.409 55.3934 61.165 55.3402 61.9136 55.1874L61.6359 53.8264L61.3582 52.4653C60.8472 52.5696 60.3356 52.6054 59.8202 52.5735L59.7344 53.96ZM61.6359 53.8264L61.9136 55.1874L62.8583 54.9946L62.5806 53.6336L62.3028 52.2726L61.3582 52.4653L61.6359 53.8264ZM62.5806 53.6336L62.8583 54.9946L63.8029 54.8019L63.5252 53.4409L63.2475 52.0798L62.3028 52.2726L62.5806 53.6336ZM63.5252 53.4409L63.8029 54.8019C64.2885 54.7028 64.7721 54.6825 65.2593 54.7401L65.4224 53.3607L65.5854 51.9812C64.8026 51.8887 64.0215 51.9219 63.2475 52.0798L63.5252 53.4409ZM65.4224 53.3607L65.2593 54.7401L66.2119 54.8527L66.3749 53.4732L66.5379 52.0937L65.5854 51.9812L65.4224 53.3607ZM66.3749 53.4732L66.2119 54.8527L67.1644 54.9653L67.3274 53.5858L67.4904 52.2063L66.5379 52.0937L66.3749 53.4732ZM67.3274 53.5858L67.1644 54.9653C67.7689 55.0367 68.3665 55.1276 68.9573 55.238L69.2124 53.8725L69.4674 52.5071C68.8149 52.3852 68.1559 52.285 67.4904 52.2063L67.3274 53.5858ZM69.2124 53.8725L68.9573 55.238L69.8897 55.4122L70.1448 54.0467L70.3999 52.6813L69.4674 52.5071L69.2124 53.8725ZM70.1448 54.0467L69.8897 55.4122L70.8222 55.5864L71.0772 54.2209L71.3323 52.8555L70.3999 52.6813L70.1448 54.0467ZM71.0772 54.2209L70.8222 55.5864C71.3999 55.6943 71.9574 55.8273 72.4951 55.9849L72.8858 54.6519L73.2765 53.3189C72.6461 53.1341 71.9979 52.9798 71.3323 52.8555L71.0772 54.2209ZM72.8858 54.6519L72.4951 55.9849L73.3713 56.2416L73.762 54.9086L74.1526 53.5756L73.2765 53.3189L72.8858 54.6519ZM73.762 54.9086L73.3713 56.2416L74.2474 56.4984L74.6381 55.1654L75.0288 53.8324L74.1526 53.5756L73.762 54.9086ZM74.6381 55.1654L74.2474 56.4984C74.6842 56.6264 75.0823 56.8196 75.4479 57.0796L76.2529 55.9476L77.058 54.8156C76.4386 54.3751 75.7601 54.0468 75.0288 53.8324L74.6381 55.1654ZM76.2529 55.9476L75.4479 57.0796L76.1866 57.6049L76.9917 56.4729L77.7967 55.3409L77.058 54.8156L76.2529 55.9476ZM76.9917 56.4729L76.1866 57.6049L76.9253 58.1303L77.7304 56.9983L78.5354 55.8663L77.7967 55.3409L76.9917 56.4729ZM77.7304 56.9983L76.9253 58.1303C77.4576 58.5088 78.0348 58.8768 78.6554 59.235L79.3497 58.0318L80.044 56.8287C79.4905 56.5093 78.9882 56.1883 78.5354 55.8663L77.7304 56.9983ZM79.3497 58.0318L78.6554 59.235L79.536 59.7431L80.2302 58.54L80.9245 57.3369L80.044 56.8287L79.3497 58.0318ZM80.2302 58.54L79.536 59.7431L80.4165 60.2513L81.1108 59.0481L81.8051 57.845L80.9245 57.3369L80.2302 58.54ZM81.1108 59.0481L80.4165 60.2513C80.4708 60.2826 80.4936 60.3041 80.4985 60.3091C80.5019 60.3126 80.4938 60.3048 80.4849 60.2864C80.4759 60.268 80.4745 60.2562 80.475 60.2598C80.4757 60.2654 80.4785 60.295 80.4697 60.3553L81.8439 60.5577L83.2182 60.7601C83.2995 60.208 83.2513 59.6234 82.9839 59.0728C82.7167 58.5227 82.2875 58.1234 81.8051 57.845L81.1108 59.0481ZM81.8439 60.5577L80.4697 60.3553L80.3222 61.3566L81.6964 61.559L83.0707 61.7614L83.2182 60.7601L81.8439 60.5577ZM81.6964 61.559L80.3222 61.3566L80.1747 62.358L81.549 62.5604L82.9232 62.7628L83.0707 61.7614L81.6964 61.559ZM81.549 62.5604L80.1747 62.358C80.1302 62.6599 80.0163 62.8234 79.8188 62.9576L80.5993 64.1066L81.3799 65.2557C82.2519 64.6633 82.771 63.7961 82.9232 62.7628L81.549 62.5604ZM80.5993 64.1066L79.8188 62.9576L79.0167 63.5024L79.7972 64.6515L80.5777 65.8005L81.3799 65.2557L80.5993 64.1066ZM79.7972 64.6515L79.0167 63.5024L78.2146 64.0473L78.9951 65.1963L79.7756 66.3454L80.5777 65.8005L79.7972 64.6515ZM78.9951 65.1963L78.2146 64.0473C77.8767 64.2768 77.5085 64.4094 77.0873 64.4483L77.2151 65.8315L77.3429 67.2147C78.2255 67.1332 79.044 66.8423 79.7756 66.3454L78.9951 65.1963ZM77.2151 65.8315L77.0873 64.4483L76.1094 64.5387L76.2372 65.9219L76.365 67.3051L77.3429 67.2147L77.2151 65.8315ZM76.2372 65.9219L76.1094 64.5387L75.1315 64.629L75.2593 66.0122L75.3871 67.3954L76.365 67.3051L76.2372 65.9219ZM75.2593 66.0122L75.1315 64.629C74.3965 64.697 73.6821 64.8295 72.9901 65.0283L73.3737 66.3634L73.7573 67.6984C74.2756 67.5495 74.8183 67.448 75.3871 67.3954L75.2593 66.0122ZM73.3737 66.3634L72.9901 65.0283L72.0823 65.2891L72.4659 66.6242L72.8495 67.9593L73.7573 67.6984L73.3737 66.3634ZM72.4659 66.6242L72.0823 65.2891L71.1746 65.5499L71.5582 66.885L71.9417 68.2201L72.8495 67.9593L72.4659 66.6242ZM71.5582 66.885L71.1746 65.5499C70.5627 65.7257 69.9524 65.906 69.3437 66.0909L69.7473 67.42L70.1508 68.7492C70.7463 68.5684 71.3432 68.392 71.9417 68.2201L71.5582 66.885ZM69.7473 67.42L69.3437 66.0909L68.4406 66.3651L68.8441 67.6942L69.2477 69.0234L70.1508 68.7492L69.7473 67.42ZM68.8441 67.6942L68.4406 66.3651L67.5374 66.6393L67.941 67.9684L68.3446 69.2976L69.2477 69.0234L68.8441 67.6942ZM67.941 67.9684L67.5374 66.6393C67.0048 66.801 66.4626 66.9202 65.9102 66.9971L66.1017 68.3729L66.2931 69.7488C66.989 69.6519 67.673 69.5015 68.3446 69.2976L67.941 67.9684ZM66.1017 68.3729L65.9102 66.9971L64.974 67.1274L65.1654 68.5032L65.3569 69.879L66.2931 69.7488L66.1017 68.3729ZM65.1654 68.5032L64.974 67.1274L64.0378 67.2577L64.2292 68.6335L64.4207 70.0093L65.3569 69.879L65.1654 68.5032ZM64.2292 68.6335L64.0378 67.2577C63.3316 67.3559 62.6347 67.5169 61.9476 67.7396L62.3759 69.061L62.8042 70.3824C63.3399 70.2088 63.8785 70.0848 64.4207 70.0093L64.2292 68.6335ZM62.3759 69.061L61.9476 67.7396L61.0305 68.0369L61.4588 69.3583L61.8871 70.6797L62.8042 70.3824L62.3759 69.061ZM61.4588 69.3583L61.0305 68.0369L60.1134 68.3342L60.5416 69.6556L60.9699 70.977L61.8871 70.6797L61.4588 69.3583ZM60.5416 69.6556L60.1134 68.3342C59.6755 68.4761 59.2283 68.5295 58.7613 68.4938L58.6556 69.8789L58.55 71.2639C59.3749 71.3269 60.185 71.2314 60.9699 70.977L60.5416 69.6556ZM58.6556 69.8789L58.7613 68.4938L57.7924 68.4199L57.6867 69.8049L57.5811 71.19L58.55 71.2639L58.6556 69.8789ZM57.6867 69.8049L57.7924 68.4199L56.8235 68.346L56.7179 69.731L56.6122 71.1161L57.5811 71.19L57.6867 69.8049ZM56.7179 69.731L56.8235 68.346C55.9769 68.2814 55.1479 68.3983 54.3499 68.6931L54.8312 69.9961L55.3126 71.2991C55.7382 71.1419 56.1669 71.0821 56.6122 71.1161L56.7179 69.731ZM54.8312 69.9961L54.3499 68.6931L53.4322 69.0321L53.9135 70.3351L54.3949 71.6381L55.3126 71.2991L54.8312 69.9961ZM53.9135 70.3351L53.4322 69.0321L52.5145 69.3711L52.9958 70.6742L53.4772 71.9772L54.3949 71.6381L53.9135 70.3351ZM52.9958 70.6742L52.5145 69.3711C51.9593 69.5762 51.4023 69.741 50.8432 69.8662L51.1467 71.2217L51.4501 72.5772C52.133 72.4244 52.8087 72.2241 53.4772 71.9772L52.9958 70.6742ZM51.1467 71.2217L50.8432 69.8662L49.9118 70.0747L50.2152 71.4302L50.5187 72.7857L51.4501 72.5772L51.1467 71.2217ZM50.2152 71.4302L49.9118 70.0747L48.9803 70.2832L49.2838 71.6387L49.5872 72.9942L50.5187 72.7857L50.2152 71.4302ZM49.2838 71.6387L48.9803 70.2832C48.4471 70.4025 47.907 70.4695 47.3589 70.4842L47.3959 71.8727L47.433 73.2613C48.16 73.2419 48.8785 73.1529 49.5872 72.9942L49.2838 71.6387ZM47.3959 71.8727L47.3589 70.4842L46.4025 70.5097L46.4395 71.8983L46.4766 73.2869L47.433 73.2613L47.3959 71.8727ZM46.4395 71.8983L46.4025 70.5097L45.4461 70.5352L45.4832 71.9238L45.5202 73.3124L46.4766 73.2869L46.4395 71.8983ZM45.4832 71.9238L45.4461 70.5352C44.7028 70.5551 43.9702 70.6588 43.25 70.846L43.5995 72.1904L43.949 73.5348C44.4652 73.4006 44.9883 73.3266 45.5202 73.3124L45.4832 71.9238ZM43.5995 72.1904L43.25 70.846L42.3228 71.0871L42.6723 72.4315L43.0218 73.7759L43.949 73.5348L43.5995 72.1904ZM42.6723 72.4315L42.3228 71.0871L41.3956 71.3281L41.7451 72.6725L42.0946 74.0169L43.0218 73.7759L42.6723 72.4315ZM41.7451 72.6725L41.3956 71.3281C40.8923 71.459 40.3811 71.524 39.8591 71.5235L39.8576 72.9126L39.8561 74.3016C40.6144 74.3024 41.3615 74.2075 42.0946 74.0169L41.7451 72.6725ZM39.8576 72.9126L39.8591 71.5235L38.8988 71.5225L38.8973 72.9115L38.8958 74.3006L39.8561 74.3016L39.8576 72.9126ZM38.8973 72.9115L38.8988 71.5225L37.9385 71.5214L37.937 72.9105L37.9355 74.2996L38.8958 74.3006L38.8973 72.9115ZM37.937 72.9105L37.9385 71.5214C37.1871 71.5206 36.446 71.6093 35.7176 71.7874L36.0477 73.1367L36.3777 74.486C36.8882 74.3612 37.4066 74.299 37.9355 74.2996L37.937 72.9105ZM36.0477 73.1367L35.7176 71.7874L34.7885 72.0147L35.1186 73.364L35.4486 74.7133L36.3777 74.486L36.0477 73.1367ZM35.1186 73.364L34.7885 72.0147L33.8594 72.242L34.1895 73.5913L34.5195 74.9406L35.4486 74.7133L35.1186 73.364ZM34.1895 73.5913L33.8594 72.242C33.2943 72.3802 32.7249 72.4834 32.1509 72.5519L32.3153 73.9312L32.4797 75.3105C33.1658 75.2287 33.8459 75.1053 34.5195 74.9406L34.1895 73.5913ZM32.3153 73.9312L32.1509 72.5519L31.2057 72.6645L31.3702 74.0439L31.5346 75.4232L32.4797 75.3105L32.3153 73.9312ZM31.3702 74.0439L31.2057 72.6645L30.2606 72.7772L30.4251 74.1565L30.5895 75.5358L31.5346 75.4232L31.3702 74.0439ZM30.4251 74.1565L30.2606 72.7772C29.6318 72.8522 29.0008 72.9265 28.3677 73.0003L28.5284 74.3801L28.6892 75.7598C29.3248 75.6857 29.9582 75.6111 30.5895 75.5358L30.4251 74.1565ZM28.5284 74.3801L28.3677 73.0003L27.4161 73.1112L27.5769 74.4909L27.7377 75.8707L28.6892 75.7598L28.5284 74.3801ZM27.5769 74.4909L27.4161 73.1112L26.4646 73.2221L26.6253 74.6018L26.7861 75.9815L27.7377 75.8707L27.5769 74.4909ZM26.6253 74.6018L26.4646 73.2221C25.9966 73.2766 25.5296 73.2479 25.056 73.1327L24.7275 74.4823L24.399 75.832C25.1871 76.0238 25.9854 76.0748 26.7861 75.9815L26.6253 74.6018ZM24.7275 74.4823L25.056 73.1327L24.1096 72.9023L23.7811 74.252L23.4526 75.6017L24.399 75.832L24.7275 74.4823ZM23.7811 74.252L24.1096 72.9023L23.1633 72.672L22.8348 74.0216L22.5063 75.3713L23.4526 75.6017L23.7811 74.252ZM22.8348 74.0216L23.1633 72.672C22.4074 72.488 21.6424 72.4116 20.8719 72.4453L20.9324 73.833L20.993 75.2208C21.4971 75.1988 22.0003 75.2482 22.5063 75.3713L22.8348 74.0216ZM20.9324 73.833L20.8719 72.4453L19.9159 72.487L19.9764 73.8748L20.037 75.2625L20.993 75.2208L20.9324 73.833ZM19.9764 73.8748L19.9159 72.487L18.9599 72.5287L19.0204 73.9165L19.081 75.3042L20.037 75.2625L19.9764 73.8748ZM19.0204 73.9165L18.9599 72.5287C18.3048 72.5573 17.6552 72.5982 17.0112 72.6515L17.1257 74.0359L17.2402 75.4202C17.8478 75.3699 18.4614 75.3313 19.081 75.3042L19.0204 73.9165ZM17.1257 74.0359L17.0112 72.6515L16.0725 72.7292L16.187 74.1135L16.3015 75.4978L17.2402 75.4202L17.1257 74.0359ZM16.187 74.1135L16.0725 72.7292L15.1337 72.8068L15.2482 74.1911L15.3628 75.5755L16.3015 75.4978L16.187 74.1135ZM15.2482 74.1911L15.1337 72.8068C14.5708 72.8534 13.9946 72.8625 13.4046 72.8334L13.3362 74.2208L13.2678 75.6082C13.9756 75.6431 14.674 75.6325 15.3628 75.5755L15.2482 74.1911ZM13.3362 74.2208L13.4046 72.8334L12.4313 72.7854L12.3629 74.1728L12.2945 75.5602L13.2678 75.6082L13.3362 74.2208ZM12.3629 74.1728L12.4313 72.7854L11.458 72.7375L11.3896 74.1248L11.3212 75.5122L12.2945 75.5602L12.3629 74.1728ZM11.3896 74.1248L11.458 72.7375C10.9066 72.7103 10.3541 72.6253 9.79917 72.4808L9.44926 73.8251L9.09935 75.1694C9.83383 75.3606 10.5749 75.4754 11.3212 75.5122L11.3896 74.1248ZM9.44926 73.8251L9.79917 72.4808L8.83209 72.2291L8.48218 73.5734L8.13227 74.9177L9.09935 75.1694L9.44926 73.8251ZM8.48218 73.5734L8.83209 72.2291L7.86501 71.9774L7.5151 73.3217L7.16519 74.666L8.13227 74.9177L8.48218 73.5734ZM7.5151 73.3217L7.86501 71.9774C7.72784 71.9417 7.68156 71.9011 7.67139 71.8916C7.66377 71.8844 7.63388 71.8565 7.60442 71.7585L6.27409 72.1582L4.94375 72.5578C5.27412 73.6575 6.07951 74.3834 7.16519 74.666L7.5151 73.3217ZM6.27409 72.1582L7.60442 71.7585L7.33048 70.8467L6.00015 71.2464L4.66982 71.646L4.94375 72.5578L6.27409 72.1582ZM6.00015 71.2464L7.33048 70.8467L7.05655 69.9349L5.72621 70.3346L4.39588 70.7342L4.66982 71.646L6.00015 71.2464ZM5.72621 70.3346L7.05655 69.9349C6.88467 69.3628 6.7332 68.7749 6.60234 68.1712L5.24479 68.4654L3.88723 68.7596C4.03303 69.4323 4.20251 70.0906 4.39588 70.7342L5.72621 70.3346ZM5.24479 68.4654L6.60234 68.1712L6.39485 67.2138L5.0373 67.508L3.67974 67.8023L3.88723 68.7596L5.24479 68.4654ZM5.0373 67.508L6.39485 67.2138L6.18736 66.2564L4.8298 66.5507L3.47225 66.8449L3.67974 67.8023L5.0373 67.508ZM4.8298 66.5507L6.18736 66.2564C6.14188 66.0466 6.17518 65.9567 6.29179 65.8299L5.26925 64.8897L4.24672 63.9495C3.50074 64.7608 3.24107 65.7783 3.47225 66.8449L4.8298 66.5507ZM5.26925 64.8897L6.29179 65.8299L6.93873 65.1263L5.91619 64.1861L4.89366 63.2459L4.24672 63.9495L5.26925 64.8897ZM5.91619 64.1861L6.93873 65.1263L7.58566 64.4227L6.56313 63.4825L5.54059 62.5423L4.89366 63.2459L5.91619 64.1861ZM6.56313 63.4825L7.58566 64.4227C7.87849 64.1042 8.20113 63.8868 8.56055 63.7491L8.0637 62.4519L7.56685 61.1548C6.7881 61.453 6.11035 61.9227 5.54059 62.5423L6.56313 63.4825ZM8.0637 62.4519L8.56055 63.7491L9.41418 63.4222L8.91733 62.125L8.42049 60.8278L7.56685 61.1548L8.0637 62.4519ZM8.91733 62.125L9.41418 63.4222L10.2678 63.0952L9.77096 61.798L9.27412 60.5008L8.42049 60.8278L8.91733 62.125ZM9.77096 61.798L10.2678 63.0952C10.7802 62.8989 11.3114 62.7339 11.8619 62.6004L11.5346 61.2504L11.2073 59.9005C10.5445 60.0612 9.89987 60.2612 9.27412 60.5008L9.77096 61.798ZM11.5346 61.2504L11.8619 62.6004L12.7719 62.3798L12.4446 61.0298L12.1173 59.6798L11.2073 59.9005L11.5346 61.2504ZM12.4446 61.0298L12.7719 62.3798L13.6819 62.1592L13.3546 60.8092L13.0273 59.4592L12.1173 59.6798L12.4446 61.0298ZM13.3546 60.8092L13.6819 62.1592C14.4205 61.9801 15.1341 61.6935 15.8214 61.3082L15.1421 60.0966L14.4627 58.885C13.9801 59.1556 13.5021 59.3441 13.0273 59.4592L13.3546 60.8092ZM15.1421 60.0966L15.8214 61.3082L16.6989 60.8162L16.0195 59.6046L15.3401 58.393L14.4627 58.885L15.1421 60.0966ZM16.0195 59.6046L16.6989 60.8162L17.5763 60.3242L16.8969 59.1126L16.2175 57.901L15.3401 58.393L16.0195 59.6046ZM16.8969 59.1126L17.5763 60.3242C18.0073 60.0825 18.4385 59.9447 18.8776 59.8962L18.725 58.5155L18.5724 57.1349C17.744 57.2264 16.9564 57.4867 16.2175 57.901L16.8969 59.1126ZM18.725 58.5155L18.8776 59.8962L19.8283 59.7911L19.6757 58.4104L19.5231 57.0298L18.5724 57.1349L18.725 58.5155ZM19.6757 58.4104L19.8283 59.7911L20.7789 59.686L20.6263 58.3054L20.4737 56.9247L19.5231 57.0298L19.6757 58.4104ZM20.6263 58.3054L20.7789 59.686C21.4218 59.615 22.063 59.5377 22.7026 59.4542L22.5228 58.0768L22.343 56.6994C21.7215 56.7806 21.0985 56.8557 20.4737 56.9247L20.6263 58.3054ZM22.5228 58.0768L22.7026 59.4542L23.6484 59.3307L23.4686 57.9533L23.2888 56.576L22.343 56.6994L22.5228 58.0768ZM23.4686 57.9533L23.6484 59.3307L24.5942 59.2073L24.4144 57.8299L24.2346 56.4525L23.2888 56.576L23.4686 57.9533ZM24.4144 57.8299L24.5942 59.2073C25.1808 59.1307 25.7702 59.0822 26.3626 59.0618L26.3149 57.6736L26.2671 56.2853C25.5866 56.3087 24.909 56.3644 24.2346 56.4525L24.4144 57.8299ZM26.3149 57.6736L26.3626 59.0618L27.3173 59.029L27.2696 57.6408L27.2218 56.2525L26.2671 56.2853L26.3149 57.6736ZM27.2696 57.6408L27.3173 59.029L28.272 58.9962L28.2243 57.6079L28.1765 56.2197L27.2218 56.2525L27.2696 57.6408ZM28.2243 57.6079L28.272 58.9962C28.8819 58.9752 29.494 58.9717 30.1084 58.9857L30.14 57.597L30.1716 56.2082C29.5046 56.1931 28.8396 56.1969 28.1765 56.2197L28.2243 57.6079ZM30.14 57.597L30.1084 58.9857L31.0694 59.0075L31.101 57.6188L31.1326 56.2301L30.1716 56.2082L30.14 57.597ZM31.101 57.6188L31.0694 59.0075L32.0305 59.0294L32.062 57.6407L32.0936 56.2519L31.1326 56.2301L31.101 57.6188ZM32.062 57.6407L32.0305 59.0294C32.7346 59.0454 33.4348 59.0132 34.1305 58.9325L33.9707 57.5527L33.8108 56.1729C33.2431 56.2386 32.6708 56.2651 32.0936 56.2519L32.062 57.6407ZM33.9707 57.5527L34.1305 58.9325L35.0782 58.8227L34.9183 57.4429L34.7584 56.0631L33.8108 56.1729L33.9707 57.5527ZM34.9183 57.4429L35.0782 58.8227L36.0258 58.7129L35.8659 57.3331L35.706 55.9533L34.7584 56.0631L34.9183 57.4429ZM35.8659 57.3331L36.0258 58.7129C36.6314 58.6428 37.2411 58.5496 37.6535 58.3793L37.1232 57.0954L36.5928 55.8116C36.624 55.7987 36.5802 55.8191 36.396 55.8539C36.2306 55.8852 36.0033 55.9188 35.706 55.9533L35.8659 57.3331ZM37.1232 57.0954L37.6535 58.3793L37.9631 58.2514L37.4328 56.9675L36.9024 55.6837L36.5928 55.8116L37.1232 57.0954ZM37.4328 56.9675L37.9631 58.2514L38.2727 58.1235L37.7424 56.8396L37.212 55.5558L36.9024 55.6837L37.4328 56.9675ZM37.7424 56.8396L38.2727 58.1235C38.4251 58.0605 38.786 57.9322 39.4022 57.7286L38.9665 56.4097L38.5309 55.0907C37.9277 55.2899 37.4724 55.4482 37.212 55.5558L37.7424 56.8396ZM38.9665 56.4097L39.4022 57.7286L40.3168 57.4266L39.8811 56.1076L39.4455 54.7886L38.5309 55.0907L38.9665 56.4097Z" fill="#C91F46" fill-opacity="0.956863"/>
<path d="M81.78 40.6299C76.14 53.4899 59.01 58.4099 43.51 51.6199C28.01 44.8299 20.02 28.8999 25.66 16.0299C31.3 3.16988 48.43 -1.75012 63.93 5.03988C79.43 11.8299 87.42 27.7599 81.78 40.6299Z" fill="#FFC659"/>
<path fill-rule="evenodd" clip-rule="evenodd" d="M83.61 41.43C77.4 55.61 58.88 60.54 42.71 53.45C26.54 46.36 17.62 29.41 23.83 15.23C30.04 1.05001 48.56 -3.87999 64.73 3.21001C80.9 10.3 89.83 27.25 83.61 41.43ZM43.51 51.62C59.01 58.41 76.14 53.49 81.78 40.63C87.42 27.77 79.43 11.83 63.93 5.04001C48.43 -1.74999 31.3 3.17001 25.66 16.03C20.02 28.89 28.02 44.83 43.51 51.62Z" fill="#874D27"/>
<path fill-rule="evenodd" clip-rule="evenodd" d="M42.99 48.42C58.07 55.03 74.86 50 80.48 37.17C82.6 32.33 82.83 27.07 81.48 22.04C84.09 28.09 84.39 34.68 81.79 40.62C76.15 53.48 59.02 58.41 43.52 51.61C30.41 45.87 22.67 33.58 24.01 22.15C24.05 32.65 31.29 43.28 42.99 48.41V48.42Z" fill="#874D27"/>
<path d="M62.01 17.8199C61.55 24.6699 54.12 29.7399 45.42 29.1499C36.72 28.5599 30.04 22.5299 30.51 15.6899C30.97 8.83992 38.4 3.76992 47.1 4.35992C55.8 4.94992 62.48 10.9799 62.01 17.8199Z" fill="#FFC659"/>
<path d="M48.27 11.8099C48.53 14.7199 45.58 17.3599 41.68 17.7099C37.78 18.0499 34.42 15.9699 34.16 13.0599C33.9 10.1499 36.85 7.50993 40.75 7.15993C44.65 6.81993 48.01 8.89993 48.27 11.8099Z" fill="#FFC659"/>
<path fill-rule="evenodd" clip-rule="evenodd" d="M28.66 20.48C28.88 20.31 29.19 20.36 29.36 20.58C30.66 22.3 34.38 26.26 38.73 28.23C43.23 30.27 47.16 33.03 48.57 34.16C48.59 34.18 48.62 34.2 48.64 34.23C49.58 35.33 53.09 37.93 59.18 38.81C59.45 38.85 59.64 39.1 59.6 39.38C59.56 39.65 59.31 39.84 59.03 39.8C52.8 38.9 49.07 36.25 47.9 34.92C46.51 33.81 42.68 31.13 38.3 29.15C33.74 27.08 29.9 22.99 28.55 21.19C28.38 20.97 28.43 20.66 28.65 20.49L28.66 20.48Z" fill="#FFC659"/>
<path fill-rule="evenodd" clip-rule="evenodd" d="M46.03 5.17006C46.12 4.91006 46.41 4.77006 46.67 4.86006C48.51 5.51006 52.8 6.94006 55.3 7.54006C56.92 7.93006 59.22 8.73006 61.3 9.55006C63.38 10.3601 65.31 11.2101 66.16 11.7001C67.01 12.1901 68.65 13.3501 70.26 14.6201C71.87 15.8801 73.5 17.2901 74.33 18.2701C75.13 19.2201 76.51 20.9701 77.72 22.5301C78.32 23.3101 78.88 24.0401 79.3 24.6001C79.51 24.8801 79.69 25.1201 79.82 25.3001C79.93 25.4601 80.05 25.6201 80.09 25.7101C80.21 25.9601 80.11 26.2601 79.87 26.3801C79.63 26.5001 79.32 26.4001 79.2 26.1601C79.2 26.1601 79.15 26.0801 79.01 25.8901C78.89 25.7201 78.71 25.4801 78.5 25.2101C78.08 24.6601 77.53 23.9301 76.93 23.1501C75.73 21.6001 74.36 19.8601 73.57 18.9301C72.82 18.0301 71.25 16.6801 69.65 15.4201C68.05 14.1601 66.46 13.0401 65.67 12.5901C64.88 12.1401 63.02 11.3201 60.94 10.5001C58.86 9.69006 56.61 8.91006 55.07 8.53006C52.51 7.91006 48.18 6.46006 46.34 5.82006C46.08 5.73006 45.94 5.44006 46.03 5.18006V5.17006Z" fill="#FFC659"/>
<path fill-rule="evenodd" clip-rule="evenodd" d="M26.7 23.8299C26.95 23.7199 27.25 23.8299 27.36 24.0799C27.88 25.2399 28.76 27.0799 29.7 28.7899C30.17 29.6399 30.65 30.4599 31.1 31.1399C31.56 31.8299 31.96 32.3599 32.29 32.6499C33.26 33.5299 34.57 35.0799 35.67 36.4499C36.22 37.1299 36.73 37.7799 37.11 38.2799C37.2 38.3899 37.28 38.4999 37.36 38.5999C37.62 38.9299 37.78 39.1499 37.85 39.2199C37.85 39.2199 37.87 39.2399 37.92 39.2799C37.96 39.3199 38.03 39.3699 38.1 39.4299C38.25 39.5499 38.46 39.7199 38.7 39.8999C39.18 40.2699 39.82 40.7499 40.5 41.2499C41.86 42.2499 43.39 43.3199 44.26 43.8699C44.42 43.9699 44.6 44.0899 44.8 44.2199C46.73 45.4699 50.14 47.6899 54.57 47.8399C59.43 48.0099 61.17 48.4499 62.17 48.6999C62.22 48.7099 62.26 48.7199 62.3 48.7299C62.55 48.7899 62.79 48.8799 63.04 48.9799C63.06 48.9799 63.08 48.9999 63.11 48.9999C63.39 49.0999 63.69 49.2199 64.09 49.3299C64.88 49.5499 66.03 49.7699 67.94 49.8299C68.22 49.8299 68.43 50.0699 68.42 50.3399C68.42 50.6199 68.18 50.8299 67.9 50.8199C65.93 50.7599 64.69 50.5399 63.81 50.2899C63.37 50.1699 63.03 50.0399 62.75 49.9299L62.7 49.9099C62.44 49.8099 62.25 49.7399 62.06 49.6899C62.02 49.6799 61.97 49.6699 61.92 49.6499C60.99 49.4099 59.3 48.9899 54.54 48.8199C49.81 48.6599 46.18 46.2899 44.26 45.0399C44.07 44.9099 43.89 44.7999 43.73 44.6999C42.84 44.1299 41.28 43.0399 39.92 42.0399C39.24 41.5399 38.59 41.0599 38.1 40.6799C37.85 40.4899 37.64 40.3199 37.48 40.1899C37.33 40.0699 37.19 39.9399 37.11 39.8499C37.03 39.7599 36.84 39.5099 36.58 39.1699C36.51 39.0799 36.43 38.9799 36.35 38.8799C35.96 38.3799 35.46 37.7499 34.92 37.0699C33.82 35.6999 32.55 34.2099 31.64 33.3899C31.22 33.0099 30.75 32.3899 30.28 31.6799C29.81 30.9699 29.32 30.1199 28.84 29.2499C27.89 27.5099 27 25.6599 26.47 24.4799C26.36 24.2299 26.47 23.9299 26.72 23.8199L26.7 23.8299Z" fill="#FFC659"/>
<path fill-rule="evenodd" clip-rule="evenodd" d="M31.99 12.6099C32.15 12.0799 32.71 11.7899 33.24 11.9499C35.65 12.6899 40.98 14.3499 42.79 15.0199C43.97 15.4599 45.79 16.3699 47.48 17.2299C47.76 17.3699 48.03 17.5099 48.3 17.6499C49.71 18.3699 50.96 19.0199 51.69 19.3199C52.78 19.7799 53.92 20.7399 54.79 21.5099C54.97 21.6699 55.15 21.8299 55.31 21.9699C55.55 22.1899 55.77 22.3799 55.97 22.5599C56.13 22.6999 56.26 22.7999 56.36 22.8799C56.42 22.9199 56.45 22.9399 56.46 22.9499C56.62 23.0099 56.76 23.0999 56.84 23.1499C56.95 23.2199 57.07 23.3099 57.2 23.3999C57.45 23.5899 57.77 23.8399 58.11 24.1299C58.43 24.3899 58.82 24.7199 59.24 25.0699C59.68 25.4399 60.15 25.8299 60.6 26.1899C61.52 26.9399 62.46 27.6999 63.3 28.3099C64.17 28.9399 64.82 29.3299 65.17 29.4499C67.28 30.1699 70.72 31.8199 72.64 33.6699C74.03 35.0099 76.16 36.8999 77.06 37.6799C77.48 38.0399 77.52 38.6699 77.16 39.0899C76.8 39.5099 76.17 39.5499 75.75 39.1899C74.85 38.4099 72.68 36.4899 71.25 35.1099C69.64 33.5599 66.52 32.0299 64.52 31.3499C63.85 31.1199 62.97 30.5499 62.12 29.9299C61.24 29.2899 60.25 28.4999 59.33 27.7399C58.83 27.3299 58.38 26.9499 57.96 26.5999C57.56 26.2699 57.2 25.9599 56.84 25.6699C56.5 25.3899 56.21 25.1599 55.99 24.9999C55.88 24.9199 55.8 24.8599 55.74 24.8199C55.73 24.8199 55.72 24.8099 55.71 24.7999C55.5 24.7199 55.31 24.5899 55.17 24.4899C55 24.3699 54.82 24.2199 54.65 24.0699C54.43 23.8799 54.18 23.6599 53.92 23.4199C53.76 23.2799 53.6 23.1299 53.44 22.9999C52.54 22.1999 51.63 21.4599 50.89 21.1599C50.09 20.8199 48.75 20.1399 47.34 19.4199C47.08 19.2899 46.81 19.1499 46.55 19.0099C44.82 18.1299 43.12 17.2799 42.08 16.8899C40.33 16.2399 35.07 14.5999 32.63 13.8599C32.1 13.6999 31.8 13.1399 31.97 12.6099H31.99Z" fill="#FFC659"/>
<path fill-rule="evenodd" clip-rule="evenodd" d="M26.35 12.13C26.48 11.59 27.03 11.27 27.56 11.4C30.52 12.13 35.4 13.61 40.49 15.66C45.57 17.7 50.94 20.35 54.8 23.44C62.27 29.41 67.99 32.75 69.86 33.64C69.88 33.64 69.89 33.65 69.91 33.66C71.29 34.41 73.46 35.77 75.58 37.45C77.68 39.12 79.81 41.17 80.98 43.32C81.25 43.8 81.07 44.41 80.58 44.68C80.1 44.95 79.49 44.77 79.22 44.28C78.24 42.49 76.36 40.63 74.33 39.01C72.32 37.41 70.25 36.12 68.97 35.42C66.91 34.43 61.07 31 53.55 24.99C49.91 22.08 44.76 19.52 39.74 17.5C34.74 15.49 29.94 14.04 27.07 13.33C26.53 13.2 26.21 12.65 26.34 12.12L26.35 12.13Z" fill="#874D27"/>
<path fill-rule="evenodd" clip-rule="evenodd" d="M35.31 9.09007C33.94 9.05007 32.93 9.22007 31.91 9.43007C31.37 9.54007 30.84 9.19007 30.73 8.65007C30.62 8.11007 30.97 7.58007 31.51 7.47007C32.61 7.24007 33.79 7.05007 35.37 7.09007C36.95 7.14007 38.89 7.42007 41.53 8.12007C45.09 9.05007 46.74 9.51007 47.93 9.97007C48.81 10.3101 49.46 10.6701 50.41 11.1901C50.76 11.3801 51.15 11.6001 51.61 11.8401C53.41 12.8001 55.64 14.2001 57.72 15.5301C58.26 15.8801 58.79 16.2101 59.29 16.5401C60.77 17.4901 62.08 18.3401 63.02 18.9001C64.36 19.6901 66.54 21.2201 68.57 22.7601C70.58 24.2901 72.57 25.9301 73.47 26.9601C73.77 27.3001 74.21 27.7101 74.8 28.2501C74.93 28.3701 75.08 28.5101 75.23 28.6401C76.01 29.3601 76.92 30.2301 77.83 31.2701C79.66 33.3501 81.49 36.1101 82.25 39.7401C82.36 40.2801 82.01 40.8101 81.47 40.9201C80.93 41.0301 80.4 40.6801 80.29 40.1401C79.63 36.9601 78.02 34.5001 76.33 32.5901C75.49 31.6301 74.63 30.8101 73.87 30.1101C73.74 29.9901 73.61 29.8701 73.48 29.7501C72.89 29.2101 72.34 28.7001 71.96 28.2701C71.22 27.4201 69.39 25.8901 67.36 24.3401C65.35 22.8101 63.24 21.3401 62 20.6101C61.02 20.0301 59.65 19.1501 58.17 18.1901C57.67 17.8701 57.15 17.5401 56.64 17.2001C54.56 15.8601 52.39 14.5101 50.67 13.5901C50.14 13.3101 49.71 13.0701 49.35 12.8801C48.47 12.3901 47.96 12.1201 47.21 11.8301C46.15 11.4201 44.63 10.9901 41.03 10.0501C38.48 9.38007 36.69 9.13007 35.31 9.09007Z" fill="#874D27"/>
<path fill-rule="evenodd" clip-rule="evenodd" d="M25.79 15.6699C26.01 15.5099 26.33 15.5599 26.49 15.7799C28.31 18.2899 33.24 24.2099 40 28.0099C43.49 29.9699 45.94 31.5799 47.96 32.9199C48.43 33.2299 48.88 33.5199 49.31 33.7999C51.6 35.2899 53.46 36.3699 56.1 37.2299C58.75 38.0999 61.46 39.0999 63.98 40.0399L64.14 40.0999C66.71 41.0599 69.07 41.9299 70.99 42.5099C74.81 43.6699 76.87 43.7799 78.59 43.7799C78.87 43.7799 79.09 43.9999 79.09 44.2799C79.09 44.5599 78.87 44.7799 78.59 44.7799C76.79 44.7799 74.62 44.6599 70.7 43.4699C68.75 42.8799 66.35 41.9899 63.79 41.0399L63.64 40.9799C61.11 40.0399 58.42 39.0399 55.79 38.1799C53.03 37.2799 51.08 36.1399 48.77 34.6299C48.33 34.3499 47.88 34.0499 47.41 33.7399C45.39 32.4099 42.97 30.8099 39.51 28.8699C32.57 24.9699 27.54 18.9299 25.68 16.3599C25.52 16.1399 25.57 15.8199 25.79 15.6599V15.6699Z" fill="#874D27"/>
<path fill-rule="evenodd" clip-rule="evenodd" d="M25.19 18.27C25.46 18.23 25.72 18.41 25.76 18.69C26.53 23.63 29.99 34.17 37.83 40.26C42.83 44.1399 45.6 46.16 47.75 47.23C49.85 48.28 51.35 48.42 53.84 48.48C56.41 48.54 58.73 48.96 60.84 49.34C62.96 49.72 64.84 50.0599 66.6 50.01C69.09 49.93 70.08 49.96 70.97 49.99C71.38 50 71.76 50.01 72.27 50.01C72.55 50.01 72.77 50.2299 72.77 50.5099C72.77 50.7899 72.55 51.0099 72.27 51.0099C71.73 51.0099 71.33 51 70.91 50.9799C70.04 50.95 69.1 50.9299 66.64 51.0099C64.78 51.07 62.81 50.72 60.74 50.34H60.67C58.56 49.95 56.3 49.54 53.83 49.48C51.28 49.42 49.61 49.27 47.31 48.12C45.06 46.99 42.2 44.91 37.23 41.04C29.11 34.73 25.58 23.91 24.79 18.84C24.75 18.57 24.93 18.31 25.21 18.27H25.19Z" fill="#874D27"/>
<path fill-rule="evenodd" clip-rule="evenodd" d="M39.64 3.76001C39.64 3.48001 39.86 3.26001 40.14 3.26001C42.75 3.26001 46.15 4.01001 49.93 5.19001C53.73 6.38001 57.95 8.01001 62.23 9.79001C67.62 12.04 70.98 14.38 73.23 16.44C74.84 17.91 75.89 19.25 76.66 20.23C76.95 20.6 77.2 20.93 77.43 21.18C78.36 22.23 79.62 24.4 80.75 26.78C81.89 29.17 82.93 31.85 83.41 33.95C83.47 34.22 83.3 34.49 83.03 34.55C82.76 34.61 82.49 34.44 82.43 34.17C81.97 32.17 80.96 29.57 79.84 27.21C78.71 24.84 77.51 22.78 76.68 21.84C76.4 21.53 76.12 21.17 75.81 20.77C75.05 19.8 74.09 18.58 72.55 17.17C70.4 15.2 67.13 12.92 61.84 10.71C57.58 8.93001 53.38 7.31001 49.63 6.14001C45.87 4.96001 42.58 4.25001 40.13 4.25001C39.85 4.25001 39.63 4.03001 39.63 3.75001L39.64 3.76001Z" fill="#874D27"/>
<path d="M53.26 31.53C53.13 31.82 52.3 31.73 51.42 31.33C50.53 30.93 49.93 30.37 50.06 30.08C50.19 29.79 51.02 29.88 51.9 30.28C52.78 30.68 53.39 31.24 53.26 31.53Z" fill="#FFC659"/>
<path d="M34.97 30.8501C34.77 31.1001 33.99 30.8101 33.24 30.2001C32.48 29.5901 32.03 28.9001 32.23 28.6501C32.43 28.4001 33.21 28.6901 33.96 29.3001C34.72 29.9101 35.17 30.6001 34.97 30.8501Z" fill="#FFC659"/>
<path d="M46 39.3199C45.86 39.6099 45.04 39.4999 44.17 39.0699C43.3 38.6399 42.7 38.0699 42.84 37.7799C42.98 37.4899 43.8 37.5999 44.68 38.0299C45.55 38.4499 46.15 39.0299 46.01 39.3199H46Z" fill="#FFC659"/>
<path d="M58.88 44.11C58.78 44.41 57.95 44.42 57.03 44.11C56.11 43.81 55.44 43.32 55.54 43.02C55.64 42.72 56.47 42.71 57.39 43.02C58.31 43.32 58.98 43.81 58.88 44.11Z" fill="#FFC659"/>
<path d="M71.43 30.9699C71.28 31.2499 70.46 31.1099 69.6 30.6599C68.74 30.1999 68.17 29.6099 68.32 29.3199C68.47 29.0399 69.29 29.1799 70.14 29.6299C71 30.0899 71.57 30.6799 71.42 30.9699H71.43Z" fill="#FFC659"/>
<path d="M71.43 19.6501C71.28 19.9301 70.46 19.7901 69.6 19.3401C68.74 18.8801 68.17 18.2901 68.32 18.0001C68.47 17.7201 69.29 17.8601 70.14 18.3101C71 18.7701 71.57 19.3601 71.42 19.6501H71.43Z" fill="#FFC659"/>
<path d="M68.79 10.78C68.64 11.06 67.82 10.92 66.96 10.47C66.1 10.01 65.53 9.42003 65.68 9.13003C65.83 8.85003 66.65 8.99003 67.51 9.45003C68.37 9.91003 68.94 10.5 68.79 10.78Z" fill="#FFC659"/>
<path d="M54.85 4.89993C54.75 5.19993 53.93 5.21993 53 4.92993C52.07 4.63993 51.4 4.15993 51.49 3.84993C51.58 3.54993 52.41 3.52993 53.34 3.81993C54.27 4.10993 54.94 4.58993 54.85 4.89993Z" fill="#FFC659"/>
<path d="M58.21 12.19C58.12 12.5 57.29 12.51 56.36 12.22C55.43 11.93 54.76 11.45 54.85 11.14C54.94 10.84 55.77 10.82 56.7 11.11C57.63 11.4 58.3 11.88 58.21 12.19Z" fill="#FFC659"/>
<path d="M56.49 20.5C56.31 20.77 55.51 20.55 54.7 20.01C53.89 19.47 53.37 18.82 53.55 18.56C53.73 18.29 54.53 18.51 55.34 19.05C56.15 19.59 56.67 20.24 56.49 20.5Z" fill="#FFC659"/>
<path d="M43.18 25.1301C43.04 25.4101 42.22 25.2901 41.35 24.8501C40.48 24.4101 39.9 23.8301 40.04 23.5401C40.18 23.2501 41 23.3801 41.87 23.8201C42.74 24.2601 43.33 24.8401 43.18 25.1301Z" fill="#FFC659"/>
<path d="M39.25 37.7701C39.04 38.0101 38.28 37.6701 37.55 37.0201C36.83 36.3701 36.41 35.6501 36.63 35.4101C36.84 35.1701 37.6 35.5101 38.33 36.1601C39.05 36.8101 39.47 37.5301 39.25 37.7701Z" fill="#FFC659"/>
<path d="M65.59 37.8201C65.49 38.1201 64.66 38.1101 63.74 37.8001C62.82 37.4901 62.16 36.9901 62.26 36.6801C62.36 36.3801 63.19 36.3901 64.11 36.7001C65.03 37.0101 65.69 37.5101 65.59 37.8201Z" fill="#FFC659"/>
<path d="M41.01 12.73C40.93 12.95 40.16 12.89 39.27 12.59C38.39 12.29 37.73 11.86 37.81 11.64C37.89 11.42 38.66 11.48 39.55 11.78C40.43 12.08 41.09 12.51 41.01 12.73Z" fill="#FFC659"/>
<path d="M46.45 7.53999C46.4 7.76999 45.62 7.79999 44.71 7.60999C43.8 7.41999 43.1 7.07999 43.14 6.83999C43.19 6.60999 43.97 6.57999 44.88 6.76999C45.79 6.95999 46.49 7.30999 46.45 7.53999Z" fill="#FFC659"/>
<path d="M34.91 19.9601C34.76 20.1401 34.05 19.8101 33.33 19.2201C32.61 18.6301 32.14 18.0001 32.29 17.8201C32.44 17.6401 33.15 17.9701 33.87 18.5601C34.59 19.1501 35.06 19.7701 34.91 19.9601Z" fill="#FFC659"/>
<path d="M29.03 71.1701C12.72 70.6401 5.19002 62.2601 3.47002 58.1401C0.800024 41.7701 12.66 35.5901 23.02 32.5801C33.38 29.5701 51.09 33.0801 52.43 41.6001C53.77 50.1201 49.42 71.8401 29.04 71.1701H29.03Z" fill="#874D27"/>
<path fill-rule="evenodd" clip-rule="evenodd" d="M1.62 58.9101C1.56 58.7601 1.52 58.6101 1.49 58.4601C0.0599992 49.6801 2.53 43.3901 6.93 38.9401C11.22 34.6001 17.17 32.1901 22.45 30.6601C28.04 29.0401 35.43 29.1901 41.61 30.8401C44.71 31.6601 47.63 32.9001 49.9 34.5701C52.18 36.2501 53.95 38.4801 54.39 41.3001C55.12 45.9801 54.3 53.9801 50.62 60.7901C46.86 67.7301 40.04 73.5401 28.95 73.1801C11.96 72.6201 3.67 63.8501 1.61 58.9201L1.62 58.9101ZM3.46 58.1401C5.19 62.2601 12.72 70.6401 29.02 71.1701C49.4 71.8401 53.75 50.1201 52.41 41.6001C51.07 33.0801 33.36 29.5701 23 32.5801C12.65 35.5901 0.789999 41.7701 3.46 58.1401Z" fill="#874D27"/>
<path fill-rule="evenodd" clip-rule="evenodd" d="M19.31 33.7901C19.54 33.7201 19.78 33.6501 20.01 33.5801C30.37 30.5701 48.08 34.0801 49.42 42.6001C50.51 49.5701 47.81 65.3601 35.65 70.5201C50.37 66.8601 53.6 49.1101 52.42 41.6001C51.08 33.0801 33.37 29.5701 23.01 32.5801C21.79 32.9401 20.55 33.3301 19.31 33.7901Z" fill="#874D27"/>
<path fill-rule="evenodd" clip-rule="evenodd" d="M3.46001 58.14C5.19001 62.26 12.72 70.64 29.02 71.17C30.63 71.22 32.14 71.14 33.55 70.93C19.63 69.42 13.06 61.96 11.46 58.14C8.79001 41.77 20.65 35.59 31.01 32.58C32.36 32.19 33.84 31.91 35.39 31.73C31.04 31.28 26.59 31.54 23.01 32.58C12.65 35.59 0.790014 41.77 3.46001 58.14Z" fill="#874D27"/>
<path d="M38.38 61.98C27.04 66.82 10.03 65.49 4.79997 59.97C-1.38003 53.45 2.94997 40.21 14.99 33.91C29.36 26.39 45.4 29.01 50.24 36.25C55.73 44.45 51.29 56.47 38.38 61.98Z" fill="#FFC659"/>
<path fill-rule="evenodd" clip-rule="evenodd" d="M14.99 33.9101L14.06 32.1401C21.59 28.2001 29.58 26.9001 36.38 27.5601C43.08 28.2101 49.01 30.8201 51.91 35.1401C58.36 44.7801 52.75 58.0201 39.17 63.8201C33.15 66.3901 25.74 67.2901 19.17 66.8601C15.88 66.6401 12.73 66.0901 10.03 65.2001C7.36002 64.3201 4.97002 63.0701 3.34002 61.3601C-0.439978 57.3801 -0.809978 51.5501 1.18002 46.1801C3.18002 40.7701 7.63002 35.5201 14.06 32.1501L14.99 33.9201V33.9101ZM4.80002 59.9801C10.03 65.4901 27.05 66.8301 38.38 61.9901C51.29 56.4801 55.73 44.4601 50.24 36.2601C45.39 29.0201 29.36 26.4001 14.99 33.9201C2.95002 40.2201 -1.37998 53.4601 4.80002 59.9801Z" fill="#874D27"/>
<path fill-rule="evenodd" clip-rule="evenodd" d="M4.23998 49.1699C4.78998 49.2099 5.19998 49.6899 5.15998 50.2399C5.02998 51.9799 5.34998 54.4299 6.72998 56.4899C8.07998 58.4999 10.51 60.2599 14.85 60.5399C15.4 60.5799 15.82 61.0499 15.78 61.5999C15.75 62.1499 15.27 62.5699 14.72 62.5299C9.81998 62.2099 6.78998 60.1799 5.05998 57.5999C3.36998 55.0699 2.99998 52.1399 3.15998 50.0799C3.19998 49.5299 3.67998 49.1199 4.22998 49.1599L4.23998 49.1699Z" fill="#FFC659"/>
<path fill-rule="evenodd" clip-rule="evenodd" d="M34.46 63.3601C35.82 62.9701 37.14 62.5201 38.38 61.9801C51.29 56.4701 55.73 44.4501 50.24 36.2501C45.89 29.7501 32.51 26.9701 19.42 31.9201C31.5 28.4201 43.22 31.2501 47.24 37.2501C52.73 45.4501 48.29 57.4701 35.38 62.9801C35.08 63.1101 34.77 63.2401 34.46 63.3601Z" fill="#FFC659"/>
<path d="M18.92 27.8999C20.79 25.7599 24.6 26.5099 26.27 27.1499C26.27 30.7399 16.5 36.5099 15.99 34.3299C15.48 32.1499 16.58 30.5699 18.91 27.8999H18.92Z" fill="#FFC659"/>
<path fill-rule="evenodd" clip-rule="evenodd" d="M26.99 25.28C27.76 25.58 28.27 26.32 28.27 27.15C28.27 28.85 27.19 30.37 26.21 31.44C25.14 32.61 23.76 33.7 22.4 34.58C21.06 35.45 19.61 36.18 18.37 36.55C17.78 36.72 17.03 36.88 16.3 36.78C15.91 36.73 15.42 36.59 14.96 36.24C14.47 35.87 14.16 35.35 14.03 34.79C13.27 31.5 15.15 29.16 17.4 26.59C18.88 24.9 21 24.49 22.66 24.49C24.35 24.49 25.96 24.9 26.98 25.29L26.99 25.28ZM26.27 27.15C24.6 26.51 20.79 25.76 18.92 27.9C16.58 30.57 15.5 32.16 16 34.33C16.5 36.5 26.28 30.74 26.28 27.15H26.27Z" fill="#874D27"/>
<path d="M12.49 34.9199C15.1 31.1799 18.2 32.0799 19.42 32.9999C20.01 38.4299 12.49 44.1899 11.23 43.1099C9.98002 42.0199 9.23002 39.5999 12.48 34.9199H12.49Z" fill="#FFC659"/>
<path fill-rule="evenodd" clip-rule="evenodd" d="M20.62 31.4001C21.06 31.7301 21.35 32.2301 21.41 32.7901C21.8 36.4201 19.53 39.8001 17.44 41.9101C16.35 43.0101 15.16 43.9301 14.08 44.5101C13.55 44.8001 12.96 45.0501 12.36 45.1701C11.86 45.2701 10.8 45.3801 9.93002 44.6201C8.85002 43.6801 8.09002 42.2201 8.18002 40.2701C8.27002 38.4201 9.11002 36.2801 10.85 33.7801C12.43 31.5101 14.35 30.4201 16.27 30.2201C18.1 30.0301 19.67 30.6901 20.62 31.4001ZM19.42 33.0001C18.2 32.0801 15.09 31.1801 12.49 34.9201C9.23002 39.6001 9.98002 42.0201 11.24 43.1101C12.49 44.2001 20.01 38.4301 19.43 33.0001H19.42Z" fill="#874D27"/>
<path d="M26.6 25.9601C30.41 24.8101 32.53 27.0301 33.12 28.2901C29.19 29.2501 29.86 38.8001 26.6 41.0501C23.99 42.8501 22.12 51.3701 21.5 55.4101C21.36 57.6601 20.16 62.0701 16.49 61.7501C11.9 61.3501 13.4 58.9401 9.63998 56.5401C6.62998 54.6101 7.60998 49.7501 8.46998 47.5501C7.99998 46.2701 8.27998 44.8201 8.46998 44.2601C9.26998 40.5401 12.09 40.2001 13.4 40.4901C13.4 39.4601 14.51 38.3001 15.07 37.8401C13.93 36.8801 15.54 33.7501 16.49 32.3001C18.16 29.8601 20.53 30.4301 21.5 31.0201C21.5 29.7401 21.83 27.4101 26.6 25.9701V25.9601Z" fill="#FFC659"/>
<path fill-rule="evenodd" clip-rule="evenodd" d="M34.92 29.1599C34.66 29.6999 34.17 30.0899 33.59 30.2399C33.44 30.2799 33.11 30.4299 32.68 31.2899C32.25 32.1399 31.91 33.2899 31.54 34.7099C31.49 34.9199 31.43 35.1299 31.38 35.3399C31.08 36.5099 30.74 37.8099 30.32 38.9499C29.83 40.2599 29.09 41.7799 27.74 42.6999C27.53 42.8499 27.1 43.3299 26.59 44.3699C26.11 45.3499 25.64 46.5999 25.23 47.9699C24.4 50.6799 23.81 53.6699 23.51 55.6299C23.42 56.9499 23.03 58.8899 22.07 60.5399C21.06 62.2999 19.2 63.9899 16.33 63.7399C15.01 63.6199 13.94 63.3499 13.04 62.8399C12.11 62.3099 11.55 61.6399 11.13 61.0399C10.98 60.8299 10.85 60.6199 10.72 60.4299C10.19 59.6199 9.75998 58.9699 8.57998 58.2099C6.24998 56.7199 5.64998 54.1899 5.61998 52.1599C5.59998 50.4299 5.96998 48.7199 6.38998 47.4699C6.04998 45.9399 6.31998 44.4699 6.55998 43.7299C7.08998 41.4199 8.29998 39.9099 9.82998 39.0999C10.56 38.7099 11.31 38.5099 12 38.4399C12.15 38.1799 12.3 37.9499 12.43 37.7699C12.53 37.6299 12.63 37.4999 12.74 37.3699C12.71 37.1499 12.7 36.9299 12.7 36.7399C12.71 35.9799 12.91 35.2199 13.13 34.5899C13.58 33.2999 14.31 32.0099 14.84 31.2099C14.84 31.1999 14.86 31.1899 14.86 31.1799C16.02 29.4799 17.57 28.6899 19.08 28.5399C19.4 28.5099 19.71 28.5099 20 28.5299C20.16 28.1499 20.38 27.7599 20.67 27.3699C21.69 25.9899 23.4 24.8499 26.03 24.0499C28.42 23.3299 30.45 23.6299 32.01 24.4499C33.51 25.2399 34.48 26.4499 34.94 27.4399C35.19 27.9799 35.19 28.6099 34.93 29.1499L34.92 29.1599ZM21.98 29.0099C21.57 29.7699 21.51 30.4799 21.51 31.0199C21.07 30.7499 20.34 30.4899 19.53 30.5099C18.54 30.5299 17.42 30.9699 16.5 32.2999C15.63 33.6299 14.2 36.3799 14.86 37.5599C14.92 37.6599 14.99 37.7599 15.08 37.8299C14.73 38.1199 14.15 38.6999 13.77 39.3399C13.7 39.4699 13.63 39.5999 13.58 39.7299C13.48 39.9799 13.41 40.2299 13.41 40.4799C12.99 40.3899 12.43 40.3599 11.82 40.4799C10.52 40.7399 9.02998 41.7099 8.47998 44.2499C8.28998 44.8099 8.00998 46.2599 8.47998 47.5399C7.61998 49.7299 6.63998 54.5999 9.64998 56.5299C11.21 57.5299 11.87 58.5299 12.42 59.3799C13.21 60.5899 13.81 61.4999 16.5 61.7399C20.18 62.0599 21.37 57.6499 21.51 55.3999C22.12 51.3599 24 42.8399 26.61 41.0399C28.11 40.0099 28.78 37.4199 29.45 34.8499C30.11 32.2999 30.77 29.7599 32.22 28.7099C32.49 28.5099 32.79 28.3699 33.13 28.2899C32.91 27.8099 32.46 27.1799 31.77 26.6599C30.67 25.8199 28.96 25.2499 26.61 25.9599C23.83 26.7999 22.56 27.9499 21.98 29.0099Z" fill="#874D27"/>
<path fill-rule="evenodd" clip-rule="evenodd" d="M7.63 52.5901C7.73 54.1601 8.28 55.6501 9.65 56.5301C11.21 57.5301 11.87 58.5301 12.42 59.3801C13.21 60.5901 13.81 61.5001 16.5 61.7401C20.18 62.0601 21.37 57.6501 21.51 55.4001C22.12 51.3601 24 42.8401 26.61 41.0401C28.11 40.0101 28.78 37.4201 29.45 34.8501C30.23 31.8301 31.01 28.8101 33.13 28.2901C32.81 27.6101 32.04 26.6401 30.8 26.0801C29.63 27.2801 29.04 29.5701 28.45 31.8501C27.78 34.4301 27.11 37.0101 25.61 38.0401C23 39.8401 21.13 48.3601 20.51 52.4001C20.37 54.6501 19.17 59.0601 15.5 58.7401C12.81 58.5101 12.21 57.5901 11.42 56.3801C10.86 55.5201 10.21 54.5201 8.65 53.5301C8.24 53.2701 7.9 52.9501 7.63 52.5901Z" fill="#FFC659"/>
<path d="M16.23 45.3199C16.23 46.9399 14.87 48.2599 13.2 48.2599C11.53 48.2599 10.17 46.9399 10.17 45.3199C10.17 43.6999 11.53 42.3799 13.2 42.3799C14.87 42.3799 16.23 43.6999 16.23 45.3199Z" fill="#FFC659"/>
<path d="M29.37 28.2899C30.35 29.5899 29.78 31.6599 28.11 32.9099C26.44 34.1599 24.3 34.1299 23.32 32.8299C22.34 31.5299 22.91 29.4599 24.58 28.2099C26.25 26.9599 28.39 26.9899 29.37 28.2899Z" fill="#FFC659"/>
<path d="M21.69 32.37C23.01 33.31 23.1 35.46 21.89 37.16C20.68 38.86 18.62 39.47 17.3 38.53C15.98 37.59 15.89 35.44 17.1 33.75C18.31 32.05 20.37 31.44 21.69 32.38V32.37Z" fill="#FFC659"/>
<path d="M19.58 39.0099C20.9 39.9499 20.99 42.0899 19.78 43.7899C18.57 45.4899 16.51 46.0999 15.19 45.1599C13.87 44.2199 13.78 42.0699 14.99 40.3799C16.2 38.6799 18.26 38.0699 19.58 39.0099Z" fill="#FFC659"/>
<path d="M17.26 48.6199C18.87 48.3999 20.41 49.8899 20.69 51.9599C20.98 54.0299 19.91 55.8899 18.3 56.1099C16.69 56.3299 15.15 54.8399 14.87 52.7699C14.59 50.6999 15.65 48.8499 17.26 48.6199Z" fill="#FFC659"/>
<path d="M21.43 39.9501C22.96 40.4901 23.65 42.5201 22.95 44.4901C22.26 46.4601 20.46 47.6201 18.92 47.0801C17.39 46.5401 16.7 44.5101 17.39 42.5401C18.08 40.5701 19.88 39.4101 21.42 39.9501H21.43Z" fill="#FFC659"/>
<path d="M25.63 31.63C27.16 32.17 27.85 34.2 27.16 36.17C26.47 38.14 24.67 39.3 23.13 38.76C21.6 38.22 20.91 36.19 21.61 34.22C22.3 32.25 24.1 31.09 25.64 31.63H25.63Z" fill="#FFC659"/>
<path d="M21.77 36.11C23.39 36.14 24.68 37.85 24.65 39.94C24.61 42.03 23.27 43.7 21.64 43.67C20.02 43.64 18.73 41.93 18.76 39.84C18.8 37.75 20.14 36.08 21.77 36.11Z" fill="#FFC659"/>
<path d="M15.9 51.57C15.9 53.42 14.36 54.92 12.45 54.92C10.54 54.92 9 53.42 9 51.57C9 49.72 10.55 48.22 12.45 48.22C14.35 48.22 15.9 49.72 15.9 51.57Z" fill="#FFC659"/>
<path d="M19.7 48.2699C19.7 50.1199 18.16 51.6199 16.25 51.6199C14.34 51.6199 12.8 50.1199 12.8 48.2699C12.8 46.4199 14.35 44.9199 16.25 44.9199C18.15 44.9199 19.7 46.4199 19.7 48.2699Z" fill="#FFC659"/>
<path d="M17.07 48.2101C17.07 50.0601 15.52 51.5601 13.62 51.5601C11.72 51.5601 10.17 50.0601 10.17 48.2101C10.17 46.3601 11.71 44.8601 13.62 44.8601C15.53 44.8601 17.07 46.3601 17.07 48.2101Z" fill="#FFC659"/>
<path d="M19.23 54.1601C19.23 56.0101 17.69 57.5101 15.78 57.5101C13.87 57.5101 12.33 56.0101 12.33 54.1601C12.33 52.3101 13.88 50.8101 15.78 50.8101C17.68 50.8101 19.23 52.3101 19.23 54.1601Z" fill="#FFC659"/>
<path d="M15.6 52.55C14.79 53.68 13.24 53.95 12.15 53.16C11.05 52.37 10.83 50.82 11.64 49.69C12.45 48.56 14 48.29 15.09 49.08C16.18 49.87 16.41 51.42 15.6 52.55Z" fill="#FFC659"/>
<path d="M18.9 57.14C18.09 58.27 16.54 58.54 15.45 57.75C14.36 56.96 14.13 55.41 14.94 54.28C15.75 53.15 17.3 52.88 18.39 53.67C19.49 54.46 19.71 56.01 18.9 57.14Z" fill="#FFC659"/>
<path d="M15.22 47.88C14.02 48.44 12.65 48.02 12.16 46.95C11.67 45.88 12.23 44.57 13.43 44.01C14.63 43.45 16 43.87 16.49 44.94C16.98 46.01 16.41 47.32 15.22 47.88Z" fill="#FFC659"/>
<path d="M20.79 43.68C19.65 44.9 17.99 45.2 17.08 44.35C16.17 43.5 16.35 41.82 17.49 40.6C18.63 39.38 20.29 39.08 21.2 39.93C22.11 40.78 21.93 42.46 20.79 43.68Z" fill="#FFC659"/>
<path d="M21.25 36.92C20.37 37.87 19.14 38.16 18.51 37.57C17.88 36.98 18.08 35.74 18.97 34.79C19.85 33.84 21.08 33.55 21.71 34.14C22.34 34.73 22.14 35.97 21.26 36.92H21.25Z" fill="#FFC659"/>
<path d="M38.05 27.7301C40.99 27.8601 42.28 32.6301 42.56 35.0001C45.5 37.0101 45.18 39.8501 44.65 41.0101C47.49 43.9301 44.98 47.8601 44.15 52.4601C43.31 57.0501 41.48 56.3901 36.38 59.8901C32.3 62.7001 29.34 61.7301 28.36 60.8901C27.44 61.6401 24.78 62.5901 21.51 60.3901C18.24 58.1901 20.15 54.1801 21.51 52.4501C17.84 49.1701 21.48 45.1801 23.77 43.5901C21.83 39.1101 24.97 36.7701 26.78 36.1601C25.38 31.0801 28.37 29.0901 30.04 28.7301C31.58 23.7201 36.03 25.9701 38.06 27.7301H38.05Z" fill="#FFC659"/>
<path fill-rule="evenodd" clip-rule="evenodd" d="M44.42 33.9C46.94 36.01 47.23 38.71 46.86 40.58C48.16 42.5 48.1 44.62 47.74 46.5C47.55 47.48 47.25 48.49 46.97 49.45C46.94 49.54 46.92 49.62 46.89 49.71C46.58 50.77 46.3 51.79 46.11 52.83C45.88 54.1 45.55 55.17 45.02 56.08C44.47 57.03 43.78 57.69 43 58.23C42.4 58.65 41.68 59.05 40.97 59.44C40.84 59.51 40.71 59.58 40.58 59.65C39.7 60.14 38.69 60.72 37.49 61.55C33.73 64.14 30.41 64.12 28.32 63.21C26.44 64.02 23.52 64.18 20.37 62.06C19.22 61.29 18.45 60.29 18.03 59.16C17.63 58.05 17.61 56.93 17.77 55.94C17.97 54.72 18.44 53.58 18.97 52.64C18.46 51.9 18.13 51.09 17.99 50.25C17.77 48.9 18.07 47.63 18.56 46.58C19.23 45.12 20.34 43.86 21.39 42.93C20.83 40.77 21.21 38.88 22.14 37.39C22.78 36.37 23.63 35.61 24.47 35.08C24.17 32.85 24.61 31.01 25.55 29.6C26.35 28.39 27.44 27.61 28.46 27.17C28.93 26.09 29.6 25.22 30.47 24.61C31.61 23.81 32.89 23.62 34.02 23.74C35.9 23.93 37.66 24.94 38.84 25.86C41.04 26.3 42.36 28.22 43.07 29.7C43.75 31.11 44.17 32.69 44.39 33.94L44.42 33.9ZM38.05 27.73C40.99 27.86 42.28 32.63 42.56 35C45.5 37.01 45.18 39.85 44.65 41.01C46.73 43.15 45.95 45.82 45.05 48.89C44.72 50.03 44.37 51.22 44.15 52.45C43.56 55.71 42.46 56.32 40.04 57.66C39.06 58.2 37.85 58.87 36.38 59.89C32.3 62.7 29.34 61.73 28.36 60.89C27.44 61.64 24.78 62.59 21.51 60.39C18.24 58.19 20.15 54.18 21.51 52.45C17.84 49.17 21.48 45.18 23.77 43.59C21.83 39.11 24.97 36.77 26.78 36.16C25.38 31.08 28.37 29.09 30.04 28.73C31.58 23.72 36.03 25.97 38.06 27.73H38.05Z" fill="#874D27"/>
<path fill-rule="evenodd" clip-rule="evenodd" d="M20.37 59.3C20.65 59.7 21.02 60.07 21.51 60.4C24.79 62.61 27.44 61.65 28.36 60.9C29.33 61.74 32.3 62.7 36.38 59.9C37.86 58.88 39.06 58.22 40.04 57.67C42.45 56.33 43.55 55.73 44.15 52.46C44.37 51.22 44.72 50.03 45.05 48.9C45.95 45.83 46.72 43.16 44.65 41.02C45.15 39.91 45.47 37.29 42.98 35.31C44.37 37.1 44.08 39.09 43.65 40.02C45.72 42.16 44.95 44.83 44.05 47.9C43.72 49.04 43.37 50.23 43.15 51.46C42.56 54.72 41.46 55.33 39.04 56.67C38.06 57.21 36.85 57.88 35.38 58.9C31.3 61.71 28.34 60.74 27.36 59.9C26.44 60.65 23.78 61.6 20.51 59.4C20.46 59.37 20.41 59.33 20.37 59.3ZM42.54 34.81C42.28 32.86 41.38 29.55 39.55 28.26C40.77 29.89 41.38 32.46 41.56 34C41.94 34.26 42.26 34.53 42.54 34.81Z" fill="#FFC659"/>
<path d="M35.69 33.6199C35.69 35.9499 33.91 37.8399 31.71 37.8399C29.51 37.8399 27.73 35.9499 27.73 33.6199C27.73 31.2899 29.51 29.3999 31.71 29.3999C33.91 29.3999 35.69 31.2899 35.69 33.6199Z" fill="#FFC659"/>
<path d="M29.29 55.5701C29.29 57.9001 27.51 59.7901 25.31 59.7901C23.11 59.7901 21.33 57.9001 21.33 55.5701C21.33 53.2401 23.11 51.3501 25.31 51.3501C27.51 51.3501 29.29 53.2401 29.29 55.5701Z" fill="#FFC659"/>
<path d="M33.37 42.82C32.45 45.23 29.88 46.49 27.63 45.63C25.38 44.77 24.29 42.12 25.21 39.72C26.13 37.31 28.7 36.05 30.95 36.91C33.2 37.77 34.29 40.42 33.37 42.82Z" fill="#FFC659"/>
<path d="M44.4 43.25C45.24 45.69 44.07 48.3 41.8 49.09C39.52 49.88 36.99 48.54 36.15 46.1C35.31 43.66 36.47 41.05 38.75 40.27C41.03 39.48 43.56 40.82 44.4 43.26V43.25Z" fill="#FFC659"/>
<path d="M41.27 53.12C40.82 55.66 38.53 57.37 36.16 56.95C33.79 56.53 32.23 54.13 32.68 51.59C33.13 49.05 35.42 47.34 37.79 47.76C40.16 48.18 41.72 50.58 41.27 53.12Z" fill="#FFC659"/>
<path d="M35.43 54.92C34.98 57.46 32.69 59.17 30.32 58.75C27.95 58.33 26.39 55.93 26.84 53.39C27.29 50.85 29.58 49.14 31.95 49.56C34.32 49.98 35.88 52.38 35.43 54.92Z" fill="#FFC659"/>
<path d="M42.53 39.95C42.08 42.49 39.79 44.2 37.41 43.78C35.04 43.36 33.48 40.96 33.93 38.42C34.38 35.88 36.67 34.17 39.04 34.59C41.41 35.01 42.97 37.41 42.52 39.95H42.53Z" fill="#FFC659"/>
<path d="M39.76 31.0601C40.78 32.8601 40.26 35.0801 38.61 36.0201C36.95 36.9601 34.79 36.2501 33.77 34.4501C32.75 32.6501 33.27 30.4301 34.92 29.4901C36.57 28.5501 38.74 29.2601 39.76 31.0601Z" fill="#FFC659"/>
<path d="M36.39 42.5601C37.41 44.3601 36.89 46.5801 35.24 47.5201C33.58 48.4601 31.42 47.7501 30.4 45.9501C29.38 44.1501 29.9 41.9301 31.55 40.9901C33.21 40.0501 35.37 40.7601 36.39 42.5601Z" fill="#FFC659"/>
<path d="M28.46 51.67C26.28 53.04 23.62 52.74 22.53 51.01C21.44 49.27 22.32 46.75 24.51 45.38C26.69 44.01 29.35 44.31 30.44 46.04C31.53 47.78 30.65 50.3 28.47 51.67H28.46Z" fill="#FFC659"/>
<path d="M37.06 52.7801C35.84 53.3001 34.53 52.9601 34.13 52.0301C33.73 51.0901 34.38 49.9101 35.6 49.3801C36.82 48.8601 38.13 49.2001 38.53 50.1301C38.93 51.0701 38.28 52.2501 37.06 52.7801Z" fill="#FFC659"/>
<path d="M38 39.71C36.78 40.23 35.47 39.9 35.07 38.96C34.67 38.02 35.32 36.84 36.54 36.31C37.75 35.79 39.07 36.13 39.47 37.06C39.87 37.99 39.22 39.18 38 39.71Z" fill="#FFC659"/>
<path d="M36.89 33.21C36.02 33.58 35.03 33.21 34.67 32.4C34.32 31.58 34.74 30.61 35.6 30.23C36.47 29.85 37.46 30.22 37.82 31.04C38.17 31.86 37.75 32.83 36.89 33.21Z" fill="#FFC659"/>
<path d="M25.88 55.7701C25.11 56.8401 23.81 57.2301 22.98 56.6301C22.15 56.0301 22.11 54.6801 22.88 53.6101C23.65 52.5401 24.95 52.1501 25.78 52.7501C26.61 53.3501 26.65 54.7 25.88 55.78V55.7701Z" fill="#FFC659"/>
<path d="M29.15 41.4099C28.03 42.1099 26.68 41.9799 26.14 41.1199C25.6 40.2499 26.06 38.9799 27.18 38.2799C28.3 37.5799 29.65 37.7099 30.19 38.5699C30.73 39.4399 30.27 40.7099 29.15 41.4099Z" fill="#FFC659"/>
<path d="M34.12 44.1801C33.87 45.2101 32.99 45.8801 32.14 45.6801C31.29 45.4801 30.81 44.4801 31.05 43.4501C31.3 42.4201 32.18 41.7501 33.03 41.9501C33.88 42.1501 34.36 43.1501 34.12 44.1801Z" fill="#FFC659"/>
<path d="M32.1 33.9C31.23 35.33 29.8 36.05 28.9 35.5C28 34.95 27.98 33.35 28.85 31.92C29.72 30.49 31.15 29.77 32.05 30.32C32.95 30.87 32.97 32.47 32.1 33.9Z" fill="#FFC659"/>
<path d="M31.52 53.93C30.48 54.58 29.21 54.4 28.66 53.54C28.12 52.67 28.51 51.45 29.55 50.8C30.58 50.15 31.86 50.33 32.41 51.19C32.95 52.06 32.56 53.28 31.52 53.93Z" fill="#FFC659"/>
<path d="M26.68 49.3099C25.24 50.3599 23.59 50.5399 22.98 49.7099C22.38 48.8799 23.06 47.3599 24.5 46.3199C25.94 45.2699 27.6 45.0899 28.2 45.9199C28.8 46.7499 28.12 48.2699 26.68 49.3099Z" fill="#FFC659"/>
<path d="M40.97 45.1099C40.1 46.5199 38.7 47.2299 37.82 46.6999C36.95 46.1699 36.94 44.5899 37.82 43.1799C38.69 41.7699 40.09 41.0599 40.97 41.5899C41.84 42.1199 41.85 43.6999 40.97 45.1099Z" fill="#FFC659"/>
<path fill-rule="evenodd" clip-rule="evenodd" d="M31.63 30.6801C31.97 31.1101 31.9 31.7401 31.47 32.0801C31.18 32.3101 30.48 33.0501 30.26 33.9201C30.12 34.4501 29.57 34.7701 29.04 34.6301C28.51 34.4901 28.19 33.9501 28.32 33.4101C28.69 31.9801 29.73 30.9001 30.23 30.5001C30.66 30.1601 31.29 30.2301 31.63 30.6601V30.6801Z" fill="#FFC659"/>
<path fill-rule="evenodd" clip-rule="evenodd" d="M27.23 46.7101C27.39 47.2401 27.09 47.8001 26.56 47.9501C26.2 48.0601 25.28 48.4901 24.75 49.2101C24.42 49.6601 23.8 49.7501 23.35 49.4201C22.9 49.0901 22.81 48.4701 23.14 48.0201C24.02 46.8301 25.38 46.2101 25.99 46.0301C26.52 45.8701 27.08 46.1701 27.23 46.7001V46.7101Z" fill="#FFC659"/>
<path fill-rule="evenodd" clip-rule="evenodd" d="M14.45 45.16H14.44C14.44 45.16 14.41 45.21 14.38 45.24C14.33 45.31 14.24 45.41 14.15 45.55C13.96 45.83 13.74 46.22 13.61 46.7C13.46 47.23 12.91 47.54 12.38 47.39C11.85 47.24 11.54 46.69 11.69 46.16C11.9 45.42 12.23 44.83 12.5 44.43C12.64 44.23 12.77 44.07 12.86 43.95C12.91 43.89 12.95 43.85 12.98 43.82C13 43.8 13.01 43.79 13.02 43.78H13.03V43.76C13.03 43.76 13.2667 43.9967 13.74 44.47L13.03 43.76C13.42 43.37 14.05 43.37 14.44 43.76C14.83 44.15 14.83 44.78 14.44 45.17L14.45 45.16Z" fill="#FFC659"/>
<path fill-rule="evenodd" clip-rule="evenodd" d="M21.03 35.2199H21.02C21.02 35.2199 20.98 35.2599 20.94 35.2799C20.87 35.3299 20.76 35.4099 20.64 35.5199C20.39 35.7399 20.08 36.0699 19.84 36.5099C19.57 36.9899 18.95 37.1599 18.48 36.8799C18 36.5999 17.83 35.9899 18.11 35.5099C18.49 34.8399 18.95 34.3499 19.32 34.0299C19.5 33.8699 19.67 33.7399 19.79 33.6499C19.85 33.6099 19.9 33.5699 19.94 33.5499C19.96 33.5399 19.97 33.5299 19.99 33.5199H20.01V33.5099C20.01 33.5099 20.1833 33.7966 20.53 34.3699L20.02 33.5099C20.49 33.2299 21.11 33.3799 21.39 33.8499C21.67 34.3199 21.52 34.9299 21.05 35.2199H21.03Z" fill="#FFC659"/>
<path fill-rule="evenodd" clip-rule="evenodd" d="M40.11 41.8501C40.5 42.2501 40.49 42.8801 40.09 43.2601C39.82 43.5201 39.21 44.3301 39.07 45.2201C38.99 45.7701 38.48 46.1401 37.93 46.0601C37.38 45.9801 37.01 45.4701 37.09 44.9201C37.31 43.4601 38.23 42.2701 38.69 41.8301C39.09 41.4401 39.72 41.4501 40.1 41.8501H40.11Z" fill="#FFC659"/>
</g>
<defs>
<clipPath id="clip0_214_525">
<rect width="86" height="79" fill="white"/>
</clipPath>
</defs>
</svg>
