<svg width="124" height="123" viewBox="0 0 124 123" fill="none" xmlns="http://www.w3.org/2000/svg">
<path d="M6 61C6 29.7959 31.2959 4.5 62.5 4.5C93.7041 4.5 119 29.7959 119 61C119 92.2041 93.7041 117.5 62.5 117.5C31.2959 117.5 6 92.2041 6 61Z" fill="#FB3A66"/>
<path d="M68.719 5.36375L68.1688 9.32572L68.719 5.36375ZM81.3722 6.50109L83.7282 3.26855L81.3722 6.50109ZM83.1482 7.79545L85.5042 4.56291L83.1482 7.79545ZM84.9241 9.08982L82.5681 12.3224L84.9241 9.08982ZM88.7543 11.0555L89.9969 7.25344L88.7543 11.0555ZM92.8629 12.3983L94.1055 8.59616L92.8629 12.3983ZM96.4061 14.616L93.5246 17.3903L96.4061 14.616ZM99.3838 17.7086L102.265 14.9342L99.3838 17.7086ZM102.641 20.5257L104.975 17.2772L102.641 20.5257ZM104.41 21.7965L102.076 25.0449L104.41 21.7965ZM106.179 23.0673L103.845 26.3157L106.179 23.0673ZM109.274 26.0664L106.101 28.5019L109.274 26.0664ZM111.927 29.5232L115.1 27.0877L111.927 29.5232ZM113.432 33.5275L117.42 33.2152L113.432 33.5275ZM113.61 35.8035L109.622 36.1158L113.61 35.8035ZM113.789 38.0795L117.776 37.7672L113.789 38.0795ZM114.32 42.381L118.261 41.6935L114.32 42.381ZM114.674 44.4065L110.733 45.094L114.674 44.4065ZM115.027 46.432L111.086 47.1195L115.027 46.432ZM115.995 50.4253L119.813 49.2331L115.995 50.4253ZM117.224 54.3607L113.405 55.553L117.224 54.3607ZM117.852 58.3924L113.852 58.42L117.852 58.3924ZM117.881 62.5203L121.881 62.4927L117.881 62.5203ZM118.333 66.7813L114.411 67.5639L118.333 66.7813ZM118.772 68.9785L114.849 69.7611L118.772 68.9785ZM119.21 71.1756L123.133 70.393L119.21 71.1756ZM116.541 76.8268L119.515 79.5021L116.541 76.8268ZM114.987 78.5538L112.013 75.8785L114.987 78.5538ZM111.87 84.0268L115.562 85.5673L111.87 84.0268ZM111.089 85.8998L107.397 84.3593L111.089 85.8998ZM109.315 89.571L112.817 91.5034L109.315 89.571ZM107.33 93.1674L103.828 91.235L107.33 93.1674ZM105.31 96.8618L108.826 98.7692L105.31 96.8618ZM103.252 100.654L99.7363 98.7467L103.252 100.654ZM100.538 103.853L98.0919 100.688L100.538 103.853ZM97.1656 106.458L94.72 103.293L97.1656 106.458ZM93.3903 108.323L94.429 112.186L93.3903 108.323ZM89.2115 109.447L88.1728 105.584L89.2115 109.447ZM85.4627 111.463L82.8256 108.456L85.4627 111.463ZM82.1438 114.374L84.7808 117.381L82.1438 114.374ZM78.4422 116.567L79.8025 120.329L78.4422 116.567ZM74.3581 118.044L72.9979 114.282L74.3581 118.044ZM70.1287 117.882L68.6069 121.582L70.1287 117.882ZM67.9413 116.983L66.4195 120.682L67.9413 116.983ZM65.7539 116.083L67.2757 112.384L65.7539 116.083ZM61.456 115.837L62.6403 119.658L61.456 115.837ZM59.3456 116.491L58.1613 112.671L59.3456 116.491ZM57.2351 117.145L58.4194 120.966L57.2351 117.145ZM52.9674 117.632L53.2779 113.644L52.9674 117.632ZM50.8102 117.464L50.4997 121.452L50.8102 117.464ZM48.653 117.296L48.9635 113.308L48.653 117.296ZM44.632 116.006L46.6954 112.579L44.632 116.006ZM40.9045 113.761L38.8412 117.188L40.9045 113.761ZM37.3565 111.377L39.755 108.176L37.3565 111.377ZM35.6722 110.115L38.0707 106.914L35.6722 110.115ZM33.9879 108.853L31.5895 112.054L33.9879 108.853ZM30.272 106.785L28.7964 110.503L30.272 106.785ZM23.1434 102.435L19.6172 104.324L23.1434 102.435ZM21.0757 98.5744L24.6019 96.686L21.0757 98.5744ZM18.9185 94.9244L22.2671 92.7366L18.9185 94.9244ZM17.7951 93.2049L21.1437 91.0171L17.7951 93.2049ZM16.6716 91.4854L13.323 93.6733L16.6716 91.4854ZM13.95 88.2296L16.722 85.3459L13.95 88.2296ZM12.3517 86.6933L9.57969 89.577L12.3517 86.6933ZM10.7535 85.1569L13.5255 82.2732L10.7535 85.1569ZM8.58796 79.3355L4.62256 79.8604L8.58796 79.3355ZM7.00038 73.0613L3.44134 74.887L7.00038 73.0613ZM4.9597 69.0832L8.51874 67.2575L4.9597 69.0832ZM5.02044 64.9599L8.58877 66.7674L5.02044 64.9599ZM7.18262 60.6914L3.61429 58.8839L7.18262 60.6914ZM9.3574 46.3601L5.38629 45.8802L9.3574 46.3601ZM10.6323 40.311L6.92162 38.8173L10.6323 40.311ZM11.4094 38.3803L15.1201 39.874L11.4094 38.3803ZM13.9097 32.6301L10.3332 30.8389L13.9097 32.6301ZM15.8017 28.8525L19.3782 30.6437L15.8017 28.8525ZM22.0304 23.2919L19.7475 20.0073L22.0304 23.2919ZM25.4406 20.8781L27.7808 24.1221L25.4406 20.8781ZM27.0899 19.6883L24.7497 16.4443L27.0899 19.6883ZM33.4589 14.5237L30.7715 11.5609L33.4589 14.5237ZM34.9941 13.1311L37.6815 16.0939L34.9941 13.1311ZM38.4815 11.0757L37.1953 7.28814L38.4815 11.0757ZM46.2575 8.28269L44.7118 4.59342L46.2575 8.28269ZM60.8747 5.49862L62.9687 8.90674L60.8747 5.49862ZM61.9582 4.83287L59.8642 1.42476L61.9582 4.83287ZM66.646 5.07583L66.0957 9.0378L68.1688 9.32572L68.719 5.36375L69.2693 1.40178L67.1963 1.11386L66.646 5.07583ZM68.719 5.36375L68.1688 9.32572C69.8127 9.55404 71.4896 9.62151 73.195 9.53533L72.9931 5.54043L72.7912 1.54553C71.5618 1.60766 70.3894 1.55735 69.2693 1.40178L68.719 5.36375ZM72.9931 5.54043L73.195 9.53533L75.3961 9.4241L75.1942 5.42919L74.9923 1.43429L72.7912 1.54553L72.9931 5.54043ZM75.1942 5.42919L75.3961 9.4241L77.5971 9.31286L77.3952 5.31796L77.1934 1.32306L74.9923 1.43429L75.1942 5.42919ZM77.3952 5.31796L77.5971 9.31286C78.1526 9.28479 78.5748 9.41189 79.0163 9.73362L81.3722 6.50109L83.7282 3.26855C81.8018 1.86447 79.5726 1.20281 77.1934 1.32306L77.3952 5.31796ZM81.3722 6.50109L79.0163 9.73362L80.7922 11.028L83.1482 7.79545L85.5042 4.56291L83.7282 3.26855L81.3722 6.50109ZM83.1482 7.79545L80.7922 11.028L82.5681 12.3224L84.9241 9.08982L87.2801 5.85728L85.5042 4.56291L83.1482 7.79545ZM84.9241 9.08982L82.5681 12.3224C84.0853 13.4281 85.7368 14.2776 87.5118 14.8577L88.7543 11.0555L89.9969 7.25344C89.0328 6.93837 88.1309 6.47734 87.2801 5.85728L84.9241 9.08982ZM88.7543 11.0555L87.5118 14.8577L89.5661 15.529L90.8086 11.7269L92.0512 7.9248L89.9969 7.25344L88.7543 11.0555ZM90.8086 11.7269L89.5661 15.529L91.6204 16.2004L92.8629 12.3983L94.1055 8.59616L92.0512 7.9248L90.8086 11.7269ZM92.8629 12.3983L91.6204 16.2004C92.3722 16.4461 92.9893 16.8343 93.5246 17.3903L96.4061 14.616L99.2876 11.8416C97.8378 10.3358 96.0928 9.24562 94.1055 8.59616L92.8629 12.3983ZM96.4061 14.616L93.5246 17.3903L95.0135 18.9366L97.895 16.1623L100.776 13.3879L99.2876 11.8416L96.4061 14.616ZM97.895 16.1623L95.0135 18.9366L96.5023 20.483L99.3838 17.7086L102.265 14.9342L100.776 13.3879L97.895 16.1623ZM99.3838 17.7086L96.5023 20.483C97.6651 21.6906 98.9346 22.7879 100.307 23.7741L102.641 20.5257L104.975 17.2772C103.99 16.5691 103.088 15.7883 102.265 14.9342L99.3838 17.7086ZM102.641 20.5257L100.307 23.7741L102.076 25.0449L104.41 21.7965L106.744 18.548L104.975 17.2772L102.641 20.5257ZM104.41 21.7965L102.076 25.0449L103.845 26.3157L106.179 23.0673L108.513 19.8188L106.744 18.548L104.41 21.7965ZM106.179 23.0673L103.845 26.3157C104.706 26.9343 105.455 27.6601 106.101 28.5019L109.274 26.0664L112.447 23.6309C111.324 22.1682 110.01 20.8946 108.513 19.8188L106.179 23.0673ZM109.274 26.0664L106.101 28.5019L107.428 30.2303L110.601 27.7948L113.774 25.3593L112.447 23.6309L109.274 26.0664ZM110.601 27.7948L107.428 30.2303L108.754 31.9587L111.927 29.5232L115.1 27.0877L113.774 25.3593L110.601 27.7948ZM111.927 29.5232L108.754 31.9587C109.144 32.4667 109.383 33.0553 109.444 33.8398L113.432 33.5275L117.42 33.2152C117.244 30.9651 116.479 28.8841 115.1 27.0877L111.927 29.5232ZM113.432 33.5275L109.444 33.8398L109.622 36.1158L113.61 35.8035L117.598 35.4912L117.42 33.2152L113.432 33.5275ZM113.61 35.8035L109.622 36.1158L109.801 38.3918L113.789 38.0795L117.776 37.7672L117.598 35.4912L113.61 35.8035ZM113.789 38.0795L109.801 38.3918C109.928 40.0213 110.12 41.5812 110.38 43.0685L114.32 42.381L118.261 41.6935C118.049 40.48 117.886 39.1723 117.776 37.7672L113.789 38.0795ZM114.32 42.381L110.38 43.0685L110.733 45.094L114.674 44.4065L118.614 43.719L118.261 41.6935L114.32 42.381ZM114.674 44.4065L110.733 45.094L111.086 47.1195L115.027 46.432L118.967 45.7445L118.614 43.719L114.674 44.4065ZM115.027 46.432L111.086 47.1195C111.352 48.641 111.715 50.1407 112.177 51.6175L115.995 50.4253L119.813 49.2331C119.455 48.0862 119.173 46.9237 118.967 45.7445L115.027 46.432ZM115.995 50.4253L112.177 51.6175L112.791 53.5852L116.609 52.393L120.427 51.2008L119.813 49.2331L115.995 50.4253ZM116.609 52.393L112.791 53.5852L113.405 55.553L117.224 54.3607L121.042 53.1685L120.427 51.2008L116.609 52.393ZM117.224 54.3607L113.405 55.553C113.697 56.4872 113.846 57.4386 113.852 58.42L117.852 58.3924L121.852 58.3648C121.84 56.5943 121.569 54.8579 121.042 53.1685L117.224 54.3607ZM117.852 58.3924L113.852 58.42L113.867 60.4839L117.866 60.4563L121.866 60.4287L121.852 58.3648L117.852 58.3924ZM117.866 60.4563L113.867 60.4839L113.881 62.5479L117.881 62.5203L121.881 62.4927L121.866 60.4287L117.866 60.4563ZM117.881 62.5203L113.881 62.5479C113.892 64.1979 114.073 65.8715 114.411 67.5639L118.333 66.7813L122.256 65.9988C122.009 64.7617 121.888 63.5946 121.881 62.4927L117.881 62.5203ZM118.333 66.7813L114.411 67.5639L114.849 69.7611L118.772 68.9785L122.694 68.1959L122.256 65.9988L118.333 66.7813ZM118.772 68.9785L114.849 69.7611L115.287 71.9582L119.21 71.1756L123.133 70.393L122.694 68.1959L118.772 68.9785ZM119.21 71.1756L115.287 71.9582C115.306 72.0516 115.307 72.1065 115.306 72.1301C115.306 72.152 115.303 72.1597 115.303 72.1616C115.302 72.1639 115.297 72.1821 115.275 72.2199C115.253 72.2593 115.207 72.3284 115.121 72.4245L118.095 75.0998L121.068 77.7751C122.912 75.726 123.682 73.1482 123.133 70.393L119.21 71.1756ZM118.095 75.0998L115.121 72.4245L113.567 74.1515L116.541 76.8268L119.515 79.5021L121.068 77.7751L118.095 75.0998ZM116.541 76.8268L113.567 74.1515L112.013 75.8785L114.987 78.5538L117.961 81.2291L119.515 79.5021L116.541 76.8268ZM114.987 78.5538L112.013 75.8785C110.719 77.3172 109.678 78.8933 108.96 80.6133L112.652 82.1538L116.343 83.6943C116.668 82.917 117.184 82.093 117.961 81.2291L114.987 78.5538ZM112.652 82.1538L108.96 80.6133L108.179 82.4863L111.87 84.0268L115.562 85.5673L116.343 83.6943L112.652 82.1538ZM111.87 84.0268L108.179 82.4863L107.397 84.3593L111.089 85.8998L114.78 87.4403L115.562 85.5673L111.87 84.0268ZM111.089 85.8998L107.397 84.3593C106.933 85.4724 106.405 86.5654 105.813 87.6386L109.315 89.571L112.817 91.5034C113.548 90.179 114.202 88.8245 114.78 87.4403L111.089 85.8998ZM109.315 89.571L105.813 87.6386L104.82 89.4368L108.323 91.3692L111.825 93.3016L112.817 91.5034L109.315 89.571ZM108.323 91.3692L104.82 89.4368L103.828 91.235L107.33 93.1674L110.833 95.0998L111.825 93.3016L108.323 91.3692ZM107.33 93.1674L103.828 91.235C103.162 92.4425 102.484 93.6823 101.794 94.9544L105.31 96.8618L108.826 98.7692C109.507 97.513 110.176 96.2899 110.833 95.0998L107.33 93.1674ZM105.31 96.8618L101.794 94.9544L100.765 96.8505L104.281 98.7579L107.797 100.665L108.826 98.7692L105.31 96.8618ZM104.281 98.7579L100.765 96.8505L99.7363 98.7467L103.252 100.654L106.768 102.561L107.797 100.665L104.281 98.7579ZM103.252 100.654L99.7363 98.7467C99.3125 99.5279 98.7699 100.164 98.0919 100.688L100.538 103.853L102.983 107.018C104.553 105.805 105.82 104.308 106.768 102.561L103.252 100.654ZM100.538 103.853L98.0919 100.688L96.406 101.99L98.8516 105.156L101.297 108.321L102.983 107.018L100.538 103.853ZM98.8516 105.156L96.406 101.99L94.72 103.293L97.1656 106.458L99.6113 109.624L101.297 108.321L98.8516 105.156ZM97.1656 106.458L94.72 103.293C94.0208 103.833 93.2421 104.221 92.3515 104.46L93.3903 108.323L94.429 112.186C96.3243 111.676 98.0624 110.82 99.6113 109.624L97.1656 106.458ZM93.3903 108.323L92.3515 104.46L90.2621 105.022L91.3009 108.885L92.3397 112.748L94.429 112.186L93.3903 108.323ZM91.3009 108.885L90.2621 105.022L88.1728 105.584L89.2115 109.447L90.2503 113.309L92.3397 112.748L91.3009 108.885ZM89.2115 109.447L88.1728 105.584C86.1765 106.121 84.3827 107.091 82.8256 108.456L85.4627 111.463L88.0998 114.471C88.7553 113.896 89.4607 113.522 90.2503 113.309L89.2115 109.447ZM85.4627 111.463L82.8256 108.456L81.1661 109.911L83.8032 112.919L86.4403 115.926L88.0998 114.471L85.4627 111.463ZM83.8032 112.919L81.1661 109.911L79.5067 111.366L82.1438 114.374L84.7808 117.381L86.4403 115.926L83.8032 112.919ZM82.1438 114.374L79.5067 111.366C78.769 112.013 77.9667 112.485 77.082 112.805L78.4422 116.567L79.8025 120.329C81.6405 119.664 83.3059 118.674 84.7808 117.381L82.1438 114.374ZM78.4422 116.567L77.082 112.805L75.0399 113.544L76.4002 117.305L77.7604 121.067L79.8025 120.329L78.4422 116.567ZM76.4002 117.305L75.0399 113.544L72.9979 114.282L74.3581 118.044L75.7183 121.805L77.7604 121.067L76.4002 117.305ZM74.3581 118.044L72.9979 114.282C72.6583 114.405 72.2782 114.441 71.6504 114.183L70.1287 117.882L68.6069 121.582C70.8956 122.523 73.3351 122.667 75.7183 121.805L74.3581 118.044ZM70.1287 117.882L71.6504 114.183L69.463 113.283L67.9413 116.983L66.4195 120.682L68.6069 121.582L70.1287 117.882ZM67.9413 116.983L69.463 113.283L67.2757 112.384L65.7539 116.083L64.2321 119.782L66.4195 120.682L67.9413 116.983ZM65.7539 116.083L67.2757 112.384C65.0223 111.457 62.6326 111.285 60.2717 112.016L61.456 115.837L62.6403 119.658C63.0934 119.517 63.569 119.509 64.2321 119.782L65.7539 116.083ZM61.456 115.837L60.2717 112.016L58.1613 112.671L59.3456 116.491L60.5299 120.312L62.6403 119.658L61.456 115.837ZM59.3456 116.491L58.1613 112.671L56.0508 113.325L57.2351 117.145L58.4194 120.966L60.5299 120.312L59.3456 116.491ZM57.2351 117.145L56.0508 113.325C55.1166 113.614 54.2009 113.716 53.2779 113.644L52.9674 117.632L52.6569 121.62C54.6102 121.772 56.5397 121.549 58.4194 120.966L57.2351 117.145ZM52.9674 117.632L53.2779 113.644L51.1207 113.476L50.8102 117.464L50.4997 121.452L52.6569 121.62L52.9674 117.632ZM50.8102 117.464L51.1207 113.476L48.9635 113.308L48.653 117.296L48.3425 121.284L50.4997 121.452L50.8102 117.464ZM48.653 117.296L48.9635 113.308C48.1488 113.244 47.4082 113.008 46.6954 112.579L44.632 116.006L42.5687 119.432C44.3409 120.499 46.2809 121.123 48.3425 121.284L48.653 117.296ZM44.632 116.006L46.6954 112.579L44.8316 111.457L42.7683 114.883L40.7049 118.31L42.5687 119.432L44.632 116.006ZM42.7683 114.883L44.8316 111.457L42.9679 110.334L40.9045 113.761L38.8412 117.188L40.7049 118.31L42.7683 114.883ZM40.9045 113.761L42.9679 110.334C41.8369 109.653 40.7664 108.934 39.755 108.176L37.3565 111.377L34.958 114.578C36.1923 115.503 37.4871 116.373 38.8412 117.188L40.9045 113.761ZM37.3565 111.377L39.755 108.176L38.0707 106.914L35.6722 110.115L33.2738 113.316L34.958 114.578L37.3565 111.377ZM35.6722 110.115L38.0707 106.914L36.3864 105.652L33.9879 108.853L31.5895 112.054L33.2738 113.316L35.6722 110.115ZM33.9879 108.853L36.3864 105.652C34.9694 104.59 33.4185 103.73 31.7477 103.067L30.272 106.785L28.7964 110.503C29.8344 110.915 30.7608 111.433 31.5895 112.054L33.9879 108.853ZM30.272 106.785L31.7477 103.067L29.716 102.261L28.2404 105.978L26.7648 109.696L28.7964 110.503L30.272 106.785ZM28.2404 105.978L29.716 102.261L27.6844 101.454L26.2088 105.172L24.7332 108.89L26.7648 109.696L28.2404 105.978ZM26.2088 105.172L27.6844 101.454C27.2099 101.266 26.9136 101.003 26.6695 100.547L23.1434 102.435L19.6172 104.324C20.7515 106.442 22.4989 108.003 24.7332 108.89L26.2088 105.172ZM23.1434 102.435L26.6695 100.547L25.6357 98.6164L22.1095 100.505L18.5834 102.393L19.6172 104.324L23.1434 102.435ZM22.1095 100.505L25.6357 98.6164L24.6019 96.686L21.0757 98.5744L17.5495 100.463L18.5834 102.393L22.1095 100.505ZM21.0757 98.5744L24.6019 96.686C23.8615 95.3033 23.0836 93.9863 22.2671 92.7366L18.9185 94.9244L15.5698 97.1123C16.2513 98.1553 16.9116 99.2715 17.5495 100.463L21.0757 98.5744ZM18.9185 94.9244L22.2671 92.7366L21.1437 91.0171L17.7951 93.2049L14.4464 95.3928L15.5698 97.1123L18.9185 94.9244ZM17.7951 93.2049L21.1437 91.0171L20.0203 89.2976L16.6716 91.4854L13.323 93.6733L14.4464 95.3928L17.7951 93.2049ZM16.6716 91.4854L20.0203 89.2976C19.0935 87.8792 17.9883 86.5631 16.722 85.3459L13.95 88.2296L11.1779 91.1133C12.0427 91.9446 12.7518 92.7991 13.323 93.6733L16.6716 91.4854ZM13.95 88.2296L16.722 85.3459L15.1237 83.8095L12.3517 86.6933L9.57969 89.577L11.1779 91.1133L13.95 88.2296ZM12.3517 86.6933L15.1237 83.8095L13.5255 82.2732L10.7535 85.1569L7.98144 88.0406L9.57969 89.577L12.3517 86.6933ZM10.7535 85.1569L13.5255 82.2732C13.0953 81.8597 12.9038 81.4579 12.837 80.9531L8.87159 81.478L4.90618 82.003C5.21752 84.3549 6.28057 86.4057 7.98144 88.0406L10.7535 85.1569ZM8.87159 81.478L12.837 80.9531L12.5534 78.8106L8.58796 79.3355L4.62256 79.8604L4.90618 82.003L8.87159 81.478ZM8.58796 79.3355L12.5534 78.8106L12.2697 76.668L8.30434 77.1929L4.33893 77.7178L4.62256 79.8604L8.58796 79.3355ZM8.30434 77.1929L12.2697 76.668C12.0186 74.7705 11.4412 72.9546 10.5594 71.2356L7.00038 73.0613L3.44134 74.887C3.91997 75.8201 4.21196 76.7587 4.33893 77.7178L8.30434 77.1929ZM7.00038 73.0613L10.5594 71.2356L9.53908 69.2466L5.98004 71.0723L2.421 72.898L3.44134 74.887L7.00038 73.0613ZM5.98004 71.0723L9.53908 69.2466L8.51874 67.2575L4.9597 69.0832L1.40066 70.909L2.421 72.898L5.98004 71.0723ZM4.9597 69.0832L8.51874 67.2575C8.4812 67.1843 8.46962 67.1428 8.46651 67.13C8.46374 67.1187 8.46428 67.1169 8.46428 67.1168C8.46429 67.1159 8.46436 67.0933 8.47788 67.0422C8.4919 66.9893 8.52245 66.8983 8.58877 66.7674L5.02044 64.9599L1.45211 63.1524C0.200128 65.6241 0.0893412 68.3527 1.40066 70.909L4.9597 69.0832ZM5.02044 64.9599L8.58877 66.7674L9.66986 64.6331L6.10153 62.8256L2.5332 61.0182L1.45211 63.1524L5.02044 64.9599ZM6.10153 62.8256L9.66986 64.6331L10.7509 62.4989L7.18262 60.6914L3.61429 58.8839L2.5332 61.0182L6.10153 62.8256ZM7.18262 60.6914L10.7509 62.4989C11.668 60.6885 12.2572 58.792 12.4019 56.8318L8.41271 56.5375L4.42355 56.2432C4.3695 56.9758 4.13873 57.8485 3.61429 58.8839L7.18262 60.6914ZM8.41271 56.5375L12.4019 56.8318L12.5509 54.8121L8.56171 54.5178L4.57255 54.2235L4.42355 56.2432L8.41271 56.5375ZM8.56171 54.5178L12.5509 54.8121L12.6999 52.7925L8.71071 52.4982L4.72155 52.2039L4.57255 54.2235L8.56171 54.5178ZM8.71071 52.4982L12.6999 52.7925C12.7945 51.5096 12.921 50.2118 13.0797 48.8992L9.10855 48.4194L5.13744 47.9395C4.96427 49.3725 4.82556 50.794 4.72155 52.2039L8.71071 52.4982ZM9.10855 48.4194L13.0797 48.8992L13.3285 46.84L9.3574 46.3601L5.38629 45.8802L5.13744 47.9395L9.10855 48.4194ZM9.3574 46.3601L13.3285 46.84L13.5774 44.7808L9.60625 44.3009L5.63514 43.821L5.38629 45.8802L9.3574 46.3601ZM9.60625 44.3009L13.5774 44.7808C13.7011 43.7571 13.9552 42.7679 14.3429 41.8047L10.6323 40.311L6.92162 38.8173C6.2731 40.4284 5.84322 42.0991 5.63514 43.821L9.60625 44.3009ZM10.6323 40.311L14.3429 41.8047L15.1201 39.874L11.4094 38.3803L7.69879 36.8866L6.92162 38.8173L10.6323 40.311ZM11.4094 38.3803L15.1201 39.874L15.8973 37.9433L12.1866 36.4496L8.47596 34.956L7.69879 36.8866L11.4094 38.3803ZM12.1866 36.4496L15.8973 37.9433C16.3741 36.7586 16.9036 35.5847 17.4863 34.4214L13.9097 32.6301L10.3332 30.8389C9.65457 32.194 9.03532 33.5664 8.47596 34.956L12.1866 36.4496ZM13.9097 32.6301L17.4863 34.4214L18.4322 32.5326L14.8557 30.7413L11.2792 28.9501L10.3332 30.8389L13.9097 32.6301ZM14.8557 30.7413L18.4322 32.5326L19.3782 30.6437L15.8017 28.8525L12.2251 27.0613L11.2792 28.9501L14.8557 30.7413ZM15.8017 28.8525L19.3782 30.6437C19.7046 29.9921 20.1581 29.4645 20.7915 29.0243L18.5086 25.7398L16.2256 22.4552C14.5111 23.6469 13.16 25.1946 12.2251 27.0613L15.8017 28.8525ZM18.5086 25.7398L20.7915 29.0243L22.5524 27.8003L20.2695 24.5158L17.9865 21.2313L16.2256 22.4552L18.5086 25.7398ZM20.2695 24.5158L22.5524 27.8003L24.3134 26.5764L22.0304 23.2919L19.7475 20.0073L17.9865 21.2313L20.2695 24.5158ZM22.0304 23.2919L24.3134 26.5764C25.5055 25.7478 26.6614 24.9297 27.7808 24.1221L25.4406 20.8781L23.1004 17.6341C22.0209 18.4129 20.9032 19.204 19.7475 20.0073L22.0304 23.2919ZM25.4406 20.8781L27.7808 24.1221L29.4301 22.9323L27.0899 19.6883L24.7497 16.4443L23.1004 17.6341L25.4406 20.8781ZM27.0899 19.6883L29.4301 22.9323L31.0794 21.7425L28.7392 18.4985L26.399 15.2545L24.7497 16.4443L27.0899 19.6883ZM28.7392 18.4985L31.0794 21.7425C32.3021 20.8604 33.4793 19.9055 34.6111 18.8789L31.9237 15.9162L29.2363 12.9534C28.3211 13.7836 27.3753 14.5502 26.399 15.2545L28.7392 18.4985ZM31.9237 15.9162L34.6111 18.8789L36.1463 17.4864L33.4589 14.5237L30.7715 11.5609L29.2363 12.9534L31.9237 15.9162ZM33.4589 14.5237L36.1463 17.4864L37.6815 16.0939L34.9941 13.1311L32.3067 10.1684L30.7715 11.5609L33.4589 14.5237ZM34.9941 13.1311L37.6815 16.0939C38.3015 15.5315 38.9877 15.1282 39.7677 14.8633L38.4815 11.0757L37.1953 7.28814C35.3724 7.90716 33.7336 8.87411 32.3067 10.1684L34.9941 13.1311ZM38.4815 11.0757L39.7677 14.8633L41.7198 14.2004L40.4336 10.4128L39.1474 6.62523L37.1953 7.28814L38.4815 11.0757ZM40.4336 10.4128L41.7198 14.2004L43.6719 13.5375L42.3858 9.74989L41.0996 5.96232L39.1474 6.62523L40.4336 10.4128ZM42.3858 9.74989L43.6719 13.5375C45.0618 13.0655 46.439 12.5436 47.8033 11.972L46.2575 8.28269L44.7118 4.59342C43.5166 5.0942 42.3125 5.55042 41.0996 5.96232L42.3858 9.74989ZM46.2575 8.28269L47.8033 11.972L49.7229 11.1677L48.1772 7.4784L46.6314 3.78913L44.7118 4.59342L46.2575 8.28269ZM48.1772 7.4784L49.7229 11.1677L51.6425 10.3634L50.0968 6.67411L48.551 2.98484L46.6314 3.78913L48.1772 7.4784ZM50.0968 6.67411L51.6425 10.3634C52.439 10.0297 53.253 9.86416 54.114 9.86019L54.0955 5.86023L54.0771 1.86028C52.1659 1.86908 50.3141 2.24616 48.551 2.98484L50.0968 6.67411ZM54.0955 5.86023L54.114 9.86019L56.1931 9.85061L56.1746 5.85066L56.1562 1.8507L54.0771 1.86028L54.0955 5.86023ZM56.1746 5.85066L56.1931 9.85061L58.2722 9.84103L58.2538 5.84108L58.2353 1.84112L56.1562 1.8507L56.1746 5.85066ZM58.2538 5.84108L58.2722 9.84103C59.0494 9.83745 59.7984 9.80429 60.4668 9.71696C60.988 9.64885 62.0218 9.48849 62.9687 8.90674L60.8747 5.49862L58.7807 2.09051C58.9709 1.97362 59.1316 1.90195 59.2345 1.86094C59.3399 1.81893 59.4182 1.79588 59.4573 1.78524C59.5289 1.76575 59.5308 1.77126 59.4303 1.78439C59.3369 1.79659 59.1916 1.8107 58.9842 1.82176C58.779 1.83271 58.5307 1.83976 58.2353 1.84112L58.2538 5.84108ZM60.8747 5.49862L62.9687 8.90674L63.5104 8.57386L61.4164 5.16575L59.3225 1.75764L58.7807 2.09051L60.8747 5.49862ZM61.4164 5.16575L63.5104 8.57386L64.0522 8.24099L61.9582 4.83287L59.8642 1.42476L59.3225 1.75764L61.4164 5.16575ZM61.9582 4.83287L64.0522 8.24099C63.805 8.39286 63.5865 8.48342 63.4328 8.53693C63.2774 8.59105 63.1543 8.61901 63.0797 8.63336C62.9395 8.6603 62.8825 8.65579 62.9516 8.65461C63.0112 8.65358 63.1294 8.65559 63.3191 8.67048C63.5057 8.68514 63.7386 8.71042 64.0227 8.74989L64.573 4.78792L65.1233 0.825947C64.3333 0.716232 63.5418 0.643276 62.814 0.655789C62.2722 0.665106 61.0216 0.713671 59.8642 1.42476L61.9582 4.83287ZM64.573 4.78792L64.0227 8.74989L66.0957 9.0378L66.646 5.07583L67.1963 1.11386L65.1233 0.825947L64.573 4.78792Z" fill="#C91F46"/>
<path d="M76.2031 83.4688C76.2031 86.7812 75.3125 88.7969 73.5312 89.5156C71.75 90.2031 67.9688 90.5469 62.1875 90.5469H57.7812L56.3281 90.5H50.5156C43.1406 90.5 38.7812 90.3594 37.4375 90.0781C36.0938 89.7656 35.4219 89.1094 35.4219 88.1094C35.4219 85.4531 37.1406 82.2344 40.5781 78.4531C42.2969 76.5781 46.5 72.4375 53.1875 66.0312C59.9062 59.625 63.8594 55.6562 65.0469 54.125C68.4844 49.6562 70.2031 45.6719 70.2031 42.1719C70.2031 39.8281 69.4219 38.125 67.8594 37.0625C66.3281 36 64.4375 35.4688 62.1875 35.4688C59.9688 35.4688 57.375 36.7344 54.4062 39.2656C51.4688 41.7656 49.0938 43.0156 47.2812 43.0156C45.1562 43.0156 44.0938 41.5781 44.0938 38.7031C44.0938 35.8281 46.3125 32.9688 50.75 30.125C55.1875 27.2812 60.0312 25.8594 65.2812 25.8594C70.5625 25.8594 74.7031 27.1563 77.7031 29.75C80.7344 32.3438 82.25 35.5156 82.25 39.2656V40.6719C82.25 45.9219 79.9688 51.4375 75.4062 57.2188C73.4375 59.7188 69.1406 63.9219 62.5156 69.8281C55.9219 75.7344 52.625 79.0469 52.625 79.7656C52.625 80.4844 54.7031 80.8438 58.8594 80.8438L71.4219 80.4688C74.6094 80.4688 76.2031 81.4688 76.2031 83.4688Z" fill="#530517"/>
</svg>
