<svg width="320" height="368" viewBox="0 0 320 368" fill="none" xmlns="http://www.w3.org/2000/svg">
<path d="M10 28C10 18.0589 18.0589 10 28 10H292C301.941 10 310 18.0589 310 28V340C310 349.941 301.941 358 292 358H28C18.0589 358 10 349.941 10 340V28Z" fill="#FFC659"/>
<path d="M301.688 95.3125C301.699 87.625 301.679 79.9375 301.562 72.25C301.442 64.3014 301.605 56.3223 302.125 48.375C302.575 41.4588 302.007 34.6977 300.375 28.0625C299.757 25.5508 298.835 24.1453 297.938 23.3125C297.046 22.4951 295.593 21.7048 293.188 21.375C286.112 20.4059 278.862 19.8667 271.438 19.6875C263.789 19.504 256.086 19.4394 248.438 19.5C240.464 19.5624 232.47 19.2406 224.5 18.5625C217.081 17.9321 209.666 17.7305 202.25 17.9375C194.602 18.152 186.899 18.4788 179.25 18.9375C171.198 19.4192 163.115 19.3879 155.062 18.875C151.333 18.6379 147.604 18.5103 143.875 18.4375H120.625C116.625 18.3408 112.624 18.1682 108.625 17.875C101.003 17.3158 93.3715 16.8735 85.75 16.625C78.487 16.3883 71.2137 16.8408 63.9375 17.875C55.6571 19.0524 47.3558 19.3127 39.0625 18.75C31.6079 18.244 27.3665 18.8473 25.375 19.625C25.3457 19.6365 23.4532 20.5795 21.625 27C19.8725 33.1597 18.9786 39.7413 19.0625 46.75C19.1562 54.6041 19.1051 62.4587 18.8125 70.3125C18.5182 78.2054 17.9589 86.1091 17.1875 94C16.4933 101.1 16.6379 108.203 17.625 115.312C18.7499 123.407 19.2769 131.52 19.25 139.625C19.2231 147.344 19.2523 155.093 19.25 162.812C19.2477 170.725 18.9268 178.651 18.375 186.562C17.8424 194.193 17.4864 201.87 17.25 209.5C17.0143 217.116 16.925 224.759 17 232.375C17.0752 239.957 17.3333 247.542 17.8125 255.125C18.3179 263.124 18.4218 271.125 18.125 279.125C17.8375 286.875 17.5265 294.625 17.1875 302.375C16.8506 310.076 16.5564 317.799 16.3125 325.5C16.1237 331.587 17.7002 336.741 20.875 341.25C23.7328 345.301 27.4398 347.469 32.5625 347.938C39.6697 348.587 46.9416 348.833 54.375 348.688C62.1189 348.535 69.881 348.358 77.625 348.25C85.5789 348.139 93.5478 348.371 101.5 348.938C108.869 349.463 116.257 349.537 123.625 349.062C131.475 348.556 139.337 348.216 147.188 348.062C155.293 347.904 163.403 348.315 171.5 349.312C178.972 350.235 186.471 350.759 193.938 350.938C201.539 351.119 209.149 351.133 216.75 350.938C224.646 350.735 232.542 350.778 240.438 351.062C248.123 351.34 255.814 351.547 263.5 351.688C270.87 351.822 278.262 351.49 285.625 350.625C291.126 349.974 294.301 347.681 296.375 344.062C299.217 339.103 301.002 333.368 301.562 326.688C302.197 319.081 302.669 311.418 302.938 303.812C303.2 296.355 303.082 288.896 302.625 281.438C302.148 273.674 301.743 265.888 301.375 258.125C300.992 250.047 301.142 241.95 301.812 233.875C302.409 226.697 302.215 219.498 301.312 212.312C300.26 203.931 300.29 195.508 301.312 187.125C302.229 179.604 302.821 172.08 303.188 164.562C303.549 157.135 303.546 149.679 303.062 142.25C302.553 134.419 302.192 126.581 302 118.75C301.809 110.948 301.676 103.115 301.688 95.3125ZM318 118.312C318.186 125.932 318.504 133.568 319 141.188C319.523 149.223 319.578 157.276 319.188 165.312C318.803 173.23 318.152 181.149 317.188 189.062C316.325 196.137 316.3 203.237 317.188 210.312C318.228 218.594 318.438 226.899 317.75 235.188C317.137 242.575 316.962 249.99 317.312 257.375C317.677 265.062 318.153 272.751 318.625 280.438C319.116 288.426 319.22 296.448 318.938 304.438C318.66 312.289 318.155 320.15 317.5 328C316.768 336.756 314.427 344.808 310.312 352C305.415 360.546 297.361 365.335 287.438 366.5C279.37 367.446 271.274 367.835 263.188 367.688C255.417 367.546 247.646 367.343 239.875 367.062C232.317 366.79 224.746 366.744 217.188 366.938C209.323 367.14 201.427 367.125 193.562 366.938C185.564 366.746 177.556 366.174 169.562 365.188C162.206 364.28 154.848 363.919 147.5 364.062C139.896 364.211 132.292 364.51 124.688 365C116.593 365.522 108.469 365.514 100.375 364.938C92.8738 364.403 85.3745 364.145 77.875 364.25C70.1567 364.358 62.4058 364.536 54.6875 364.688C46.6765 364.844 38.7874 364.582 31.0625 363.875C21.3492 362.982 13.4146 358.389 7.8125 350.438C2.53118 342.937 0.08363 334.36 0.375 325C0.620827 317.238 0.910498 309.45 1.25 301.688C1.58751 293.972 1.90125 286.216 2.1875 278.5C2.4631 271.044 2.34622 263.582 1.875 256.125C1.37756 248.252 1.07755 240.374 1 232.5C0.922916 224.667 1.00755 216.833 1.25 209C1.49254 201.174 1.89166 193.326 2.4375 185.5C2.96443 177.951 3.24777 170.36 3.25 162.812C3.25229 155.083 3.22311 147.354 3.25 139.625C3.2756 132.273 2.77329 124.863 1.75 117.5C0.59295 109.157 0.433429 100.789 1.25 92.4375C1.98938 84.8733 2.53014 77.3122 2.8125 69.75C3.09574 62.1528 3.15321 54.5344 3.0625 46.9375C2.96136 38.4905 4.04636 30.37 6.25 22.625C8.38091 15.1416 12.1412 7.65066 19.5 4.75C24.9151 2.62671 32.1303 2.27095 40.125 2.8125C47.2974 3.29936 54.5022 3.0217 61.6875 2C69.8677 0.837652 78.0566 0.421024 86.25 0.6875C94.0919 0.943082 101.971 1.29974 109.812 1.875C113.543 2.14825 117.27 2.34715 121 2.4375H144.125C148.12 2.51461 152.131 2.6831 156.125 2.9375C163.521 3.40785 170.917 3.38072 178.312 2.9375C186.122 2.46917 193.94 2.15679 201.75 1.9375C209.785 1.71218 217.843 1.94173 225.875 2.625C233.355 3.26135 240.836 3.55853 248.312 3.5C256.131 3.43801 263.994 3.49997 271.812 3.6875C279.824 3.88044 287.677 4.50726 295.375 5.5625C300.363 6.24646 304.966 8.09581 308.688 11.5C312.398 14.9007 314.73 19.3409 315.938 24.25C317.964 32.494 318.683 40.9029 318.125 49.4375C317.633 56.9559 317.448 64.4829 317.562 72C317.68 79.7698 317.699 87.5427 317.688 95.3125C317.676 102.971 317.813 110.654 318 118.312Z" fill="#F4AB1E"/>
</svg>
