<svg width="323" height="214" viewBox="0 0 323 214" fill="none" xmlns="http://www.w3.org/2000/svg">
<path d="M7 7H316V207H7V7Z" fill="#FFC659"/>
<path d="M98.6562 0.40625C101.365 0.306599 104.061 0.666143 106.719 1.4375L110.125 2.4375L113.5 3.40625C115.53 3.99535 117.559 4.40328 119.562 4.59375L126.375 5.21875C128.38 5.40853 130.4 5.39347 132.406 5.1875L135.781 4.84375L139.188 4.5C141.591 4.25316 144 4.12034 146.406 4.125L149.812 4.15625H153.219C155.138 4.15909 157.082 3.89994 159.031 3.40625L162.406 2.5625L165.812 1.6875C168.854 0.917418 171.923 1.06632 174.906 2.09375L178.312 3.28125L181.688 4.4375C183.525 5.07027 185.336 5.36342 187.094 5.3125L190.469 5.1875L193.875 5.09375C196.101 5.02926 198.336 4.94058 200.562 4.8125L207.375 4.4375C209.485 4.31587 211.602 4.05598 213.719 3.6875L217.125 3.09375L220.5 2.5C223.02 2.06132 225.563 1.87946 228.094 1.9375L231.5 2L234.906 2.09375C237.411 2.15208 239.916 2.42843 242.406 2.9375L245.812 3.625L249.188 4.34375C250.87 4.68757 252.553 4.63429 254.25 4.21875L257.656 3.40625L261.062 2.5625C263.529 1.95934 266.017 1.56964 268.5 1.375L271.875 1.09375L275.281 0.8125C278.172 0.585891 281.033 1.0429 283.812 2.09375L290.625 4.65625C292.134 5.22554 293.542 5.31154 294.969 4.9375L301.781 3.125C304.787 2.33232 307.797 2.43917 310.656 3.5625L313.656 4.71875L316.625 5.90625C318.284 6.55818 319.847 7.67791 320.812 9.4375C321.754 11.1601 321.866 13.0364 321.625 14.75L320.688 21.5625C320.375 23.7779 320.101 26.0041 319.875 28.2188L319.531 31.5938L319.188 35C318.998 36.8567 319.091 38.7192 319.469 40.5938L320.844 47.4062C321.409 50.2028 321.396 53.0181 320.812 55.8125L319.375 62.625C318.949 64.6632 318.723 66.6948 318.656 68.7188L318.531 72.125L318.438 75.5312C318.376 77.4211 318.558 79.3285 319.031 81.25L319.875 84.6562L320.719 88.0312C321.398 90.7877 321.526 93.589 321.125 96.375L320.656 99.7812L320.156 103.156C319.9 104.933 319.97 106.733 320.375 108.531L321.125 111.906L321.906 115.312C322.601 118.399 322.325 121.495 321.156 124.469L319.812 127.875L318.469 131.25C317.762 133.047 317.48 134.786 317.531 136.469L317.625 139.875L317.75 143.281C317.817 145.447 317.961 147.614 318.188 149.781L318.875 156.594C319.122 158.958 319.285 161.322 319.344 163.688L319.531 170.5C319.585 172.697 319.682 174.896 319.844 177.094L320.344 183.906C320.536 186.515 320.409 189.124 319.938 191.719L318.688 198.531C318.442 199.874 318.079 201.19 317.5 202.344C316.92 203.498 315.998 204.754 314.531 205.531L313.031 206.312L311.562 207.094C309.897 207.975 307.634 208.424 305.281 208.719L301.906 209.156L298.5 209.594C295.994 209.907 293.479 209.993 290.969 209.844L287.562 209.625L284.156 209.438C282.099 209.315 280.028 209.333 277.969 209.531L274.594 209.875L271.188 210.188C268.691 210.428 266.185 210.474 263.688 210.281L260.281 210L256.906 209.75C254.712 209.581 252.506 209.459 250.312 209.406L246.906 209.344L243.5 209.25C241.315 209.197 239.123 209.203 236.938 209.281L233.531 209.406L230.156 209.531C227.973 209.61 225.778 209.761 223.594 209.969L216.781 210.594C214.272 210.832 211.759 210.851 209.25 210.625L202.438 210C200.302 209.808 198.166 209.736 196.031 209.75L192.625 209.781H189.219C187.088 209.795 184.945 209.929 182.812 210.156L179.438 210.5L176.031 210.875C173.577 211.137 171.113 211.216 168.656 211.125L161.844 210.875C159.584 210.791 157.323 210.703 155.062 210.625L151.656 210.531L148.25 210.406C146.242 210.338 144.235 210.473 142.219 210.781L138.812 211.281L135.406 211.812C132.547 212.251 129.684 212.036 126.875 211.219L123.469 210.25L120.094 209.25C118.617 208.82 117.162 208.843 115.656 209.344L112.25 210.469L108.875 211.594C106.275 212.459 103.625 212.978 100.969 213.094L97.5625 213.25L94.1875 213.375C91.4337 213.495 88.6898 213.128 86 212.281L79.1875 210.156C77.2165 209.537 75.2729 209.161 73.3438 209.031L69.9375 208.781L66.5312 208.562C64.5545 208.43 62.5775 208.523 60.5938 208.812L53.7812 209.812C51.4597 210.152 49.135 210.419 46.8125 210.656L43.4062 211L40 211.375C37.2553 211.654 34.519 211.416 31.8125 210.719L25 208.969C23.2169 208.508 21.4654 208.396 19.7188 208.625L16.3125 209.062L12.9062 209.531C11.3404 209.734 9.45211 209.67 7.75 208.719C5.88311 207.672 4.89597 205.928 4.53125 204.156L4 201.5L3.4375 198.844C3.05002 196.956 2.727 194.837 2.4375 192.5L2 189.094L1.59375 185.688C1.29366 183.262 1.15432 180.835 1.15625 178.406V171.594C1.15903 168.962 1.51247 166.344 2.21875 163.75L3.15625 160.344L4.0625 156.938C4.56717 155.08 4.76529 153.251 4.65625 151.438L4.4375 148.031L4.25 144.625C4.12812 142.613 3.81292 140.594 3.3125 138.562L1.625 131.75C0.993205 129.183 0.682381 126.596 0.6875 124V120.594L0.71875 117.188C0.723741 114.949 0.696172 112.707 0.65625 110.469L0.59375 107.062L0.53125 103.688C0.485902 101.145 0.704524 98.5906 1.1875 96.0625L2.5 89.25C2.85871 87.3764 2.92338 85.5157 2.71875 83.6562L1.96875 76.8438C1.69097 74.3372 1.63362 71.8216 1.8125 69.3125L2.0625 65.9062L2.3125 62.5312C2.46738 60.3588 2.52867 58.1717 2.53125 56V52.5938L2.5625 49.1875C2.56571 46.7364 2.743 44.2891 3.09375 41.8438L3.5625 38.4375L4.0625 35.0312C4.35176 33.0169 4.4408 31.0075 4.34375 29L4.03125 22.1875C3.92285 19.9539 3.79447 17.8918 3.65625 16L3.21875 10.1875C3.09464 8.47689 3.45533 6.29008 5.28125 4.71875C6.94582 3.28694 9.03968 3.08405 10.5938 3.15625L14 3.3125L17.375 3.46875C19.3 3.55819 21.2435 3.42705 23.1875 3.03125L26.5938 2.3125L30 1.625C32.7751 1.05848 35.5653 1.05933 38.3438 1.59375L45.1562 2.90625C46.9764 3.25723 48.783 3.27396 50.5938 3L54 2.5L57.4062 1.96875C59.9955 1.57672 62.5918 1.52431 65.1875 1.78125L68.5938 2.125L72 2.4375C73.9365 2.62925 75.8707 2.59253 77.8125 2.3125L81.2188 1.8125L84.625 1.34375C87.0283 0.995777 89.4363 0.776837 91.8438 0.6875L95.25 0.5625L98.6562 0.40625ZM10.5312 56C10.5285 58.3603 10.4495 60.7342 10.2812 63.0938L10.0312 66.5L9.8125 69.875C9.66819 71.8992 9.68164 73.942 9.90625 75.9688L10.3125 79.375L10.6875 82.75C10.9833 85.4189 10.8519 88.0953 10.3438 90.75L9.71875 94.1562L9.0625 97.5625C8.68056 99.5602 8.49588 101.548 8.53125 103.531L8.65625 110.344C8.69697 112.632 8.72388 114.93 8.71875 117.219L8.6875 120.625V124C8.68317 125.931 8.92319 127.884 9.40625 129.844L11.0938 136.656C11.7062 139.145 12.0676 141.648 12.2188 144.156L12.6562 150.969C12.8183 153.682 12.5079 156.393 11.7812 159.062L10.875 162.438L9.9375 165.844C9.41092 167.778 9.15902 169.697 9.15625 171.594V178.406C9.15432 180.505 9.2709 182.616 9.53125 184.719L9.9375 188.094L10.375 191.5C10.6458 193.688 10.9444 195.611 11.2812 197.25L11.8438 199.906L12.1562 201.531L15.2812 201.125L18.6875 200.688C21.4715 200.324 24.2524 200.51 27 201.219L33.8125 202.969C35.6275 203.436 37.4106 203.586 39.1875 203.406L46 202.719C48.2069 202.494 50.4172 202.198 52.625 201.875L56.0312 201.375L59.4062 200.875C61.9493 200.503 64.5124 200.423 67.0625 200.594L73.875 201.031C76.467 201.205 79.0436 201.698 81.5938 202.5L85 203.594L88.4062 204.656C90.2431 205.233 92.0393 205.482 93.8125 205.406L100.625 205.094C102.502 205.012 104.41 204.675 106.344 204.031L109.75 202.875L113.125 201.75C116.15 200.743 119.258 200.675 122.312 201.562L125.719 202.562L129.125 203.531C130.846 204.032 132.517 204.161 134.188 203.906L137.594 203.375L141 202.875C143.507 202.491 146.017 202.32 148.531 202.406L155.344 202.656C157.612 202.734 159.888 202.791 162.156 202.875L165.562 203L168.938 203.125C171.012 203.202 173.11 203.159 175.188 202.938L178.562 202.562L181.969 202.188C184.367 201.932 186.787 201.797 189.188 201.781H192.562L195.969 201.75C198.363 201.734 200.763 201.816 203.156 202.031L209.969 202.656C211.987 202.838 214.013 202.848 216.031 202.656L219.406 202.312L222.812 202C225.153 201.777 227.502 201.616 229.844 201.531L236.656 201.281C239 201.197 241.344 201.194 243.688 201.25L247.094 201.344L250.5 201.406C252.834 201.463 255.167 201.602 257.5 201.781L264.312 202.281C266.344 202.437 268.373 202.414 270.406 202.219L273.812 201.906L277.219 201.562C279.686 201.325 282.156 201.291 284.625 201.438L288.031 201.656L291.438 201.844C293.456 201.964 295.477 201.909 297.5 201.656L304.312 200.781C306.472 200.511 307.494 200.197 307.812 200.031L309.281 199.219L310.344 198.625C310.461 198.357 310.667 197.889 310.812 197.094L312.062 190.281C312.414 188.347 312.516 186.421 312.375 184.5L311.875 177.688C311.703 175.358 311.589 173.018 311.531 170.688L311.438 167.312L311.344 163.906C311.29 161.746 311.164 159.568 310.938 157.406L310.562 154.031L310.219 150.625C309.972 148.264 309.823 145.894 309.75 143.531L309.625 140.125L309.531 136.719C309.444 133.875 309.959 131.073 311.031 128.344L313.719 121.531C314.327 119.979 314.415 118.534 314.094 117.094L313.344 113.688L312.562 110.281C311.947 107.546 311.853 104.787 312.25 102.031L312.719 98.625L313.219 95.2188C313.468 93.4781 313.373 91.7388 312.938 89.9688L312.094 86.5625L311.281 83.1562C310.638 80.5482 310.353 77.9209 310.438 75.2812L310.531 71.875L310.656 68.4688C310.738 65.9663 311.042 63.4568 311.562 60.9688L312.25 57.5938L312.969 54.1875C313.331 52.4541 313.349 50.7312 313 49L311.625 42.1875C311.089 39.5336 310.946 36.8593 311.219 34.1875L311.562 30.7812L311.906 27.4062C312.143 25.0882 312.423 22.7549 312.75 20.4375L313.25 17.0312L313.719 13.6562V13.3438L310.719 12.1875L307.719 11C306.594 10.5598 305.336 10.4729 303.812 10.875L300.406 11.75L297.031 12.6562C293.931 13.4746 290.799 13.2973 287.781 12.1562L284.375 10.875L281 9.5625C279.247 8.89963 277.548 8.68383 275.906 8.8125L272.5 9.0625L269.125 9.34375C267.079 9.5041 265 9.83885 262.938 10.3438L259.562 11.1562L256.156 12C253.32 12.6942 250.445 12.739 247.594 12.1562L244.188 11.4688L240.812 10.7812C238.778 10.3654 236.739 10.1407 234.719 10.0938L231.312 10L227.906 9.9375C225.905 9.89172 223.888 10.0245 221.875 10.375L218.5 10.9688L215.094 11.5625C212.683 11.9823 210.261 12.2666 207.844 12.4062L204.438 12.5938L201.031 12.8125C198.73 12.945 196.427 13.027 194.125 13.0938L190.719 13.1875L187.312 13.3125C184.538 13.3924 181.789 12.9283 179.094 12L175.688 10.8438L172.312 9.65625C170.763 9.12255 169.272 9.06043 167.781 9.4375L160.969 11.1875C158.394 11.8381 155.793 12.1614 153.188 12.1562H149.781L146.406 12.125C144.279 12.1208 142.129 12.2501 140 12.4688L136.594 12.8125L133.219 13.1562C130.692 13.4157 128.153 13.4266 125.625 13.1875L122.219 12.875L118.812 12.5312C116.291 12.2918 113.776 11.8177 111.281 11.0938L107.875 10.0938L104.5 9.125C102.626 8.58133 100.761 8.33884 98.9375 8.40625L95.5625 8.53125L92.1562 8.65625C90.0358 8.73465 87.9058 8.94265 85.7812 9.25L82.375 9.75L78.9688 10.2188C76.3885 10.5921 73.8043 10.6616 71.2188 10.4062L64.4062 9.71875C62.4731 9.52703 60.5333 9.5809 58.5938 9.875L55.1875 10.4062L51.8125 10.9062C49.0965 11.3181 46.3629 11.2705 43.6562 10.75L36.8438 9.4375C35.0931 9.09982 33.3478 9.11055 31.5938 9.46875L28.1875 10.1562L24.8125 10.8438C22.228 11.3715 19.6037 11.5897 17 11.4688L13.625 11.3125L11.2812 11.1875L11.4062 12.5L11.625 15.4062C11.7691 17.3772 11.8887 19.5185 12 21.8125L12.1875 25.2188L12.3438 28.5938C12.466 31.1136 12.329 33.6432 11.9688 36.1562L11.5 39.5625L11 42.9688C10.701 45.0505 10.5649 47.1428 10.5625 49.2188L10.5312 52.5938V56Z" fill="#F4AB1E"/>
</svg>
